<?xml version="1.0" encoding="utf-8"?>
<!-- Generator: Adobe Illustrator 18.1.1, SVG Export Plug-In . SVG Version: 6.00 Build 0)  -->
<svg version="1.1" id="Layer_1" xmlns="http://www.w3.org/2000/svg" xmlns:xlink="http://www.w3.org/1999/xlink" x="0px" y="0px"
	 width="1000px" height="1000px" viewBox="0 0 1000 1000" enable-background="new 0 0 1000 1000" xml:space="preserve">
<g>
	<path fill="#39241A" d="M557.2,757.6c3.1-0.3,6.9-1.1,10.6-2.4c1.2-0.4,2.4-1,3.6-1.2c3.1-0.6,5.2,1.8,4.4,4.9
		c-0.9,3.3-3.3,5.2-6.1,6.7c-4.5,2.4-9.4,3-14.3,4c-11.4,2.3-22.8,4.7-34.2,6.6c-7.1,1.2-14.1,2.9-21.1,4.6c-4,1-8.1,1.7-12.2,1.8
		c-10.1,0.2-20.1,1.6-30.2,1.2c-6.4-0.3-12.7-1.5-18.9-2.7c-16.3-3.3-32.8-5.2-49-8.6c-17.1-3.7-34.5-7-51.1-12.8
		c-4.7-1.6-9.3-3.5-13.4-6.4c-5.7-3.9-11.9-6.6-18.3-8.8c-5.7-2-10.8-5-15.3-9.1c-4.6-4.2-9.6-8-14.9-11.3
		c-5.1-3.2-9.1-7.3-11.7-12.6c-2.9-6-7.2-10.9-11.5-15.8c-6.2-7.1-11.1-15-14.1-24c-2.7-8-6.4-15.4-10.1-23
		c-3.3-6.9-5.9-13.9-6.3-21.8c-0.4-7.5-2.4-14.8-3.2-22.3c-1.2-10.6-2.5-21.1-2-31.8c0.1-3.2,0.9-6.4,1.3-9.7
		c1.2-11.1,2.5-22.3,3.5-33.4c1.3-13.2,5.2-25.5,10.9-37.4c2.7-5.8,5-11.7,6.9-17.8c2.1-6.9,4.9-13.6,8.2-20
		c1.8-3.4,3.9-6.6,6.5-9.4c3.2-3.6,6.1-7.5,8-12c3.7-8.7,9.9-15.5,16.3-22.1c1.6-1.6,3.3-3.2,4.6-5c5.6-7.8,12.7-14.1,19.8-20.4
		c4.9-4.3,9.4-9.1,14.2-13.5c7.3-6.7,14.8-13.1,23.2-18.6c10.8-7,21.5-14.3,31.2-22.9c1.6-1.4,3.4-2.6,5.1-3.8
		c6.2-4.1,11.6-9.1,17.4-13.6c8.6-6.8,17.8-12.6,28.1-16.6c2.6-1,5.2-2.3,7.7-3.7c10.8-6.2,22.6-10.3,33.9-15.7
		c4.2-2,8.9-2.8,13.5-3.7c7.1-1.3,14.1-3,21-5.3c7.2-2.5,14.7-3,22.3-2.3c6,0.5,11.9-0.3,17.8-0.8c10.3-0.9,20.6-2,31-0.5
		c6.1,0.9,12.2-0.6,18.2-0.8c5.3-0.2,10.5,0,15.7,0.7c3.6,0.5,7.4,0.7,11,0.3c9.2-0.9,18,1.1,26.9,2.6c11.1,1.9,21.7,5.3,32.1,9.5
		c2.7,1.1,5.7,1.6,8.6,2.4c6,1.6,11.3,4.4,15.6,9.1c3.1,3.4,6.7,6.1,10.7,8.4c10.6,6.1,18.5,14.8,24.6,25.4c0.7,1.2,1.4,2.5,1.8,3.8
		c2.1,6.8,5.5,12.7,10.1,18.1c7.1,8.2,10.7,18,12,28.6c0.6,4.3,1.7,8.3,3.4,12.2c4,9.2,6.7,18.6,7.5,28.7c0.4,4.9,1.7,9.8,3,14.6
		c2.5,9.6,3.2,19.2,1.3,29c-0.7,3.9-0.5,7.9-0.1,11.9c0.8,9.3,0.1,18.4-2.6,27.3c-5.5,17.9-11,35.7-15.8,53.8
		c-1.2,4.5-3.1,8.9-6.1,12.5c-5.8,7.2-10.8,14.9-16,22.5c-5.9,8.6-13,16.1-20.5,23.3c-7.8,7.5-14.8,15.7-21.7,23.9
		c-3.7,4.4-8,8.1-12.5,11.5c-7.7,5.7-14.7,12.1-21.7,18.4c-5.8,5.2-12.4,9-19.7,11.6c-7,2.5-13.6,5.6-20,9.4c-5.3,3.2-11,5.4-17,6.6
		c-7.3,1.4-14.3,3.5-21.3,5.8c-10.2,3.2-20.6,5.1-31.2,6.1c-3.2,0.3-6.5,0.3-9.7-0.1c-7.4-0.8-14.7-0.3-22.1,0.5
		c-14.3,1.6-28.6,1-42.9,0.1c-6.4-0.4-12.7,0.5-19.1,0.9c-3,0.2-6,0.3-8.8-0.6c-8-2.4-16.2-2.9-24.4-3.4c-6.2-0.4-12.4-0.9-18.7-1.2
		c-8.7-0.5-16.7-3.1-24.3-7.2c-3.2-1.7-6.5-2.8-10-3.4c-7.7-1.3-14.7-4.1-20.9-9c-3.3-2.6-7.1-4.6-11-6.3
		c-6.7-2.9-12.8-6.9-17.5-12.6c-6.9-8.3-14-16.3-22.1-23.5c-7.1-6.3-10.5-14.7-12.3-23.8c-1.4-7.1-2.4-14.2-4.5-21.2
		c-2.4-8.1-1.8-16.3-0.6-24.4c1.9-13.5,3.7-26.9,5.9-40.4c1.3-7.8,3.3-15.5,7.1-22.6c5.3-10,10.8-19.9,14.2-30.8
		c1.1-3.6,2.7-7.2,4.8-10.4c1.2-1.8,2.1-3.8,3.5-5.3c4.1-4.3,6.7-9.5,9.2-14.7c1.3-2.7,2.8-5.3,4.7-7.6c5.4-6.9,10.8-13.9,16.3-20.8
		c4.2-5.4,9.1-10.1,14.6-14.2c11.5-8.6,22.5-17.8,33.7-26.6c5.3-4.2,10-9.2,15.9-12.7c4.3-2.6,8.6-5,13.3-6.6
		c6.3-2.1,11.8-5.5,17.2-9.2c5-3.4,10.4-5.7,16.1-7.6c11.7-3.8,23.8-6.5,35.8-9.1c9.6-2.1,18.9-5.2,28.2-8c10.3-3.1,20.8-4.3,31.4-5
		c3.8-0.2,7.6-0.5,11.4-1c4.7-0.6,9.3-0.2,14,0.2c8.2,0.8,16.4,1.5,24.6,1.7c10.7,0.3,20.7,3.4,29.9,8.8c9.6,5.6,19.2,11,29.5,15.1
		c4.7,1.9,8.6,4.9,11.8,8.8c2.4,2.9,5.2,5.3,8.4,7.1c5.3,3,9.2,7.2,12.4,12.5c4.3,7.3,8.3,14.8,13.5,21.6c5.9,7.8,7.6,17,6.7,26.6
		c-0.5,5.1-1,10.1-0.7,15.2c0.5,6.3-0.8,12.5-2.1,18.5c-3,13.6-5.6,27.2-8.3,40.8c-2.3,11.6-5,23.3-11,33.8c-2.7,4.8-6,9.3-8.8,14
		c-6.3,10.6-12,21.5-19,31.7c-2.3,3.4-4.7,6.8-8,9.3c-7.9,5.6-14.9,12.3-21.7,19.1c-4,4-8.8,6.5-14.1,8.5c-4.6,1.7-9.3,3.6-13.3,6.5
		c-7.9,5.8-16.8,9.3-25.7,13c-6.3,2.6-12.9,4.1-19.7,5c-11.2,1.5-22.4,3.6-33.5,5.6c-12.5,2.2-25,4.8-37.8,5.6
		c-12.2,0.8-24.1-0.7-35.7-4.1c-11.4-3.3-22.9-6.3-34.2-10.1c-15.9-5.3-27-15.7-34.2-30.5c-3.4-7-6.8-14-10.6-20.8
		c-6.4-11.2-8.4-23.5-9.2-36.3c-0.9-13.2,1.3-25.9,3.1-38.8c0.8-5.3,1.3-10.7,2.7-15.9c2.1-7.9,5.8-15.1,10.2-21.8
		c3.1-4.7,5.9-9.7,8.1-14.9c2.4-5.7,6.7-10.2,10.6-14.8c3.7-4.4,7.9-8.6,11.7-12.9c2.4-2.7,4.8-5.2,7.7-7.3c5.1-3.7,9.8-7.8,14.4-12
		c3.8-3.4,8-6.3,12.9-8.2c6.2-2.4,11.6-5.9,16.5-10.3c6.4-5.7,13.7-9.4,21.8-11.8c7.7-2.4,15.1-5.7,23.2-6.8
		c7.9-1.1,15.7-2.2,23.7-1.3c4.6,0.6,8.8,2.3,13.2,3.4c9.8,2.4,19.4,5.2,28.9,8.5c6.5,2.3,12,5.7,16.5,10.8c3,3.3,6.2,6.1,10.1,8.3
		c5.8,3.2,9.4,8.5,12.8,13.9c1,1.6,1.8,3.2,2.7,4.9c2.9,5.6,6,11.1,10,16.2c6.2,7.9,9.4,17.1,8.7,27.3c-0.2,3,0.7,5.9,1.1,8.8
		c0.9,8.7-0.1,17.1-4,24.8c-4.6,9.2-8.8,18.7-14.3,27.5c-3.3,5.3-5.9,11-9.7,16c-2.9,3.8-6.2,7.1-10,9.7c-2.8,2-5.5,4-7.7,6.6
		c-4.9,5.8-10.6,10.6-17.1,14.5c-6.1,3.7-12,7.5-18,11.3c-5.6,3.6-11.8,5.5-18.5,5.6c-5.4,0.1-10.8,0-16.2-0.1
		c-8-0.2-15.2-3.1-21.9-7.4c-7.5-4.9-15.3-9.3-21.7-15.6c-7.1-7-13.9-14.4-18.2-23.4c-4.7-10-5.8-20.7-3.4-31.5
		c1.2-5.4,2.7-10.7,3.9-16.1c2.8-12.6,8.6-23.7,17-33.3c4.9-5.5,9.2-11.5,15.4-15.8c8.2-5.7,17.1-10,26.7-12.9
		c2.3-0.7,4.5-1.5,6.7-2.6c6-3,12.3-5.1,19.2-4.9c4.1,0.1,7.8,1.1,11.2,3.5c1.3,0.9,2.7,1.7,3.8,2.7c3.3,3,7.1,5.2,11.2,6.7
		c9.2,3.3,15.7,9.4,19.4,18.5c2.7,6.6,5.4,13,5.1,20.4c-0.2,5.2-1.4,9.8-4.1,14.1c-3.8,6-8.4,11.4-12.1,17.5
		c-1.9,3.1-4.9,5.1-8.2,6.5c-7.3,3.3-14.9,6.1-21.9,10.2c-3.9,2.3-7.9,1.4-11.9,0.1c-1.5-0.5-2.9-1.2-4.3-1.9
		c-10.8-4.6-15.4-13.3-16-24.5c-0.3-7.5,4.3-14.7,11.1-17.7c4.2-1.9,8.4-0.4,10.2,4c1.1,2.7,2.2,5.1,4.7,6.9c1.6,1.1,1.9,3,1.9,5
		c0,4.5,3,6.5,7.3,5.3c4.3-1.2,7.6-3.6,9.9-7.4c2.9-4.7,5.8-9.4,7.5-14.7c0.9-2.9,1.2-5.8,1.1-8.8c-0.1-3-1.1-5.6-3.3-7.6
		c-2.7-2.5-5.5-4.9-8.6-7c-14.4-9.7-29.1-9.7-43.9-0.8c-5.1,3.1-9.4,7.3-14.1,10.9c-2,1.5-3.4,3.8-4.3,6.2
		c-2.4,6.6-6.2,12.4-10.5,17.9c-2.8,3.6-4.6,7.8-5.7,12.2c-1.5,5.9-3.3,11.8-2.4,18c1.3,9.7,5.3,18.1,11.5,25.6
		c2.3,2.7,4.9,5.1,7.6,7.5c8,7.3,17.7,9.2,28.1,8.1c7.1-0.7,14.1-1.5,21.1-2.4c3.7-0.4,7.1-1.8,10-4.2c5.6-4.6,11.2-9.1,17.1-13.3
		c2.9-2.1,5.3-4.6,7.4-7.6c6.2-8.8,13.4-16.9,19.4-25.8c5.8-8.6,10.6-17.8,13.4-27.8c1.7-6,2.2-12.3,2.7-18.5c0.2-2.3-0.3-4.8-1.4-7
		c-1.9-3.7-3.3-7.5-4.7-11.4c-1.9-5-5.3-9.1-8.6-13.1c-12.4-14.9-27.1-27.2-44.4-35.9c-9.4-4.7-19.8-7-30.4-7
		c-8.4,0-16.5,2.7-24.3,5.8c-7.7,3-15.1,6.6-22.7,9.7c-7.7,3.1-14.6,7.5-21.2,12.4c-2.1,1.5-4.1,3.1-6.4,4.3
		c-7.9,4.2-14.1,10.4-20.7,16.2c-5.9,5.2-10.8,11.3-14.5,18.2c-4.1,7.6-9.4,14.5-14,21.8c-3.9,6.2-6.6,12.7-7,20.2
		c-0.3,6.1-1.5,12.1-2.6,18.1c-1.9,11.2-1.1,22.3,0.3,33.4c0.9,7.3,2.1,14.6,3.2,21.9c0.8,5.1,2.3,10.1,5.6,14.1
		c5,6.2,9.2,13,14.2,19.1c1.8,2.2,3.7,4.3,5.7,6.4c7.5,8.1,17.3,11.2,27.8,12.1c10.6,0.9,21,3.2,31.6,3.9c8,0.6,15.8-0.2,23.7-0.9
		c13.3-1.1,26.4-3.8,39.7-4.5c8-0.4,15.8-1.7,23.2-4.6c2.2-0.9,4.6-1.7,6.5-3.1c10.4-7.7,22.1-13.2,33.3-19.6
		c6.4-3.6,12.4-8,18-12.8c1.7-1.5,3.3-3.1,4.7-4.9c4-5.2,8.6-9.7,13.7-13.9c4.8-4,9-8.6,12.4-13.9c5.8-9,10.7-18.3,14.3-28.4
		c1.2-3.5,2.5-7,4.2-10.2c4.8-9,6.3-18.7,7.5-28.6c1.3-11.3,2.2-22.6,2.8-33.9c0.4-8.2,1.2-16.4,1.7-24.6
		c0.7-10.7-2.3-20.1-9.2-28.4c-6.8-8.1-14-15.7-21.7-22.8c-7.4-6.8-16-12.3-25.7-15.6c-7.2-2.5-14.4-5.2-21.3-8.5
		c-5.9-2.8-12.2-4.6-18.6-5.8c-3.3-0.6-6.8-0.3-10.2-0.6c-4.8-0.4-9.6-0.4-14.4-1.1c-21.8-3-42.9,0.6-63.8,7
		c-7.9,2.4-15.1,6.3-22.8,9.2c-15.5,5.9-29.2,15.7-44.8,21.5c-6,2.2-11.2,6.1-16.4,9.9c-5.1,3.8-10.3,7.5-15.8,10.8
		c-11.6,7-21.6,16-31.5,25.2c-10.6,10-18.2,22-25.8,34.2c-1.3,2.1-2.7,4-4,6c-2.4,3.5-4.3,7.3-5.4,11.5c-1.5,5.5-3.7,10.7-7,15.4
		c-5.5,8-9.4,16.8-11.8,26.2c-2.5,10-6.7,19.3-11.2,28.4c-2.2,4.5-3.6,9.2-4.2,14.1c-1.1,8.8-3.5,17.5-3.2,26.6
		c0.3,9.6,2.5,18.5,8,26.5c2.5,3.6,5,7.2,7.1,11.1c3.3,6.1,7.9,11.1,13.2,15.4c7.2,5.9,13.8,12.6,21.2,18.4c3.9,3,7.9,5.4,12.8,6.5
		c4.8,1.1,9.1,3.1,12.9,6.3c0.8,0.6,1.6,1.2,2.4,1.8c4.9,4,10.4,6.5,16.9,7.3c10.5,1.4,21.1,2.5,31.7,3c1.6,0.1,3.1,0,4.7,0.3
		c12,2.2,24,2,36,0.5c5-0.6,10-0.2,14.8,0.5c8.2,1.3,16.3,1.7,24.5,0c2.4-0.5,4.8-0.5,7.2-0.3c12.1,0.6,24.1-0.2,36.1-1.1
		c3.1-0.2,6.2,0.1,9.4,0c18.1-0.7,35.4-4.2,51.1-13.9c5-3.1,10.5-5.5,15.9-8.2c11.4-5.8,22.2-12.7,31.6-21.4
		c9.1-8.4,18.4-16.5,27.7-24.6c5.3-4.7,10.3-9.8,14.5-15.6c4.4-6.1,9.7-11.5,14.7-17.1c6.8-7.6,11.9-16.1,17-24.9
		c5.9-10.1,8.7-21.2,11-32.4c1.6-7.8,3.3-15.5,5.1-23.2c2.6-10.8,2.9-21.9,3.6-32.9c0.9-14.7-0.7-29.1-3.4-43.5
		c-0.7-3.6-1.6-7.3-1.6-10.9c-0.2-9.1-3.8-17.1-7.8-24.9c-3.5-6.8-6.6-13.8-8.7-21.2c-1.3-4.6-3.8-8.6-6.8-12.2
		c-4.1-5-7.6-10.2-10.8-15.7c-6.3-10.6-15.9-17.6-26.6-23.2c-6.4-3.3-12.9-6.5-19.3-9.9c-10.2-5.5-20.9-9.6-32.5-10.7
		c-6.8-0.6-13.5-1.6-20.3-1.5c-5.1,0.1-10.2-0.8-15.2-1.2c-7.1-0.5-14.2-0.2-21.2,0.4c-9.5,0.7-18.9,0.3-28.4,0.5
		c-13.9,0.4-27.8,0.9-41.6,1.7c-5.2,0.3-10.3,2-15.4,2.9c-10.8,1.9-20.3,7.1-30.3,11.1c-5.6,2.2-11.3,4.6-16.9,6.7
		c-3,1.1-5.4,3.1-7.9,4.9c-6.7,4.9-13.7,9.1-21.3,12.3c-6.1,2.6-11.8,6-16.6,10.9c-4.8,4.9-10.5,8.6-16.6,11.8
		c-3.1,1.6-5.8,3.5-7.8,6.4c-2.8,4-6.8,6.5-11.1,8.5c-9.7,4.5-17.2,11.9-24.9,19c-10.4,9.7-19.8,20.3-29.6,30.6
		c-4.2,4.4-8,9.2-11,14.5c-3.5,6.2-7.7,11.9-12,17.6c-4.4,5.8-7.9,12.1-10,19.1c-1.3,4.2-3.3,8.1-5.7,11.9
		c-2.4,3.7-4.5,7.5-6.7,11.4c-2.7,4.9-4.7,10-5.7,15.5c-1.8,10.5-4.6,20.7-8.3,30.7c-3.1,8.3-3.9,17.1-4.9,25.8
		c-0.6,5.1-0.9,10.2-1.4,15.2c-1.1,12.7,1,25,5,36.8c4.3,12.7,8.3,25.6,12,38.5c1.2,4.4,3.3,8.4,6.2,12c4.3,5.3,8,11,11.2,17
		c4.3,8,9.8,14.9,17.1,20.3c3.3,2.5,6.3,5.3,8.5,8.9c1.7,2.8,4.2,4.5,7.1,5.8c2.7,1.2,5.4,2.5,8.2,3.6c5.7,2.1,10.7,5.2,15.6,8.6
		c3.1,2.2,6.4,4.1,10.1,5.3c8.9,2.9,17.5,6.6,26,10.6c10.1,4.8,20.7,7.6,31.8,8.9c6.6,0.8,13.2,2,19.8,2.9c4.4,0.6,8.7,1.1,13.1,1.2
		c7.3,0.1,14.4,1.1,21.6,1.9c14.5,1.8,28.9,1.3,43.1-2.3c10.6-2.7,21.4-4,32.4-3.6c7.3,0.2,14.3-1.7,21.1-4.5
		c4-1.7,8.2-3.2,12.4-4.3c1.9-0.5,3.6-0.4,5.4,0.2c2.7,0.9,4.3,2.8,4.2,5.2c0,2.3-1.7,4.8-4.1,5.4
		C563.5,755.1,559.9,756.2,557.2,757.6z M659.8,355.3l0-0.2l-0.1,0.1c0.3-0.1,0.3,0.8,0.8,0.2C660.3,355.4,660,355.3,659.8,355.3z
		 M397.7,593.5l-0.1,0.2l0.2,0c-0.4-0.3-0.7-0.5-1.1-0.8c-1.3-3.6-4.1-6.4-6-9.7c-1.8-3.2-3.5-6.4-5.2-9.6
		c1.3,7.2,4.4,13.4,9.4,18.7c0.5,0.5,0.9,1.6,1.9,0.6C396.4,593.9,396.9,593.8,397.7,593.5z M296.8,407c-0.3,0.3-0.6,0.5-0.9,0.8
		c-0.3,0.2-0.6,0.5-1,0.7c0,0.8-1.7,1.6,0.1,2.3c-0.8-1-1.4-0.5-2.1,0.2c-4.3,4.7-8.7,9.3-12.3,14.6c-6.2,9-11.5,18.5-17.9,27.4
		c-4.6,6.4-8.2,13.2-10.8,20.6c-1.1,3.2-2.4,6.4-3.5,9.6c-0.3,0.9-1.1,1.8-0.6,3.1c1.3-1.4,1.6-2.9,2.2-4.3
		c4.5-10.6,9.1-21.1,15.6-30.6c6.9-10,13.9-20,20.8-30c2.5-3.7,5.1-7.5,8.4-10.5c0-0.8,0.9-1.6,0-2.4c0.3,0.1,0.4,0.7,0.9,0.2
		c0.4-0.4,0.1-0.7,0-1C296.8,408.2,296.9,407.7,296.8,407c0.1,0,0.4,0,0.6,0c0-0.2,0-0.3,0-0.5C297.2,406.7,297,406.8,296.8,407z
		 M659.8,553.6c0.1,0,0.2,0,0.4,0c0.1,0,0.1-0.1,0.1-0.2c-0.1,0.1-0.2,0.2-0.4,0.4c-0.6,0-0.9,0.3-0.8,0.9c-1.3,0.2-1.8,1.3-2.6,2.1
		c-7,7-14,14.1-20.9,21.2c-3,3-6.2,5.8-9.5,8.5c-11.3,8.9-24.2,15.2-36.4,22.4c0.1,0.1,0.1,0.2,0.2,0.4c0,0,0,0,0,0
		c0-0.1-0.1-0.3-0.1-0.4c3.5,0.5,6.2-1.5,9-3.1c5.5-3.2,11.1-6.2,16.7-9.2c4.2-2.2,8.5-4.4,12.2-7.7c3.5-3.2,7.2-6.3,11-9.3
		c7.7-6.1,14.4-13.2,19.4-21.7c0.6-1,1.8-1.8,1.1-3.3C660.1,555,659.8,554.1,659.8,553.6z M601,520.4c0.1-0.3,0.2-0.2,0.1,0
		C601.1,520.5,601,520.5,601,520.4l0.1,0.2L601,520.4z M345.2,665.5c0.2-0.3,0.3-0.6-0.2-0.8c0,0-0.1,0.1-0.2,0.1
		C345,665.1,345.2,665.3,345.2,665.5c0.7,0.1,1.4,0.3,2,0.5c0.1,0.2,0.2,0.3,0.3,0.4c0,0-0.2-0.2-0.4-0.3
		C346.7,665.4,345.9,665.6,345.2,665.5z M726.5,573.4c-0.1,0.2-0.3,0.4-0.4,0.6c0-0.1-0.1-0.2-0.1-0.4
		C726,573.3,726.2,573.2,726.5,573.4l0-0.2L726.5,573.4z M700.5,307c1.1,0.6,2.3,1.2,3.7,2c-2-2-2-2-3.8-1.9
		c0.4-0.4,0.6-0.9,0.1-1.3c-1.2-1-2.3-2.2-3.9-2.6c-2.7-3.2-6.3-5.1-9.6-7.5c-3.2-2.4-6.6-4.4-10.5-5.6c-4.1-1.2-8-2.9-12-4.4
		c-4.9-1.9-9.5-4.4-14.9-5.3c15.8,7.5,31.5,14.4,46.4,23.2C697.3,305,699.3,305.4,700.5,307z M554.3,563.1c-2.2,0.2-4.4,0.7-6.8,2.5
		C550.7,565.8,552.8,565,554.3,563.1l0-0.1L554.3,563.1z M647.7,651.3c3.3-0.1,5.6-1.6,8.3-5.8C652.8,647.7,650.2,649.5,647.7,651.3
		c0,0.1,0,0.2,0,0.2C647.7,651.5,647.7,651.4,647.7,651.3z M528.6,431.8c3.9-0.5,7.8,0.2,12.1-1.1
		C536.1,429.2,532.2,429.7,528.6,431.8l0,0.1L528.6,431.8z M329.9,657.1l0-0.2L329.9,657.1c4.3,2.4,8.5,5.3,13.5,6.4
		c-4.1-2.4-8.4-4.5-12.7-6.6C330.5,656.9,330.2,657.1,329.9,657.1z M426,305.4c-4.2,2.8-8.7,4.9-12.6,7.9l0.2,0.1
		c0,0-0.1-0.2-0.1-0.2c0.4,0,0.9,0.2,1.3,0c4.1-1.6,7.6-4.3,11.2-6.7C426.3,306.3,426.2,305.8,426,305.4c0.3-0.2,0.8,0.7,1-0.2
		C426.7,305.2,426.4,305.7,426,305.4z M477.2,470.7c-2.1,4.3-5.6,7.9-6.1,13c2.2-3.7,4.3-7.5,6.2-11.4
		C477.6,471.9,477.2,471.2,477.2,470.7c0.2-0.2,0.5,0.7,0.7-0.1C477.7,470.8,477.5,470.9,477.2,470.7z M574.5,450c0-0.2,0-0.3,0-0.5
		C574.5,449.7,574.5,449.8,574.5,450c3.8,5.2,5,11.2,5.1,17.6c0.3-0.3,0.5-0.4,0.6-0.6c0.2-0.4,0.4-0.8,0.4-1.2
		c0.2-5.7-1.4-10.8-4.7-15.4C575.5,449.9,575.1,449.6,574.5,450z M722.7,329.8l0.2-0.1L722.7,329.8c-0.2-3.2-2.4-5.4-3.9-7.8
		c-2.9-4.5-6.6-8.2-11.3-10.9C713.5,316.7,718.1,323.2,722.7,329.8z M334.7,445.1c2-3,4-6.1,6.1-9.1c2.1-3.2,4.3-6.3,6.4-9.5
		c2-3,5-5.1,6.9-8.7c-0.9,0.3-1.2,0.3-1.3,0.5c-6.5,7.5-12.8,15.1-17.7,23.7C334.5,443,334,444,334.7,445.1
		c-0.2-0.2-0.3-0.6-0.8-0.4C334.2,444.9,334.5,445,334.7,445.1z M603.1,518.4c6.6-9.7,12.8-19.6,16.5-30.8c-0.8,0.9-1.5,1.8-1.8,2.8
		c-1.3,4.3-3.8,7.9-6,11.6c-2.6,4.2-5.3,8.4-7.8,12.7C603.3,515.8,601.9,516.9,603.1,518.4c-0.1-0.1-0.3-0.3-0.4-0.5
		c-0.1,0.1-0.3,0.3-0.4,0.4C602.5,518.3,602.8,518.3,603.1,518.4z M353.8,752.4c0.2,0,0.5-0.2,0.6-0.1c0.2,0.1,0.2,0.4-0.2,0.4
		C354.1,752.7,353.9,752.5,353.8,752.4c-8.7-5.7-18.7-8.5-27.7-13.6c1.3,2,3.2,3.1,5.1,4.3C338.2,747.5,345.8,750.3,353.8,752.4z
		 M398.1,380.6c0.6,0.9,1.3,0.2,1.8,0c3.5-1.9,6.9-3.9,10-6.4c4.7-3.9,9.8-7.2,15.3-9.8c6.1-2.9,12.2-5.9,18.4-8.8c2-1,4-2,4.9-4.5
		c-2.2,0.3-3.8,1.4-5.5,2.4c-4.7,2.9-9.6,5.5-14.5,7.9c-10.9,5.2-21,11.6-30.2,19.4c-0.6,0.1-0.8,0.5-0.9,0.6
		C397.3,381.1,399,382,398.1,380.6z M757,418.9L757,418.9L757,418.9c0.4,3,0.7,6,1.1,8.9c0.7,5.5,0.1,11.1,1,16.5
		c0.8,4.7,0.8,9.3,0.6,13.9c-0.2,5.7-0.8,11.3-0.1,17c0.1,0.9-0.3,2.3,1.4,2.9c0.3-3,0.8-5.9,0.6-8.8c-0.2-3.5-0.2-7,0.3-10.5
		C764.1,445,761.6,431.8,757,418.9z M249.4,665.9c-0.2-0.1-0.4-0.1-0.7-0.2c0,0.1-0.1,0.2,0,0.2c0.3,0.3,0.6,0.1,0.8-0.1
		c-1,2.3,0.6,4.1,1.4,5.9c3.2,7.9,8.7,14.2,14,20.6c4,4.8,7.9,9.6,10.5,15.3c1.1,2.5,2.9,4.6,5.2,6c5.8,3.8,11.1,8.4,16.5,12.7
		c3.1,2.5,6.1,5.1,10,6.2c0.1,0.1,0.2,0.1,0.3,0.2c0.2,0.3,0.3,0.3,0.3,0.1c0-0.1-0.4-0.2-0.6-0.2c-9.7-9.1-19.4-18.2-29.1-27.3
		c-2.9-2.7-5.6-5.6-7.8-8.9C263.2,686.3,256.3,676.1,249.4,665.9z M404.6,763.4c0,0.8,0.6,0.6,1,0.7c11.8,2.4,23.6,4.8,35.4,6.9
		c8.7,1.5,17.3,3,26.1,2.2c6.6-0.7,13.2-1.2,19.9-1.5c5.7-0.3,11.3-1,16.8-2.6c4.1-1.1,8.2-2,12.5-2.6c2.4-0.3,4.8-0.8,6.8-2.1
		c-0.3-0.7-0.8-0.7-1.2-0.7c-9-0.6-17.8,0.2-26.5,2.8c-2.9,0.8-5.7,1.8-8.7,1.8c-10.2,0.3-20.5,1.1-30.6-0.1
		c-12.8-1.6-25.6-2.7-38.5-3.8C413.3,764,408.9,763.7,404.6,763.4z M516.2,277.6c9.8,0.9,19.4,0.1,29.1,0c9.7,0,19.4,0.1,28.9-1.9
		c-9.7-1.6-19.4-2.2-29.1-1.3C535.5,275.2,525.8,276.5,516.2,277.6z M520.5,627.6c-9.3,0.5-18.7,0.9-27.9,2.4
		c-9.3,1.5-18.4-1.3-27.6-0.8C483.8,635.8,502.2,631.7,520.5,627.6z M689.6,486.8c2.5-3.9,8.6-35.6,8-38.9c-1.9,1.4-2.6,3.3-2.9,5.5
		c-0.8,5.9-1.8,11.7-2.7,17.6C691.2,476.3,690.4,481.6,689.6,486.8z M247.2,487.8c-7,14.3-11.6,29-12,38.1
		C240.2,513.2,242.7,500.2,247.2,487.8z M382,484.6c0.6,0,0.7-0.4,0.8-0.8c2.1-6.5,5.4-12.4,9.1-18.2c2.7-4.3,5.5-8.6,8.2-12.9
		c0.9-1.5,2.4-3,2.2-5.3c-2.9,2.5-4,5.8-5.8,8.7c-3.6,5.9-7.2,11.9-10.8,17.8C383.7,477.2,382.7,481,382,484.6z M656.6,645.6
		c9.3-7.9,19.5-14.7,28.3-24.5C678.7,624.9,660.2,640.7,656.6,645.6z M310.1,635c-2.8-3.8-5.6-7.7-8.4-11.5c-2.7-3.7-4.3-8.3-8.1-12
		C295.1,622.6,302.7,628.8,310.1,635z M751.4,518c2.3-7.9,5.7-15.4,6.6-23.6c-1.2-0.3-1.8-0.1-1.9,0.5
		C753.7,502.5,752.8,510.3,751.4,518z M305.7,498.9c4.4-8.1,9.3-16,11.6-25C312.2,481.7,309.5,490.5,305.7,498.9z M601.6,677
		c9.6-2.5,16.5-8.4,24.4-12.3C618,668.4,609.6,671.4,601.6,677z M295.5,523.4c2.6-3,8.6-17.9,9.3-23.2
		C301.1,507.6,297.1,514.9,295.5,523.4z M596.3,275.5c7.4,0.9,14.7,1.7,22.2,0.8C611.1,275.3,603.7,275,596.3,275.5z M526.5,689.1
		c3.5,0,7-0.1,10.5,0c3.5,0.1,6.9-0.4,10.6-1.4C540.3,685.7,533.5,688.5,526.5,689.1z M609.7,329.8c4.8,2.7,9.6,5,14.9,6.2
		C620.2,332.7,615.2,330.6,609.7,329.8z M237.2,634.5c0-4.8-1.7-9-3.9-13.1C234.2,625.8,234.8,630.4,237.2,634.5z M684.6,505
		c2.6-4.4,4.5-9.1,4.5-14.3C687.6,495.5,686.1,500.3,684.6,505z M662,356c-0.2,0.2-0.4,0.5-0.6,0.7c3,2.7,6.1,5.3,9.1,8
		C668.9,360.3,665.2,358.4,662,356z M361.2,410.1c-2.7,2.1-5.5,4.1-6.9,7.3C357.2,415.5,359.2,412.8,361.2,410.1z M504.7,690.7
		c-2.4-1-4.7-0.4-7.8,0.5C500.1,691.4,502.4,691.8,504.7,690.7z M378.4,536.6c0.7-4.2-0.9-7.9-0.8-11.7
		C376.4,530.5,376.6,533.7,378.4,536.6z M545.3,509.3c2.2-0.1,4.5,1.1,6.4-1.3C549.4,508.1,547.1,507.1,545.3,509.3z M621.9,276.2
		c0.5,0.7,1.3,0.5,2.2,0.6C623.1,276.5,622.5,276.4,621.9,276.2z M474.5,387.8c0.7-0.6,2.4,0.1,2.4-1.5
		C476,386.5,475.1,386.9,474.5,387.8z M758,490.9c-0.1,0-0.1,0-0.2-0.1c0,0.4,0,0.8,0,1C757.9,491.7,757.9,491.3,758,490.9z
		 M705.2,309.5c0,0.8,0.7,1,1.2,1.3c0,0,0.4-0.4,0.3-0.5C706.4,309.7,706,309.1,705.2,309.5z M724.1,576.6l0.2,0l-0.2,0.4
		L724.1,576.6z M470.4,485.7c0.1-0.2,0.2-0.4,0.2-0.7c0-0.1-0.2-0.2-0.3-0.2c-0.1,0.2-0.2,0.4-0.2,0.6
		C470.1,485.5,470.3,485.6,470.4,485.7z"/>
	<path fill="#39241A" d="M807.4,347.2c-1.6,0.4-2.8,0.9-4,1c-2.7,0.4-4.9-0.9-5.8-3.3c-0.9-2.2-0.3-4.3,2-5.9
		c1.3-0.9,2.7-1.6,4.1-2.2c4.1-2,8.2-3.9,12.3-5.8c1.1-0.5,2.1-1.3,3.1-2.2c6.5-6.4,13.9-11.6,22.2-15.5c5.3-2.5,7.3-1.5,9.2,4.1
		c2.1-0.3,3.9-1.6,5.8-2.4c3.2-1.3,5-0.9,6.6,1.6c1.4,2.1,1.1,4.3-1.1,6.5c-3.1,3.2-6.8,5.6-10.5,7.9c-9.9,6.3-20,12.4-30,18.6
		c-1.3,0.8-2.7,1.5-4.2,2.1C811.8,354,809.6,353,807.4,347.2z"/>
	<path fill="#39241A" d="M189.8,578.6c1.1-0.6,1.9-1.2,2.8-1.6c2.3-0.9,4.5-0.2,5.6,1.7c1.1,1.9,0.8,4.1-1.3,5.6
		c-5.8,4.3-11.7,8.4-18.5,11.2c-12.4,5-25.3,8.3-38.5,10.3c-2.5,0.4-5,1-7.5,1.4c-1.8,0.3-3.7,0.3-5.5,0.4c-2,0-3.6-1-4.4-2.8
		c-0.9-2-0.5-3.9,0.8-5.6c0.9-1.1,2-2,3.3-2.6c14-7.1,28.1-14.2,42.9-19.4c4.2-1.5,8.5-2.2,12.9-2.1
		C185.6,574.9,188.5,575.1,189.8,578.6z M181.1,584.2c-9,0.1-16.7,3.8-24.2,8.4C165.5,591.2,173.6,588.8,181.1,584.2z"/>
	<path fill="#39241A" d="M535.7,848.5c0,2.2,0,4.4,0,6.7c0,1.4-0.1,2.8-0.8,4.1c-1,1.8-2.7,2.5-4.6,2.6c-1.9,0.1-4.1-1.7-4.7-3.7
		c-0.3-1.1-0.3-2.2-0.5-3.4c-0.5-3.2-0.5-6.4-3.5-8.7c-1.7-1.3-1.9-3.7-2.3-5.8c-1.5-7.9-1-15.8,0.3-23.6c0.6-3.8,1.1-7.6,1.6-11.3
		c0.2-1.4-0.1-2.8-0.5-4.2c-0.5-1.5-0.4-3.1,0-4.6c0.7-2.6,2.5-4.1,4.7-4.2c2.2-0.1,4.3,1.3,4.9,3.9c0.7,3,1.1,6.1,1.6,9.2
		c0.2,1.4,0.3,2.8,1.1,4.1c5.1,1.5,4.9,1.6,6,7.2c1.5,7.8,3.5,15.4,5.3,23.2c0.5,2.2,1,4.4,0.7,6.7c-0.2,2-0.7,3.6-2.7,4.4
		c-1.9,0.7-3.6,0.2-5-1.3C537,849.2,536.7,848.4,535.7,848.5z"/>
	<path fill="#39241A" d="M786.8,565.2c-0.9-0.5-1.5-0.9-2.1-1.2c-2.3-1.2-3.3-3.1-2.8-5.6c0.5-2.5,2.2-3.9,4.6-4.5
		c2.8-0.6,5.7-0.5,8.5-0.1c6.7,0.9,13.3,0.3,19.9-0.1c4.5-0.3,9-0.4,13.5,0.6c4.4,0.9,4.6,0.9,6.6,5c0.9,0.3,1.8,0.5,2.7,0.8
		c2.6,1,3.9,2.9,3.9,5.5c0,2.6-1.5,4.3-3.8,5.1c-4.4,1.5-8.8,3.1-13.5,3.5c-9.2,0.8-18.3,1.7-27.5,1.9c-3.4,0.1-6.7,0.8-10.2,0.7
		c-3.9-0.2-6-1.3-6.6-4c-0.6-2.5,0.6-5.5,4.5-6.6C785.3,566,785.8,565.7,786.8,565.2z M802.6,565.1c2.3,0.3,4.5,0.5,7.5-0.2
		C807,564.4,804.8,564.1,802.6,565.1z"/>
	<path fill="#39241A" d="M132.7,558.4c6.7,2,13.4,2.6,20.3,2.7c2.8,0,5.7,0.1,8.5,0.1c2,0,3.9,0.5,5.8,1.1c1.4,0.5,2.6,1.3,2.4,3.1
		c-0.2,1.7-1.6,2.2-3,2.5c-0.4,0.1-0.8,0.1-1.3,0.1c-9.8-0.1-19.6,0.8-29.3-0.9c-3.5-0.6-7-1.3-10.3-2.5c-2.5-0.9-4-2.6-4.4-5.3
		c-0.3-2.6,1.3-4.2,3.2-5.6c3.9-2.6,8.1-4.7,12.5-6.3c1.9-0.7,3.6-1.4,3.8-4c0.2-1.9,2-2.6,3.6-3.3c3.7-1.5,7.7-2.1,11.6-2.5
		c8.6-1,17.1-2.7,25.7-3.1c2.3-0.1,4.6-0.2,6.8,0.1c3.8,0.5,5.8,2.2,6.1,4.9c0.3,2.9-0.9,4.9-4.5,6.4c-1.5,0.7-3.2,1.1-4.8,1.6
		c-9.6,2.6-19.3,2.8-29.1,2.5C147.6,550.1,139.9,553.6,132.7,558.4z"/>
	<path fill="#39241A" d="M268.3,366.9c-2.2,3-4.7,2.7-7.7,1.8c-7.1-2.1-12.9-6.5-18.8-10.7c-5.3-3.8-10.6-7.7-15.5-11.9
		c-2.8-2.4-5-5.1-5.7-9.1c-0.4-2.7-0.2-4.8,1.6-6.6c2-1.9,4.4-1.4,6.8-0.3c6.5,2.9,13,5.7,19.4,8.6c4.7,2.1,9.3,4.3,14,6.1
		c8.1,3.2,12.6,9.7,16.3,17.1c1,1.9,0.7,3.9-0.7,5.6c-1.5,1.8-3.5,1.8-5.5,1.2C271.3,368.3,270,367.7,268.3,366.9z M260.7,355.6
		c0,0.3-0.8,0.6,0,0.8C260.7,356.2,260.7,355.9,260.7,355.6c-4.3-2.2-8.3-4.8-13-6.2c3.3,2.8,7.1,4.5,11,6.3
		C259.3,356.1,260,355.9,260.7,355.6z"/>
	<path fill="#39241A" d="M179.7,750c-1.4,0.6-2.7,1.5-4.3,1.7c-1.8,0.2-3.4-0.3-4.4-1.9c-1.1-1.7-1.2-3.4-0.1-5.2
		c0.8-1.2,1.8-2.2,3-2.9c1.3-0.8,2.6-1.7,4-2.4c8.3-4.3,15.5-9.9,22.4-16.1c3-2.6,6.1-5.1,9.5-7.2c1.6-1,3.2-1.9,4.9-2.4
		c2.7-0.8,4.3-0.4,5.6,1.6c1.2,1.8,1.3,3.9-0.2,5.9c-1.5,2-3.2,3.9-4.8,5.8c0.8,1.4,1.8,0.5,2.7,0.4c3.4-0.2,5.1,2,3.8,5.2
		c-0.8,1.9-2.2,3.3-3.8,4.5c-2.4,1.8-4.8,3.6-7.2,5.3c-6.9,4.7-13.8,9.4-20.7,14.1c-1.6,1.1-3.3,2.2-5.2,2.9c-1.8,0.7-3.4,0.3-4.7-1
		c-1.3-1.2-1.9-2.8-1.2-4.6c0.4-1,0.8-2.1,1.2-3.1c0.4-0.1,0.7-0.4,0.4-0.7C180.4,749.5,180,749.8,179.7,750z M214.4,727.8
		c0.1,0.2,0.2,0.4,0.3,0.6c0.1-0.1,0.3-0.2,0.3-0.3c0-0.2-0.2-0.4-0.3-0.6C214.6,727.6,214.5,727.7,214.4,727.8z"/>
	<path fill="#39241A" d="M179.6,634.9c0.8,0.1,1.6,0.2,2.4,0.4c2.4,0.7,3.9,2.4,4,4.4c0.1,2-1.3,4-3.5,4.8c-2.1,0.8-4.3,1.5-6.5,1.9
		c-8.3,1.6-15.5,5.5-22,10.7c-7,5.5-14.8,9.4-23.2,12.2c-1.5,0.5-2.9,1.1-4.6,0.8c-4.5-0.9-6.5-6.3-3.6-10.1
		c1.1-1.5,2.5-2.7,4.1-3.7c4.5-3,8.4-6.7,12.6-10.2c9.1-7.7,19.3-13.3,31-16.3c0.7-0.2,1.4-0.3,2.1-0.4
		C177.6,628.6,178.6,629.4,179.6,634.9z"/>
	<path fill="#39241A" d="M215.2,446.9c-1.2,5.4-3.2,6.7-8.2,5.2c-5.7-1.8-11.5-3.1-17.3-4.4c-4-1-8.1-1.6-12.2-1.4
		c-2.9,0.1-5.7-0.3-8.4-0.9c-2.9-0.7-5.6-2-6.9-5.1c-0.7-1.8-2.3-2.8-4.1-3.5c-2.1-0.8-4.2-1.7-6.2-2.7c-2.4-1.2-3.1-2.8-2.6-5.2
		c0.4-2.1,2.2-3.6,4.6-3.7c1.1-0.1,2.3,0,3.4,0.3c5.5,1.3,11.1,2.1,16.8,2c2.3,0,4.5,0.8,6.7,1.1c6.9,1,13.7,2.1,20.6,3.1
		c5.4,0.8,10.3,3,14.9,5.8c2,1.2,4.1,2.4,3.8,5.1C219.8,445.1,217.7,446.3,215.2,446.9z"/>
	<path fill="#39241A" d="M731.8,658c-1.1-1.3-2-2.4-2.9-3.5c-1.2-1.6-1.4-3.5-0.2-5.1c1.2-1.6,3.1-2.2,4.9-1.3c3,1.3,6,2.2,9.3,2.4
		c3.2,0.3,5.6,2.5,7.9,4.7c6.1,5.9,12.2,11.9,18.2,17.8c2,2,4,4,6.3,5.6c2.1,1.5,3.6,3.6,4.9,5.8c1.3,2.2,1.2,4.5-0.3,6.3
		c-1.4,1.8-3.7,2.5-6.1,1.7c-1.3-0.4-2.5-1.2-4.1-1.9c-3,3.5-6.1,2.3-9.3,0.1c-10.1-7.1-19.3-15.2-27.7-24.3
		C730.4,663.7,729.2,661,731.8,658z"/>
	<path fill="#39241A" d="M192.6,496.9c0.9,5.7,0.1,7-5,8.3c-1.8,0.5-3.6,0.8-5.4,0.8c-14.3,0.1-28.5-1.5-42.8-2
		c-1.3,0-2.5-0.4-3.7-0.7c-2.1-0.7-3.2-2.3-3.2-4.5c0-2.1,0.9-3.5,2.8-4.3c1.7-0.7,3.5-1.2,5.3-1.4c1.5-0.1,3.1-0.3,4.4-1.2
		c0.5-0.8,0.1-1.7,0.2-2.5c0.2-2.2,1.3-3.7,3.5-4.3c1.4-0.4,2.7-0.7,4.1-0.9c13.9-1.6,27.7-1.1,40.9,4.3c0.8,0.3,1.6,0.6,2.3,1.1
		c2.6,1.9,2.4,4.5-0.4,6C194.7,496.2,193.7,496.5,192.6,496.9z M158.8,494.7c3,0.3,5.8,0.7,8.6,0.9c2.7,0.1,5.4,0,9,0
		C169.1,492.7,162.2,492.4,158.8,494.7z"/>
	<path fill="#39241A" d="M860.7,457.4c3.2-0.2,6.1-0.4,9.1-0.6c1.4-0.1,2.8-0.3,4.2-0.2c2.5,0.1,4.5,1.9,4.9,4
		c0.4,2.3-0.9,3.7-2.7,4.8c-1.7,1-3.6,1.6-5.6,2c-5.9,1.3-11.9,2.7-17.9,3.6c-6.3,1-12.6,2.1-18.8,3.3c-2.3,0.4-4.5,0.5-6.8,0.4
		c-4-0.1-5.3-1.4-5.7-5.3c-0.1-0.5,0.1-1.1-0.5-1.7c-1.7-0.3-3.5,0-5.3,0.3c-0.8,0.1-1.7,0.3-2.5,0.3c-3.6,0-6.1-2-6.3-5
		c-0.2-2.8,1.9-5.1,5.2-5.7c8.9-1.6,17.8-3.3,26.8-4.8c5.3-0.9,10.8-0.2,16.2-0.2C857.8,452.5,859.7,454.5,860.7,457.4z"/>
	<path fill="#39241A" d="M342.2,826.5c3.2-3.8,4.9-8.5,7.5-12.6c1.4-2.2,2.6-4.6,5.7-4.7c3.8-0.1,6,2.3,5,5.9
		c-0.6,2.3-1.7,4.5-2.7,6.7c-3,6.2-6.1,12.4-9.3,18.6c-0.8,1.5-1.7,2.9-2.7,4.3c-1.1,1.4-2.6,2.5-4.4,2c-2.5-0.6-4,0.6-5.6,2.1
		c-0.1,0.1-0.2,0.2-0.3,0.3c-2.3,2.3-5,3.9-8.4,2.3c-3.5-1.7-4.1-4.9-3.8-8.3c0.3-4.2,2.1-8,4.1-11.5c3.6-6.4,6.9-13,9.7-19.8
		c1.6-3.9,4.2-7.4,6.8-10.7c0.4-0.6,0.9-1.1,1.5-1.5c2.1-1.8,4.4-1.9,6.2-0.5c1.8,1.4,2.3,3.8,1,6.2c-1.4,2.4-3.1,4.7-4.5,7.1
		C345.3,816.8,343.7,821.7,342.2,826.5c-0.3-0.1-0.7-0.3-0.6,0.5C341.8,826.8,342,826.7,342.2,826.5z"/>
	<path fill="#39241A" d="M625.7,225.1c-4.1-2.2-3.9-5.4-2.6-8.9c4.4-11.8,9.3-23.4,16.5-33.8c1.5-2.2,3-4.4,4.2-6.9
		c0.4-0.9,1-1.7,1.7-2.4c1.5-1.5,4.2-1.8,5.9-0.7c1.8,1.2,2.8,3,2.1,5.1c-1.2,3.6-1.7,7-0.4,10.7c0.4,1.1-0.1,2.5-0.3,3.8
		c-1.9,9.1-5,17.7-9.8,25.7c-3,5.1-5.9,10.3-8.9,15.5c-1.7,3-3.7,3.9-6.2,3c-2.8-1-3.8-3.1-3.2-6.5
		C625,228.3,625.3,226.9,625.7,225.1z"/>
	<path fill="#39241A" d="M462.8,245.4c-6.5,0.8-8,0-10.5-6c-2.3-5.3-4.5-10.7-4.9-16.6c-0.1-0.8-0.1-1.7-0.1-2.5
		c0-5.1,1.4-6.5,6.4-6.5c0.5-3.4-0.4-6.8-0.2-10.1c0.2-3.2,1.2-4.8,3.8-5.3c2.6-0.5,5.1,0.9,6.1,3.5c6.2,16.4,11.3,33.2,14.7,50.4
		c0.1,0.7,0.3,1.4,0.3,2.1c-0.1,2.8-1.7,4.8-4.1,5.2c-2.8,0.5-5.1-0.7-6.3-3.1c-0.4-0.8-0.6-1.6-0.8-2.4
		C466.3,250.9,464.9,248.2,462.8,245.4z"/>
	<path fill="#39241A" d="M681.5,738.6c-0.8,1.2,0.4,2.1,0.5,3.1c0.1,1.7-0.4,3.1-1.7,4.1c-1.4,1.1-2.9,0.6-4.4-0.1
		c-1.6-0.8-2.6-2.2-3.6-3.5c-6-8.2-11.4-16.9-14.9-26.6c-1.4-3.8-0.2-6.6,3.2-8.8c-0.5-1-1-1.8-1.4-2.7c-1.5-2.9-1.4-4.5,0.5-6.1
		c1.9-1.7,4.6-1.8,7-0.1c3.9,2.9,7.3,6.3,9.8,10.5c1.1,1.8,2.2,3.7,3.1,5.6c3.6,7.7,7.9,15,12.6,22.1c1.7,2.6,3,5.5,4.2,8.3
		c1.1,2.5,0.1,5.8-1.8,6.8c-2.3,1.3-5.1,0.4-6.8-2.5c-1.6-2.8-3.1-5.7-4.6-8.5C682.8,739.7,682.5,738.8,681.5,738.6z M679.1,736.4
		c-0.2-0.3,1-0.8-0.1-1C679,735.7,679.5,736,679.1,736.4c0.9,0,0.9,1.2,2.1,1.1C680.7,736.5,680.3,735.9,679.1,736.4z"/>
	<path fill="#39241A" d="M518.2,229.3c-5.8,1.3-8.5-0.6-9-6.4c-0.8-10-1.4-20-2.1-30c-0.1-1.4-0.1-2.8-0.3-4.2
		c-0.3-1.8-0.3-3.7-0.2-5.5c0.3-3.8,2.4-6,5.3-5.9c2.9,0.1,4.5,2,4.9,5.8c0.3,3.5,0.6,7,0.9,10.5c0.9,0.5,1.4-0.2,2-0.5
		c3.3-1.3,5.6-0.4,6.5,3.1c1.1,4.7,2.3,9.3,2.5,14.2c0.4,7.9-0.2,15.9,0.8,23.7c0.2,1.7,0.6,3.3,0.8,5c0.3,3.1-1.1,5.4-3.5,6
		c-2.5,0.6-5.3-1.1-6.2-3.9C519.2,237.4,519.3,233.4,518.2,229.3z"/>
	<path fill="#39241A" d="M183.1,690.6c1.7,0.4,2.5-0.3,3.4-0.5c2.8-0.3,5.1,0.7,6.1,2.9c1,2.2,0.2,4.5-2.4,6.1
		c-3.8,2.5-7.9,4.4-12.1,6.2c-3.8,1.6-7.7,2.9-11.5,4.3c-2,0.7-4.1,1.1-6.3,1c-3.5-0.1-7-0.3-10.5,0.9c-2.3,0.8-4.5,0-6-2.1
		c-1.6-2.1-1-4.2,0.2-6.3c2.6-4.6,6.7-7.7,11-10.3c10.5-6.3,21.4-11.6,32.9-15.7c0.5-0.2,1-0.5,1.6-0.6c2.6-0.6,4.6,0.1,5.5,1.9
		c0.9,1.8,0.5,4.1-1.6,5.6c-2.6,1.9-5.5,3.4-8.3,5.1C184.6,689.5,184,689.9,183.1,690.6z"/>
	<path fill="#39241A" d="M315.5,326.1c-5.3,4.3-7.8,4.4-13.1,0c-6.6-5.4-12.5-11.6-17.6-18.4c-2-2.7-3.9-5.5-6.4-7.9
		c-1.2-1.1-1.9-2.4-2.1-4.1c-0.3-4.2,3-6.8,6.9-5.1c1.5,0.7,2.9,1.7,4.5,2.7c3.3-2.5,6.4-1.7,9.3,0.6c6,4.7,12.1,9.4,17.9,14.4
		c4.4,3.7,6.6,9.1,10.2,13.5c1.3,1.5,1.2,3.5-0.2,5.1c-1.3,1.6-3.3,2.2-5.4,1.3C318.1,327.7,316.8,326.8,315.5,326.1z"/>
	<path fill="#39241A" d="M719.3,259.4c-1.6,2.3-2.8,3.9-3.9,5.5c-0.7,0.9-1.3,1.9-2.1,2.6c-1.3,1.2-2.8,1.3-4.4,0.7
		c-1.6-0.7-2.3-2-2.3-3.7c-0.1-2,0.8-3.6,1.7-5.2c5-9.1,10.9-17.5,17.4-25.6c2-2.4,4.3-4.5,6.7-6.5c4.1-3.3,8.2-6.6,11.2-11
		c0.4-0.6,0.9-1.1,1.5-1.5c1.9-1.6,5-1.8,6.7-0.5c2,1.5,2.5,3.9,1.4,6.5c-0.4,0.9-0.9,1.8-1.4,2.6c-5.8,8.6-11.2,17.4-15.8,26.6
		c-2.1,4.3-4.5,8.5-7.5,12.3c-1.4,1.7-2.8,3.2-5.3,2.6C720.6,264.3,719.7,262.5,719.3,259.4z"/>
	<path fill="#39241A" d="M371.2,295c1.7,2.4,3.6,3.9,5.3,5.6c2.5,2.7,2.8,5.3,0.9,7.6c-1.8,2.1-5,2.4-7.8,0.7
		c-1.7-1.1-3.3-2.3-4.7-3.7c-5.5-5.3-11.1-10.5-16.2-16.3c-2.2-2.5-3.8-5.3-5.4-8.2c-2-3.7-2.3-7.3,1.2-10.3c-0.3-1.8-1.5-2.8-2.5-4
		c-0.9-1.1-1.9-2.2-2.5-3.4c-1.1-2.1-0.6-4.5,1-5.8c1.6-1.3,4.1-1.4,6-0.3c0.4,0.2,0.7,0.5,1,0.8c7,7.2,14.7,13.8,20.9,21.8
		c0.3,0.5,0.6,0.9,1,1.4C373.2,285.2,374.2,289.8,371.2,295z"/>
	<path fill="#39241A" d="M858.1,412.7c0,0.7,0.4,1.1,0.7,1.6c1.6,2.5,1.3,4.4-1.1,6.1c-1,0.8-2.1,1.4-3.3,2
		c-5.6,2.7-11.3,5.2-17.5,6.5c-2.4,0.5-4.8,0.4-7.2,0.3c-3.2-0.2-5.6-1.8-6.9-4.7c-1.8-0.5-3.5-0.1-5.1,0.3
		c-2.1,0.5-4.2,0.6-6.3-0.1c-2.3-0.7-3.6-2.6-3.5-4.7c0.1-2.4,1.5-3.6,3.7-4c14.7-2.8,28.1-9.5,42.4-13.5c2.9-0.8,5.7-1.8,8.5-2.6
		c0.9-0.3,1.9-0.5,2.9-0.5c2.2,0,3.8,1.3,4.4,3.4c0.6,2.1-0.3,3.6-1.9,4.8c-1,0.8-2.3,1.1-3.5,1.5
		C862.1,409.8,859.7,410.7,858.1,412.7z"/>
	<path fill="#39241A" d="M794.4,634.2c3.5,2.4,6.5,4.5,9.5,6.6c1.4,1,2.9,1.9,3.9,3.2c1.2,1.6,1.6,3.3,0.5,5.1
		c-1,1.8-2.5,2.5-4.6,2.5c-1.3,0-2.5-0.6-3.6-1.1c-8-4.2-16-8.4-24-12.7c-3.2-1.8-6.1-4.1-8.9-6.5c-3-2.6-4.6-5.4-2.7-9.1
		c-0.7-1.5-2-1.8-3-2.6c-2.1-1.6-2.9-4.1-2.1-5.9c1-2.2,3.4-3.2,6.1-2.4c3.8,1.2,7.6,2,11.5,2.8c4.3,0.9,8,3.5,11.8,5.7
		c3.1,1.8,6.1,3.7,8.5,6.3C800.5,629.6,799.6,632.5,794.4,634.2z"/>
	<path fill="#39241A" d="M786.8,316c-3.7,0.1-5.9-3.3-4.5-6.7c2.7-6.4,6.3-11.9,12.5-15.4c2.6-1.5,4.8-3.5,7.3-5.1
		c2.9-1.9,5.9-3.4,9.5-3.4c1.6,0,3-0.8,4.3-1.7c3.2-2.1,6.3-4.3,9.5-6.4c1.3-0.9,2.6-1.7,4.2-1.9c2-0.2,3.7,0.4,4.7,2.1
		c1.1,1.7,1,3.6-0.1,5.2c-0.8,1.1-1.9,2.1-3,3c-2.1,1.7-4.2,3.3-6.4,5c-0.9,0.7-1.7,1.4-2.2,2.5c-3.8,8.8-11,13.7-19.8,16.6
		c-1.2,0.4-2.5,0.7-3.7,1c-2.7,0.7-5.4,1.3-7.8,3.2C790.2,315.2,788.6,316,786.8,316z"/>
	<path fill="#39241A" d="M805.5,519.4c-0.3-0.3-0.4-0.4-0.5-0.4c-2.2-1.3-3.4-3.1-2.4-5.6c0.9-2.5,3.1-3.2,5.5-3.2
		c3.3,0,6.5,0.2,9.7,0.4c3.9,0.3,7.9,0.7,11.8,0.9c4.5,0.2,9.1,0.2,13.4-1.3c0.5-0.2,1.1-0.2,1.7-0.4c5.7-1.4,7.5-0.2,8,5.7
		c0.8,0.9,2.1,0.6,3.1,1c1.9,0.8,3,2.2,3,4.2c0,1.9-1,3.2-2.6,4c-1.5,0.8-3.2,1.3-4.9,1.4c-7.3,0.7-14.7,1.2-22,1.2
		c-3.5,0-7.1-0.1-10.6,0.6c-1.8,0.3-3.7,0.3-5.5,0.2C807,528.2,805.1,526.1,805.5,519.4z"/>
	<path fill="#39241A" d="M269.2,830.4c-3.5-0.1-5.8-2.9-5.3-6.1c0.4-2.1,1.3-4,2.6-5.8c6.1-8.1,11.3-16.7,15.9-25.6
		c2.1-4,4.8-7.7,7.8-11.1c0.8-0.8,1.6-1.7,2.5-2.3c1.9-1.4,4-1.4,6-0.3c1.9,1.1,2.8,3.1,2.2,5.1c-1.4,4.9-1.3,10.1-2.8,14.9
		c-0.7,2.4-2.1,4.6-3.3,6.9c-1.8,3.4-3.7,6.7-5.7,9.9c-1.3,2.1-3.1,3.8-5.9,3.5c-1.9-0.2-2.9,0.9-3.8,2.2c-1.6,2.3-3.4,4.5-5.5,6.5
		C272.5,829.6,270.9,830.4,269.2,830.4z"/>
	<path fill="#39241A" d="M414.9,849.6c-1,1.5-1.9,3.1-3,4.5c-1.3,1.7-3.1,2.6-5.3,1.9c-2.2-0.7-3.7-2.1-4-4.5c0-0.1,0-0.3,0-0.4
		c0.1-9.6,0.4-19.3,3.8-28.5c0.2-0.5,0.4-1.1,0.7-1.6c0.9-1.8,2.2-2.9,4.4-2.5c2.2,0.4,3.8,2.1,3.8,4.5c0,2-0.5,3.9-0.7,5.9
		c-0.1,0.7-0.4,1.6,0.5,2.6c1.7-2.9,2.8-5.9,3.7-9c1-3.4,2-6.8,3.4-10.1c0.3-0.8,0.6-1.6,1-2.3c1.3-2.2,3.3-3.2,5.3-2.5
		c1.9,0.6,3.2,2.6,3,5.1c-0.3,2.9-1,5.9-1.5,8.8c-1.4,7.7-3.1,15.3-5.4,22.7C422.7,849.7,420.9,850.7,414.9,849.6z"/>
	<path fill="#39241A" d="M573.6,231c-0.8,0-1.7,0-2.5-0.2c-2.7-0.4-4-1.8-4.2-4.5c-0.1-1.7,0.1-3.4,0.7-5c2.8-9.3,5.9-18.6,9.9-27.5
		c1.4-3.2,3.5-4.5,6.2-3.9c2.7,0.7,4.3,3.4,3.8,6.7c-0.2,1.1-0.6,2.2-0.9,3.3c-0.5,1.9-0.4,3.5,1.4,4.8c2.2,1.6,2.5,4.4,2.7,6.9
		c0.2,3.7-0.1,7.4-0.9,11c-0.6,2.8-1.8,5.3-3.8,7.5c-1.1,1.1-1.9,2.4-2.8,3.7c-2.9,4-6.6,3.7-8.8-0.8
		C574,232.4,573.8,231.7,573.6,231z"/>
	<path fill="#39241A" d="M399.3,235.2c4.8-1.5,7.5,1.2,10.3,4.3c5.4,6.2,9.1,13.3,12,20.9c0.8,2,1.2,4.1,0.2,6.2
		c-1.1,2-8.7,4.9-10.9,4c-1.5-0.6-2.6-1.6-3.8-2.7c-7.2-6.7-11.6-15.3-15.6-24.1c-0.8-1.8-1.5-3.6-2.5-5.4c-1.4-2.6-1.1-5,0.8-6.6
		c2-1.7,4.6-1.6,6.9,0.5C397.7,233.2,398.4,234.3,399.3,235.2z"/>
	<path fill="#39241A" d="M236.4,776.6c3.6-0.9,5.6-2.7,7.7-4.3c2.2-1.6,4.2-3.4,6.4-4.9c2-1.4,4.1-1.2,5.5,0.1
		c1.4,1.3,1.5,3.3,0.2,5.5c-1.8,3.2-3.7,6.3-5.6,9.5c-3.9,6.7-10.2,9.1-17.3,10c-0.8,0.1-1.8,0.1-2.5-0.3c-1.5-1-2.9-0.6-4.4-0.1
		c-2.3,0.7-4.5,0.8-6.2-1.3c-1.7-2-1.5-4.2-0.8-6.4c1.1-3.4,3.1-6.4,5.3-9.1c2.8-3.6,5.8-7,8.7-10.5c1.1-1.3,2.4-2.4,3.8-3.3
		c1.7-1.1,3.5-1.3,5.1,0c1.4,1.1,1.6,3.4,0.3,5.4c-1.5,2.4-3.2,4.7-4.7,7.1C237.5,774.6,237.2,775.2,236.4,776.6z"/>
	<path fill="#39241A" d="M738.5,707.8c0.1,5.1-3.6,7.5-8.3,5.3c-5.4-2.5-10.2-6-15.1-9.4c-3.7-2.6-7.2-5.5-10.3-8.8
		c-3-3.2-6.4-6.3-4.2-11.4c0.5-1.1-0.8-2-1.3-3c-0.9-2-1-3.8,0.6-5.5c1.6-1.7,3.4-1.7,5.5-0.9c3.5,1.3,6.4,3.4,8.8,6.4
		c5.9,7.2,11.6,14.6,19.6,19.8C736.4,701.9,738.7,704.1,738.5,707.8z"/>
	<path fill="#39241A" d="M760.3,279.8c-2.6-3.8-1.2-7.6,0.6-11.2c2.3-4.5,5.4-8.3,9.4-11.4c1.7-1.3,3.6-2.5,5.8-2
		c1.8,0.4,2.9-0.3,4.1-1.4c1.5-1.3,2.8-2.8,4.6-3.8c2.3-1.2,4.3-1.1,5.8,0.5c1.6,1.7,2.1,3.6,0.5,5.8c-6.2,8.5-10.8,18-17.7,25.9
		c-2.4,2.7-5.3,4.6-8.1,6.9c-1.8,1.5-4.2,1.3-5.9-0.1c-1.6-1.3-2.2-3.6-1.2-5.8C758.8,282.1,759.6,281,760.3,279.8z"/>
	<path fill="#39241A" d="M458.9,835.7c0.4-6.9,1.5-13.1,5-18.7c1.1-1.7,2.4-3.1,3.8-4.6c2.5-2.6,7.6-1.9,8.6,2.7
		c0.5,2.3,1.1,4.2,2.9,5.8c1.6,1.4,1.6,3.6,1.2,5.6c-1.5,8.2-3.7,16.3-6.5,24.2c-1,2.8-3.1,4.1-5.4,3.8c-2.4-0.3-4.3-2-4.6-4.9
		c-0.3-2.5-1.1-4.4-2.9-6.3C458.9,841.1,459.2,838,458.9,835.7z"/>
	<path fill="#39241A" d="M245,408c-0.5-0.1-1.3-0.2-2.1-0.4c-2.7-0.8-5.2-1-7.6,1c-1.3,1.1-2.8,1-4.4,0.5c-3.3-1-6.5-2.3-9.2-4.3
		c-5.5-4.2-11-8.4-15.9-13.5c-0.5-0.5-1-1-1.4-1.6c-1.5-2-1.6-4-0.3-5.9c1.2-1.7,3.3-2.2,5.7-1.3c0.9,0.3,1.7,0.9,2.6,1.4
		c2.9,1.7,6,2.8,9.3,3.9c7.9,2.6,15.9,5.3,23.3,9.1c1.4,0.7,2.5,1.9,3.7,2.8c1.8,1.4,2.2,3.3,1.5,5.3
		C249.3,407.4,247.6,408.1,245,408z"/>
	<path fill="#39241A" d="M678.7,233.5c-4-3.6-4.5-5.4-2.6-10.4c1.9-5,4.4-9.8,7.6-14.1c1.4-1.9,2.8-3.9,3.7-6.1
		c0.6-1.3,1.4-2.5,2.7-3.1c1.8-0.8,3.6-0.9,5.2,0.3c1.7,1.1,2.4,2.9,2,4.8c-0.5,2-1.2,4.1-2,6c-0.7,1.6-1.3,3.3-0.6,4.9
		c0.9,2.1,0.4,4.2,0.1,6.2c-1.2,6.8-4.1,12.9-8,18.5c-1.1,1.6-2.5,3-4.7,3.3c-3.7,0.4-6.1-2-5.2-5.6
		C677.4,236.6,678.1,235,678.7,233.5z"/>
	<path fill="#39241A" d="M618.8,740.4c0-0.5-0.1-1.4,0.2-1.8c2-2.4,1.2-4.9,0.5-7.5c-0.8-3.3,0.3-5.6,2.5-6.5c2.2-0.9,4.3,0,6.5,2.6
		c3.7,4.4,6.6,9.1,8.5,14.6c0.9,2.7,1.7,5.4,0.2,8.2c-0.7,1.2-0.3,2.5,0,3.7c0.4,1.7,0.4,3.4,0.5,5.1c0,2-0.6,3.6-2.4,4.6
		c-2,1.1-3.8,0.5-5.6-0.6c-1-0.6-1.6-1.5-2.3-2.5c-3.2-4.9-5.6-10.1-7.9-15.5C619,743.4,619,742,618.8,740.4z"/>
	<path fill="#39241A" d="M819.6,390.9c-1.7,0-3.4,0.1-4.8-1.2c-0.9-0.9-2.2-0.5-3.3-0.5c-2.2,0.1-3.9-0.8-4.8-2.8
		c-1-2.2,0-4.2,1.6-5.7c4.3-4.1,9.4-6.6,15.3-7.5c5.4-0.9,10.7,0,16,0.8c3.7,0.6,4.8,4.7,2.3,7.5c-1.5,1.7-3.5,3-5.5,3.9
		c-4.2,1.9-8.5,3.8-13,5C822.1,390.9,820.9,390.9,819.6,390.9z"/>
	<path fill="#FEFEFD" d="M404.6,763.4c4.3,0.3,8.7,0.6,13,1c12.8,1.1,25.7,2.2,38.5,3.8c10.1,1.3,20.4,0.4,30.6,0.1
		c3-0.1,5.9-1,8.7-1.8c8.6-2.6,17.5-3.4,26.5-2.8c0.4,0,0.9,0,1.2,0.7c-2,1.4-4.5,1.8-6.8,2.1c-4.2,0.6-8.3,1.5-12.5,2.6
		c-5.5,1.5-11.1,2.3-16.8,2.6c-6.6,0.3-13.3,0.9-19.9,1.5c-8.8,0.9-17.4-0.6-26.1-2.2c-11.8-2.1-23.6-4.5-35.4-6.9
		C405.2,764,404.6,764.2,404.6,763.4z"/>
	<path fill="#FEFEFD" d="M307.1,732.6c-3.9-1.1-6.9-3.7-10-6.2c-5.4-4.3-10.6-8.9-16.5-12.7c-2.3-1.5-4.1-3.5-5.2-6
		c-2.6-5.8-6.5-10.5-10.5-15.3c-5.4-6.4-10.8-12.8-14-20.6c-0.8-1.9-2.4-3.6-1.4-5.9l-0.1,0.1c6.9,10.2,13.8,20.4,20.7,30.6
		c2.2,3.3,4.9,6.2,7.8,8.9C287.6,714.5,297.3,723.6,307.1,732.6L307.1,732.6z"/>
	<path fill="#FEFEFD" d="M659,554.5c0.7,1.5-0.6,2.3-1.1,3.3c-5.1,8.5-11.7,15.5-19.4,21.7c-3.8,3-7.5,6.1-11,9.3
		c-3.6,3.3-7.9,5.4-12.2,7.7c-5.6,3-11.2,6-16.7,9.2c-2.7,1.6-5.4,3.6-9,3.1l0,0c12.3-7.2,25.1-13.5,36.4-22.4
		c3.4-2.6,6.6-5.4,9.5-8.5c7-7.1,13.9-14.2,20.9-21.2C657.3,555.9,657.8,554.7,659,554.5L659,554.5z"/>
	<path fill="#FEFEFD" d="M294.9,410.8c-3.4,3-5.9,6.8-8.5,10.5c-6.9,10-13.9,20-20.8,30c-6.5,9.5-11.1,20-15.6,30.6
		c-0.6,1.4-1,3-2.2,4.3c-0.5-1.3,0.3-2.2,0.6-3.1c1.1-3.2,2.3-6.4,3.5-9.6c2.6-7.4,6.2-14.3,10.8-20.6c6.4-8.8,11.7-18.4,17.9-27.4
		c3.6-5.3,8.1-9.9,12.3-14.6C293.5,410.3,294.2,409.8,294.9,410.8L294.9,410.8z"/>
	<path fill="#FEFEFD" d="M757,418.9c4.6,12.9,7.1,26.1,4.9,39.8c-0.6,3.5-0.6,7-0.3,10.5c0.2,3-0.3,5.8-0.6,8.8
		c-1.7-0.6-1.3-2-1.4-2.9c-0.7-5.7-0.1-11.3,0.1-17c0.2-4.7,0.2-9.2-0.6-13.9c-0.9-5.4-0.3-11-1-16.5
		C757.7,424.8,757.4,421.9,757,418.9L757,418.9z"/>
	<path fill="#FEFEFD" d="M516.2,277.6c9.6-1.1,19.2-2.3,28.9-3.2c9.7-0.9,19.4-0.2,29.1,1.3c-9.5,2-19.2,1.8-28.9,1.9
		C535.7,277.6,526.1,278.5,516.2,277.6z"/>
	<path fill="#FEFEFD" d="M520.5,627.6c-18.4,4.1-36.8,8.2-55.5,1.6c9.2-0.5,18.3,2.3,27.6,0.8C501.8,628.5,511.2,628.1,520.5,627.6z
		"/>
	<path fill="#FEFEFD" d="M696.1,303.6c-14.8-8.8-30.6-15.8-46.4-23.3c5.4,0.9,10.1,3.5,14.9,5.3c4,1.5,7.9,3.2,12,4.4
		c3.9,1.1,7.3,3.2,10.5,5.6c3.3,2.4,6.9,4.4,9.6,7.5C696.4,303.3,696.2,303.4,696.1,303.6z"/>
	<path fill="#FEFEFD" d="M398.2,380.6c9.2-7.8,19.3-14.2,30.2-19.4c5-2.4,9.8-5,14.5-7.9c1.7-1,3.3-2.1,5.5-2.4
		c-0.9,2.6-2.9,3.6-4.9,4.5c-6.1,2.9-12.2,5.9-18.4,8.8c-5.5,2.6-10.6,5.9-15.3,9.8c-3.1,2.5-6.5,4.5-10,6.4c-0.5,0.3-1.2,0.9-1.8,0
		L398.2,380.6z"/>
	<path fill="#FEFEFD" d="M689.6,486.8c0.8-5.3,1.7-10.5,2.5-15.8c0.9-5.9,1.9-11.7,2.7-17.6c0.3-2.2,1-4,2.9-5.5
		C698.1,451.3,692,483,689.6,486.8z"/>
	<path fill="#FEFEFD" d="M247.2,487.8c-4.5,12.4-7,25.4-12,38.1C235.6,516.7,240.2,502.1,247.2,487.8z"/>
	<path fill="#FEFEFD" d="M382,484.6c0.7-3.6,1.6-7.4,3.7-10.8c3.6-5.9,7.2-11.9,10.8-17.8c1.8-2.9,2.9-6.2,5.8-8.7
		c0.2,2.4-1.2,3.8-2.2,5.3c-2.7,4.3-5.5,8.6-8.2,12.9c-3.7,5.7-6.9,11.7-9.1,18.2C382.7,484.2,382.6,484.6,382,484.6z"/>
	<path fill="#FEFEFD" d="M656.6,645.6c3.6-4.9,22.1-20.7,28.3-24.5C676.1,630.9,665.9,637.7,656.6,645.6z"/>
	<path fill="#FEFEFD" d="M310.1,635c-7.5-6.2-15-12.4-16.5-23.5c3.8,3.7,5.3,8.3,8.1,12C304.6,627.3,307.4,631.2,310.1,635z"/>
	<path fill="#FEFEFD" d="M353.8,752.4c-7.9-2.1-15.6-4.9-22.5-9.3c-1.9-1.2-3.8-2.3-5.1-4.3C335,743.9,345.1,746.7,353.8,752.4
		L353.8,752.4z"/>
	<path fill="#FEFEFD" d="M603.1,518.5c-1.2-1.6,0.2-2.7,0.9-3.8c2.5-4.3,5.2-8.4,7.8-12.7c2.3-3.7,4.8-7.4,6-11.6c0.3-1,1-2,1.8-2.8
		C615.9,498.8,609.7,508.7,603.1,518.5L603.1,518.5z"/>
	<path fill="#FEFEFD" d="M334.7,445.2c-0.7-1.1-0.2-2.1,0.4-3.1c4.9-8.6,11.2-16.3,17.7-23.7c0.2-0.2,0.5-0.2,1.3-0.5
		c-2,3.6-5,5.8-6.9,8.7c-2.1,3.2-4.3,6.3-6.4,9.5C338.8,439.1,336.7,442.1,334.7,445.2L334.7,445.2z"/>
	<path fill="#FEFEFD" d="M751.4,518c1.4-7.7,2.2-15.5,4.6-23.1c0.2-0.6,0.7-0.8,1.9-0.5C757.1,502.6,753.7,510.1,751.4,518z"/>
	<path fill="#FEFEFD" d="M305.7,498.9c3.9-8.3,6.6-17.2,11.6-25C314.9,482.9,310.1,490.8,305.7,498.9z"/>
	<path fill="#FEFEFD" d="M601.6,677c8-5.7,16.4-8.7,24.4-12.3C618.1,668.6,611.2,674.5,601.6,677z"/>
	<path fill="#FEFEFD" d="M295.5,523.4c1.6-8.5,5.6-15.8,9.3-23.2C304.1,505.6,298.1,520.4,295.5,523.4z"/>
	<path fill="#FEFEFD" d="M396.7,592.8c-1,1-1.4-0.1-1.9-0.6c-5-5.2-8.1-11.5-9.4-18.7c1.7,3.2,3.5,6.4,5.2,9.6
		C392.5,586.4,395.3,589.2,396.7,592.8C396.6,592.8,396.7,592.8,396.7,592.8z"/>
	<path fill="#FEFEFD" d="M596.3,275.5c7.4-0.5,14.8-0.2,22.2,0.8C611,277.2,603.7,276.4,596.3,275.5z"/>
	<path fill="#FEFEFD" d="M722.7,329.8c-4.6-6.6-9.2-13.2-15.2-18.7c4.6,2.7,8.4,6.4,11.3,10.9C720.3,324.5,722.6,326.6,722.7,329.8
		L722.7,329.8z"/>
	<path fill="#FEFEFD" d="M526.5,689.1c6.9-0.6,13.8-3.4,21.1-1.4c-3.7,1-7.1,1.4-10.6,1.4C533.6,689,530,689.1,526.5,689.1z"/>
	<path fill="#FEFEFD" d="M574.5,450c0.6-0.4,1.1-0.1,1.4,0.4c3.2,4.6,4.9,9.7,4.7,15.4c0,0.4-0.2,0.8-0.4,1.2
		c-0.1,0.2-0.3,0.3-0.6,0.6C579.5,461.2,578.2,455.2,574.5,450L574.5,450z"/>
	<path fill="#FEFEFD" d="M609.7,329.8c5.5,0.8,10.5,2.9,14.9,6.2C619.4,334.8,614.5,332.5,609.7,329.8z"/>
	<path fill="#FEFEFD" d="M237.2,634.5c-2.4-4.1-3-8.7-3.9-13.1C235.6,625.5,237.3,629.7,237.2,634.5z"/>
	<path fill="#FEFEFD" d="M684.6,505c1.5-4.8,3-9.6,4.5-14.3C689.1,495.9,687.2,500.6,684.6,505z"/>
	<path fill="#FEFEFD" d="M477.2,470.7c0.1,0.5,0.4,1.2,0.2,1.6c-1.9,3.9-3.9,7.7-6.2,11.4C471.7,478.6,475.1,475,477.2,470.7
		L477.2,470.7z"/>
	<path fill="#FEFEFD" d="M413.4,313.3c4-3,8.5-5.2,12.6-8l0,0c0.2,0.4,0.3,0.9-0.1,1.1c-3.6,2.4-7.1,5.1-11.2,6.7
		c-0.4,0.1-0.8,0-1.3,0C413.5,313.2,413.4,313.3,413.4,313.3z"/>
	<path fill="#FEFEFD" d="M329.9,657.1c0.3-0.1,0.6-0.3,0.8-0.2c4.3,2.1,8.5,4.2,12.7,6.6C338.4,662.4,334.2,659.5,329.9,657.1
		L329.9,657.1z"/>
	<path fill="#FEFEFD" d="M528.5,431.9c3.7-2.2,7.6-2.7,12.2-1.2C536.4,432,532.4,431.3,528.5,431.9L528.5,431.9z"/>
	<path fill="#FEFEFD" d="M662,356c3.3,2.4,7,4.3,8.5,8.7c-3-2.7-6.1-5.3-9.1-8C661.6,356.5,661.8,356.2,662,356z"/>
	<path fill="#FEFEFD" d="M361.2,410.1c-2,2.7-4,5.4-6.9,7.3C355.7,414.2,358.5,412.2,361.2,410.1z"/>
	<path fill="#FEFEFD" d="M504.7,690.7c-2.3,1.1-4.6,0.7-7.8,0.5C500,690.3,502.3,689.7,504.7,690.7z"/>
	<path fill="#FEFEFD" d="M378.4,536.6c-1.8-2.9-2-6.1-0.8-11.7C377.5,528.7,379.1,532.4,378.4,536.6z"/>
	<path fill="#FEFEFD" d="M647.6,651.4c2.6-1.8,5.2-3.7,8.3-5.8C653.2,649.7,650.9,651.2,647.6,651.4
		C647.7,651.3,647.6,651.4,647.6,651.4z"/>
	<path fill="#FEFEFD" d="M545.3,509.3c1.9-2.2,4.1-1.2,6.4-1.3C549.7,510.4,547.5,509.2,545.3,509.3z"/>
	<path fill="#FEFEFD" d="M554.4,563c-1.6,2-3.7,2.8-6.9,2.6C549.9,563.8,552.1,563.3,554.4,563L554.4,563z"/>
	<path fill="#FEFEFD" d="M700.5,307c-1.2-1.6-3.2-2-4.4-3.4c0.2-0.2,0.4-0.3,0.6-0.5c1.6,0.4,2.7,1.6,3.9,2.6
		C701.1,306.1,700.8,306.6,700.5,307L700.5,307z"/>
	<path fill="#FEFEFD" d="M621.9,276.2c0.7,0.2,1.3,0.4,2.2,0.6C623.1,276.7,622.4,276.9,621.9,276.2z"/>
	<path fill="#FEFEFD" d="M474.5,387.8c0.5-0.9,1.4-1.3,2.4-1.5C476.9,387.9,475.3,387.2,474.5,387.8z"/>
	<path fill="#FEFEFD" d="M700.4,307.1c1.8-0.1,1.8-0.1,3.8,1.9C702.8,308.2,701.7,307.6,700.4,307.1
		C700.5,307,700.4,307.1,700.4,307.1z"/>
	<path fill="#FEFEFD" d="M758,490.9c-0.1,0.4-0.1,0.8-0.2,1c0-0.2,0-0.6,0-1C757.9,490.9,757.9,490.9,758,490.9z"/>
	<path fill="#FEFEFD" d="M705.2,309.5c0.8-0.3,1.2,0.3,1.5,0.8c0,0.1-0.3,0.5-0.3,0.5C705.9,310.5,705.2,310.3,705.2,309.5z"/>
	<path fill="#FEFEFD" d="M398.1,380.6c1,1.4-0.8,0.6-0.8,0.7c0-0.1,0.3-0.6,0.9-0.6C398.2,380.6,398.1,380.6,398.1,380.6z"/>
	<path fill="#FEFEFD" d="M726.5,573.3c-0.3-0.1-0.5,0-0.6,0.4c0,0.1,0.1,0.2,0.1,0.4C726.2,573.8,726.3,573.6,726.5,573.3
		L726.5,573.3z"/>
	<path fill="#FEFEFD" d="M347.2,666.1c-0.6-0.2-1.3-0.4-1.9-0.6l-0.1,0.1C345.9,665.6,346.7,665.4,347.2,666.1
		C347.1,666.1,347.2,666.1,347.2,666.1z"/>
	<polygon fill="#FEFEFD" points="724.1,576.6 724.2,577 724.4,576.6 	"/>
	<path fill="#FEFEFD" d="M295,410.8c-1.7-0.7-0.1-1.5-0.1-2.3l-0.1-0.1c0.9,0.8,0.1,1.6,0,2.4C294.9,410.8,295,410.8,295,410.8z"/>
	<path fill="#FEFEFD" d="M307,732.7c0.2,0.1,0.6,0.1,0.6,0.2c0.1,0.2-0.1,0.2-0.3-0.1C307.3,732.7,307.2,732.7,307,732.7
		C307.1,732.6,307,732.7,307,732.7z"/>
	<path fill="#FEFEFD" d="M470.4,485.7c-0.1-0.1-0.2-0.2-0.2-0.3c0-0.2,0.1-0.4,0.2-0.6c0.1,0.1,0.3,0.2,0.3,0.2
		C470.5,485.3,470.4,485.5,470.4,485.7z"/>
	<path fill="#FEFEFD" d="M426,305.4c0.4,0.3,0.7-0.1,1-0.2C426.8,306,426.3,305.1,426,305.4C426,305.4,426,305.4,426,305.4z"/>
	<path fill="#FEFEFD" d="M353.7,752.3c0.2,0.1,0.4,0.4,0.5,0.4c0.3,0,0.4-0.3,0.2-0.4C354.3,752.2,354,752.4,353.7,752.3
		C353.8,752.4,353.7,752.3,353.7,752.3z"/>
	<path fill="#FEFEFD" d="M413.5,313.2l0.1,0.2c0,0-0.2-0.1-0.2-0.1C413.4,313.3,413.5,313.2,413.5,313.2z"/>
	<path fill="#FEFEFD" d="M600.9,520.5c0.1,0,0.2,0,0.2-0.1C601.2,520.2,601.2,520.2,600.9,520.5L600.9,520.5z"/>
	<path fill="#FEFEFD" d="M601,520.4l0.1,0.2C601.1,520.6,600.9,520.5,601,520.4C600.9,520.5,601,520.4,601,520.4z"/>
	<path fill="#FEFEFD" d="M647.7,651.3c0,0.1,0,0.2,0,0.2C647.7,651.5,647.6,651.4,647.7,651.3C647.6,651.4,647.7,651.3,647.7,651.3z
		"/>
	<polygon fill="#FEFEFD" points="329.8,657 329.9,656.9 329.9,657.1 	"/>
	<path fill="#FEFEFD" d="M477.2,470.7c0.3,0.2,0.5,0.2,0.7-0.1C477.8,471.4,477.4,470.5,477.2,470.7
		C477.2,470.7,477.2,470.7,477.2,470.7z"/>
	<path fill="#FEFEFD" d="M345.3,665.5c-0.2-0.2-0.3-0.4-0.5-0.5c0.1,0,0.1-0.2,0.2-0.1C345.5,664.9,345.4,665.2,345.3,665.5
		C345.2,665.6,345.3,665.5,345.3,665.5z"/>
	<path fill="#FEFEFD" d="M659.9,553.7c0.1-0.1,0.2-0.2,0.4-0.4c0,0.1-0.1,0.2-0.1,0.2C660.1,553.6,659.9,553.6,659.9,553.7
		C659.8,553.6,659.9,553.7,659.9,553.7z"/>
	<path fill="#FEFEFD" d="M249.5,665.8c-0.2,0.3-0.5,0.5-0.8,0.1c0,0,0-0.2,0-0.2c0.2,0.1,0.4,0.1,0.7,0.2
		C249.4,665.9,249.5,665.8,249.5,665.8z"/>
	<path fill="#FEFEFD" d="M659.1,554.6c0-0.6,0.2-0.9,0.8-0.9c0,0-0.1-0.1-0.1-0.1C659.8,554.1,660.1,555,659.1,554.6
		C659,554.5,659.1,554.6,659.1,554.6z"/>
	<path fill="#FEFEFD" d="M574.5,449.9c0-0.1,0-0.3,0-0.4C574.5,449.7,574.5,449.9,574.5,449.9C574.5,450,574.5,449.9,574.5,449.9z"
		/>
	<path fill="#FEFEFD" d="M347.1,666.1c0.2,0.1,0.3,0.3,0.4,0.3C347.5,666.4,347.3,666.2,347.1,666.1
		C347.2,666.1,347.1,666.1,347.1,666.1z"/>
	<path fill="#FEFEFD" d="M334.7,445.1c-0.3-0.1-0.5-0.2-0.8-0.4C334.4,444.5,334.5,445,334.7,445.1
		C334.7,445.2,334.7,445.1,334.7,445.1z"/>
	<path fill="#FEFEFD" d="M528.6,431.8l0,0.1C528.6,432,528.5,431.9,528.6,431.8C528.5,431.9,528.6,431.8,528.6,431.8z"/>
	<path fill="#FEFEFD" d="M554.3,563.1l0-0.1C554.3,562.9,554.4,563,554.3,563.1C554.4,563,554.3,563.1,554.3,563.1z"/>
	<path fill="#FEFEFD" d="M757.1,419l-0.1,0C756.9,419,757,418.9,757.1,419C757,418.9,757.1,419,757.1,419z"/>
	<path fill="#FEFEFD" d="M294.9,408.5c0.3-0.2,0.6-0.5,1-0.7c0,0-0.1-0.1-0.1-0.1c0,0.3,0.4,0.6,0,1
		C295.2,409.1,295.1,408.5,294.9,408.5C294.8,408.4,294.9,408.5,294.9,408.5z"/>
	<path fill="#FEFEFD" d="M296.7,406.9c0.2,0.8,0.1,1.3-0.9,0.8c0,0,0.1,0.1,0.1,0.1c0.3-0.3,0.6-0.5,0.9-0.8L296.7,406.9z"/>
	<path fill="#FEFEFD" d="M726.5,573.4l0-0.2C726.5,573.2,726.5,573.3,726.5,573.4C726.5,573.3,726.5,573.4,726.5,573.4z"/>
	<path fill="#FEFEFD" d="M603.1,518.4c-0.3,0-0.5-0.1-0.8-0.1c0.1-0.1,0.3-0.3,0.4-0.4C602.8,518,602.9,518.2,603.1,518.4
		C603.1,518.5,603.1,518.4,603.1,518.4z"/>
	<path fill="#FEFEFD" d="M296.8,407c0.2-0.1,0.4-0.3,0.6-0.4c0,0.2,0,0.3,0,0.5c-0.2,0-0.4-0.1-0.6-0.2
		C296.7,406.9,296.8,407,296.8,407z"/>
	<path fill="#FEFEFD" d="M397.7,593.5c-0.7,0.3-1.3,0.3-0.9-0.7c0,0-0.1,0.1-0.1,0.1c0.4,0.3,0.7,0.5,1.1,0.8L397.7,593.5z"/>
	<polygon fill="#FEFEFD" points="397.7,593.6 397.6,593.7 397.7,593.5 	"/>
	<path fill="#FEFEFD" d="M589.6,608.7c0,0.1,0.1,0.3,0.1,0.4c0,0,0,0,0,0C589.7,609,589.7,608.8,589.6,608.7
		C589.6,608.7,589.6,608.7,589.6,608.7z"/>
	<path fill="#FEFEFD" d="M659.8,355.3c0.2,0,0.5,0.1,0.7,0.1c-0.5,0.5-0.5-0.4-0.8-0.2L659.8,355.3z"/>
	<path fill="#FEFEFD" d="M659.7,355.2l0.1-0.1c0,0,0,0.2,0,0.2C659.8,355.3,659.7,355.2,659.7,355.2z"/>
	<polygon fill="#FEFEFD" points="722.6,329.8 722.9,329.7 722.7,329.8 	"/>
	<path fill="#FEFEFD" d="M181.1,584.2c-7.5,4.6-15.7,7-24.2,8.4C164.4,588,172.1,584.3,181.1,584.2z"/>
	<path fill="#FEFEFD" d="M802.6,565.1c2.2-1,4.4-0.7,7.5-0.2C807.1,565.7,804.9,565.4,802.6,565.1z"/>
	<path fill="#FEFEFD" d="M260.7,355.6c-0.7,0.3-1.4,0.5-2.1,0.2c-3.8-1.8-7.7-3.5-11-6.3C252.3,350.8,256.4,353.5,260.7,355.6
		L260.7,355.6z"/>
	<path fill="#FEFEFD" d="M260.6,355.7c0,0.3,0,0.5,0.1,0.8C259.9,356.2,260.7,355.9,260.6,355.7
		C260.7,355.6,260.6,355.7,260.6,355.7z"/>
	<path fill="#FEFEFD" d="M214.4,727.8c0.1-0.1,0.2-0.2,0.3-0.3c0.1,0.2,0.2,0.4,0.3,0.6c0,0.1-0.2,0.2-0.3,0.3
		C214.6,728.2,214.5,728,214.4,727.8z"/>
	<path fill="#FEFEFD" d="M179.7,750c0.3-0.2,0.7-0.5,1-0.2c0.3,0.4,0,0.6-0.4,0.7C180.1,750.4,179.9,750.2,179.7,750z"/>
	<path fill="#FEFEFD" d="M158.8,494.7c3.4-2.3,10.3-2,17.6,0.9c-3.7,0-6.3,0.1-9,0C164.6,495.4,161.8,495,158.8,494.7z"/>
	<path fill="#FEFEFD" d="M342.2,826.5c-0.2,0.2-0.4,0.3-0.6,0.5C341.5,826.2,341.9,826.5,342.2,826.5
		C342.3,826.6,342.2,826.5,342.2,826.5z"/>
	<path fill="#FEFEFD" d="M679.1,736.4c1.2-0.5,1.6,0.1,2.1,1.1C680,737.6,680,736.4,679.1,736.4L679.1,736.4z"/>
	<path fill="#FEFEFD" d="M679.1,736.4c0.4-0.4-0.1-0.7-0.1-1C680.1,735.6,678.9,736.1,679.1,736.4
		C679.1,736.4,679.1,736.4,679.1,736.4z"/>
</g>
</svg>
