<?xml version="1.0" encoding="utf-8"?>
<!-- Generator: Adobe Illustrator 18.1.1, SVG Export Plug-In . SVG Version: 6.00 Build 0)  -->
<svg version="1.1" id="Layer_1" xmlns="http://www.w3.org/2000/svg" xmlns:xlink="http://www.w3.org/1999/xlink" x="0px" y="0px"
	 width="1000px" height="1000px" viewBox="0 0 1000 1000" enable-background="new 0 0 1000 1000" xml:space="preserve">
<g>
	<defs>
		<rect id="SVGID_1_" y="126" width="1002.9" height="748"/>
	</defs>
	<clipPath id="SVGID_2_">
		<use xlink:href="#SVGID_1_"  overflow="visible"/>
	</clipPath>
	<g clip-path="url(#SVGID_2_)">
		<path fill="#282751" d="M857.6,521.1c-0.5-1-0.3-1.8-0.2-2.9c14.7,0,29.4,0,44.2,0c0.7,0.8,0.4,1.7,0.2,2.7
			c-0.2,0.2-0.4,0.4-0.7,0.5c-10.4,1.6-15.1,8.4-16.9,18c-1.6,8.4-1.9,16.9-1.9,25.4c0,53.6,0,107.2,0,160.9c0,13,0,25.9,0,38.9
			c0,1,0,1.9,0,2.8c-4.8,1.3-6,1-6.8-3c-1.3-6.1-4.6-11.3-6.6-17.1c-2.1-6.2-4.9-12.2-6.7-18.5c-1.2-4-3.5-7.5-4.8-11.6
			c-2-6.5-4.6-12.8-7.1-19.1c-3.1-7.7-6.5-15.3-9.4-23c-3.8-10.1-7.7-20.2-11.7-30.2c-3.4-8.4-6.6-16.9-9.7-25.4
			c-4.2-11.2-8.3-22.5-12.6-33.6c-5.6-14.5-11.3-29-17-43.5c-0.4-1-0.5-2.1-1.4-2.9c-0.8,0.7-0.5,1.6-0.5,2.3
			c0,57.2,0,114.5,0.1,171.7c0,9.5,0.5,18.9,2.6,28.2c0.8,3.8,2,7.5,4.2,10.8c3,4.3,7.3,6.7,12.3,7.8c1.5,0.3,3,0.6,4.4,0.9
			c0.6,1,0.6,1.9,0,3c-31.9,0-63.9,0-95.8,0c-0.5-1.3-0.6-2.3,0-3.3c1-0.7,2.2-0.5,3.3-0.6c4.8-0.5,8.9-4.7,9.8-9.3
			c1-5.2,0.2-10.3-0.6-15.4c-2.4-15.5-5.8-30.9-9-46.3c-4.1-19.7-8.3-39.5-12.5-59.2c-0.2-0.8-0.5-1.6-0.8-2.6c-9.4,0-18.8,0-28.5,0
			c-1.4,4.1-2,8.5-2.9,12.8c-5.6,26.5-11.1,53.1-16.5,79.7c-1.7,8.5-2.9,17-1.3,25.7c1.1,6,3.4,11.2,9.4,13.9
			c1.5,0.7,3.1,1.1,4.7,1.6c0.5,1,0.4,1.9-0.1,3c-12.6,0-25.2,0-37.9,0c-0.7-1.7-0.6-2.8,1.2-3.8c5.9-3.1,8.9-8.4,11.1-14.4
			c4-10.6,6.5-21.6,8.9-32.6c6.6-30.6,13.2-61.2,19.7-91.8c4.6-21.5,9.1-43,13.6-64.5c1.5-7,1.5-14.1,0.5-21.2
			c-1.1-7.3-3.5-13.7-11.9-14.7c-0.6-1.3-0.6-2.2-0.1-3.3c8.1,0,16.2,0,24.6,0c1.5,6.8,3.1,13.6,4.6,20.3
			c10.8,49,21.7,98,32.4,147.1c3.6,16.6,7.2,33.2,11.1,49.7c1.1,4.7,2.5,9.4,4.2,14c1.4,3.5,3.3,6.7,6.3,9.2c2.9,2.3,6,2.7,9.4,1.5
			c4.9-1.7,8.2-5.1,10.2-9.9c2-4.8,2.9-9.9,3.3-15c1.2-13.2,1.1-26.4,1.1-39.7c0-48,0-96.1-0.1-144.1c0-5.1-0.1-10.3-0.8-15.4
			c-1.1-7.6-5.4-11.9-12.7-13.7c-1.2-0.3-2.4-0.6-3.6-0.9c-0.8-0.9-0.6-1.8-0.3-3c12.3,0,24.7,0,37.5,0
			c24.3,63.2,48.8,126.6,73.2,190c1.4-0.5,0.9-1.5,0.9-2.2c0-49-0.1-98-0.2-147.1c0-6.1-0.6-12.2-1.5-18.3c-0.1-0.6-0.1-1.1-0.3-1.7
			C873.5,528.7,868.5,523.7,857.6,521.1z M691.4,562c-4.2,19.8-8.5,39.6-12.7,59.4c4.1,0.8,23.3,0.6,26.2-0.2
			C700.5,601.5,696.8,581.6,691.4,562z"/>
		<path fill="#282751" d="M57,378.6c15.2-7.2,30.6-14.5,46-21.7c1.6,1,1.4,2.8,2.5,4.2c-2.4,1.4-4.6,2.5-6.7,3.8
			c-13,7.7-16,17.2-9.7,31c2.2,4.9,5.3,9.2,8.6,13.3c16.2,19.8,36.2,34.3,60.6,41.9c30.1,9.4,59,5.3,85.9-10.9
			c21.5-13,37.5-31.2,45.2-55.5c10.1-31.7,7.1-62.5-9.5-91.4c-9.9-17.2-24.9-28.2-44.7-32.1c-15.9-3.1-31.3-0.6-46.2,5.3
			c-11.9,4.7-23.1,10.9-34.2,17.3c-14.3,8.3-28.8,16.4-44.2,22.5c-6.6,2.6-13.5,4.4-20.6,5.1c-13,1.3-25.3-4.9-31.1-16.1
			c-3.3-6.5-4.1-13.5-3.3-20.7c1.8-16.8,10.7-29.6,23.5-39.9c9.8-8,21.3-12.5,33.6-14.9c4.4-0.8,8.8-1.6,13.1-2.3
			c4.2-0.6,8.1-1.8,11.7-4.2c2.3,3.3,9.5,35.6,9.7,43.3c-1,1.1-2.4,1-3.8,1.3c-0.9-1.1-1-2.3-1.3-3.5c-0.8-3.7-2.1-7.2-3.6-10.6
			c-6.6-14.3-19.8-18.6-31.9-16.8c-18.1,2.8-29.8,13.3-35.5,30.7c-1.6,5-2.9,10.2-2.2,15.6c1.4,11,8.1,16.8,19.2,16.6
			c5.2-0.1,10.2-1.4,15.1-3c15.3-4.9,29.4-12.6,43.3-20.5c12.4-7,24.6-14.3,37.8-19.6c15.6-6.3,31.8-9.4,48.6-7.7
			c20.8,2.2,38.2,11.5,52,27.1c13.3,15,19.8,33,22.6,52.5c7.7,52.2-19.8,98.8-58.3,124.2c-16.7,11-34.7,18.3-54.5,20.7
			c-39.9,4.8-74.9-6.3-104.7-33.4c-14.8-13.4-25.6-29.6-32.6-48.4C57.2,380.8,56.6,380,57,378.6z"/>
		<path fill="#282751" d="M50.1,764.5c-0.8-2.3-0.6-3.7,1.6-3.9c9.3-1.1,12.2-7.7,13.4-15.6c1.2-8.1,1.6-16.4,1.6-24.6
			c0.1-40,0.2-79.9,0.2-119.9c0-18.7,0.4-37.3-0.8-56c-0.2-3.8-0.7-7.5-1.5-11.1c-1.5-6.8-5.3-11.2-12.6-12c-0.4,0-0.8-0.1-1.2-0.2
			c-0.1,0-0.2-0.2-0.4-0.3c0-0.4-0.1-1-0.1-1.5c0-0.4,0.1-0.8,0.2-1.1c0.7-0.5,1.4-0.5,2.1-0.4c18.4,0.6,36.7-1.1,55.1-1.8
			c18.1-0.7,35.9,1.4,52.8,8.2c39.3,15.9,65,44.2,75.1,85.5c9.3,37.9,3.2,73.6-19.4,105.7c-15.8,22.5-37.1,37.8-63.6,45.4
			c-9,2.6-18.2,4-27.6,4.4c-10.7,0.5-21.4,0.2-32.1-0.5c-10.8-0.7-21.7-0.3-32.6-0.3C56.9,764.5,53.6,764.5,50.1,764.5z M85.4,640.6
			c0,25.2-0.1,50.4,0.1,75.6c0,7.5,0.2,15,1.4,22.5c1.4,9.1,6.3,15.2,14.9,18.4c4.9,1.8,9.9,2.9,15.1,3.1c19.5,1,37.5-4,53.9-14.6
			c15.4-10,26.4-23.8,34.1-40.3c13.7-29.5,15.9-60.2,9.6-91.8c-3.5-17.5-9.8-34-19.8-48.8c-17.2-25.5-40.8-40.5-71.8-43
			c-7.1-0.6-14.2-0.2-21.1,2.1c-7.6,2.5-12.5,7.2-14.2,15.4c-1.5,7.2-1.7,14.4-1.9,21.6C84.9,587.4,85.4,614,85.4,640.6z"/>
		<path fill="#282751" d="M516.8,454.9c0.4,1.6,0.1,2.9-1.5,3.5c-8.1,2.9-16.3,4.8-24.9,3.1c-6.2-1.2-10.9-4.6-14.3-9.9
			c-3-4.6-5.1-9.6-7.1-14.6c-8.4-20.8-15.8-41.9-23.5-62.9c-3.2-8.8-6.5-17.5-11-25.7c-2.9-5.3-6.7-9.9-12-13
			c-2.7-1.6-5.5-3.2-8.8-3c-0.8,0.9-0.5,1.7-0.5,2.5c0,30.9-0.4,61.8,0.7,92.7c0.2,5.3,0.4,10.6,1.4,15.8
			c1.4,7.5,5.5,12.4,13.3,13.4c2,0.3,2.7,1.1,2,3.3c-17.4,0-34.8,0-52.4,0c-0.1-0.4-0.3-0.8-0.3-1.2c0-0.5,0.1-1.1,0.2-1.7
			c0.6-0.2,1.2-0.3,1.7-0.4c8.5-1.9,11.8-5.4,13.1-14c1.1-7.2,1.6-14.4,1.6-21.6c0.1-38.2,0.1-76.3,0.2-114.5c0-17.1,0-34.3,0-51.4
			c0-7.8-0.2-15.6-1.5-23.3c-1.7-10-4.3-12.7-14.1-14.8c-0.6-0.9-0.6-1.8,0.1-3c5.1-0.4,10.3-1,15.5-1.2c10.3-0.5,20.6-1,30.9-0.2
			c11.5,1,22.1,4.5,30.7,12.5c7.5,6.9,12.1,15.6,14.5,25.4c4,16.1,3.7,32-2.2,47.6c-6.3,16.6-18.2,26.9-35.5,31
			c-0.9,0.2-1.9,0.5-2.9,0.8c0.7,1.2,2.1,1.2,3.2,1.7c11.2,4.3,19.7,11.8,25.8,22.1c4.8,8.2,8.1,17.1,11.5,25.9
			c6.5,16.9,12.6,33.9,20.1,50.3c2.2,4.8,4.7,9.5,7.9,13.7c4.3,5.8,9.7,9.9,17.2,10.6C516.1,454.5,516.4,454.7,516.8,454.9z
			 M413.1,326.5c1.3,0.2,2.1,0.3,3,0.3c1.5,0,3.1,0,4.6,0c11.1-0.6,19.2-5.7,24.3-15.7c1.6-3.1,3-6.3,3.9-9.7
			c5.1-18.5,5.1-37.1,1.1-55.7c-1.4-6.4-3.4-12.6-7.2-18.1c-5-7-11.9-10.3-20.4-10.1c-5,0.1-6.6,1.6-7.6,6.5c-0.7,3.3-0.9,6.6-1,10
			c-0.9,27.3-0.5,54.6-0.6,81.8C413.1,319.2,413.1,322.7,413.1,326.5z"/>
		<path fill="#282751" d="M676.3,457.3c0.5,1.1,0.5,1.9-0.2,2.9c-14.6,0-29.3,0-43.9,0c-0.4-1-0.5-1.8,0-2.7c0.3-0.1,0.6-0.4,1-0.5
			c9-1.6,13.6-7.5,15.3-16.1c1.8-9.3,2.1-18.8,2.2-28.3c0.2-35.2,0.1-70.5,0.1-105.7c0-18,0-35.9,0-53.9c0-7.2-0.2-14.4-1.5-21.6
			c-1.6-8.8-4.4-11.9-13.2-13.6c-2.4-0.5-2.4-0.5-2.6-3.4c12.3,0,24.7,0,37.3,0c24.9,64.4,49.8,128.9,74.8,193.4
			c1.1-0.4,0.8-1.2,0.8-1.7c0-51,0.3-102-0.3-152.9c-0.1-6.4-0.8-12.7-2.2-19c-2.2-9.5-7.7-15.2-17.5-16.5c-0.3,0-0.5-0.2-0.8-0.4
			c-0.1-0.3-0.3-0.7-0.3-1.1c0-0.5,0.1-1.1,0.2-1.8c15.2,0,30.3,0,45.4,0c0.7,1.8,0.2,2.9-1.4,3.4c-0.4,0.1-0.8,0.1-1.2,0.2
			c-7.1,1.3-11.6,5.6-13.9,12.4c-2,5.9-2.7,11.9-3,18.1c-1.3,26-0.5,52.1-0.6,78.1c-0.1,44.2-0.1,88.3-0.1,132.5
			c0,1.5,0.3,3-0.4,4.7c-1.7,0.3-3.5,0.2-5.5,0c-29.5-76.2-59-152.3-88.6-228.5c-0.3,0.1-0.6,0.1-0.9,0.2c0,1.4,0,2.8,0,4.3
			c0,56.7,0,113.4,0,170.1c0,8.5,0.5,17,1.6,25.4C658.3,444.7,662.2,454.5,676.3,457.3z"/>
		<path fill="#282751" d="M280.4,523.2c0,31.3,0,62.1,0,93.4c6.7-0.2,13.4,0.5,20-1c4.4-1,7.2-4.1,8.8-8.2c1.5-3.6,2.2-7.5,2.5-11.4
			c0.4-4.4,0.7-8.8,1-13.2c1.2-0.7,2.3-0.5,3.8,0.1c-0.6,25.1-0.1,50.4-0.1,75.5c-1.3,1-2.4,0.8-3.6,0.4c-0.1-0.5-0.3-1-0.3-1.5
			c0-6.6-0.4-13.1-1.5-19.5c-0.1-0.4-0.1-0.8-0.2-1.2c-2.1-10.3-6.4-14-16.8-14.4c-4.4-0.2-8.9,0-13.1,0c-0.8,0.8-0.7,1.5-0.7,2.2
			c0.1,36.4-0.3,72.7,0.7,109.1c0.1,5.2,0.6,10.3,1.6,15.3c1.2,5.8,4.7,9.3,10.6,10.2c7.1,1.1,14.2,1,21.2-0.5
			c6.4-1.3,11.5-4.8,15.4-10.1c4.1-5.6,6.7-11.8,8.7-18.4c3.9-12.7,5.8-25.8,7-38.9c1.1-1.1,2.3-0.7,4.1-0.5
			c-1.1,24.5-2.2,49.1-3.4,73.8c-33.7,0-67.3,0-100.7,0c-0.7-1-0.6-1.9-0.3-2.9c0.8-0.8,1.8-0.8,2.7-0.9c6.3-1,9.8-4.9,11.3-10.8
			c2-8.2,2.3-16.6,2.4-24.9c0.3-20.1,0.3-40.1,0.3-60.2c0-37.9-0.1-75.8-0.1-113.7c0-4.9-0.5-9.7-1-14.6c-1-10-4.2-13.4-14-15.3
			c-0.5-0.9-0.5-1.8-0.1-3c30,0,60,0,90.3,0c0.9,19.5,1.8,38.7,2.7,58.1c-1.5,0.4-2.7,0.6-4.1-0.2c-0.7-6.9-1.5-14-2.9-20.9
			c-1-5.1-2.3-10-4.1-14.9c-3.7-10.1-10.7-16.1-21.6-16.9C298.1,522.7,289.4,523.2,280.4,523.2z"/>
		<path fill="#282751" d="M519,214.2c30.1,0.1,60,0.2,90-0.2c0.8,19.7,1.6,39,2.4,58.3c-1.3,1-2.5,0.6-4,0.4
			c-0.5-4.5-1-8.9-1.5-13.3c-0.9-7.5-2.3-14.8-4.9-21.9c-0.7-2-1.6-3.9-2.5-5.7c-3.5-6.8-9-10.9-16.6-11.9
			c-9.3-1.2-18.6-0.6-28.2-0.6c0,31.3,0,62.2,0,93.3c0.6,0.9,1.7,0.6,2.6,0.6c5.3-0.1,10.6,0.2,15.8-0.6c6.9-1,11-4.8,12.8-11.4
			c1.6-5.8,1.9-11.8,2.5-17.8c0.1-1.1,0.2-2.2,0.2-3.3c1.2-1,2.3-1,3.8,0c-0.8,25-0.4,50.2-0.2,75.2c-1.3,0.7-2.3,0.7-3.5,0.1
			c-0.3-4.3-0.7-8.5-1.1-12.8c-0.4-4.3-1.1-8.6-2.5-12.7c-2.3-6.9-7.1-10.5-14.3-10.8c-5.4-0.2-10.8,0-16,0
			c-0.8,1.3-0.5,2.4-0.5,3.5c0,28-0.1,56,0.1,84c0.1,11.1,0.2,22.3,1.4,33.4c0.1,0.8,0.1,1.7,0.2,2.5c1.4,8.5,5.7,12.4,14.3,13
			c4.9,0.3,9.7,0.1,14.6-0.2c10.5-0.7,17.9-6.2,23-15.2c5.2-9.2,7.8-19.3,9.8-29.6c1.5-7.6,2.5-15.3,3.8-23c1.1-1,2.3-0.4,3.8-0.4
			c-1.3,24.6-2.6,48.9-3.8,73.3c-34.1,0-67.9,0-101.8,0c-0.7-1.9-0.5-3,1.6-3.3c8.4-1.1,11.6-6.9,12.9-14.3
			c1.2-6.9,1.5-13.9,1.5-20.8c0.2-34.7,0.3-69.3,0.3-104c0-22.6-0.1-45.1-0.2-67.7c0-6.6-0.6-13.1-1.6-19.5
			c-1.1-7.1-4.5-11.9-12.1-12.8C519.3,217.6,517.8,217,519,214.2z"/>
		<path fill="#282751" d="M448.6,521.1c-0.6-1.1-0.5-1.9-0.3-3c17.6,0,35.2,0,52.8,0c0.5,1,0.5,2,0,3c-1.3,0.3-2.6,0.6-4,0.9
			c-5.3,0.9-8.4,4.1-9.8,9c-1.7,5.6-2.2,11.5-2.5,17.3c-1.4,37.5-0.6,74.9-0.7,112.4c-0.1,36.1,0,72.1-0.1,108.2
			c0,15.5-1.5,30.9-5.9,45.8c-2.4,8.2-5.5,16.1-10.9,22.8c-7.1,8.9-16.1,14.4-27.7,15c-14,0.7-25-6.5-29.6-19.7
			c-2.6-7.5-2.9-15.3-1.2-23.1c0.4-2,1.2-4,2.3-5.8c1.7-2.6,3.9-4.5,7.1-4.2c3.2,0.3,5.3,2.4,6.4,5.3c1.2,3,1.8,6.1,1.8,9.4
			c0,4.5-0.2,8.9-0.5,13.4c-0.2,2.9-0.4,5.8-0.3,8.8c0.3,6.5,4,10.2,10.5,10.7c6.8,0.5,12.2-2.1,16.2-7.5c4.2-5.7,6.5-12.2,8.1-19.1
			c2.6-10.9,3.6-22,4.2-33.1c1.3-25.7,0.7-51.5,0.8-77.3c0.1-48.9,0-97.8-0.1-146.7c0-8.6-0.4-17.3-1.4-25.8
			c-0.3-2.4-0.9-4.6-1.6-6.9c-1.6-5-4.7-8.1-9.9-9C451.1,521.7,449.9,521.4,448.6,521.1z"/>
		<path fill="#282751" d="M607,521.1c-0.5-1.1-0.3-1.9-0.1-3c13.4,0,26.8,0,40.3,0c0.7,0.9,0.5,1.8,0.3,2.7
			c-0.7,0.8-1.7,0.8-2.6,0.9c-5.8,1.1-9.2,4.8-11.1,10.2c-1.6,4.5-2.3,9.2-2.7,13.9c-0.6,7.8-1,15.6-0.9,23.4c0,35.9,0,71.9,0,107.8
			c0,16.6-1.5,33.1-5.8,49.2c-1.9,7-4.6,13.8-8.4,19.9c-6.2,9.9-14,18-25.9,20.8c-19.6,4.7-39.3-1.5-50.8-21.8
			c-5.2-9.1-7.8-19-9.4-29.2c-1.9-12.3-2.3-24.7-2.2-37.1c0.2-42.5,0.4-85-0.3-127.4c-0.1-5.4-0.4-10.9-1.4-16.2
			c-1.9-10-4.2-12.2-14.1-14.2c-0.6-0.9-0.5-1.8-0.2-3c17.2,0,34.4,0,51.6,0c0.6,1,0.5,1.9,0.1,3c-1.1,0.3-2.3,0.6-3.5,0.8
			c-5.6,1-8.8,4.4-10.2,9.7c-1.2,4.6-1.9,9.3-2.1,14c-0.9,19.5-0.8,39-0.8,58.5c0,26.2-0.1,52.4,0.1,78.6
			c0.1,12.9,0.5,25.9,3.1,38.7c1.4,6.8,3.4,13.5,6.8,19.6c9.5,16.8,31.2,21.1,46.4,9.2c6.7-5.2,11.2-11.9,14.2-19.7
			c3.8-9.8,5.7-20,6.9-30.4c2.1-18.6,1.5-37.3,1.5-55.9c0.1-24.9,0-49.9-0.1-74.8c0-8.9-0.3-17.8-1.4-26.7c-0.4-2.8-1-5.5-1.8-8.1
			c-2-6.7-6.1-11.1-13.1-12.7C608.7,521.6,607.9,521.4,607,521.1z"/>
		<path fill="#282751" d="M812.1,217.4c-0.4-0.8-0.3-1.6,0-2.7c8.5,0,17.1,0,25.9,0c1.7,4.4,2,9.2,3.2,13.9
			c1.8,7.4,3.3,14.9,4.9,22.3c3.6,16.5,7.2,32.9,10.8,49.4c4.5,20.5,9,41.1,13.5,61.6c4.1,18.7,8.1,37.5,12.2,56.2
			c2,8.9,3.8,17.8,6.6,26.5c1.6,5.1,4.3,9.1,9.2,11.6c1.3,0.6,2.7,0.6,3.8,1.2c0.6,1,0.6,1.9,0,2.9c-16,0-32.1,0-48.1,0
			c-0.8-0.9-0.5-1.7-0.4-2.4c1-1.2,2.4-0.9,3.6-1.3c6.2-1.9,8.9-5.2,9.5-11.7c0.4-4.9-0.4-9.7-1.2-14.5c-3.2-18.1-7.2-36-10.9-54
			c-3.2-15.7-6.5-31.3-9.8-47c-0.3-1.2-0.6-2.4-1-3.8c-9.5,0-18.9,0-28.5,0c-1.7,3.3-1.9,7.1-2.6,10.7
			c-5.4,25.7-10.6,51.5-15.9,77.2c-1.2,5.9-2.1,11.8-2.6,17.7c-0.3,3.9-0.3,7.8,0.5,11.6c1.5,7,5,12.4,12.5,14
			c2.1,0.4,2.5,1.3,1.7,3.4c-12.8,0-25.5,0-38.2,0c-0.5-0.9-0.4-1.7-0.1-2.9c6.8-1.4,9.8-6.9,12.2-12.8c4.2-10.5,6.9-21.4,9.2-32.4
			c6.6-31.4,13.3-62.8,19.8-94.3c4.5-21.5,8.8-43,13.4-64.5c1.8-8.2,1-16.3-0.6-24.4c-1.2-5.8-4.5-9.8-10.6-10.9
			C813.4,217.9,812.7,217.9,812.1,217.4z M842.7,319.7c-4.4-20.7-8.7-41.2-13-61.6c-0.2,0-0.4,0-0.6,0c-4.2,20.5-8.5,40.9-12.8,61.6
			C825.3,319.7,833.7,319.7,842.7,319.7z"/>
		<path fill="#282751" d="M367.5,214.3c0.5,1.1,0.4,1.9,0.1,2.7c-1,1-2.3,0.7-3.5,0.9c-5.5,1.2-9.3,4.2-10.7,9.8
			c-1.6,6.4-2.1,12.9-2.3,19.4c-1,30.8-0.6,61.5-0.5,92.3c0,28.8-0.5,57.6,0.5,86.5c0.2,5.6,0.5,11.1,1.6,16.6
			c0.1,0.4,0.1,0.8,0.2,1.2c1.6,7,5.5,11.8,12.9,12.9c1.9,0.3,3.4,0.7,2.3,3.4c-17.5,0-35.1,0-52.8,0c-0.7-0.8-0.5-1.9,0-2.9
			c10.1-2,13.1-5,15-15.1c1.1-5.9,1.3-11.9,1.5-17.9c0.8-30.9,0.3-61.8,0.4-92.7c0-28.4,0.3-56.8-0.4-85.2
			c-0.1-5.6-0.5-11.1-1.7-16.6c-1.5-7.4-4.7-10.5-12.1-11.8c-2-0.4-3.6-0.8-2.6-3.6C332.7,214.3,350,214.3,367.5,214.3z"/>
		<path fill="#282751" d="M228.6,360.3c-0.9,2-1.8,4-2.7,6c-2.2,4.5-4.6,8.9-7.9,12.7c-3.2,3.6-7.1,5.8-12.1,5.5
			c-6.4-0.4-10.2-4.9-9.3-11.2c0.4-3.2,1.6-6.2,2.9-9.1c5.4-12.4,10.7-24.7,16-37.1c0.4-1,1.2-1.9,0.9-3.1c-0.4-2.2-4.6-0.2-3.9-3.8
			c4.5,0,9,0,13.8,0c0.9,2.7,1.9,5.5,2.8,8.2c4.7,13.8,9.4,27.6,14.2,41.4c0.6,1.8,1.4,3.6,2.1,5.4c1.1,2.9,3.1,5,6.1,5.8
			c1.2,0.3,2.1,0.7,1.6,2.2c-4.6,1-20.1,0.9-22.9-0.2c-0.2-1.4,0.8-1.5,1.8-1.8c3.1-0.9,3.5-1.6,2.9-4.7c-0.3-1.2-0.7-2.4-1.1-3.6
			c-1.4-4.2-2.8-8.3-4.3-12.5C229.2,360.3,228.9,360.3,228.6,360.3z M219.5,330.2c-1.1,0.4-1.2,1.3-1.6,2.1
			c-3.8,9-7.5,17.9-11.3,26.9c-1,2.3-1.8,4.7-2.3,7.1c-0.6,2.6-0.5,5,1.7,6.8c2.3,1.9,4.9,1.6,7.5,0.5c2.9-1.3,4.9-3.5,6.6-6.2
			c2.4-3.9,4.4-8,6.5-12.1c0.6-1.2,0.7-2.3,0.2-3.6C224.4,344.6,222,337.4,219.5,330.2z"/>
		<path fill="#282751" d="M141.4,383c-0.3-1.4,0.6-1.7,1.7-1.8c3.4-0.5,4.5-2.9,4.9-5.9c0.1-0.4,0.1-0.8,0.1-1.2
			c0.2-14.6,0.3-29.2-0.1-43.9c0-1-0.2-1.9-0.3-2.9c-0.5-2.5-1.7-4.4-4.5-4.8c-1.3-0.2-2.2-0.5-1.6-2.4c7.6,0,15.3,0,23,0
			c0.3,1.1,0.5,2.2-1,2.3c-4.3,0.3-5.6,3.1-5.7,6.8c-0.1,2.9-0.3,5.8-0.2,8.8c0,12,0.1,24,0.1,35.9c0,5.3,0.7,5.9,6.1,5.9
			c3.6,0,7.2-0.3,10.8-0.5c7.5-0.4,12.5-4.1,14.9-11.2c0.6-1.7,1-3.3,3.7-2.1c-0.8,5.8-2.3,11.5-3.6,17.2
			C183.4,384.1,144.2,383.8,141.4,383z"/>
	</g>
</g>
</svg>
