<?xml version="1.0" encoding="utf-8"?>
<!-- Generator: Adobe Illustrator 18.1.1, SVG Export Plug-In . SVG Version: 6.00 Build 0)  -->
<svg version="1.1" id="Layer_1" xmlns="http://www.w3.org/2000/svg" xmlns:xlink="http://www.w3.org/1999/xlink" x="0px" y="0px"
	 width="1000px" height="1000px" viewBox="0 0 1000 1000" enable-background="new 0 0 1000 1000" xml:space="preserve">
<g>
	<path fill="#080D25" d="M669,640.1c-5-1.6-7.8-5.8-11.7-8.7c-5.3-4-9.1-9.4-13.3-14.3c-4.3-5-7.9-10.8-11.6-16.3
		c-3.3-4.9-6.5-9.9-9.9-14.7c-2.9-4.1-4.8-8.7-7.5-12.8c-3.6-5.5-6.8-11.2-10.2-16.9c-0.6-1-1.5-2-1.4-3c0.2-4.4-2.6-7.2-4.9-10.3
		c-2.1-2.9-1.9-6.5-3.1-9.7c-1.4-3.6-1.3-7.6-3.6-11.1c-2.3-3.6-1.4-17.9,0.8-22.4c2.2,0.8,4.4,1.8,6.8,2.4c3.8,1,6.1,2.9,5.4,7.3
		c-0.3,2.1,1.2,3.9,1.9,6.4c0.9-2.9-0.1-5.5,1.6-7.8c4.7,0.2,8.7,2.8,13,4c2.7,0.7,3.4,3,3.7,5.3c1.3,10.3,5.4,19.6,9.2,29.1
		c0.2,0.6,0.5,1.2,1.6,1.5c-0.9-5.5-4.1-10-5.4-15c-1.3-4.9-3.5-9.9-2.4-15.6c8.1,1.7,14.7,6.1,21.9,8.6c0.7,3.4-0.9,6.7,1.5,9.6
		c2.4-2,0.3-4.7,1.3-7c2.8-0.5,4.6,2.1,7.1,2.7c2.5,0.6,4.9,1.9,7,3.6c1.5,1.2,1,2.6,0.8,4c-0.9,5.3,0.5,10.3,2.5,15.2
		c-0.1-5-1-9.9-0.6-15.3c8.6,3.6,11.1,12.3,16.7,18.4c3.3-1.4,5.4-4.3,6.8-7c2.3-4.3,6.5-6.5,9-10.3c0.9-1.3,1.9-0.7,2.8,0.1
		c1.4-1.3-1.1-2.4,0.4-4.5c3.1-2.7,7.8-5,12.8-8.3c0,9.5,2.1,18.2,1.6,27c4.1-8.8,1.3-18,1.8-27.3c5.2-2.2,11.3-2.3,15.7-6.1
		c2.4,0.7,3.1,2.1,3.1,4.4c0,3.7,0.5,7.5,0.8,11.9c3.1-2.9,1.7-6,1.8-8.7c0.2-2.9,0-5.9,0-8.8c1.6-1.2,3.4-1.8,5.1-1.8
		c4.5-0.1,8.3-1.7,12-4c0.4-0.3,0.9-0.4,1.4-0.6c5.4-2.5,5.6-2.4,6.2,3.4c0.1,1.4-0.3,3.1,1.6,3.9c1.3-1.6,1.4-3.6,1.6-5.5
		c0.2-1.7-0.9-3.9,0.6-5.2c3-2.7,5.1-6.6,9.6-7.5c1.4-0.3,2.5-0.4,3.7,0.3c1.6,1,2.5,2.1,2.7,4.3c0.6,5.5-0.6,10.9-1.3,16.2
		c-0.7,5.1-1.2,10.2-2.5,15.1c-2.5,9.3-4.2,18.9-7,28.2c-3,10.2-9.1,18.4-14.9,26.9c-5.7,8.3-11.3,16.6-19.3,22.9
		c-8.4,6.6-16,14.1-25.2,19.7c-1,0.6-2,1.2-2.9,1.9c-3,2.4-4.5,5.2-4.1,9.4c0.5,4.9,2,9.3,3.9,13.7c1.2,2.8,1.7,5.4,1.9,8.4
		c0.6,7.4,1.2,14.8,2.9,22c1.9,8.3,3.9,16.7,5.2,25.1c0.9,6,1.6,12.3,1.4,18.6c-0.2,7.9-0.5,15.8,0,23.7c0.5,7.5,0.4,15.1-0.2,22.5
		c-1,12.4-1.1,25-4.2,37.1c-2.4,9.1-4.2,18.4-6.9,27.4c-1.8,5.9-4,11.8-5.3,17.9c-0.3,1.3-1.1,2.4-1.6,3.6
		c-4.1,10.2-8.6,20.3-14.2,29.8c-4.7,7.9-9.1,16.1-15.1,23c-7.6,8.8-15.9,17.1-25.1,24.4c-3.5,2.8-6.7,5.8-10.4,8.3
		c-6.1,3.9-12.7,6.8-18.9,10.5c-0.8,0.5-1.7,0.9-2.7,1.3c-3.1,1.1-4.6,4.7-8.8,4.6c-3-0.1-6.1,2.1-9.1,3.4
		c-4.3,1.8-9.1,2.4-13.3,4.7c-1.3,0.7-2.7,1.1-4.3,1.1c-5.7-0.1-11.5,1.2-17.2-0.6c-0.9-0.3-2-0.1-2.9,0.1c-5.4,1-10.3-0.5-15.2-2.5
		c-3.5-1.4-7.2-2.1-10.9-2.7c-1.9-0.3-3.5-0.8-5.1-1.7c-6.2-3.8-12-8.2-18.5-11.3c-8-3.8-14.1-10.1-21.8-14.3
		c-1.8-1-3.3-2.7-4.7-4.3c-3.5-4-7.8-7-11.7-10.6c-6-5.4-11.2-11.6-16.2-17.8c-4-5-7.7-10.2-12.3-14.6c-4.2-4-6.4-9.5-10-14.1
		c-7-9-12.6-18.9-18.2-28.8c-1-1.8-2.6-3-4.1-4.9c2.2-2,0.9-4-0.3-6.2c-5.9-10.7-11-21.7-16.5-32.5c-4.7-9.2-8.5-18.9-11.9-28.7
		c-1-3-2.6-5.7-3-8.9c-0.1-0.8-0.5-1.8-1-2.2c-4.1-2.4-3.8-6.7-4.3-10.4c-0.6-5-1.7-9.7-3.8-14.2c-2.3-5.2-2.6-10.8-3.9-16.3
		c-1.7-7.5-4.3-14.8-5.2-22.5c-0.7-6.2-1.1-12.4-1.2-18.6c-0.2-7.5-1-15.1-0.7-22.6c0.3-9.2,0.1-18.3,0.9-27.5
		c0.5-6.4,2.3-11.9,5.1-17.3c1.1-2.1,1.8-4.1,1.7-6.6c-0.3-4.8,0.7-9.3,3.3-13.6c2.7-4.4,4.1-9.7,6.7-14.3
		c5.3-9.4,9.8-19.4,16.4-28.1c1.8-2.4,3.4-5.2,5.3-7.7c3.5-4.7,4.7-10.2,3.3-15.9c-1.5-6.1-2.4-12.3-5.2-18
		c-1.3-2.6-1.4-5.7-2.2-8.6c-2.6-8.8-5.8-17.4-8.4-26.3c-1.5-5.2-4.9-9.7-8.4-13.8c-1.7-2-3.8-3.7-5.7-5.6c-1.3,0.1-1.5,1.4-2.1,2.3
		c-4.6,6.9-10.7,12.6-16.8,18c-5.5,4.7-10.4,10.7-17.8,12.9c-6,5.8-14.4,6.8-21.4,10.9c-5.1,3-10.9,1.5-15.2-2.7
		c-4.4-4.2-8.6-8.6-12.1-13.6c-1.6-2.3-3.1-4.6-4.2-7.2c-1.6-3.6-3.7-6.9-5.5-10.4c-2.5-4.9-5.1-9.9-7.8-14.7
		c-6.3-11.2-10.8-23.2-16.5-34.7c-1.9-3.9-3.5-8.1-4.3-12.5c-0.4-2.5-1.1-4.9-2.3-7c-3.3-5.9-5.9-12.1-8.2-18.5
		c-2.2-6.2-6.6-9.8-12.4-11.8c-3.8-1.3-7.2-3-10.6-5.2c-1.5-1-3.2-1.7-4.9-2.3c-1.1-0.4-2.2-0.6-3.2-1.3
		c-7.7-5.3-16.1-9.7-23.3-15.7c-2.6-2.1-4.6-4.6-4.8-8.3c-0.1-2.1-0.7-4.2-1.1-6.5c-5.8-4-10.6-9.1-15.3-14.4
		c-2.6-3-5.2-5.4-5.8-9.8c-0.3-2.3-2.5-4.4-3.6-6.8c-2.7-6.1-3.6-12.6-4.7-19.1c-0.4-2.3-0.6-4.6-1-6.8c-0.4-2.6-0.8-5.3,1.5-7.4
		c1.1-1,1.1-2.4,0.8-3.7c-0.4-1.5,0.1-3,0.4-4.4c0.7-2.8,3.5-4.6,6.2-3.8c1.4,0.4,2.7,1.2,4.3,0.9c8-1.9,15.7-0.1,23.4,1.6
		c0.8,0.2,1.6,0.4,2.2,1c4.5,4.3,9.9,5.4,15.9,4.6c0.6-0.1,1.4-0.1,1.9,0.3c3.4,2.2,7.2,0.1,10.7,1c4.6-2.5,9,0.4,13.4,0.8
		c1.9,0.2,3.7,1.1,5.8,1.2c1.3,0.1,2.6,0.6,3.7,1.2c4.2,2.3,1.7,6.5,2.7,9.8c0.7,2.3-1.4,2.9-3.2,3.6c-1.9,0.7-4.4,0.3-5.6,2.8
		c1.5,1.3,3.4,1,5,1.6c2.6,0.9,5.1,2.7,7.7,2.8c2.4,0.1,4.7-1.8,7.2-2.4c2.9-0.8,4.3-0.3,5.3,2.5c0.9,2.7,4.4,2.6,5.8,5
		c1.3,2.2,0.3,5,2.1,7c2.8,3.2,8.3,4.4,12.1,2.4c4.5-2.4,5.3-4.5,3.4-9.2c-3-7.4-4.5-15.1-3.1-23.1c0.7-4.2,1.7-8.4,0.9-12.6
		c4.3-2.3,4.3-2.4,6.4,1.3c0.6,1,1.1,2,2.1,2.7c3.8,2.9,7.2,6.3,11.3,8.8c1.6,1,3.3,1.8,5.1,1c3.9-1.7,8.2-2.4,11.7-5
		c2.3-1.8,5-2.4,8.3-2.4c-0.2,3.8,0.3,7.7-0.7,11.1c-1.2,4.3-1.8,8.7-3,13c-1.4,5-3.5,9.6-7,13.5c-2.2,2.5-4.6,4.6-8,5.6
		c-3.6,1.1-6.1,3.4-7.6,7.1c-5.3,13.3-14.1,24-25.8,32.1c-3.8,2.6-3.9,3.1-1.4,7.1c1.7,2.7,3.1,5.5,3.5,8.6
		c0.7,5.9,3.9,10.4,7.7,14.6c4.2,4.6,9.2,8.8,12.4,14c4.5,7.3,10.9,13.2,15,20.7c1.7,3.1,4.1,5.9,6.4,9.1c4.8-1.6,7.7-5.3,9.9-9.2
		c4.1-7.3,7.8-14.8,11.4-22.4c2.1-4.4,3.7-9.1,6-13.3c3.1-5.9,6.8-11.6,12.6-16c6.6-4.9,13.5-6.2,21.2-6.5
		c5.2-0.2,10.2,0.3,15.2,1.3c1.9,0.4,3.9,0.5,5.9,0.4c4.6-0.1,6.7-2,6.9-6.5c0.2-3.1,0-6.3,0.1-9.4c0.1-2.4-1.1-3.8-3.4-4
		c-8.8-1-13.2-6.5-15.6-14.4c-0.3-1.1-0.9-2.1-1.6-3c-1-1.4-1.8-3-1.7-4.6c0.2-3.4,0-6.4-2.8-9c-1.5-1.5,0.6-3.4,0.2-5.4
		c-1.8-1.7-4.4-1.5-6.7-2.5c-5.1-2.2-6.1-3.8-5.4-9.4c1.3-11.1,2.9-22.2,5.8-33.1c0.8-3.2,1.3-6.5,1.5-9.7c0.2-5,2.2-8.8,6.3-11.6
		c1.5-1,2.6-2.4,3.6-3.9c3.2-4.6,6.7-9,12.7-10.4c2.1-0.5,4.2-1.1,5.5-3c0.8-1.2,2.2-1.6,3.4-1.8c6.9-0.9,13.6-2.9,20.6-2
		c4.4,0.6,8.8,0.7,13.3,1c2.4,0.1,4.5,1.2,6.5,2.2c7.3,3.5,13.7,8.5,20.1,13.4c0.9,0.7,1.4,1.8,2.1,2.7c2.3,3,4.5,6,7.1,8.9
		c2.6,3,5.3,6,6.1,10.3c0.4,2.3,2.1,4.4,3.5,6.4c0.9,1.4,1.6,2.9,2,4.5c2.2,10.6,5.3,21,5.2,32.1c0,3.8,1.2,7.5,2.8,10.9
		c2,4.3,4,8.6,5.9,13c1.6,3.8,5.2,5.9,7.8,8.7c1.7,1.8,6.4,1.3,7.7-0.6c4-5.4,9.7-8.8,14.1-13.8c5.1-5.8,10.1-11.7,13.5-18.7
		c2-4.2,3.2-8.6,1.1-13.2c-0.5-1-0.5-2.2-0.7-3.4c-0.9-4.8-1.8-9.4-4.9-13.7c-2.2-3.1-2.7-7.6-3.3-11.7c-0.1-1,0-2.1-0.4-2.9
		c-3.4-6.2-4-13.1-6.2-19.6c-0.9-2.8-1.9-5.9-4.3-8.2c-2-2-2.5-5-3.2-7.7c-1.3-5-3.3-9.6-5.8-14.1c-1.9-3.4-4.6-6.1-8.4-7.3
		c-2.1-0.7-4.1-1.8-5.3-3.5c-3.8-5.3-8.4-10-10.8-16.4c-1.3-3.5-3.1-6.8-3.4-10.6c-0.2-2.3-1.8-3.8-4-4.6c-4.7-1.6-9.3-3.5-14.1-4.6
		c-4-0.9-7.9-2.1-11.7-3.5c-4.5-1.6-9-3.1-13.6-4.3c-6.8-1.8-14,1.5-18.5,7c-5.9,7-10.2,15.3-17.9,20.8c-2.3,1.7-4.7,3-7.5,3.6
		c-5.6,1.2-11.3,2-17.1,1.6c-6-0.4-11.5-2.2-16.6-5.7c-3-2-6-4-9.2-5.6c-6.5-3.3-11.1-8.7-16-13.7c-1.8-1.8-3.8-3.1-6-4.1
		c-2.4-1.1-4.6-2.5-6.9-3.8c-3.7-2.2-4.9-2.6-10.4-3.1c-0.6,3.8,1.8,7.4,0.6,11.8c-5-2.7-8.2-6.9-11.8-10.8
		c-3.5-3.8-8.3-6.5-10.7-11.5c2-2.6,4.6-2.7,7.3-2.4c7.9,1,15.6,2.6,23.1,5.1c9.1,3.1,17.5,7.7,24.9,13.7c5.6,4.6,11.4,8.9,18,12
		c4.6,2.2,9.4,4.1,14.7,4.1c5.4,0,17.7-5.7,19.5-12.4c0.3-1.2,1.2-2.3,1.9-3.5c3.4-5.7,2.2-11.4-2.9-15.3c-5-3.8-10.6-6.2-16.5-8.4
		c-6.9-2.6-14.3-4.1-20.8-7.4c-6.9-3.4-14.7-4.8-21.3-8.8c-1.6-1-3.9-1.3-5.8-1.1c-3.9,0.3-7-1.2-10.2-3c-5.3-3.1-11.4-3.6-16.9-5.9
		c-1.5,2.9,0.8,5.3-0.5,7.6c-1.1,0.6-1.8,0.1-2.7-0.5c-4.6-3.2-8.7-6.8-12.5-11.1c-3.1-3.5-7.2-6.2-10.9-9.3c-0.6-0.5-1.4-1-1.9-1.5
		c-2.1-2.1-1.6-4.5,1.3-5.2c2.4-0.6,4.9-0.9,7.4-0.6c7.6,1,15.1,0.3,22.7-0.2c0.7,0,1.3-0.1,2,0.4c0.4,2-1.2,3.5-1.8,5.2
		c0.4,1.6,1.8,1.8,2.8,1.9c3.7,0.4,6.9,2.1,10,4c4.2,2.6,9,3.1,13.6,4.2c1.1,0.3,2.4,0.2,3.2,1c4.4,4,10,4.9,15.5,6
		c5.4,1.1,10,4.2,15.3,5.5c2.1,0.5,4,1.1,6.2,1.5c4,0.6,7.9,1.3,11.5,3.7c5.1,3.4,11.1,4,17.1,2.8c3-0.6,4.9-2.1,5.6-5.4
		c2.5-11.9-0.8-22.2-8.9-30.9c-3.4-3.6-7.7-6-13.2-6.8c-9.3-1.4-18.7-1.1-28-2.3c-4.1-0.5-8-1.6-11.9-3.1c-4.6-1.8-9.5-2.8-14.3-3.9
		c-3.6-0.9-6.9-2.1-9.9-4.2c-3.4-2.3-7-4.4-10.5-6.5c-1.3-0.8-2.6-1.7-2.3-3.4c0.2-1.8,1.9-1.6,3-2c8.6-3.1,17.6-3.3,27.5-4.1
		c-3,4.1-6.3,6.3-10,7.9c1.4,2.8,3.7,3.5,5.8,4.2c10.7,3.1,21.5,4.5,32.7,2.7c14.1-2.3,27.1,1.4,39,9c2.9,1.9,5,4.7,7,7.6
		c6.9,9.6,10.4,20.3,12,31.9c0.8,6,2.5,11.8,4.8,17.5c1.4,3.5,3.9,5.3,7.3,6c2.8,0.6,5.3,1.6,7.8,3c4.3,2.4,9.3,3.2,13.9,5.1
		c9,3.6,18.1,6.7,27.2,10c0.8,0.3,1.6,0.5,2.4,0.7c5.8,1.3,5.8,1.3,8.2-4.1c1.1-2.4,2.7-4.6,4.6-6.3c3.1-2.8,7.3-2.2,11-2.9
		c1-0.2,1.8,0.8,2.4,1.6c2.3,3.2,5.5,4.6,9.3,5.1c2.1,0.3,3.7,1.1,5.3,2.4c2.3,1.8,4.4,3.9,7.4,4.8c1.2,0.4,2.6,1.4,3,2.5
		c1.1,3.3,4,4.6,6.5,6.4c2.9,2,4.6,4.7,4.1,8.4c-0.3,2.5,0.7,3.6,3.3,4.4c7.2,2.2,14.1,5.4,21.4,7.3c11.1,3,21.6,7.6,32.6,11.1
		c7.6,2.4,15.5,4.3,22.5,8.5c2.6,1.6,5.8,2.2,8.8,3c12,3.1,23.5,7.6,34.9,12c3.9,1.5,7.9,2.3,11.8,3.4c8.4,2.4,16.3,5.9,24.5,8.7
		c7.8,2.7,15.9,4.5,23.3,7.7c9.2,4,19.2,5.4,28.3,9.7c2.7,1.3,5.5,2.2,8.4,2.7c8,1.5,15.1,5.5,22.9,7.5c3.5,0.9,6.9,2.1,10.3,3.4
		c1.4,0.6,2.5,1.2,2.6,2.6c0.2,3.7,1.7,7.3,1.4,11.1c-0.1,2.1-1.3,3.1-3.2,2.3c-5.3-2.2-11.2-2.2-16.6-3.9
		c-3.9-1.2-7.8-2.7-11.6-4.3c-5.9-2.5-12.1-4.1-18.2-5.9c-1.6-0.5-3.1-1.1-4.6-1.8c-5.6-2.8-12-3.3-17.7-5.9
		c-13-6-26.9-9.6-40.2-14.6c-8.6-3.2-17.5-5.7-25.9-9.6c-4.6-2.1-9.7-3.1-14.7-4.3c-2.3-0.6-4.3-1.4-6.4-2.5c-2.4-1.4-5-2.5-7.8-3
		c-7.3-1.3-13.8-5.4-21.1-7c-9.8-2.2-18.5-7.7-28.5-9.6c-3.1-0.6-5.5-2.9-8.5-3.8c-3.3-0.9-6.5-2.2-10-2.4c-3-0.2-5.6-1.8-8.2-3.2
		c-2.8-1.5-5.7-2.5-8.6-3.7c-2.8-1.1-5.9-0.5-8.9-2.1c-1.2,4.2-0.2,7.5,1.9,10.1c7,8.4,12.8,17.5,18.3,26.9c1.6,2.7,3.4,5.2,5.4,7.7
		c1.3,1.7,2.5,3.4,3.2,5.5c1.2,3.6,4.6,5.9,6.1,9.5c3.8,9,9.3,17.3,11.2,27.1c0.1,0.6,0.3,1.3,0.6,1.9c5.4,9.1,6.8,19.5,9.5,29.5
		c1.1,4,0.6,7.8-1.6,11.4c-1.4,2.4-2.5,5-3.4,7.6c-5.1,15-13.1,28.1-23.9,39.6c-3.8,4.1-7.7,8.1-10.8,12.8c-2.2,3.2-2.1,3.6,0.9,5.9
		c7.7,5.6,16.5,8.7,25.6,11.1c11.6,3.2,23.7,4.4,35.3,7.2c0.6,0.2,1.3,0.3,1.9,0.3c5.1-0.4,10.1,0.3,15.1,1.3
		c4.1,0.8,8.2,0.5,12.1-1c0.9-0.4,1.9-0.7,2.9-0.8c4.3-0.4,5.8,1.7,4.1,5.6c-0.4,0.9-1.2,2-1,2.7c1.9,5.6-2.5,7.9-5.5,10.8
		c-1.4,1.3-3,2.5-4.4,4c-4.4,4.7-9.9,6.3-16.3,7c-7.7,0.9-15.5-0.7-23.8,1.8c7,2.5,13.5,3.3,20.1,3.1c5.1-0.2,9.7,1.3,14.2,2.2
		c0.8,1.3,0.6,2.2,0,3c-5.2,7.4-11.6,13.2-20.6,15.7c-6.7,1.8-13.1,0.3-19.5-0.9c-3.5-0.7-7-1.9-10.6-0.6c-1.7,0.6-3.2,0-4.6-1
		c-3.9-3-8.5-4.7-12.9-6.6c-0.5-0.2-1.3,0-2.1,0c8.4,6,18.5,8.6,26.5,15.1c-3.4,3.5-9.5,6.3-13.5,6.1c-4-0.2-7.8,1.1-11.8,1
		c-4.2,0-8.1-1.5-12.1-2.2c-1.6-0.3-2.8-0.5-4.1,0.4c-1.9,1.2-3.8,1.4-6,0.3c-2-1-4.4-1.3-6.6-1.9c-1.1-0.3-2.4-0.3-3.3-0.9
		c-5.9-3.9-13.3-4.6-19.2-8.5c-0.5-0.3-1.1-0.8-1.9-0.3c7.6,8.6,18.9,10.6,28.2,15.5c1,1.7-0.2,3.1-0.6,3.4c-1.8,1.2-4,2.4-6.2,2.2
		c-8.2-0.7-16.4,0.8-24.6-0.3c-4.5-0.6-9.1-1-13.4-1.5c-1.3,1-1.8,2.1-2,3.2c-0.8,5.9-2.7,11.5-3.2,17.5c-1.2,14-0.9,28-2,41.9
		c-0.3,3.8-0.2,7.5,0.3,11.2c0.4,2.7,1.2,4.8,3.9,6.1c2.3,1,3.9,2.9,5.4,4.9c2.2,2.9,4.5,5.7,7.3,8c4.7,3.9,7.2,9.3,10.5,14.1
		c2.3,3.2,5.4,5.7,7.9,8.7c3.2,3.8,5.1,8.3,7.5,12.5c0.6,1.1,0.9,2.5,1.9,3.4c2.6,2.5,4.3,5.5,5.5,8.7c2.6,7.2,7.9,12.8,10.5,20.1
		c1,3,2.1,5.9,2.9,8.9c0.9,3.7,2.3,7.2,3.6,10.7c3,8.2,4.7,16.5,5.7,25.2c0.7,6.3,1.5,12.6,1.6,19c0.1,7.6,0.4,15.2-1.1,22.6
		c-2.3,11.4-2.6,22.9-3.4,34.4c-0.8,11-2.9,21.9-3,32.9c-0.1,8.2-1.4,16.3-2.5,24.4c-1.1,8-1.5,16-1.8,24c-0.2,4.4,1.6,8.4,2,12.7
		c0.1,0.6,0.4,1.3,0.8,1.7c1.9,2.2,4.7,2.9,7.1,4.4c1.4,0.9,3.1-0.5,4.7-1.1c2.6-1,5.2-2,7.8-3c0.5-0.2,1-0.3,1.3-0.6
		c3.8-4.5,10.1-6.3,13-11.8c1-1.9,2.8-3.3,4.2-4.8c4.1-4.6,6.4-10.3,9.5-15.5c1.6-2.9,4.3-4.8,5.6-8c3.8-9.1,8.2-17.9,11.6-27.2
		c1.1-3.1,2.9-5.8,4.2-8.8c7.2-16.2,11.7-33.1,15.4-50.3c0.9-4.3,1.1-8.9,2.3-13.1c3.2-11,2.5-22.5,4.6-33.6c1.1-5.9,1.9-12,2-18.1
		C670.5,652.1,669.5,646.1,669,640.1z M656.1,604.2c-0.3,0.1-0.6,0.1-0.9,0.2c0,0,0,0,0,0.1C655.5,604.4,655.8,604.3,656.1,604.2
		c-0.1,0.3-0.2,0.5-0.3,0.8c0.5,0.1,0.6,0,0.2-0.4C655.9,604.6,656,604.3,656.1,604.2z M709.1,777.4l0.1-0.2l-0.2,0.1
		C709,777.4,709.1,777.4,709.1,777.4z M462.8,462.8c0.1-0.3,0.1-0.5,0.2-0.8c0.2-0.4,0.5-1-0.2-0.7
		C461.9,461.6,463,462.2,462.8,462.8c-0.4-0.4-0.7-1.2-1.5-0.3C461.8,462.6,462.3,462.7,462.8,462.8z M539.1,885.7
		c-0.1,0.1-0.3,0.1-0.4,0.2c0,0,0-0.1,0-0.1C538.9,885.8,539,885.7,539.1,885.7c0.3,0.7-1.4,1.9,0.7,2
		C539.9,886.9,538.8,886.6,539.1,885.7z M200.9,300.8c0.3-0.1,0.6-0.2,0.8-0.4c0.2-0.2,0-0.6-0.3-0.4
		C201.2,300.1,201.1,300.5,200.9,300.8c6.4,3.3,6.4,3.3,10.1,3.2c-2.8-1.4-5.1-2.5-7.5-3.6C202.6,300,201.6,299.8,200.9,300.8z
		 M602,910c0.7,0.6-0.3,2.5,1.7,2.2c1.2-2.2-0.1-2.3-1.8-2.1c-1.3-0.7-2.5-1.6-4.1-1.7c0.4,1.4,0.7,2.7,1.1,4.2
		c0.5-0.8,1.8-0.4,1.6-1.7C600.3,909.6,601.2,909.7,602,910z M645.7,593.6l-0.1,0.3l0.2-0.2c-0.2,1.4,0.5,2.4,1.4,3.4
		c1.7,2.1,3.3,4.3,5,6.3c0.2-0.3,1.2,0.4,0.9-0.7c-0.3,0.3-0.6,0.5-0.9,0.8c1-1.4-0.1-2.5-0.8-3.4
		C649.5,597.9,647.6,595.7,645.7,593.6z M474.2,720.7c-0.3-2.2-2.3-0.5-3-1.2c-0.4-1,1.1-1.4,0.4-2.4c-1.1,0.7-2.8,0.6-3.4,2.6
		c2.3-0.9,3,1,4.1,2c1.9,1.6-1.5,2.3-0.7,3.7c1.9-0.8,3.1-3.4,5.7-2.1C477,721.6,475.6,721.2,474.2,720.7z M205.6,310.4
		c0.3-1.2,1-0.9,1.8-0.6c0.1,0.1,0.4,0.2,0.4,0.2c-0.3,0.6,0.8-0.3,0.1-0.3c-3.6-3-4.1-3.3-6.8-4.1c-0.3,1.4,2.4,1.2,1.5,2.9
		c-0.4,0.8-1.6-0.4-2,1.1c3,1.6,5.1,4.8,9,5.7C208.9,312.8,206.1,312.6,205.6,310.4z M539,641.6c-0.3,0.2-0.5,0.4-0.8,0.6
		c0.2,0.1,0.3,0.2,0.5,0.3C538.7,642.1,538.8,641.8,539,641.6c-0.5,0.5-0.7,1.1-0.5,1.7c4.7,11.5,10.7,22.2,20.1,30.6
		c0.7,0.6,1.5,1.3,2.6,0.8c1.1-2,0-3.3-1.5-4.6c-1.5-1.3-3-2.5-4.1-4.3C550.4,657.5,544.8,649.4,539,641.6z M519.9,620.6
		L519.9,620.6c-0.1,0.1,0.1,0.1,0.1,0.1c-0.1-0.3-0.2-0.7-0.1-0.8c5.7-4.9,9.3-11.4,12.9-17.9c0.4-0.8,1.4-1.7,0-3.1
		c-1.7,4.3-5.9,6.1-8.6,9.4c-3.5,4.3-8.2,7.1-13.1,9.2c-5.9,2.5-10.8,6.2-15.9,9.9c-0.7,0.5-1.2,1.1-0.9,2c0.4,0.8,1.1,1,1.7,0.8
		c3.4-1.2,6.9-1.8,10-3.9C510.2,623.5,514.8,621.3,519.9,620.6z M544.3,755.9c1.3,0.4,2.6,1.2,2.9,2.4c0.7,3.4,3.4,5.1,5.6,7.2
		c2.9,2.7,5.8,5.2,8.1,8.5c1.2,1.7,2.9,3.1,5.8,4.7c-2.8-5.1-6.7-7.9-9.1-11.7c-3-4.9-7.4-8.2-11.8-11.6c-0.6-0.5-1.6-0.8-1.7,0.6
		c1.2-0.5,0.7-1.1,0.3-1.9c-4-6.2-7.1-13-10.9-19.3c-3.4-5.7-6.6-11.7-8.2-18.4c-1.9-8-6.5-15-9.2-22.8c-2.1-5.9-4.6-11.6-6.9-17.4
		c-1.8-4.6-5.5-8-7.5-12.5c-0.2-0.5-0.9-0.8-1.4-1.2c-0.4,0.6-0.2,1.1,0,1.5c3.9,8.5,7.7,17,11.6,25.6c0.5,1.2,1.4,2.3,1.7,3.6
		c2.7,11,6.4,21.7,10.5,32.3C528.7,737.2,535.1,747.4,544.3,755.9z M446.2,661.5c-2.6,4.6-4.3,9.5-6.6,14.3c-2.6,5.4-4.4,11-4,17.1
		c0.2,3,0,5.7-1.3,8.6c-1.5,3.4-2.1,7.2-2.5,11c-1.5,14.8-6.4,28.5-12.6,41.9c-0.5,1-1.3,1.9-2.2,2.7c-5.4,4.6-8.5,10.9-12.4,16.6
		c-0.5,0.7-1.2,1.6-0.3,3.5c1.3-4.2,4.9-5.6,7.2-8.4c6.4-7.8,11.2-16.6,16.7-25c1.7-2.5,2.5-5.3,3.6-8.1c2.4-6.4,2.9-13.2,3.3-19.9
		c1-16.4,3.9-32.3,10.1-47.7C446,666.1,447.5,663.9,446.2,661.5c0.2,0.3,0.3,0.5,0.5,0.8c0.1-0.1,0.1-0.3,0.2-0.4
		C446.5,662.1,446.3,661.9,446.2,661.5z M435.7,329.6c-0.4,3.6-2,5.8-4.5,7.2c-1.9,1-3.5,2.5-5.2,3.8c-1.8,1.5-3.6,3.4-3.3,5.8
		c0.5,3.8-0.9,7.5,0,11.3c0.4,1.6,0.2,3.3,0,4.9c-0.3,2.2-1,4.1-3.8,4.4c-2.7,0.3-4.8,2-6.9,3.6c-4,3.2-8.5,3.8-13.4,2.4
		c-4.4-1.3-8.3-4-12.9-4.7c-9.4-1.5-20.5,0.9-26.1,10.6c-2.6,4.6-5.1,9.2-7.6,13.9c-3.2,6-4.6,12.7-8.1,18.5
		c-4.4,7.5-8.3,15.2-14.1,21.9c-3.1,3.5-5.9,6.9-10.1,9c-3.3,1.7-3.7,1.6-6.1-1.1c-2.5-2.8-3.3-6.4-5.6-9.2
		c-5.3-6.8-9.9-14.1-14-21.5c-3.6-6.5-8.2-12-12.9-17.4c-3.8-4.4-6.2-9.1-8.5-14.2c-3-6.6-5-13.6-8.4-20
		c-3.6-6.8-12.4-10.8-19.5-8.5c-1.5,0.5-2.9,0.7-4.3,0.3c-4.4-1.5-8.7-0.7-13.1,0.3c-3.8,0.9-7.4,0.6-10.8-1.9
		c-2.6-1.9-5.6-3.5-8.4-5.2c-1.4-0.8-2.8-1.6-4.4-0.9c-0.1,0.9,0.3,1.4,0.7,2c7.1,9.6,16.6,16,27.7,19.5c6.2,2,11.1,5.8,16.1,9.3
		c3.1,2.1,3.2,6.7,4.8,10.1c0.6,1.4,1.2,2.7,2.4,3.7c0.9,0.7,1.7,1.6,1.9,2.8c1.3,7.1,6,12.7,7.9,19.5c2.6,9,7.7,17,10.6,25.9
		c0.3,0.9,0.8,1.8,1.3,2.7c4,6,6.6,12.8,9.5,19.3c3.5,7.6,8.5,14.4,12.3,21.9c0.9,1.8,2.7,3.3,4.3,4.7c2,1.7,3.8,3.3,5.1,5.8
		c2.2,4.2,5.9,4.7,10,2.2c2-1.2,3.8-2.9,6.1-3.2c8.5-1.1,14.9-6.3,20.9-11.4c9.5-8.1,19.5-16,23.4-28.6c0-0.2,0.1-0.3,0.3-0.4
		c3.8-3.7,3.8-8.5,3.9-13.3c0.2-6.9,0.8-13.8,4.3-20.1c3-5.4,7-5.7,10.5-0.6c1.8,2.6,3,5.5,5.6,7.6c2.9-3.6,5.5-7.3,6.6-12
		c0.8-3.5,2.7-7.1,6.4-8.3c2-0.6,3.3-1.4,4.7-2.8c2.8-3,4.9-2.9,7.8,0.3c0.4,0.4,0.6,1.1,1.6,0.9c0.8-1.5,1.6-3.3,3.7-3.4
		c3.3-0.2,3.8,3.2,5.5,4.8c5.6-0.7,6.1-0.1,9.1,4.6c2,3.1,4.7,5.8,7.4,9.1c2-3.7,3.8-6.8,5.4-10c0.9-1.7,2.1-3,3.8-3.7
		c2.8-1.1,4.8,0.1,5.1,3.2c0.1,1.1-0.6,2.4,1.2,2.9c0.8-3.2,2.1-6.1,4.4-8.5c3.6-3.8,6.5-3.6,9.3,0.8c0.2,0.4,0.3,1,1.4,1
		c2.6-1.4,6.1-1.1,7.4,1.8c1.9,4.2,5.3,7.1,7.5,10.9c1.8,3,2.9,6.3,4.4,9.4c4.1,8.5,5.6,17.2,1.5,26.2c-2.5,5.5-10.9,10.9-16.8,9.9
		c-5.8-1-11.4-3.4-15.4-8.1c-6.1-6.9-6.5-15.1-5.1-23.7c0.3-2,1.6-3.4,3.6-4.4c7.8-4,16.6,2.2,17.1,11.1c0.1,2,0.2,4.4-2.2,4.9
		c-2.8,0.5-3.5-1.8-3.7-4.1c0-0.2-0.4-0.4-0.7-0.5c-2.5,2.6-2.5,3.4-0.4,6c2.1,2.7,4.4,3.4,6.8,2.1c2.4-1.4,3.9-3.4,3.8-6.4
		c-0.1-5.6-2.1-10.1-6.2-14c-5.1-4.8-10.6-4-16.1-1.9c-4.3,1.6-6.1,5.8-6.7,10.1c-2.1,15.4,10,28,22.1,31c8.6,2.2,18.3-2.7,21.7-9.3
		c3.4-6.5,4.7-13.7,2.5-21.1c-1.2-3.9-2-8-3.4-11.9c-1.3-3.7-0.5-7,1.6-9.8c3.2-4.4,7.1-8.2,11.1-11.9c1.5-1.4,3.2-2.8,5.3-2.3
		c4.3,1,7.7-1.4,11-3.2c5.1-2.8,10.3-5.7,15.3-8.9c5.8-3.6,11-7.8,15.7-12.6c4.9-5.1,9.3-10.7,14.5-15.4c4.1-3.7,6.9-8.2,10.7-12.1
		c3.5-3.6,6.1-8.1,8.8-12.3c2.1-3.2,5-6.3,5.4-10.3c0.2-2.4,1.1-4.1,2.8-5.5c2.3-2,3.1-4.5,3.3-7.5c0.4-8-0.6-15.7-4.6-22.9
		c-0.7-1.3-1.7-2.5-1.7-4.1c0-3.6-1.6-6.7-3.3-9.7c-3.4-5.6-5.1-12-8-17.8c-2.7-5.4-4.7-11.2-8.4-16c-3-3.9-5.5-8.2-8.3-12.3
		c-4.1-6.1-7.3-12.8-12.3-18.3c-3.7-4.1-8-8-9.3-13.7c-0.4-1.8-1.2-3.3-2.4-4.4c1.3-2.8,4.1-4.8,3.3-8.4c-4-1.3-7.7-2.8-12.3-1.6
		c-3.9,1-8.1-0.7-12.3-0.1c-0.6,0.1-1.4-0.2-1.8-0.7c-2.7-2.9-6.5-3.8-10-5.2c-2.4-0.9-3.8-2.2-4.6-4.7c-0.8-2.2-1.7-4.6-4.5-5.2
		c-0.3,0.5-0.5,0.7-0.6,1c-0.1,0.3-0.2,0.7-0.1,1c1.4,6.6,3.5,12.7,10.1,16c0.7,0.4,1.7,0.5,2,1.3c1,2.9,3.8,4,5.7,6
		c3.2,3.4,7,4.8,11.5,4.6c1.1,0,2.4,0.1,2.9,1.4c0.1,1.1-0.4,1.8-1.2,2.5c-3.2,2.8-3,2.8-1.8,6.5c1.5,4.8,3,9.7,5,14.4
		c3.1,7.2,4.7,15,9,21.8c1.7,2.7,2.8,5.8,3,9.3c0.2,3.2,1.3,6.4,3.3,9.1c0.9,1.2,1.8,2.4,1.7,4c-0.1,3.7,1.1,7.1,2.5,10.5
		c2.7,6.4,3.7,13.3,6.9,19.5c0.8,1.5,0.5,2.9-0.6,4.5c-5.5,7.9-10.4,16.3-16,24.3c-3.6,5.2-8.2,8.9-13.1,12.4
		c-3.8,2.6-7.7,5-11.5,7.7c-1.7,1.2-3.3,2.7-5.4,3.5c-4.9,1.8-10.1,3.1-14.4,6.4c-1.1,0.8-2.4,1-3.7,1.2c-3.7,0.6-7.1,1.6-9.4,4.9
		c-0.7,1-1.8,1.4-3,1.6c-2.8,0.5-4.9,2.1-6.4,4.3c-1.8,2.8-4.5,3.5-7.5,4.2c-2.3,0.5-4.6-0.8-6.8,0.2c-4.1,1.8-6.9-0.1-9.4-3.2
		c-1.5-1.8-2.7-3.7-3.6-5.9c-2.4-5.8-3.3-12-4-18.2c-0.2-2.1-0.5-4.3-2.2-5.3c-4.5-2.4-7.2-6.7-11-9.8c-4.5-3.6-7.1-8.2-7.8-13.8
		c-1-8.4,0.8-16,6.2-22.6c0.5-0.6,1.1-1.4,1.1-2.1c0.2-3.8,1.1-7.5,0.4-11.3c-0.3-1.7-0.9-3.1-2.3-4.2c-5.1-4.4-9.4-9.7-15.4-13.1
		c-2-1.2-3.6-2.9-5.2-4.6c-4.8-5.2-9.7-10.3-14-16.1c-0.8,0.6-1.6,1-2.1,1.6c-6.6,8.1-11.5,16.9-13.6,27.3c-1.7,8.5-3,17.1-4.1,25.8
		c4.7,2.9,10.7,1.5,14.8,5.2c-1.1,2.2-2.6,4.1-1.8,6.9c4.5,0.6,7.1,4.9,12.6,5.9c-4.2,2.4-6.7,4.9-8.8,8.2c1.5,3.1,3.1,6.4,4.7,9.6
		c0.8,1.7,2.1,3.5,3.9,3.4c3.8-0.1,7.4,1.6,11.2,1.4C422,331.1,428.8,332,435.7,329.6z M460.5,557.7c-2.3-1.7-2.3-3.8-2.2-6
		c0.7-12.3-1.9-24.2-4.2-36.2c-1.5-7.7-3.4-15.5-3.7-23.4c-0.2-7.1-2.2-14-2.8-21c0-0.3-0.3-0.5-0.5-0.8c-1.7-0.3-3.1,0.6-4.6,1.3
		c-11.4,5.5-23,10.8-36.8,9.1c0.7,6,0.2,11.6,2.2,17.1c1.2,3.3,3,6.2,4.3,9.4c2.9,7.2,3.7,15,6.7,22.2c3.2,7.6,2.4,15.9,3.8,23.8
		c0.3,1.7-0.5,2.6-1.9,3.6c-5.3,3.6-9.8,8-12.7,13.8c-0.8,1.7-1.8,3.3-3.1,4.6c1.9,1.8,3.8,3.4,4.5,6.1c-2.8-0.1-3.9-1.9-5.4-3.5
		c-1.6,2.5-0.6,4.2,0.9,5.6c1.5,1.4,2.6,3,3.9,4.4c4.2,4.2,8.1,8.6,13.1,12.1c3.1,2.2,6.4,4.2,9.5,6.3c5,3.3,10,6.7,15.8,8.6
		c2.3,0.7,4.8,1.5,6.9,2.6c3.7,2,7.9,2.4,11.7,3.9c1.7,0.7,3.5,0.5,5.3-0.3c3.7-1.5,7.3-3.1,11.1-4c5.4-1.2,10.1-3.9,14.8-6.5
		c6.4-3.4,12.2-7.8,17.7-12.5c1.4-1.2,2.9-2.4,3.6-4c1.1-2.5,2.4-4.6,4.2-6.6c1.8-2,2.2-4.2,0.6-6.7c-4.7-7.4-9.7-14.5-16.6-20
		c-3-2.4-5.5-5.1-7.9-8c-0.8-1-1.1-1.9-1.1-3.1c0.4-8.9,1-17.7,1.1-26.6c0-9.3,0.8-18.4,2.1-27.6c0.6-3.7,0.6-7.5,0.9-11.3
		c-3.9,0.3-7.2-0.5-10.6-1.3c-5.6-1.4-11-3.6-16.8-3.6c-1.5,0-2.3-0.8-3.3-1.8c-3.8-4.1-9.2-4.5-14.3-6.3c-0.4,1.4-1,2.4-0.9,3.3
		c0.3,8.8,0,17.8,1.2,26.5c1.5,11,3.9,22,5.1,33.1c0.7,6.7,1.2,13.4,0.1,20.1C462.2,555.3,461.8,556.5,460.5,557.7z M195.3,327.3
		c3.8,2.3,7.7,4.7,11.6,7.1c1.1,0.7,2.5,2.2,3.4,1.2c1.9-2.1,3.6-0.5,5.4-0.3c2.4,0.4,4.8,1.1,7.3,1.2c7.4,0.3,14.8-0.1,22.1-1.3
		c1.8-0.3,3.6-0.4,5.4-0.4c7.7-0.1,14.9,2.7,22.1,3.9c2.2-4.7,6.3-1.4,9.3-2.5c-0.7-2.2-3.4-2-5-4.6c7.8-0.7,10.6-7.1,15.1-11.8
		c-3.8,1.9-7.3,4.2-10.6,6.8c-1.2,1-2.4,1.6-3.9,1.9c-3.8,0.7-7.6,1-11.5,1.4c-9.4,0.8-18.7,1.3-27.9-1.2c-3.7-1-7.6-2-10.6-4.5
		c0.7-2.3,3.6-3.3,2.9-6.1c-3.3,0.2-3.2,4.2-5.8,5c-2.4-0.5-3.5-2.8-5.9-4.1c-3.3,3.7-5.7,8.3-10.2,11.3
		c-7.6-4.9-15.2-9.7-21.5-16.1c1-2.3,2.9-3.5,4.5-5c2-2,3.6-4.3,4.9-6.8c0.6-1.1,0.2-1.9-1.1-2.3c-1,1.2-2,2.4-3.1,3.6
		c-4.3,5-8.1,10.8-15.8,11.1c-0.1,0-0.2,0.2-0.6,0.8c3,7.2,10.6,9.8,15.5,14.7C193.4,329.8,193.5,327.7,195.3,327.3z M479.3,660.8
		c-0.2,2.6,0.2,4.8,0.9,7c2.3,7.2,4.6,14.4,5.8,21.9c1.3,8.3,3.6,16.4,4.9,24.7c0.8,4.9,2.2,9.6,4.2,14.1
		c5.5,12.3,11.2,24.5,15.8,37.2c2.6,7.3,6.1,14.2,9.7,21.1c4,7.6,9.3,14.4,14,21.5c6.2,9.3,12.5,18.6,18.7,27.8
		c0.7-0.4,1-0.9,0.8-1.3c-5.7-9.8-9.4-20.6-16.2-29.8c-3.4-4.6-6.4-9.6-9.2-14.6c-5-9.1-9.3-18.5-14.5-27.5
		c-4.7-8.2-8.1-16.8-10.7-25.8c-2.8-9.8-5.8-19.6-9.3-29.2c-1.2-3.4-2.3-6.8-2.8-10.4c-0.7-5.2-0.9-10.7-3.3-15.4
		c-2.8-5.3-4.4-11-6.2-16.6C481.6,663.8,481.1,662.1,479.3,660.8z M466,660.8c-1.1,0.5-1.3,1.2-1.4,1.8c-1,9-2.1,18-2.8,27
		c-0.7,8.9-0.2,17.9-1.7,26.7c-1.6,9.6-2.8,19.2-2.5,29c0,0.7,0,1.3-0.1,2c-1.8,10.6-5.8,20.5-8.8,30.7c-1.6,5.3-4.1,10.4-5.2,15.9
		c-0.8,4.4-2.6,8.5-5,12.3c-1.8,2.8-2.9,5.9-4,9c-1.7,4.6-3.3,9.3-5,13.9c-0.6,1.7-1,3.2-0.6,5.2c1.2-1,1.4-2.2,2-3.1
		c2-3.6,2.9-7.8,5.4-11.1c2.7-3.6,4.6-7.6,6.6-11.5c4-7.8,6.2-16.3,9.9-24.2c2.5-5.3,3.6-10.9,4.6-16.6c1.4-8.3,2.3-16.6,4.6-24.7
		c1-3.4,1.5-7.1,1.6-10.7c0.4-10.4,1.3-20.8,0.8-31.2c-0.4-7.3,1.4-14.4,1.9-21.6C466.6,673.4,465.8,667.2,466,660.8z M527.9,912.3
		c0.1-1.6,0.3-2.1,0.2-2.5c-4-8.1-7.4-16.4-10-25c-0.8-2.9-2-5.6-4.1-7.7c-0.5-0.6-1-1.4-1.2-2.1c-1.9-9.4-6.2-18-8.7-27.1
		c-0.3-1.3-0.5-2.5-1-3.8c-2.6-6.9-5.7-13.6-5.8-21.2c0-1.5-0.1-3-0.5-4.4c-0.6-2.7-1.1-5.6-3.3-7.7c-1.4,0.8-0.9,1.9-0.9,2.8
		c0.2,12.5,4.4,24.2,7.6,36c1.6,6,4.4,11.7,6.1,17.7c0.8,2.7,0.7,5.5,1.8,8.2c2,4.8,3.7,9.9,5.8,14.7
		C517.5,897.8,521.5,905.3,527.9,912.3z M421.1,430.7c0.3,0.7,0.8,1.4,1,2.1c1.1,3.9-0.9,6.1-4.9,5.5c-1.7-0.3-3-1.1-3.8-2.7
		c-2.3-4.6-0.6-10.8,3.8-13.4c6.6-3.8,16-0.1,18.5,7.3c1.6,4.8,1.6,9.8,0.6,14.7c-1.6,7.9-9.9,14.8-17.4,13.8
		c-9.8-1.3-17-6.6-20.8-16c-1-2.4-1.7-5-2-7.6c-0.2-1.4-0.2-2.8-1.5-3.9c-0.3,0.3-0.7,0.5-0.7,0.7c0.6,5.9,1.2,11.6,4.6,16.8
		c3.1,4.6,7.3,7.5,11.8,10.3c5.8,3.7,17.8,1.9,22.3-2.5c5.5-5.5,8-11.7,8.1-19.4c0.2-11-9.5-18.9-19.4-18.8
		c-9.6,0.1-15.7,11-10.5,19.8c1.8,3,5.5,4.7,8.9,4c2.2-0.5,4.9-0.8,5.2-3.7C425,434.9,424.8,432,421.1,430.7z M168.1,266.4
		c0.4,7.3,3.9,12.8,4,19.1c-3.9,1.4-7.2-2.4-11.3-0.6c2.2,4.7,7.5,3.7,10.5,6.4c3.1,2.8,7.4,4.4,10.5,8.2
		c-7.2,2.3-11.5-3.4-17.3-4.7c-0.4,3.9,3.3,5.6,3.7,8.7c0.1,0.8,1.1,1.6,1.7,2.3c0.2,0.2,0.6,0.3,0.9,0.4c4.5,1.7,14.9-0.9,17.8-4.8
		c3.6-5.1,5-11,5.1-17.2c-1.6,0.9-2,2.6-2.8,3.9c-1,1.7-2,3.4-3.6,4.6c-0.9,0.7-1.8,1.1-3.1,0.8c-7.9-2.2-9.8-4.7-10-12.9
		c0-0.7,0-1.3-0.1-2C173.1,274.6,172.4,270.4,168.1,266.4z M501,932.6c-1.8-1.5-3.4-2.6-4.8-4c-5.6-5.4-10.8-11-13.1-18.8
		c-0.8-2.6-2.1-5.2-3.7-7.5c-2-2.8-2.6-6-3.2-9.2c-0.3-1.8-0.6-3.6-0.8-5.4c-0.9-8.6-5.2-16.3-6.6-24.7c-0.4-2.1-1-4.2-1.5-6.2
		c-0.3-1.1-0.4-2.3-1.9-2.5c-1.7,1.3-1,3-0.8,4.6c0.1,1.3,0.9,2.6,0.8,3.9c-0.7,6.1,1.6,11.6,3.5,17.2c1.1,3.2,2.6,6.4,3.3,9.8
		c1,4.3,1.5,8.6,3.3,12.7c1.4,3.3,3.2,6.5,4.5,9.9c3.1,7.9,8.3,14.1,15.8,18.3C497.3,931.5,498.6,933,501,932.6z M571.6,721.1
		c-5.1-2.4-8.5-6.2-12.4-9.4c-6.2-5.2-11.8-11-15.9-18c-4-6.8-7.3-13.9-11.5-20.5c-3.2-5.1-5.8-10.7-9.6-15.4
		c-1.7-2.1-3.6-4-7.1-4.7c0.8,1.3,1.2,1.9,1.6,2.6c3.7,6,7.6,11.9,10.9,18.1c3.9,7.4,7.3,15.1,12.4,21.7c3,3.9,6.5,7.3,9.5,11.3
		c5.1,6.7,12,11,19.5,14.5C569.5,721.6,570.1,721.9,571.6,721.1z M388.6,719.3c2.6,0.4,3.3-0.9,4.1-1.9c1.6-2.2,3.6-3.9,5.7-5.5
		c2.1-1.5,3.8-3.3,5.1-5.3c4.6-7.2,9-14.7,11.7-22.8c2.4-7.3,5.5-14.3,7.8-21.6c1.6-5.1,3.5-10.1,5.6-15
		c-6.4,7.7-10.6,16.4-13.6,25.9c-3.1,9.7-6.5,19.3-12.2,27.9C398.5,707.3,394.7,714,388.6,719.3z M398.9,599.5
		c0.4,2,1.4,3.8,2.8,5.4c5.5,6.3,10.2,13.4,19.1,15.9c5.4,1.5,9.8,5.4,15.3,6.7c2.4,0.6,4.6,1.7,6.9,2.5c0.8,0.3,1.8,1.1,2.5-0.1
		c0.1-0.9-0.5-1.3-1-1.6c-6.3-3.4-12.1-7.8-18.8-10.6c-4.8-2-9.5-4.2-13-8.3c-3.4-3.9-8.1-6.1-11.7-9.7
		C400.5,599.2,399.9,598.8,398.9,599.5z M453.8,309.5c-0.3-3-2-5.6-4.4-7.7c-2.2-2-4.1-1.9-6.8-0.4c-3.1,1.8-3.7,4.9-4.6,7.9
		c-1,3.5,0.7,6.6,4.2,8.6c3.1,1.7,6.5,1.3,9-1.3C453.1,314.7,453.4,312.2,453.8,309.5z M486.6,760.3c-1.3,4.8-1.5,9.2-1.3,13.7
		c0.2,3.4,0.6,6.9,0.3,10.3c-0.4,5,1.2,9.4,2.7,14c0.2,0.7,0.9,1.4,2.6,1c1-9.9-0.7-20-1.2-30.1
		C489.6,766.3,489.8,762.9,486.6,760.3z M461.3,829.3c0.7-10.5,2.4-20.9-0.2-31.3C456.9,811.8,456.9,824.1,461.3,829.3z
		 M385.9,674.5c8.2-9.5,14.2-19.3,14.1-31.9c-5,7.3-7,16.2-11.9,23.6C386.7,668.3,385.4,670.9,385.9,674.5z M641.1,886.4
		c2.7,1.5,4.1,1.2,4.9-1c0.7-2.2,1.6-4.3,2.1-6.5c0.7-3.3-1.1-5.2-4.5-4.9c-1.7,0.1-3.3-0.2-4.9-0.5c-3.9-0.9-7.2,0.6-10.7,2.5
		c3.6,3.5,7.7,2.6,11.6,1.9c1.5-0.3,2.8-1.7,4.5-1.2C646.3,880.6,644,883.4,641.1,886.4z M661.9,828.5c2.7-3.4,2.3-6.2,0-8.9
		c-3.9-0.2-7.2,1.7-10.6,3.7c-0.3-2.9,0.1-5.4-1-7.7c-0.8-1.7-1.9-2.4-3.9-2c-3.2,0.7-5,2.6-5.8,6.8c3.1-1,4-5.3,7.9-5.5
		c0.5,3.7,0.9,7.3,1.4,10.6c2.4,1.1,4.1,0.6,5.7-1c1.5-1.5,3.4-2.4,5.6-2.5C662.1,823.9,661.2,825.9,661.9,828.5z M550.4,160.9
		c-6.5-5.6-11.4-6.5-15.7-3.1c-3,2.3-5.3,5.4-6.9,8.9c-0.4,0.8-0.3,2,1.4,2.7c2.8-2.4,4.9-5.8,8.2-8
		C541.2,158.8,545.3,160.1,550.4,160.9z M660.5,586.9c-8.3-9.5-13.7-21-21.4-31C642.5,568.7,651.1,578.1,660.5,586.9z M656.6,863.5
		c0.9,6.3,4,8.4,9.3,6.7c2.4-0.8,4.9-1.5,7.4-2.3c0.5,2.4,0.9,4.6,1.4,7.5c2.2-3.6,2.2-6.5,0.4-9.4c-5.2-1.7-10.1,0.2-13.6,1.1
		c-3.2-1-0.4-2.3-1.7-3.3c-0.1,0.7,0.6,1.7-0.6,2.1C657.9,865.8,658.1,863.9,656.6,863.5z M482.9,755.3c1.4-8.7-0.1-16.9-2.7-25.7
		C477.2,738.8,478.4,750.3,482.9,755.3z M379.6,639.1c4.7-5.8,6.9-12.5,9.2-19.9c-3.4,1-5.5,2.1-6.1,5c-0.2,0.9-0.7,1.8-1.3,2.6
		C378.9,630.6,378.8,634.8,379.6,639.1z M560.7,640.2c1.1-2.9,0.5-5.5-1.4-6.9c-3.6-2.8-5.7-6.6-8.3-10.2c-0.9-1.3-1.9-2.2-3.8-1.1
		C550.2,629.2,554,635.6,560.7,640.2z M654.1,847.2c-0.5-3-0.8-5.7-1.4-8.4c-0.5-2-1.2-3.8-4-3.4c-3.1,0.4-4.4,1.6-4.7,4.6
		c0.4-0.4,0.7-0.7,1.1-1c2.9-2.2,3.6-2.1,5.2,0.9c1,2,1.3,4,1.5,6.2c0.4,3.7,2.4,4.7,5.3,2.7c1.8-1.2,3.7-2.5,3.9-5.3
		C658,843.3,656.7,845.9,654.1,847.2z M518.6,167.4c2.9-1.3,3.4-3.4,4.4-5.2c2.2-4.2,4.2-8.6,8.9-10.6c0.8-0.3,1.2-1.1,0.8-2.3
		c-2.4-1-4.5-0.3-6,1.6c-2.4,2.9-4.7,5.9-6.7,9C518.8,162,518.3,164.4,518.6,167.4z M752.7,575.2c-2.9,2.5-14.2,19.1-15.7,23.2
		C744.3,591.5,750.2,584.7,752.7,575.2z M528.6,834.5c-1.7,7.5,1.6,13.5,5.3,19.6C535.5,851.8,534.6,848.6,528.6,834.5z M511.7,160
		c5.3-4.9,10.3-12.8,10.4-15.9C516.6,145.5,512,152.3,511.7,160z M658.2,898.7c-5.5-1.4-10.7-2.6-15.1,2.1c4.5-0.5,8.9-2.7,13.5-1.5
		c0.7,5.1-4.5,7.6-4.9,12.5C656.6,908,656.9,907.5,658.2,898.7z M552.4,866.2c1.2,4.9,6,9.5,11,11.4c1.3,0.5,2.7,1,3.4-0.5
		c0.8-1.6-0.6-2.1-1.9-2.7C560.7,872.3,556.6,870,552.4,866.2z M612.5,883.9c-1-1.9-2.3-2.5-4.1-2.6c-6.1-0.5-10.1-0.1-12.9,1.6
		C601.2,885.9,606.7,885.8,612.5,883.9z M655,548.9c2,9,5.8,17,12.2,23.8C663,564.8,658.2,557.3,655,548.9z M542.6,780.5
		c2.3,5.8,3.8,12.1,9.1,16.3c2.4-1.8,1-3.4-0.2-5C548.8,787.8,544.8,784.9,542.6,780.5z M520.5,945.8c2.5,5.2,8.6,7.9,14.4,7.3
		c0.8-2.7-1-3.6-3.1-3.8C528.1,948.8,524.4,948.5,520.5,945.8z M694.4,781c3.8-0.4,5-5.7,9-4.6c1.4,1.5,0.3,3.6,1.8,4.7
		c2.4-2.4,2.4-2.4-2.1-7.5C699.1,774.5,695.5,775.9,694.4,781z M511.1,923c0.1-6-3.8-9.6-7.7-13.3C505,914.7,507,919.5,511.1,923z
		 M268.6,343.2c-5.1-4.5-12.3-6.3-16.7-4.2C257.4,340.8,262.2,343.2,268.6,343.2z M420.6,796.5c6.1-6.6,7.2-9.1,6.1-14.4
		C424,786.5,420.6,790.3,420.6,796.5z M614.5,906.2c7.1,2.2,11.9,1.8,14.8-0.9C624.4,903.6,619.8,904,614.5,906.2z M549.4,950.6
		c3.1,2.6,6.8,3.8,10.7,4.2c0.5,0,1.7-0.9,1.7-2.1C557.9,950.6,553.7,950.5,549.4,950.6z M559.1,899c-4.2-2.1-8.3-3.5-12.9-3.2
		C549,899.7,554.5,901.2,559.1,899z M738.1,564.2c4.3-11.3,4.7-14.2,3-19.8C739.6,547.4,737.7,558.8,738.1,564.2z M706.6,565.1
		c2.5-8.7,1.8-20.5-1.3-22.7C706.9,549.9,705.9,557.2,706.6,565.1z M200.9,349c-2.5-4-6.3-6.8-10.2-10.6
		C191.1,344.2,191.8,344.9,200.9,349z M606.1,942.9c6.5,2.6,13.7,2.5,16.3-0.2C617.2,942,612.2,942.4,606.1,942.9z M491.5,880.9
		c0.6,5.4,2.3,10.4,5.4,15.6C497.2,891.8,494.9,884.9,491.5,880.9z M577.9,919.3c-6.3-1.9-10.2-2.1-15.6-0.6
		C567.8,920.2,572.3,922.7,577.9,919.3z M451.8,863.2c-1.1,6.1,0.7,10.6,3.4,14.8C454.7,873.2,455.3,868.3,451.8,863.2z
		 M575.7,935.6c6,2.5,10.8,2.5,14.2,0.3C586.6,934.4,582.2,934.2,575.7,935.6z M610.8,919.4c-3.7-1.9-10.4-2-14.6-0.2
		C601.2,920.7,605.9,921.9,610.8,919.4z M612.1,861.1c4.2,0.5,8.3,0.9,12.1-2.5C620.6,858,620.6,858,612.1,861.1z M451,426.6
		c-0.8-1.4-1.5-2.5-2.2-3.7c-1.7,0.6-3.5,1-4.4,3c1.6,1,1.8,2.7,2.4,4.3C448.6,429.4,448.5,426.7,451,426.6z M579,897.8
		c7.8,2.8,8,2.8,12.6,0.5C587.3,896.5,583.1,897,579,897.8z M689.4,651.9c-1.8,3.5-1.8,4.6,0.5,9.8
		C692.1,658.6,692,656.4,689.4,651.9z M684.7,750.8c-0.8,4.9-1.9,8.8-0.1,12.8C685.5,759.7,687.4,755.8,684.7,750.8z M468.9,411.1
		c3-2.4,3.7-5.2,3.9-8.4C468.2,404.6,467.1,406.7,468.9,411.1z M450.7,451.4c-0.3,2.2-3.2,3.5-1.4,6.6c2.6-0.5,4-2.7,6.1-4.5
		C453.5,453.1,453,451.1,450.7,451.4z M693.9,554.1c1,4.7-0.4,8.9,1.3,13.2C697.5,564,697,557.8,693.9,554.1z M223.9,281.2
		c3.2,1.3,8.7,0.1,11.5-2.2C231.4,278.4,227.9,279.2,223.9,281.2z M660,920.1c-4.2-1.3-6.3,2.1-9.3,2.8
		C654.1,923.5,657,922.7,660,920.1z M692.5,844.7c-1.6,6-1.6,8.4,0,11.4C692.9,852.6,694.8,849.2,692.5,844.7z M228.4,276.1
		c-3.3-0.1-7-1.2-9.9,2.6C222.4,279,225.4,277.9,228.4,276.1z M708.7,788.4c-2.8,3.6-3,6.9-2.9,10.4
		C707.7,796,709.4,793.1,708.7,788.4z M510.8,449c-1.2,2.2-3.6,2.9-4.6,5.4c2.6-0.9,4.8-1.7,7.3-2.6c-0.6-0.4-1-0.6-1.3-0.9
		C511.8,450.5,511.5,449.9,510.8,449z M678.7,808.8c-3.4,3.6-3.5,4.2-2.4,7.9C679,814.6,678.3,811.5,678.7,808.8z M691.5,720.2
		c-3,2.9-2.8,4.1,0.9,9.3C692.1,726.2,691.8,723.6,691.5,720.2z M526.5,931.2c-0.5-3.1-2.6-4.5-5.6-5.6
		C521.1,929.6,524.4,929.9,526.5,931.2z M668.4,745.1c2.4-3.1,4.1-5.3,3.8-8.8C669.3,738.4,668.2,740.8,668.4,745.1z M509.1,426.2
		c1.7-4,1.4-5-1.9-5.8C508.3,422.2,505.3,424.9,509.1,426.2z M676.2,789.2c-3.6,1.7-4.9,4-4.2,7.7
		C673.5,794.4,675.6,792.3,676.2,789.2z M590.3,957.5c5.7,1.9,5.7,1.9,8.7-0.1C595.7,957.8,593.1,956.6,590.3,957.5z M700.8,826.5
		c-3.4,2.1-3.3,4.9-2.8,7.8C699.9,832.2,701.4,830,700.8,826.5z M314,286.5c-2.7,3.4-3,4.2-3.6,8.8
		C312.4,292.7,313.9,290.1,314,286.5z M678.2,894.9c-1.4,2-2.8,4-4.1,6C677.3,900.2,678.6,898.1,678.2,894.9z M706.1,737.6
		c-3.1,2.2-3.1,2.2-3.5,4.7C704.5,741.5,706.8,741.2,706.1,737.6z M571.4,865.2c-1.7-0.4-2.7-1.3-4.1-0.7c-0.5,1.6-0.2,2.8,1.3,3.7
		C569.9,867.8,570.5,866.7,571.4,865.2z M660.5,772c3.2-0.7,3.5-0.9,3.9-4.5C661.9,768.1,661.1,769.8,660.5,772z M720.4,594.6
		c-3.7,2-5.5,4-6.2,7.8C717,600.3,718.5,598.1,720.4,594.6z M183.8,279.3c0.4-2,0.5-3.9-1.8-3.9c-2.7,0-2.2,2.1-1.9,3.9
		C181.3,279.9,182.4,280,183.8,279.3z M705.2,713.8c3.1-3.6,3-4.9,0-6.6C705.2,709.2,705.2,711.2,705.2,713.8z M683.8,848.5
		c2-1.1,4.2-2,5.7-4.5C686.4,844.6,684.4,845.7,683.8,848.5z M632.1,928.1c-2.5-1.4-5-1.7-8.3-0.1
		C627.1,929.4,629.6,928.7,632.1,928.1z M405.3,418.1c2.5-3.7,2.5-4-0.5-5.6C403.6,414.5,403.4,416.3,405.3,418.1z M612.2,537.8
		c0.9,2.7,1.5,5.5,3.6,7.6C615.2,542.6,614.4,539.9,612.2,537.8z M648.4,798.5c2.1-1.5,2.8-3.6,3.3-6.3
		C649.1,793.9,648.6,796.1,648.4,798.5z M711.1,583.4c2.6-1.6,2.1-3.8,2.7-5.9C711.2,578.7,710.9,580.6,711.1,583.4z M208.8,322.1
		c-1.6-1.9-3.4-3.6-6.6-4.9C204,320.3,206.4,321.2,208.8,322.1z M427.4,411.1c2.7-2.4,2.7-2.4,0.7-5.2
		C427.6,407.7,426.4,409.1,427.4,411.1z M667.1,893.2c4.3-2,4.3-2,3.9-6.1C669.2,888.6,668.4,890.5,667.1,893.2z M471,705.3
		c1.2-2.9,1.7-4.9,0.9-7.5C470.1,700.1,468.8,702,471,705.3z M508,464.5c0.2-2.1-1.4-1.9-2.5-1.9c-1,0-1.7,0.8-1.1,2
		C505.6,465.3,506.7,464.2,508,464.5z M679.8,682.2c0.6-3,0.6-3-1.1-4.5C678.5,679.2,678.1,680.9,679.8,682.2z M621.7,842.6
		c1.9-1.7,3.5-2.7,3.3-5.4C623,838.6,622.4,840.1,621.7,842.6z M433.9,466.8c2-1.3,1.9-2.8,1.3-5
		C434.1,463.6,432.1,464.5,433.9,466.8z M468.9,646.8c1.5,2.3,2.3,0.9,3.3-0.1C470.7,645.3,469.8,646.7,468.9,646.8z M300.3,295.1
		c0.3,0.1,0.6,0.2,1,0.3c1.1-2.2,2.1-4.5,1.7-7.2C302.1,290.5,301.2,292.8,300.3,295.1z M622.3,432.5c-0.6-2.6-2-2-3.5-1.8
		C619.5,432.1,620.6,432.2,622.3,432.5z M624.9,415.7c0.6-1.8,0.6-2.8-0.8-3.4C623.3,413.4,623.4,414.3,624.9,415.7z M411.8,411.4
		c3.6-0.7,3.8-1.3,1.4-4.3C413.4,408.6,412.7,409.8,411.8,411.4z M478.9,467.3c-0.3,1.5-2.5,2.5-1.6,4.5
		C477.7,470.1,480.5,469.6,478.9,467.3z M555.2,816.9c0.9-1.8-0.9-1.9-1.2-2.9C555.1,814.8,553.6,816.3,555.2,816.9z M418.3,404.8
		c-0.2,1.6-1.5,3.6,1.1,4.9C420.1,407.7,419.7,406.2,418.3,404.8z M520.2,854.9c1.1-0.5,2.1-0.9,1.3-2.3c-0.1-0.2-0.6-0.3-0.8-0.2
		C519.2,852.9,519.3,853.8,520.2,854.9z M702.3,681.6c0.9-1.9,0-2.5-1-3.3C700.6,679.7,700.7,680.6,702.3,681.6z M255.3,301.4
		c0.6-1.4,2-2.5,1.2-4.4C256.1,298.5,254.1,299.4,255.3,301.4z M712.3,758.3c2.3-1.4,2.3-2.6,0.3-4.4
		C712.2,755.3,711.5,756.4,712.3,758.3z M616.3,548c-0.1,1.9,1.3,2.6,2.3,4C618.7,549.9,618.2,548.8,616.3,548z M503.2,704.2
		c-0.1,0.7,0.5,0.8,0.9,0.9c0.7,0.2,1.2-0.2,1.5-0.9C504.8,703.8,504,704,503.2,704.2z M534.1,888.1c0.7-0.3,1-1,0.7-1.6
		c-0.2-0.5-1-0.4-1.3,0C533.1,887.2,533.7,887.7,534.1,888.1z M290.3,281.8c0,2.6,0,4.7,0,6.9c0.6-1.8,0.7-3.5,0.6-5.3
		C290.9,283,290.6,282.6,290.3,281.8z M573.3,450.7c-0.1-1.5-0.9-2-1.9-2.1c-0.5,0-0.8,0.6-0.7,1.1C571,451,572,450.9,573.3,450.7z
		 M595.5,425c-0.1-0.7-0.6-1.1-1.2-1.2c-0.5-0.1-0.9,0.3-1,0.7c-0.2,0.7,0,1.2,0.8,1.4C594.7,426.1,595.2,425.7,595.5,425z
		 M440.2,462.8c1.8-0.5,3-0.9,4.3-1.2C443.1,461.4,441.5,460.1,440.2,462.8z M202,317.4c-0.7-1.7-1.6-2.3-3.4-3.3
		C199.7,315.9,200.3,316.7,202,317.4z M470.8,787.8c0.9-0.7,2-1.3,0.8-2.5c-0.4-0.4-1.3-0.3-1.7,0.2
		C469.1,786.6,470.1,787.2,470.8,787.8z M491.4,435.9c-0.5,1.6-0.2,2.6,0.8,4C493.2,437.9,492.5,437,491.4,435.9z M692.2,771.7
		c-0.1-0.7-0.4-1.2-1.2-1.1c-0.2,0-0.4,0.5-0.5,0.7c-0.1,0.7,0.2,1.3,0.9,1.4C692,772.7,692.1,772.1,692.2,771.7z M529,772.6
		c-0.5,0.1-1,0.4-1,0.9c0,0.4,0.2,1.1,0.5,1.2c0.8,0.3,1.1-0.4,1.1-1.1C529.7,773.2,529.5,772.7,529,772.6z M598.5,870
		c-1-0.8,0.5-2.3-1.1-2.7c-0.4-0.1-1.2,0.2-1.2,0.5C596,869.4,597,869.9,598.5,870z M612.7,889.6c-1.5,1.5-0.4,2.9-0.3,3.4
		C612.2,892.5,614.3,891.3,612.7,889.6z M499.4,768.2c-0.3-1.7-0.3-1.7-2.4-1.3C497.9,767.4,498.6,767.8,499.4,768.2z M559.9,895.4
		c0.9-0.3,1.2-1,0.8-1.8c-0.2-0.4-0.9-0.5-1.3-0.1C558.8,894.1,559.3,894.8,559.9,895.4z M514.6,823.6c1.5-0.2,0.9,1.4,2.2,0.9
		c0.2-0.1,0.5-0.5,0.4-0.8C516.9,822.6,516.2,822.7,514.6,823.6z M266.3,313.6c0.6-1.7,0-2.2-0.8-2.8
		C264.8,311.9,265,312.7,266.3,313.6z M696.3,583.7c-0.3-0.9-0.9-1.2-1.8-0.9c-0.6,0.2-1.2,0.4-0.9,1.3c0.3,0.8,0.8,1.4,1.8,1.1
		C696.2,585,696.1,584.3,696.3,583.7z M446.4,760c0.3-0.1,0.7-0.2,0.7-0.4c0.1-0.5-0.2-0.9-0.7-1c-0.2,0-0.7,0.2-0.7,0.4
		C445.7,759.4,445.9,759.8,446.4,760z M483.8,444.7c1,0.5,1.8,0.7,1.9-0.9C485,443.9,484.3,444.2,483.8,444.7z M445.5,452.6
		c-0.2,0.2-0.4,0.6-0.7,1c0.3,0.1,0.6,0.3,0.8,0.3c0.5-0.1,0.7-0.6,0.7-1C446.3,452.5,446,452.3,445.5,452.6z M620.6,425.5
		c-0.5,0.2-0.6,0.6-0.5,1.1c0.2,0.5,0.6,0.7,1.1,0.4c0.2-0.1,0.4-0.5,0.3-0.7C621.5,425.8,621.1,425.5,620.6,425.5z M503.6,769.3
		c0.2-0.7-0.4-0.8-0.8-0.9c-0.3,0-0.8,0.3-0.8,0.3c0.1,0.4,0.2,1.1,0.5,1.2C503,770.1,503.4,769.7,503.6,769.3z M498,153.4
		c0.6,0.1,0.8-0.4,0.9-0.8c0-0.2-0.3-0.5-0.5-0.6c-0.5,0-0.9,0.1-0.9,0.7C497.5,153,497.8,153.2,498,153.4z M636.5,549.7
		c-0.1-0.1-0.1-0.2-0.2-0.3c-0.1,0.1-0.2,0.2-0.3,0.3c0,0.1,0.1,0.2,0.2,0.3C636.4,549.9,636.4,549.8,636.5,549.7z"/>
	<path fill="#080D25" d="M163.3,255.5c2-3.4,3.4-3.7,7.5-1.5C167.8,257.1,167.6,257.2,163.3,255.5z"/>
	<path fill="#080D25" d="M371.7,265.3c-0.6,1.3,1,3.9-1.1,6.5C370.1,268.7,372.7,266.9,371.7,265.3z"/>
	<path fill="#080D25" d="M148.4,278.2c-0.2,1.7-0.3,2.4-0.4,3.2C146.9,280.6,147.1,279.8,148.4,278.2z"/>
	<path fill="#080D25" d="M333.4,279c0.2,1.5-0.7,2.1-1.7,2.7C330.9,279.8,332.7,279.7,333.4,279z"/>
	<path fill="#080D25" d="M373.6,253.6c0.4,0.9-0.2,1.4-0.6,2.2C372,254.6,372.8,254.1,373.6,253.6z"/>
	<path fill="#080D25" d="M282.5,363.1c-0.4-0.9-1-1.7-0.2-2.6C283.2,361.4,282.7,362.3,282.5,363.1z"/>
	<path fill="#080D25" d="M504,141.3c0.2,0.1,0.5,0.4,0.5,0.4c-0.1,0.3-0.3,0.5-0.5,0.8c-0.3,0.3-0.6,0.3-0.7-0.2
		C503.2,141.8,503.4,141.3,504,141.3z"/>
	<path fill="#F3F4F7" d="M435.7,329.6c-6.9,2.4-13.6,1.4-20.3,1.8c-3.8,0.2-7.3-1.6-11.2-1.4c-1.8,0.1-3.1-1.7-3.9-3.4
		c-1.6-3.2-3.2-6.5-4.7-9.6c2.1-3.3,4.6-5.8,8.8-8.2c-5.4-1.1-8-5.3-12.6-5.9c-0.8-2.8,0.7-4.7,1.8-6.9c-4.1-3.7-10.1-2.3-14.8-5.2
		c1-8.7,2.3-17.3,4.1-25.8c2.1-10.4,7-19.2,13.6-27.3c0.5-0.6,1.3-1,2.1-1.6c4.2,5.8,9.2,10.9,14,16.1c1.6,1.7,3.2,3.4,5.2,4.6
		c6,3.4,10.3,8.7,15.4,13.1c1.4,1.2,2,2.5,2.3,4.2c0.8,3.8-0.2,7.6-0.4,11.3c0,0.7-0.6,1.5-1.1,2.1c-5.5,6.6-7.3,14.2-6.2,22.6
		c0.7,5.7,3.3,10.3,7.8,13.8c3.8,3.1,6.5,7.4,11,9.8c1.7,0.9,2,3.2,2.2,5.3c0.6,6.2,1.6,12.4,4,18.2c0.9,2.2,2.1,4.1,3.6,5.9
		c2.5,3.1,5.2,5,9.4,3.2c2.2-1,4.5,0.4,6.8-0.2c3-0.7,5.6-1.4,7.5-4.2c1.5-2.2,3.6-3.9,6.4-4.3c1.2-0.2,2.3-0.6,3-1.6
		c2.3-3.3,5.7-4.3,9.4-4.9c1.3-0.2,2.7-0.4,3.7-1.2c4.3-3.2,9.4-4.6,14.4-6.4c2.1-0.7,3.6-2.3,5.4-3.5c3.8-2.6,7.7-5,11.5-7.7
		c4.9-3.4,9.5-7.2,13.1-12.4c5.6-7.9,10.4-16.3,16-24.3c1.1-1.6,1.4-3,0.6-4.5c-3.2-6.2-4.3-13.2-6.9-19.5
		c-1.4-3.3-2.7-6.8-2.5-10.5c0.1-1.6-0.8-2.8-1.7-4c-2.1-2.7-3.2-5.9-3.3-9.1c-0.2-3.5-1.3-6.6-3-9.3c-4.3-6.8-5.9-14.6-9-21.8
		c-2-4.7-3.4-9.6-5-14.4c-1.2-3.7-1.3-3.7,1.8-6.5c0.8-0.7,1.4-1.4,1.2-2.5c-0.5-1.4-1.7-1.5-2.9-1.4c-4.5,0.2-8.4-1.2-11.5-4.6
		c-1.9-2-4.7-3.1-5.7-6c-0.3-0.8-1.2-1-2-1.3c-6.6-3.3-8.7-9.4-10.1-16c-0.1-0.3,0-0.7,0.1-1c0.1-0.3,0.3-0.6,0.6-1
		c2.8,0.6,3.8,3,4.5,5.2c0.8,2.4,2.3,3.7,4.6,4.7c3.5,1.4,7.3,2.3,10,5.2c0.4,0.4,1.2,0.7,1.8,0.7c4.1-0.6,8.4,1.1,12.3,0.1
		c4.6-1.2,8.3,0.3,12.3,1.6c0.7,3.6-2.1,5.5-3.3,8.4c1.2,1.2,2,2.6,2.4,4.4c1.3,5.7,5.6,9.6,9.3,13.7c5.1,5.5,8.3,12.2,12.3,18.3
		c2.7,4.1,5.2,8.3,8.3,12.3c3.7,4.8,5.7,10.6,8.4,16c2.9,5.8,4.7,12.2,8,17.8c1.8,3,3.3,6,3.3,9.7c0,1.6,1,2.8,1.7,4.1
		c4,7.1,4.9,14.9,4.6,22.9c-0.1,2.9-1,5.5-3.3,7.5c-1.7,1.4-2.5,3.2-2.8,5.5c-0.4,4-3.2,7.1-5.4,10.3c-2.8,4.2-5.4,8.8-8.8,12.3
		c-3.8,3.9-6.6,8.4-10.7,12.1c-5.2,4.7-9.6,10.3-14.5,15.4c-4.7,4.8-9.9,9-15.7,12.6c-5,3.1-10.1,6-15.3,8.9
		c-3.3,1.8-6.7,4.2-11,3.2c-2.1-0.5-3.8,1-5.3,2.3c-4,3.7-7.9,7.6-11.1,11.9c-2.1,2.8-2.9,6.2-1.6,9.8c1.4,3.9,2.2,7.9,3.4,11.9
		c2.3,7.4,0.9,14.5-2.5,21.1c-3.4,6.7-13.1,11.5-21.7,9.3c-12-3-24.1-15.6-22.1-31c0.6-4.3,2.4-8.4,6.7-10.1
		c5.5-2.1,11-2.9,16.1,1.9c4.1,3.9,6.1,8.4,6.2,14c0.1,3-1.3,5-3.8,6.4c-2.4,1.4-4.7,0.6-6.8-2.1c-2.1-2.7-2.1-3.4,0.4-6
		c0.2,0.2,0.6,0.3,0.7,0.5c0.3,2.3,0.9,4.6,3.7,4.1c2.4-0.5,2.3-2.9,2.2-4.9c-0.5-8.8-9.3-15.1-17.1-11.1c-2,1-3.2,2.3-3.6,4.4
		c-1.4,8.5-1,16.8,5.1,23.7c4.1,4.6,9.6,7,15.4,8.1c5.9,1,14.3-4.4,16.8-9.9c4.1-9,2.6-17.7-1.5-26.2c-1.5-3.1-2.6-6.4-4.4-9.4
		c-2.2-3.8-5.6-6.7-7.5-10.9c-1.3-2.9-4.8-3.2-7.4-1.8c-1.2,0.1-1.2-0.6-1.4-1c-2.8-4.4-5.7-4.6-9.3-0.8c-2.3,2.4-3.6,5.3-4.4,8.5
		c-1.8-0.6-1.1-1.9-1.2-2.9c-0.3-3.1-2.2-4.4-5.1-3.2c-1.7,0.7-3,2-3.8,3.7c-1.7,3.2-3.4,6.3-5.4,10c-2.8-3.3-5.4-6-7.4-9.1
		c-3-4.7-3.6-5.3-9.1-4.6c-1.7-1.6-2.2-5-5.5-4.8c-2.1,0.1-2.9,1.9-3.7,3.4c-0.9,0.2-1.2-0.5-1.6-0.9c-2.9-3.1-5-3.3-7.8-0.3
		c-1.4,1.5-2.6,2.2-4.7,2.8c-3.7,1.1-5.6,4.7-6.4,8.3c-1.1,4.7-3.7,8.3-6.6,12c-2.6-2.1-3.8-5.1-5.6-7.6c-3.5-5.1-7.5-4.9-10.5,0.6
		c-3.5,6.3-4.2,13.2-4.3,20.1c-0.1,4.9-0.1,9.6-3.9,13.3c-0.1,0.1-0.2,0.3-0.3,0.4c-4,12.7-14,20.6-23.4,28.6
		c-6,5.1-12.4,10.3-20.9,11.4c-2.3,0.3-4.1,2-6.1,3.2c-4.1,2.5-7.9,2-10-2.2c-1.3-2.5-3.1-4.1-5.1-5.8c-1.6-1.4-3.4-2.9-4.3-4.7
		c-3.7-7.5-8.8-14.2-12.3-21.9c-3-6.5-5.5-13.3-9.5-19.3c-0.5-0.8-1-1.7-1.3-2.7c-2.8-8.9-7.9-16.9-10.6-25.9
		c-2-6.8-6.7-12.4-7.9-19.5c-0.2-1.2-1-2-1.9-2.8c-1.2-1-1.7-2.3-2.4-3.7c-1.6-3.4-1.7-8-4.8-10.1c-5.1-3.5-10-7.3-16.1-9.3
		c-11.1-3.5-20.6-9.9-27.7-19.5c-0.4-0.5-0.8-1-0.7-2c1.6-0.8,3,0.1,4.4,0.9c2.8,1.7,5.8,3.2,8.4,5.2c3.4,2.5,6.9,2.8,10.8,1.9
		c4.4-1,8.7-1.8,13.1-0.3c1.4,0.5,2.9,0.2,4.3-0.3c7.1-2.4,15.9,1.6,19.5,8.5c3.4,6.4,5.4,13.4,8.4,20c2.3,5.1,4.7,9.8,8.5,14.2
		c4.7,5.4,9.3,10.9,12.9,17.4c4.1,7.4,8.7,14.7,14,21.5c2.2,2.8,3.1,6.5,5.6,9.2c2.4,2.7,2.8,2.8,6.1,1.1c4.2-2.1,7-5.5,10.1-9
		c5.8-6.7,9.7-14.4,14.1-21.9c3.4-5.8,4.9-12.6,8.1-18.5c2.5-4.6,4.9-9.3,7.6-13.9c5.6-9.7,16.7-12.1,26.1-10.6
		c4.7,0.7,8.5,3.4,12.9,4.7c4.9,1.4,9.4,0.8,13.4-2.4c2.1-1.7,4.2-3.3,6.9-3.6c2.8-0.3,3.5-2.2,3.8-4.4c0.2-1.6,0.4-3.4,0-4.9
		c-0.9-3.8,0.5-7.5,0-11.3c-0.3-2.4,1.5-4.3,3.3-5.8c1.7-1.3,3.2-2.8,5.2-3.8C433.7,335.4,435.3,333.3,435.7,329.6z M484.4,383.3
		c0.5-0.5,1.1,1.5,1.6-0.1C485.5,383.2,485,383.2,484.4,383.3c0,0.6,0,1.2,0,1.8c0.5,0,0.7-0.2,0.6-0.6
		C485,384,484.7,383.6,484.4,383.3z M418.9,265.7c-4.4-6.8-13.6-11.8-20.5-11.8c-4.2,0-6.8,2.7-9.2,5.5c-1.8,2.1-1.2,4.7-0.8,7.3
		C397.4,263.1,398.6,263.1,418.9,265.7z M391.3,281.2c5.9,7.8,20.2,7.3,24.7-0.9c-2.3-0.3-4-2.1-6.2-2.2c-2.7,1.5-3.5,5.7-7.7,4.6
		c-0.1-1.4-0.1-2.7-0.3-4c-0.3-1.6-1-3.2-2.8-3.7c-1.8-0.6-3.2,0.3-4.3,1.7C393.6,278.2,392.5,279.6,391.3,281.2z M521.8,383.1
		c2.1-0.7,2.9-2.2,3.2-5C523.6,380.3,522.7,381.7,521.8,383.1z M517.2,362.4c-1,1.3-1.5,1.9-2,2.5
		C516.2,364.7,516.8,364.2,517.2,362.4z M505.8,352c-1.4,0.9-2.4,1.5-2.6,3.1C504.6,354.4,505.6,353.9,505.8,352z M414.5,327.2
		c-0.9,0.6-1.7,0.7-1.7,1.7C413.8,329.1,414.6,329.1,414.5,327.2z"/>
	<path fill="#F3F4F7" d="M460.5,557.7c1.2-1.2,1.6-2.4,1.8-3.7c1-6.7,0.6-13.4-0.1-20.1c-1.2-11.1-3.6-22-5.1-33.1
		c-1.2-8.7-0.9-17.6-1.2-26.5c0-0.9,0.5-1.8,0.9-3.3c5.1,1.9,10.5,2.3,14.3,6.3c0.9,1,1.7,1.8,3.3,1.8c5.9-0.1,11.3,2.1,16.8,3.6
		c3.4,0.9,6.7,1.7,10.6,1.3c-0.3,3.9-0.3,7.7-0.9,11.3c-1.4,9.1-2.1,18.3-2.1,27.6c0,8.9-0.7,17.7-1.1,26.6
		c-0.1,1.2,0.3,2.2,1.1,3.1c2.4,2.9,4.9,5.6,7.9,8c6.9,5.5,12,12.6,16.6,20c1.6,2.5,1.2,4.7-0.6,6.7c-1.8,2-3.2,4.1-4.2,6.6
		c-0.7,1.7-2.2,2.9-3.6,4c-5.6,4.7-11.4,9-17.7,12.5c-4.7,2.5-9.4,5.2-14.8,6.5c-3.8,0.9-7.5,2.5-11.1,4c-1.8,0.7-3.6,0.9-5.3,0.3
		c-3.8-1.5-8-1.9-11.7-3.9c-2.1-1.2-4.6-1.9-6.9-2.6c-5.8-1.8-10.8-5.2-15.8-8.6c-3.2-2.1-6.4-4.1-9.5-6.3
		c-4.9-3.5-8.9-7.9-13.1-12.1c-1.4-1.4-2.5-3-3.9-4.4c-1.5-1.4-2.5-3.1-0.9-5.6c1.5,1.5,2.6,3.4,5.4,3.5c-0.8-2.7-2.6-4.2-4.5-6.1
		c1.3-1.3,2.3-2.9,3.1-4.6c2.8-5.8,7.4-10.2,12.7-13.8c1.4-1,2.2-1.9,1.9-3.6c-1.4-7.9-0.6-16.2-3.8-23.8c-3-7.2-3.8-15-6.7-22.2
		c-1.3-3.2-3.1-6.2-4.3-9.4c-2-5.5-1.5-11.1-2.2-17.1c13.8,1.7,25.4-3.6,36.8-9.1c1.5-0.7,2.9-1.6,4.6-1.3c0.2,0.3,0.5,0.5,0.5,0.8
		c0.6,7,2.6,13.9,2.8,21c0.3,7.9,2.1,15.7,3.7,23.4c2.3,12,4.9,23.9,4.2,36.2C458.2,553.8,458.2,555.9,460.5,557.7z M453.4,603
		c0.7-0.2,1.1-0.2,1.3-0.4c4.9-4,5.5-4,10.7-1c1,0.6,2,1.2,3.1,1.5c3.3,1,6.9-0.4,8.5-3.2c1.1-2,0.5-3.8-1.7-4
		c-3.2-0.3-6-1.4-8.9-2.6c-2.1-0.9-4.6-0.8-6.8-0.3C453.9,594.2,451.6,597.9,453.4,603z M412.3,496.4c0.6-1.3,0-2.1-1-2.8
		C410.7,494.9,411.5,495.7,412.3,496.4z M463,515.8c0-1,1.1-2.3-0.4-3.2C462,513.8,462.1,514.8,463,515.8z M410.2,487.1
		c-0.7,0.9-0.6,1.8,0.2,2.5c0.1,0.1,1.1-0.2,1.2-0.4C411.8,488.1,411.4,487.3,410.2,487.1z M416.2,512.1c-0.1,0.3-0.2,0.6-0.2,0.9
		c0,0.4,0.3,0.5,0.7,0.3c0.4-0.2,0.5-0.4,0.2-0.7C416.7,512.4,416.4,512.2,416.2,512.1z"/>
	<path fill="#F3F4F7" d="M195.3,327.3c-1.8,0.4-1.9,2.4-4,3c-4.9-5-12.5-7.5-15.5-14.7c0.4-0.6,0.5-0.8,0.6-0.8
		c7.7-0.2,11.5-6,15.8-11.1c1-1.2,2.1-2.5,3.1-3.6c1.4,0.5,1.8,1.2,1.1,2.3c-1.3,2.5-2.9,4.8-4.9,6.8c-1.5,1.5-3.4,2.6-4.5,5
		c6.2,6.4,13.9,11.2,21.5,16.1c4.5-3,6.9-7.6,10.2-11.3c2.4,1.3,3.5,3.6,5.9,4.1c2.7-0.8,2.5-4.8,5.8-5c0.7,2.8-2.2,3.8-2.9,6.1
		c3.1,2.5,6.9,3.5,10.6,4.5c9.2,2.5,18.5,2,27.9,1.2c3.9-0.3,7.7-0.6,11.5-1.4c1.5-0.3,2.7-0.9,3.9-1.9c3.3-2.6,6.8-4.9,10.6-6.8
		c-4.4,4.7-7.3,11.2-15.1,11.8c1.6,2.6,4.3,2.3,5,4.6c-3,1.1-7.2-2.2-9.3,2.5c-7.3-1.2-14.4-4-22.1-3.9c-1.8,0-3.6,0.1-5.4,0.4
		c-7.3,1.2-14.7,1.6-22.1,1.3c-2.5-0.1-4.9-0.8-7.3-1.2c-1.7-0.3-3.4-1.9-5.4,0.3c-0.9,1-2.3-0.5-3.4-1.2
		C203,332,199.1,329.6,195.3,327.3z"/>
	<path fill="#F3F4F7" d="M479.3,660.8c1.8,1.3,2.3,3,2.8,4.7c1.7,5.7,3.4,11.3,6.2,16.6c2.4,4.7,2.6,10.2,3.3,15.4
		c0.5,3.6,1.5,6.9,2.8,10.4c3.4,9.6,6.5,19.4,9.3,29.2c2.6,9,6,17.6,10.7,25.8c5.1,9,9.5,18.4,14.5,27.5c2.8,5,5.8,10,9.2,14.6
		c6.8,9.2,10.5,20,16.2,29.8c0.2,0.4-0.1,0.9-0.8,1.3c-6.2-9.3-12.5-18.5-18.7-27.8c-4.7-7.1-10-13.9-14-21.5
		c-3.6-6.9-7.1-13.7-9.7-21.1c-4.6-12.7-10.3-24.9-15.8-37.2c-2-4.5-3.4-9.2-4.2-14.1c-1.4-8.3-3.6-16.4-4.9-24.7
		c-1.2-7.5-3.5-14.7-5.8-21.9C479.5,665.6,479.1,663.4,479.3,660.8z"/>
	<path fill="#F3F4F7" d="M466,660.8c-0.2,6.4,0.6,12.5,0.2,18.8c-0.5,7.2-2.2,14.3-1.9,21.6c0.5,10.4-0.5,20.8-0.8,31.2
		c-0.1,3.6-0.6,7.3-1.6,10.7c-2.3,8.1-3.1,16.5-4.6,24.7c-1,5.6-2.1,11.3-4.6,16.6c-3.7,7.9-5.9,16.4-9.9,24.2c-2,4-3.9,8-6.6,11.5
		c-2.5,3.3-3.4,7.5-5.4,11.1c-0.5,1-0.8,2.1-2,3.1c-0.4-2,0-3.5,0.6-5.2c1.8-4.6,3.3-9.3,5-13.9c1.1-3.1,2.2-6.2,4-9
		c2.3-3.8,4.1-7.9,5-12.3c1.1-5.5,3.6-10.6,5.2-15.9c3.1-10.2,7-20.2,8.8-30.7c0.1-0.6,0.2-1.3,0.1-2c-0.3-9.8,0.9-19.4,2.5-29
		c1.5-8.8,1-17.8,1.7-26.7c0.7-9,1.8-18,2.8-27C464.7,662,464.9,661.4,466,660.8z"/>
	<path fill="#F3F4F7" d="M527.9,912.3c-6.5-7-10.4-14.5-13.9-22.3c-2.2-4.8-3.8-9.8-5.8-14.7c-1.1-2.6-1-5.5-1.8-8.2
		c-1.7-6-4.5-11.7-6.1-17.7c-3.2-11.8-7.4-23.5-7.6-36c0-0.9-0.6-2,0.9-2.8c2.2,2.1,2.7,4.9,3.3,7.7c0.3,1.4,0.5,2.9,0.5,4.4
		c0.1,7.6,3.2,14.3,5.8,21.2c0.5,1.3,0.7,2.5,1,3.8c2.5,9.2,6.7,17.8,8.7,27.1c0.2,0.8,0.6,1.6,1.2,2.1c2.1,2.2,3.3,4.9,4.1,7.7
		c2.6,8.6,6,17,10,25C528.3,910.2,528.1,910.8,527.9,912.3z"/>
	<path fill="#F3F4F7" d="M421.1,430.7c3.7,1.2,3.9,4.2,3.5,7.1c-0.3,2.9-3,3.3-5.2,3.7c-3.4,0.7-7.1-1-8.9-4
		c-5.2-8.9,0.9-19.7,10.5-19.8c9.9-0.1,19.6,7.7,19.4,18.8c-0.1,7.7-2.6,13.9-8.1,19.4c-4.4,4.4-16.5,6.2-22.3,2.5
		c-4.4-2.8-8.7-5.7-11.8-10.3c-3.5-5.2-4-11-4.6-16.8c0-0.2,0.4-0.4,0.7-0.7c1.2,1,1.3,2.5,1.5,3.9c0.4,2.6,1,5.2,2,7.6
		c3.8,9.4,11,14.7,20.8,16c7.5,1,15.9-5.8,17.4-13.8c1-4.9,1-9.8-0.6-14.7c-2.5-7.4-11.9-11.1-18.5-7.3c-4.4,2.6-6.1,8.8-3.8,13.4
		c0.8,1.6,2.1,2.5,3.8,2.7c4,0.6,6-1.6,4.9-5.5C421.9,432.1,421.5,431.4,421.1,430.7z"/>
	<path fill="#F3F4F7" d="M446.1,661.5c1.3,2.4-0.1,4.6-0.9,6.6c-6.2,15.3-9.1,31.3-10.1,47.7c-0.4,6.7-0.9,13.5-3.3,19.9
		c-1,2.8-1.9,5.6-3.6,8.1c-5.6,8.3-10.4,17.2-16.7,25c-2.3,2.8-5.9,4.2-7.2,8.4c-0.9-1.9-0.2-2.7,0.3-3.5c3.9-5.7,7-12,12.4-16.6
		c0.9-0.7,1.7-1.7,2.2-2.7c6.3-13.3,11.1-27.1,12.6-41.9c0.4-3.8,1.1-7.6,2.5-11c1.2-2.9,1.5-5.7,1.3-8.6c-0.4-6.1,1.5-11.7,4-17.1
		C441.8,671,443.6,666.1,446.1,661.5L446.1,661.5z"/>
	<path fill="#F3F4F7" d="M544.3,755.9c-9.2-8.5-15.5-18.7-20-30.5c-4.1-10.6-7.9-21.2-10.5-32.3c-0.3-1.2-1.1-2.4-1.7-3.6
		c-3.9-8.5-7.8-17-11.6-25.6c-0.2-0.5-0.4-0.9,0-1.5c0.5,0.4,1.2,0.7,1.4,1.2c2,4.5,5.7,7.9,7.5,12.5c2.2,5.8,4.8,11.5,6.9,17.4
		c2.7,7.7,7.4,14.7,9.2,22.8c1.6,6.7,4.7,12.7,8.2,18.4c3.8,6.3,6.9,13.1,10.9,19.3c0.5,0.7,0.9,1.4-0.3,1.9L544.3,755.9z"/>
	<path fill="#F3F4F7" d="M168.1,266.4c4.3,4,5,8.2,5.8,12.3c0.1,0.6,0.1,1.3,0.1,2c0.2,8.3,2.2,10.8,10,12.9c1.3,0.4,2.2,0,3.1-0.8
		c1.6-1.3,2.6-2.9,3.6-4.6c0.8-1.4,1.2-3,2.8-3.9c-0.1,6.2-1.5,12.1-5.1,17.2c-2.8,4-13.3,6.5-17.8,4.8c-0.3-0.1-0.7-0.2-0.9-0.4
		c-0.6-0.7-1.6-1.5-1.7-2.3c-0.4-3.1-4-4.8-3.7-8.7c5.8,1.3,10.1,7,17.3,4.7c-3.1-3.8-7.3-5.3-10.5-8.2c-3-2.7-8.4-1.8-10.5-6.4
		c4.1-1.8,7.3,2,11.3,0.6C172,279.2,168.5,273.7,168.1,266.4z"/>
	<path fill="#F3F4F7" d="M501,932.6c-2.4,0.3-3.7-1.1-5.2-2c-7.5-4.2-12.7-10.3-15.8-18.3c-1.3-3.4-3.1-6.5-4.5-9.9
		c-1.8-4.1-2.3-8.5-3.3-12.7c-0.8-3.3-2.2-6.5-3.3-9.8c-2-5.6-4.2-11.1-3.5-17.2c0.1-1.2-0.6-2.6-0.8-3.9c-0.2-1.6-0.9-3.3,0.8-4.6
		c1.5,0.2,1.7,1.3,1.9,2.5c0.5,2.1,1.1,4.1,1.5,6.2c1.5,8.4,5.7,16.1,6.6,24.7c0.2,1.8,0.5,3.6,0.8,5.4c0.6,3.2,1.2,6.4,3.2,9.2
		c1.6,2.3,2.9,4.9,3.7,7.5c2.2,7.8,7.5,13.4,13.1,18.8C497.6,930,499.2,931.2,501,932.6z"/>
	<path fill="#F3F4F7" d="M571.6,721.1c-1.5,0.8-2.1,0.5-2.7,0.2c-7.5-3.5-14.4-7.8-19.5-14.5c-3-3.9-6.5-7.4-9.5-11.3
		c-5.1-6.7-8.5-14.3-12.4-21.7c-3.3-6.2-7.2-12.1-10.9-18.1c-0.4-0.7-0.8-1.3-1.6-2.6c3.5,0.7,5.4,2.6,7.1,4.7
		c3.9,4.7,6.4,10.3,9.6,15.4c4.2,6.6,7.5,13.7,11.5,20.5c4.1,7,9.7,12.9,15.9,18C563.1,714.9,566.5,718.7,571.6,721.1z"/>
	<path fill="#F3F4F7" d="M388.6,719.3c6.1-5.4,9.8-12,14.1-18.2c5.7-8.5,9.2-18.2,12.2-27.9c3-9.5,7.2-18.2,13.6-25.9
		c-2.1,4.9-4,9.9-5.6,15c-2.3,7.3-5.3,14.3-7.8,21.6c-2.7,8.1-7.1,15.6-11.7,22.8c-1.3,2.1-3,3.9-5.1,5.3c-2.1,1.5-4.1,3.3-5.7,5.5
		C391.9,718.5,391.2,719.7,388.6,719.3z"/>
	<path fill="#F3F4F7" d="M398.9,599.5c1-0.7,1.6-0.2,2,0.2c3.6,3.6,8.3,5.8,11.7,9.7c3.5,4.1,8.2,6.3,13,8.3
		c6.7,2.8,12.4,7.2,18.8,10.6c0.6,0.3,1.1,0.7,1,1.6c-0.7,1.3-1.7,0.4-2.5,0.1c-2.3-0.8-4.6-1.9-6.9-2.5c-5.5-1.4-9.9-5.2-15.3-6.7
		c-8.8-2.4-13.5-9.6-19.1-15.9C400.2,603.2,399.3,601.4,398.9,599.5z"/>
	<path fill="#F3F4F7" d="M520,620.7c-5.2,0.7-9.8,2.8-14,5.7c-3.1,2.1-6.7,2.7-10,3.9c-0.6,0.2-1.3,0-1.7-0.8
		c-0.3-0.9,0.2-1.5,0.9-2c5-3.7,10-7.4,15.9-9.9c4.9-2.1,9.6-4.9,13.1-9.2c2.7-3.3,6.9-5.1,8.6-9.4c1.4,1.4,0.5,2.3,0,3.1
		c-3.5,6.5-7.1,13-12.9,17.9c-0.1,0.1,0.1,0.5,0.1,0.8L520,620.7z"/>
	<path fill="#F3F4F7" d="M453.8,309.5c-0.4,2.7-0.6,5.2-2.5,7.1c-2.6,2.6-6,3-9,1.3c-3.5-2-5.2-5.1-4.2-8.6c0.8-3,1.4-6.1,4.6-7.9
		c2.6-1.5,4.5-1.6,6.8,0.4C451.8,303.9,453.5,306.5,453.8,309.5z M445.9,306.2c-1.1,1.5-2.1,2.9,0,4.5c0.6,0.5,1.3,0.3,1.7-0.3
		C449.1,308.4,447.9,307.2,445.9,306.2z"/>
	<path fill="#F3F4F7" d="M486.6,760.3c3.2,2.5,3,6,3.1,8.9c0.5,10.1,2.2,20.1,1.2,30.1c-1.7,0.4-2.3-0.3-2.6-1
		c-1.5-4.5-3.1-9-2.7-14c0.3-3.4-0.1-6.9-0.3-10.3C485,769.5,485.3,765.1,486.6,760.3z"/>
	<path fill="#F3F4F7" d="M538.9,641.6c5.9,7.9,11.5,15.9,16.7,24.2c1.1,1.7,2.6,2.9,4.1,4.3c1.4,1.3,2.5,2.6,1.5,4.6
		c-1.1,0.5-2-0.2-2.6-0.8c-9.4-8.4-15.4-19.1-20.1-30.6C538.2,642.7,538.4,642.1,538.9,641.6L538.9,641.6z"/>
	<path fill="#F3F4F7" d="M461.3,829.3c-4.4-5.2-4.4-17.5-0.2-31.3C463.7,808.4,462,818.8,461.3,829.3z"/>
	<path fill="#F3F4F7" d="M385.9,674.5c-0.5-3.6,0.8-6.2,2.2-8.3c4.9-7.4,6.9-16.3,11.9-23.6C400.1,655.2,394.2,665,385.9,674.5z"/>
	<path fill="#F3F4F7" d="M641.1,886.4c2.8-3,5.1-5.9,3.1-9.9c-1.7-0.5-3,0.9-4.5,1.2c-4,0.7-8,1.6-11.6-1.9
		c3.5-1.9,6.8-3.4,10.7-2.5c1.6,0.4,3.2,0.7,4.9,0.5c3.5-0.3,5.2,1.6,4.5,4.9c-0.5,2.2-1.4,4.4-2.1,6.5
		C645.3,887.6,643.8,887.9,641.1,886.4z"/>
	<path fill="#F3F4F7" d="M661.9,828.5c-0.7-2.5,0.2-4.6-0.9-6.5c-2.2,0.1-4,1-5.6,2.5c-1.6,1.6-3.3,2.1-5.7,1
		c-0.4-3.3-0.9-6.8-1.4-10.6c-3.9,0.2-4.8,4.5-7.9,5.5c0.9-4.1,2.6-6,5.8-6.8c2-0.5,3.1,0.3,3.9,2c1.1,2.3,0.7,4.8,1,7.7
		c3.5-2,6.7-3.9,10.6-3.7C664.1,822.3,664.6,825,661.9,828.5z"/>
	<path fill="#F3F4F7" d="M550.4,160.9c-5-0.7-9.2-2.1-13,0.5c-3.2,2.2-5.4,5.6-8.2,8c-1.7-0.7-1.8-1.9-1.4-2.7
		c1.5-3.5,3.9-6.5,6.9-8.9C539,154.3,543.9,155.2,550.4,160.9z"/>
	<path fill="#F3F4F7" d="M660.5,586.9c-9.4-8.8-18-18.2-21.4-31C646.7,565.8,652.1,577.4,660.5,586.9z"/>
	<path fill="#F3F4F7" d="M656.6,863.5c1.5,0.4,1.3,2.2,2.7,2.3c1.2-0.4,0.5-1.3,0.6-2.1c1.2,0.9-1.5,2.2,1.7,3.3
		c3.6-0.8,8.4-2.7,13.6-1.1c1.8,2.9,1.8,5.8-0.4,9.4c-0.5-2.8-0.9-5-1.4-7.5c-2.5,0.8-5,1.5-7.4,2.3
		C660.6,871.9,657.5,869.8,656.6,863.5z"/>
	<path fill="#F3F4F7" d="M482.9,755.3c-4.4-5-5.7-16.5-2.7-25.7C482.7,738.4,484.3,746.6,482.9,755.3z"/>
	<path fill="#F3F4F7" d="M379.6,639.1c-0.8-4.4-0.7-8.5,1.7-12.3c0.5-0.8,1.1-1.7,1.3-2.6c0.7-2.9,2.8-4,6.1-5
		C386.5,626.6,384.4,633.4,379.6,639.1z"/>
	<path fill="#F3F4F7" d="M560.7,640.2c-6.7-4.7-10.5-11.1-13.4-18.2c1.9-1,2.8-0.2,3.8,1.1c2.6,3.5,4.6,7.4,8.3,10.2
		C561.3,634.8,561.8,637.3,560.7,640.2z"/>
	<path fill="#F3F4F7" d="M544.3,756.1c0.1-1.4,1.1-1.1,1.7-0.6c4.3,3.4,8.8,6.7,11.8,11.6c2.4,3.8,6.3,6.6,9.1,11.7
		c-2.9-1.6-4.6-3-5.8-4.7c-2.3-3.3-5.3-5.8-8.1-8.5c-2.3-2.1-4.9-3.8-5.6-7.2c-0.3-1.2-1.6-2-2.9-2.4
		C544.3,755.9,544.3,756.1,544.3,756.1z"/>
	<path fill="#F3F4F7" d="M654.1,847.2c2.6-1.2,3.8-3.8,6.9-3.7c-0.2,2.8-2.1,4.1-3.9,5.3c-2.9,2-5,0.9-5.3-2.7
		c-0.2-2.2-0.5-4.2-1.5-6.2c-1.5-3-2.3-3.2-5.2-0.9c-0.4,0.3-0.7,0.6-1.1,1c0.3-3,1.6-4.2,4.7-4.6c2.7-0.4,3.5,1.5,4,3.4
		C653.3,841.4,653.6,844.2,654.1,847.2z"/>
	<path fill="#F3F4F7" d="M518.6,167.4c-0.4-3.1,0.1-5.5,1.4-7.5c2-3.2,4.3-6.2,6.7-9c1.5-1.8,3.7-2.6,6-1.6c0.3,1.1-0.1,1.9-0.8,2.3
		c-4.7,2.1-6.7,6.5-8.9,10.6C522.1,164.1,521.5,166.2,518.6,167.4z"/>
	<path fill="#F3F4F7" d="M752.7,575.2c-2.5,9.6-8.4,16.4-15.7,23.2C738.5,594.2,749.8,577.7,752.7,575.2z"/>
	<path fill="#F3F4F7" d="M528.6,834.5c6,14,6.9,17.3,5.3,19.6C530.2,848,527,842,528.6,834.5z"/>
	<path fill="#F3F4F7" d="M511.7,160c0.3-7.7,4.9-14.5,10.4-15.9C522,147.2,517,155.1,511.7,160z"/>
	<path fill="#F3F4F7" d="M658.2,898.7c-1.3,8.8-1.5,9.4-6.5,13.1c0.4-4.8,5.6-7.4,4.9-12.5c-4.6-1.3-9,0.9-13.5,1.5
		C647.4,896,652.6,897.3,658.2,898.7z"/>
	<path fill="#F3F4F7" d="M552.4,866.2c4.1,3.8,8.3,6.1,12.6,8.2c1.3,0.6,2.7,1,1.9,2.7c-0.7,1.5-2.1,1-3.4,0.5
		C558.5,875.7,553.6,871.1,552.4,866.2z"/>
	<path fill="#F3F4F7" d="M612.5,883.9c-5.8,1.8-11.3,2-17-1.1c2.8-1.7,6.7-2.1,12.9-1.6C610.2,881.4,611.5,882,612.5,883.9z"/>
	<path fill="#F3F4F7" d="M655,548.9c3.2,8.4,8,15.9,12.2,23.8C660.8,565.9,657,557.8,655,548.9z"/>
	<path fill="#F3F4F7" d="M542.6,780.5c2.1,4.5,6.2,7.4,8.9,11.3c1.1,1.6,2.5,3.2,0.2,5C546.4,792.6,545,786.3,542.6,780.5z"/>
	<path fill="#F3F4F7" d="M520.5,945.8c3.9,2.7,7.6,3,11.3,3.4c2.1,0.3,3.8,1.1,3.1,3.8C529.1,953.7,523,951,520.5,945.8z"/>
	<path fill="#F3F4F7" d="M694.4,781c1.2-5.1,4.7-6.5,8.7-7.4c4.5,5,4.5,5,2.1,7.5c-1.6-1.1-0.5-3.2-1.8-4.7
		C699.4,775.3,698.2,780.6,694.4,781z"/>
	<path fill="#F3F4F7" d="M511.1,923c-4.1-3.5-6.1-8.3-7.7-13.3C507.3,913.4,511.2,917,511.1,923z"/>
	<path fill="#F3F4F7" d="M268.6,343.2c-6.4-0.1-11.2-2.4-16.7-4.2C256.3,337,263.5,338.7,268.6,343.2z"/>
	<path fill="#F3F4F7" d="M420.6,796.5c0-6.2,3.4-9.9,6.1-14.4C427.8,787.3,426.7,789.8,420.6,796.5z"/>
	<path fill="#F3F4F7" d="M614.5,906.2c5.3-2.2,9.9-2.6,14.8-0.9C626.4,908,621.6,908.4,614.5,906.2z"/>
	<path fill="#F3F4F7" d="M549.4,950.6c4.3-0.1,8.5,0,12.4,2c0,1.3-1.1,2.2-1.7,2.1C556.1,954.5,552.5,953.3,549.4,950.6z"/>
	<path fill="#F3F4F7" d="M559.1,899c-4.6,2.2-10.1,0.8-12.9-3.2C550.8,895.5,554.9,896.9,559.1,899z"/>
	<path fill="#F3F4F7" d="M738.1,564.2c-0.3-5.4,1.5-16.8,3-19.8C742.8,550,742.4,552.8,738.1,564.2z"/>
	<path fill="#F3F4F7" d="M706.6,565.1c-0.7-7.9,0.3-15.3-1.3-22.7C708.4,544.7,709.1,556.5,706.6,565.1z"/>
	<path fill="#F3F4F7" d="M200.9,349c-9.1-4.1-9.8-4.8-10.2-10.6C194.7,342.1,198.4,344.9,200.9,349z"/>
	<path fill="#F3F4F7" d="M606.1,942.9c6.1-0.6,11.1-1,16.3-0.2C619.9,945.4,612.6,945.6,606.1,942.9z"/>
	<path fill="#F3F4F7" d="M491.5,880.9c3.4,4,5.7,11,5.4,15.6C493.9,891.2,492.2,886.2,491.5,880.9z"/>
	<path fill="#F3F4F7" d="M577.9,919.3c-5.6,3.4-10.2,0.8-15.6-0.6C567.7,917.2,571.6,917.4,577.9,919.3z"/>
	<path fill="#F3F4F7" d="M451.8,863.2c3.5,5.1,3,10.1,3.4,14.8C452.5,873.7,450.7,869.3,451.8,863.2z"/>
	<path fill="#F3F4F7" d="M575.7,935.6c6.5-1.4,10.9-1.2,14.2,0.3C586.5,938.1,581.7,938.1,575.7,935.6z"/>
	<path fill="#F3F4F7" d="M610.8,919.4c-4.9,2.5-9.6,1.2-14.6-0.2C600.4,917.4,607,917.5,610.8,919.4z"/>
	<path fill="#F3F4F7" d="M612.1,861.1c8.5-3.1,8.5-3.1,12.1-2.5C620.4,862,616.3,861.6,612.1,861.1z"/>
	<path fill="#F3F4F7" d="M451,426.6c-2.5,0.1-2.3,2.8-4.2,3.5c-0.6-1.5-0.8-3.3-2.4-4.3c0.8-1.9,2.7-2.3,4.4-3
		C449.5,424,450.2,425.2,451,426.6z"/>
	<path fill="#F3F4F7" d="M579,897.8c4.1-0.8,8.2-1.2,12.6,0.5C587,900.6,586.9,900.6,579,897.8z"/>
	<path fill="#F3F4F7" d="M689.4,651.9c2.6,4.5,2.7,6.7,0.5,9.8C687.6,656.5,687.6,655.4,689.4,651.9z"/>
	<path fill="#F3F4F7" d="M684.7,750.8c2.8,5,0.8,8.9-0.1,12.8C682.8,759.6,683.9,755.7,684.7,750.8z"/>
	<path fill="#F3F4F7" d="M468.9,411.1c-1.7-4.4-0.7-6.5,3.9-8.4C472.6,405.9,471.9,408.7,468.9,411.1z"/>
	<path fill="#F3F4F7" d="M450.7,451.4c2.3-0.2,2.8,1.7,4.7,2.1c-2.1,1.7-3.5,3.9-6.1,4.5C447.5,454.9,450.4,453.5,450.7,451.4z"/>
	<path fill="#F3F4F7" d="M693.9,554.1c3.1,3.7,3.6,9.9,1.3,13.2C693.5,563,694.9,558.8,693.9,554.1z"/>
	<path fill="#F3F4F7" d="M223.9,281.2c4-2,7.5-2.8,11.5-2.2C232.5,281.3,227,282.5,223.9,281.2z"/>
	<path fill="#F3F4F7" d="M660,920.1c-3,2.6-5.9,3.4-9.3,2.8C653.6,922.2,655.7,918.8,660,920.1z"/>
	<path fill="#F3F4F7" d="M692.5,844.7c2.3,4.5,0.4,7.9,0,11.4C690.9,853.1,690.9,850.7,692.5,844.7z"/>
	<path fill="#F3F4F7" d="M228.4,276.1c-3,1.8-6,2.9-9.9,2.6C221.4,274.9,225.1,276,228.4,276.1z"/>
	<path fill="#F3F4F7" d="M708.7,788.4c0.8,4.7-1,7.6-2.9,10.4C705.7,795.4,705.8,792,708.7,788.4z"/>
	<path fill="#F3F4F7" d="M510.8,449c0.6,0.9,0.9,1.4,1.3,1.8c0.3,0.3,0.7,0.5,1.3,0.9c-2.5,0.9-4.7,1.7-7.3,2.6
		C507.3,451.9,509.6,451.2,510.8,449z"/>
	<path fill="#F3F4F7" d="M678.7,808.8c-0.4,2.7,0.3,5.7-2.4,7.9C675.2,813.1,675.3,812.5,678.7,808.8z"/>
	<path fill="#F3F4F7" d="M691.5,720.2c0.3,3.4,0.6,6,0.9,9.3C688.7,724.3,688.5,723,691.5,720.2z"/>
	<path fill="#F3F4F7" d="M526.5,931.2c-2.1-1.4-5.4-1.6-5.6-5.6C523.9,926.7,526,928.2,526.5,931.2z"/>
	<path fill="#F3F4F7" d="M668.4,745.1c-0.2-4.3,0.9-6.8,3.8-8.8C672.5,739.9,670.8,742,668.4,745.1z"/>
	<path fill="#F3F4F7" d="M509.1,426.2c-3.8-1.2-0.8-4-1.9-5.8C510.5,421.2,510.8,422.1,509.1,426.2z"/>
	<path fill="#F3F4F7" d="M676.2,789.2c-0.5,3.1-2.7,5.2-4.2,7.7C671.3,793.2,672.6,790.9,676.2,789.2z"/>
	<path fill="#F3F4F7" d="M590.3,957.5c2.8-1,5.4,0.3,8.7-0.1C596,959.4,596,959.4,590.3,957.5z"/>
	<path fill="#F3F4F7" d="M700.8,826.5c0.6,3.5-0.9,5.7-2.8,7.8C697.5,831.4,697.4,828.6,700.8,826.5z"/>
	<path fill="#F3F4F7" d="M205.6,310.4c0.5,2.2,3.2,2.4,4.1,4.9c-3.9-0.9-6.1-4.1-9-5.7c0.4-1.5,1.6-0.3,2-1.1l-0.1-0.1
		c0.3,1.2,0.7,2.1,2.1,1l-0.1-0.1C204,310.7,204.8,310.6,205.6,310.4L205.6,310.4z"/>
	<path fill="#F3F4F7" d="M474.2,720.7c1.3,0.5,2.8,0.9,3,2.5c-2.5-1.3-3.7,1.4-5.7,2.1c-0.7-1.4,2.6-2.1,0.7-3.7l-0.1,0
		c1.5,1.2,1.9,0.3,2.1-1L474.2,720.7z"/>
	<path fill="#F3F4F7" d="M652.2,603.4c-1.7-2.1-3.3-4.3-5-6.4c-0.8-1-1.6-2-1.4-3.4l-0.2-0.1c1.9,2.2,3.8,4.3,5.7,6.6
		C652.1,601,653.2,602.1,652.2,603.4L652.2,603.4z"/>
	<path fill="#F3F4F7" d="M314,286.5c-0.1,3.6-1.5,6.2-3.6,8.8C310.9,290.7,311.2,289.9,314,286.5z"/>
	<path fill="#F3F4F7" d="M678.2,894.9c0.4,3.1-0.9,5.3-4.1,6C675.4,898.9,676.8,896.9,678.2,894.9z"/>
	<path fill="#F3F4F7" d="M706.1,737.6c0.8,3.6-1.5,3.8-3.5,4.7C703,739.9,703,739.9,706.1,737.6z"/>
	<path fill="#F3F4F7" d="M571.4,865.2c-0.8,1.5-1.4,2.6-2.8,3c-1.5-0.9-1.8-2.1-1.3-3.7C568.6,863.9,569.7,864.9,571.4,865.2z"/>
	<path fill="#F3F4F7" d="M660.5,772c0.6-2.1,1.4-3.9,3.9-4.5C664,771,663.7,771.3,660.5,772z"/>
	<path fill="#F3F4F7" d="M720.4,594.6c-1.8,3.5-3.4,5.7-6.2,7.8C714.8,598.6,716.7,596.6,720.4,594.6z"/>
	<path fill="#F3F4F7" d="M472.3,721.7c-1.2-1-1.8-2.9-4.1-2c0.6-2,2.3-1.8,3.4-2.6c0.8,1-0.8,1.4-0.4,2.4c0.7,0.7,2.8-1,3,1.2
		c0,0,0-0.1,0-0.1C473.1,720.1,472.3,720.1,472.3,721.7L472.3,721.7z"/>
	<path fill="#F3F4F7" d="M202.7,308.5c0.8-1.7-1.8-1.5-1.5-2.9c2.7,0.8,3.2,1.1,6.8,4.1c0.7,0.1-0.4,1-0.1,0.3c0,0-0.3-0.2-0.4-0.2
		c-0.8-0.3-1.5-0.6-1.8,0.6c0,0,0.1,0,0.1,0c0-0.4,0.6-0.6,0.1-1.1c-0.5-0.4-0.8,0-1.2,0c0,0,0.1,0.1,0.1,0.1c-0.4-1.4-1-1.7-2.1-1
		L202.7,308.5z"/>
	<path fill="#F3F4F7" d="M602,910c-0.8-0.3-1.7-0.4-1.6,0.9c0.2,1.3-1.1,0.9-1.6,1.7c-0.4-1.5-0.8-2.8-1.1-4.2
		c1.6,0.1,2.8,1,4.1,1.7L602,910z"/>
	<path fill="#F3F4F7" d="M183.8,279.3c-1.4,0.7-2.5,0.7-3.7-0.1c-0.4-1.8-0.8-3.9,1.9-3.9C184.3,275.3,184.2,277.3,183.8,279.3z"/>
	<path fill="#F3F4F7" d="M200.8,300.8c0.8-1,1.8-0.7,2.7-0.3c2.4,1.1,4.7,2.2,7.5,3.6C207.3,304.1,207.3,304.1,200.8,300.8
		L200.8,300.8z"/>
	<path fill="#F3F4F7" d="M705.2,713.8c0-2.6,0-4.6,0-6.6C708.2,708.9,708.3,710.2,705.2,713.8z"/>
	<path fill="#F3F4F7" d="M683.8,848.5c0.6-2.8,2.6-3.9,5.7-4.5C688,846.5,685.8,847.4,683.8,848.5z"/>
	<path fill="#F3F4F7" d="M632.1,928.1c-2.5,0.6-5,1.3-8.3-0.1C627.1,926.4,629.6,926.7,632.1,928.1z"/>
	<path fill="#F3F4F7" d="M405.3,418.1c-1.9-1.7-1.7-3.6-0.5-5.6C407.8,414,407.8,414.3,405.3,418.1z"/>
	<path fill="#F3F4F7" d="M612.2,537.8c2.2,2.1,3.1,4.8,3.6,7.6C613.7,543.2,613,540.4,612.2,537.8z"/>
	<path fill="#F3F4F7" d="M648.4,798.5c0.2-2.4,0.7-4.7,3.3-6.3C651.2,794.9,650.5,797.1,648.4,798.5z"/>
	<path fill="#F3F4F7" d="M711.1,583.4c-0.2-2.8,0-4.7,2.7-5.9C713.2,579.6,713.7,581.8,711.1,583.4z"/>
	<path fill="#F3F4F7" d="M208.8,322.1c-2.5-0.8-4.8-1.8-6.6-4.9C205.4,318.5,207.2,320.1,208.8,322.1z"/>
	<path fill="#F3F4F7" d="M427.4,411.1c-1-1.9,0.2-3.4,0.7-5.2C430.1,408.7,430.1,408.7,427.4,411.1z"/>
	<path fill="#F3F4F7" d="M667.1,893.2c1.3-2.7,2.1-4.6,3.9-6.1C671.3,891.2,671.3,891.2,667.1,893.2z"/>
	<path fill="#F3F4F7" d="M471,705.3c-2.2-3.3-0.9-5.2,0.9-7.5C472.7,700.4,472.2,702.4,471,705.3z"/>
	<path fill="#F3F4F7" d="M508,464.5c-1.3-0.3-2.4,0.8-3.6,0.1c-0.6-1.2,0.1-2,1.1-2C506.5,462.6,508.2,462.4,508,464.5z"/>
	<path fill="#F3F4F7" d="M679.8,682.2c-1.7-1.3-1.2-2.9-1.1-4.5C680.4,679.1,680.4,679.1,679.8,682.2z"/>
	<path fill="#F3F4F7" d="M621.7,842.6c0.6-2.6,1.3-4,3.3-5.4C625.2,840,623.7,840.9,621.7,842.6z"/>
	<path fill="#F3F4F7" d="M433.9,466.8c-1.8-2.4,0.2-3.2,1.3-5C435.8,464.1,435.9,465.6,433.9,466.8z"/>
	<path fill="#F3F4F7" d="M468.9,646.8c0.9-0.1,1.9-1.5,3.3-0.1C471.1,647.6,470.4,649.1,468.9,646.8z"/>
	<path fill="#F3F4F7" d="M300.3,295.1c0.9-2.3,1.8-4.6,2.7-6.9c0.4,2.8-0.7,5-1.7,7.2C301,295.3,300.6,295.2,300.3,295.1z"/>
	<path fill="#F3F4F7" d="M622.3,432.5c-1.7-0.3-2.8-0.4-3.5-1.8C620.2,430.5,621.7,429.8,622.3,432.5z"/>
	<path fill="#F3F4F7" d="M624.9,415.7c-1.4-1.3-1.5-2.3-0.8-3.4C625.4,412.9,625.5,413.9,624.9,415.7z"/>
	<path fill="#F3F4F7" d="M411.8,411.4c0.9-1.6,1.6-2.8,1.4-4.3C415.5,410.1,415.4,410.8,411.8,411.4z"/>
	<path fill="#F3F4F7" d="M478.9,467.3c1.5,2.3-1.3,2.9-1.6,4.5C476.4,469.8,478.6,468.8,478.9,467.3z"/>
	<path fill="#F3F4F7" d="M555.2,816.9c-1.6-0.7-0.2-2.2-1.2-2.9C554.3,815,556.2,815.2,555.2,816.9z"/>
	<path fill="#F3F4F7" d="M418.3,404.8c1.4,1.4,1.8,2.9,1.1,4.9C416.8,408.4,418.1,406.4,418.3,404.8z"/>
	<path fill="#F3F4F7" d="M520.2,854.9c-0.9-1.1-1-2,0.4-2.6c0.2-0.1,0.7,0,0.8,0.2C522.3,853.9,521.2,854.4,520.2,854.9z"/>
	<path fill="#F3F4F7" d="M702.3,681.6c-1.6-1-1.7-1.9-1-3.3C702.3,679.1,703.2,679.7,702.3,681.6z"/>
	<path fill="#F3F4F7" d="M255.3,301.4c-1.2-2,0.8-2.9,1.2-4.4C257.3,298.9,255.9,300,255.3,301.4z"/>
	<path fill="#F3F4F7" d="M712.3,758.3c-0.8-1.9-0.1-3,0.3-4.4C714.6,755.6,714.6,756.9,712.3,758.3z"/>
	<path fill="#F3F4F7" d="M616.3,548c1.9,0.8,2.4,1.9,2.3,4C617.6,550.6,616.3,549.9,616.3,548z"/>
	<path fill="#F3F4F7" d="M503.2,704.2c0.8-0.2,1.6-0.5,2.4,0c-0.3,0.7-0.7,1.1-1.5,0.9C503.8,705,503.1,705,503.2,704.2z"/>
	<path fill="#F3F4F7" d="M534.1,888.1c-0.4-0.5-1.1-0.9-0.6-1.6c0.3-0.4,1-0.5,1.3,0C535.1,887.2,534.9,887.8,534.1,888.1z"/>
	<path fill="#F3F4F7" d="M290.3,281.8c0.3,0.8,0.6,1.2,0.6,1.6c0,1.8,0,3.5-0.6,5.3C290.3,286.6,290.3,284.4,290.3,281.8z"/>
	<path fill="#F3F4F7" d="M573.3,450.7c-1.3,0.2-2.3,0.3-2.5-1c-0.1-0.5,0.2-1.1,0.7-1.1C572.4,448.7,573.2,449.2,573.3,450.7z"/>
	<path fill="#F3F4F7" d="M595.5,425c-0.3,0.7-0.8,1-1.5,0.9c-0.7-0.1-1-0.7-0.8-1.4c0.1-0.5,0.5-0.8,1-0.7
		C594.9,424,595.4,424.4,595.5,425z"/>
	<path fill="#F3F4F7" d="M440.2,462.8c1.2-2.8,2.9-1.4,4.3-1.2C443.3,462,442,462.3,440.2,462.8z"/>
	<path fill="#F3F4F7" d="M202,317.4c-1.6-0.7-2.3-1.5-3.4-3.3C200.4,315.1,201.3,315.7,202,317.4z"/>
	<path fill="#F3F4F7" d="M470.8,787.8c-0.6-0.6-1.7-1.2-0.9-2.3c0.4-0.5,1.3-0.7,1.7-0.2C472.8,786.5,471.7,787.1,470.8,787.8z"/>
	<path fill="#F3F4F7" d="M491.4,435.9c1.1,1.1,1.8,2,0.8,4C491.2,438.5,490.9,437.5,491.4,435.9z"/>
	<path fill="#F3F4F7" d="M692.2,771.7c-0.1,0.4-0.1,1-0.7,1c-0.8-0.1-1-0.7-0.9-1.4c0-0.3,0.3-0.7,0.5-0.7
		C691.8,770.5,692.1,771,692.2,771.7z"/>
	<path fill="#F3F4F7" d="M529,772.6c0.6,0.1,0.7,0.6,0.7,1c-0.1,0.7-0.3,1.4-1.1,1.1c-0.3-0.1-0.5-0.8-0.5-1.2
		C528,773,528.4,772.7,529,772.6z"/>
	<path fill="#F3F4F7" d="M598.5,870c-1.5-0.1-2.6-0.6-2.3-2.2c0-0.2,0.9-0.6,1.2-0.5C599.1,867.7,597.6,869.2,598.5,870z"/>
	<path fill="#F3F4F7" d="M612.7,889.6c1.6,1.7-0.5,2.9-0.3,3.4C612.2,892.5,611.1,891.1,612.7,889.6z"/>
	<path fill="#F3F4F7" d="M601.9,910.1c1.7-0.2,3-0.1,1.8,2.1c-1.9,0.3-1-1.6-1.7-2.2C602,910,601.9,910.1,601.9,910.1z"/>
	<path fill="#F3F4F7" d="M499.4,768.2c-0.8-0.4-1.5-0.8-2.4-1.3C499.1,766.5,499.1,766.5,499.4,768.2z"/>
	<path fill="#F3F4F7" d="M559.9,895.4c-0.6-0.6-1.1-1.2-0.4-2c0.3-0.4,1.1-0.3,1.3,0.1C561.1,894.3,560.9,895,559.9,895.4z"/>
	<path fill="#F3F4F7" d="M514.6,823.6c1.6-0.8,2.3-1,2.6,0.2c0.1,0.2-0.2,0.7-0.4,0.8C515.5,825,516,823.4,514.6,823.6z"/>
	<path fill="#F3F4F7" d="M266.3,313.6c-1.4-0.9-1.5-1.7-0.8-2.8C266.3,311.3,267,311.9,266.3,313.6z"/>
	<path fill="#F3F4F7" d="M696.3,583.7c-0.2,0.6-0.1,1.3-0.9,1.5c-1,0.3-1.4-0.3-1.8-1.1c-0.3-0.9,0.3-1.1,0.9-1.3
		C695.4,582.5,696,582.8,696.3,583.7z"/>
	<path fill="#F3F4F7" d="M446.4,760c-0.5-0.2-0.8-0.6-0.7-1.1c0-0.2,0.5-0.4,0.7-0.4c0.5,0.1,0.8,0.5,0.7,1
		C447.1,759.8,446.7,759.9,446.4,760z"/>
	<path fill="#F3F4F7" d="M483.8,444.7c0.5-0.5,1.1-0.8,1.9-0.9C485.6,445.4,484.8,445.3,483.8,444.7z"/>
	<path fill="#F3F4F7" d="M445.5,452.6c0.5-0.2,0.8-0.1,0.8,0.3c0,0.5-0.1,1-0.7,1c-0.3,0-0.6-0.2-0.8-0.3
		C445.1,453.2,445.4,452.8,445.5,452.6z"/>
	<path fill="#F3F4F7" d="M620.6,425.5c0.5,0,0.9,0.3,1,0.8c0,0.2-0.1,0.6-0.3,0.7c-0.5,0.2-0.9,0-1.1-0.4
		C620,426.1,620.1,425.7,620.6,425.5z"/>
	<path fill="#F3F4F7" d="M503.6,769.3c-0.2,0.5-0.6,0.9-1.1,0.7c-0.3-0.2-0.4-0.8-0.5-1.2c0-0.1,0.5-0.4,0.8-0.3
		C503.2,768.5,503.8,768.5,503.6,769.3z"/>
	<path fill="#F3F4F7" d="M498,153.4c-0.2-0.2-0.5-0.4-0.5-0.6c0-0.6,0.4-0.8,0.9-0.7c0.2,0,0.5,0.4,0.5,0.6
		C498.8,153,498.6,153.5,498,153.4z"/>
	<path fill="#F3F4F7" d="M539.1,885.7c-0.3,0.9,0.8,1.2,0.7,2C537.7,887.6,539.4,886.4,539.1,885.7L539.1,885.7z"/>
	<path fill="#F3F4F7" d="M462.8,462.8c0.3-0.5-0.9-1.2-0.1-1.5c0.8-0.3,0.4,0.3,0.2,0.7C462.8,462.2,462.8,462.5,462.8,462.8
		L462.8,462.8z"/>
	<path fill="#F3F4F7" d="M462.8,462.8c-0.5-0.1-0.9-0.2-1.5-0.3C462.1,461.6,462.4,462.4,462.8,462.8
		C462.8,462.8,462.8,462.8,462.8,462.8z"/>
	<path fill="#F3F4F7" d="M636.5,549.7c-0.1,0.1-0.2,0.2-0.3,0.3c-0.1-0.1-0.2-0.2-0.2-0.3c0-0.1,0.2-0.2,0.3-0.3
		C636.4,549.5,636.5,549.6,636.5,549.7z"/>
	<path fill="#F3F4F7" d="M709.1,777.4c0,0-0.1-0.1-0.1-0.1L709.1,777.4z"/>
	<path fill="#F3F4F7" d="M200.9,300.8c0.2-0.3,0.3-0.7,0.5-0.8c0.3-0.1,0.5,0.2,0.3,0.4C201.5,300.6,201.2,300.7,200.9,300.8
		C200.8,300.8,200.9,300.8,200.9,300.8z"/>
	<path fill="#F3F4F7" d="M520,620.8l-0.2-0.1c0,0,0.1-0.1,0.1-0.1C520,620.7,520,620.8,520,620.8z"/>
	<path fill="#F3F4F7" d="M446.2,661.5c0.1,0.4,0.3,0.6,0.7,0.4c-0.1,0.1-0.1,0.3-0.2,0.4C446.5,662,446.3,661.8,446.2,661.5
		C446.1,661.5,446.2,661.5,446.2,661.5z"/>
	<path fill="#F3F4F7" d="M656.1,604.2c-0.1,0.1-0.2,0.4-0.2,0.4c0.4,0.4,0.4,0.5-0.2,0.4C655.9,604.7,656,604.5,656.1,604.2
		L656.1,604.2z"/>
	<path fill="#F3F4F7" d="M538.9,641.5c-0.1,0.3-0.2,0.6-0.3,0.9c-0.2-0.1-0.3-0.2-0.5-0.3C538.4,642,538.7,641.8,538.9,641.5
		C538.9,641.6,538.9,641.5,538.9,641.5z"/>
	<path fill="#F3F4F7" d="M709,777.3l0.2-0.1c0,0-0.1,0.2-0.1,0.2C709.1,777.4,709,777.3,709,777.3z"/>
	<path fill="#F3F4F7" d="M656.1,604.2c-0.3,0.1-0.6,0.2-0.9,0.2c0,0,0,0,0-0.1C655.5,604.3,655.8,604.3,656.1,604.2
		C656.1,604.2,656.1,604.2,656.1,604.2z"/>
	<path fill="#F3F4F7" d="M652.2,603.5c0.3-0.3,0.6-0.5,0.9-0.8C653.4,603.8,652.4,603.1,652.2,603.5
		C652.2,603.4,652.2,603.5,652.2,603.5z"/>
	<path fill="#F3F4F7" d="M645.8,593.6l-0.2,0.2c0,0,0.1-0.3,0.1-0.3C645.7,593.5,645.8,593.6,645.8,593.6z"/>
	<path fill="#F3F4F7" d="M539.2,885.7c-0.2,0-0.3,0.1-0.5,0.1c0,0,0,0.1,0,0.1C538.8,885.8,539,885.8,539.2,885.7
		C539.1,885.7,539.2,885.7,539.2,885.7z"/>
	<path fill="#080D25" d="M418.9,265.7c-20.3-2.6-21.6-2.5-30.6,0.9c-0.4-2.6-1-5.1,0.8-7.3c2.4-2.8,5-5.5,9.2-5.5
		C405.4,253.8,414.5,258.9,418.9,265.7z"/>
	<path fill="#080D25" d="M391.3,281.2c1.2-1.6,2.3-3,3.4-4.4c1.1-1.4,2.4-2.3,4.3-1.7c1.8,0.6,2.5,2.1,2.8,3.7
		c0.3,1.3,0.2,2.6,0.3,4c4.1,1.1,4.9-3.2,7.7-4.6c2.2,0.1,3.9,1.9,6.2,2.2C411.5,288.5,397.2,289,391.3,281.2z"/>
	<path fill="#080D25" d="M521.8,383.1c0.9-1.4,1.8-2.8,3.2-5C524.7,380.9,523.8,382.3,521.8,383.1z"/>
	<path fill="#080D25" d="M517.2,362.4c-0.3,1.8-1,2.3-2,2.5C515.7,364.3,516.2,363.6,517.2,362.4z"/>
	<path fill="#080D25" d="M505.8,352c-0.2,1.9-1.2,2.4-2.6,3.1C503.4,353.5,504.4,352.9,505.8,352z"/>
	<path fill="#080D25" d="M414.5,327.2c0.1,2-0.7,2-1.7,1.7C412.8,327.8,413.6,327.8,414.5,327.2z"/>
	<path fill="#080D25" d="M484.5,383.2c0.5,0,1-0.1,1.6-0.1C485.6,384.7,484.9,382.8,484.5,383.2
		C484.4,383.3,484.5,383.2,484.5,383.2z"/>
	<path fill="#080D25" d="M484.4,383.3c0.2,0.4,0.5,0.8,0.7,1.2c0.1,0.4-0.2,0.6-0.6,0.6C484.5,384.4,484.5,383.8,484.4,383.3
		C484.5,383.2,484.4,383.3,484.4,383.3z"/>
	<path fill="#080D25" d="M453.4,603c-1.8-5.1,0.5-8.8,6.1-10c2.3-0.5,4.7-0.6,6.8,0.3c2.9,1.2,5.7,2.3,8.9,2.6c2.3,0.2,2.8,2,1.7,4
		c-1.6,2.8-5.3,4.3-8.5,3.2c-1.1-0.3-2.1-0.9-3.1-1.5c-5.2-3.1-5.8-3-10.7,1C454.4,602.8,454,602.8,453.4,603z"/>
	<path fill="#080D25" d="M412.3,496.4c-0.8-0.8-1.6-1.5-1-2.8C412.3,494.3,412.9,495.2,412.3,496.4z"/>
	<path fill="#080D25" d="M463,515.8c-0.9-1.1-1-2.1-0.4-3.2C464.1,513.6,463,514.8,463,515.8z"/>
	<path fill="#080D25" d="M410.2,487.1c1.2,0.2,1.6,1,1.3,2.1c-0.1,0.2-1,0.6-1.2,0.4C409.6,488.9,409.4,488,410.2,487.1z"/>
	<path fill="#080D25" d="M416.2,512.1c0.3,0.2,0.5,0.3,0.7,0.5c0.3,0.3,0.2,0.6-0.2,0.7c-0.4,0.2-0.7,0.1-0.7-0.3
		C416,512.7,416.1,512.4,416.2,512.1z"/>
	<path fill="#080D25" d="M445.9,306.2c2,1,3.2,2.2,1.7,4.2c-0.4,0.5-1.1,0.8-1.7,0.3C443.8,309.1,444.8,307.7,445.9,306.2z"/>
	<path fill="#080D25" d="M202.6,308.4c1.1-0.7,1.7-0.4,2.1,1C203.3,310.5,202.9,309.6,202.6,308.4z"/>
	<path fill="#080D25" d="M204.6,309.4c0.4,0,0.7-0.5,1.2,0c0.5,0.5-0.1,0.7-0.1,1.1C204.8,310.6,204,310.7,204.6,309.4z"/>
	<path fill="#080D25" d="M472.2,721.7c0.1-1.6,0.9-1.6,2.1-1C474.1,722,473.7,722.9,472.2,721.7z"/>
</g>
</svg>
