<?xml version="1.0" encoding="utf-8"?>
<!-- Generator: Adobe Illustrator 18.1.1, SVG Export Plug-In . SVG Version: 6.00 Build 0)  -->
<svg version="1.1" id="Layer_1" xmlns="http://www.w3.org/2000/svg" xmlns:xlink="http://www.w3.org/1999/xlink" x="0px" y="0px"
	 width="1000px" height="1000px" viewBox="0 0 1000 1000" enable-background="new 0 0 1000 1000" xml:space="preserve">
<g>
	<path fill="#2E3055" d="M278.5,364.3c3.6-2.4,7.4-3,10.7-5.4c3.6-2.7,10.7-10.6,15.1,1.1c0.6,1.7,5.7,2.5,9.3,1.1
		c10.4-3.9,24.1,1.7,26.8,12.2c5.7,21.9,23.8,35.5,33.5,54.8c7.5-2.6,10-8.5,13.6-13.2c6.5-8.6,12.4-17.7,18.7-26.5
		c4.3-5.9,9.7-11.7,17.1-11.6c14.3,0.3,17.9-7.7,17.8-19.6c-13.1-9.5-12.8-9.5-6.9-25c2.9-7.7,0.8-16.1,1.1-24.1
		c0.6-15.8,5.1-29.2,18.1-40c26-21.7,63-5.5,70.5,24.6c2,7.9,2.1,16,2,24.2c-0.2,7-0.1,13.8,3.9,20.5c3.8,6.2,1.8,13.1-5.1,16.3
		c-5.7,2.6-5.2,6.4-3.8,10.7c1.6,4.9,1.5,11.4,9.2,11.3c13-0.2,21.4,6.7,28.2,16.9c6.5,9.8,13.6,19.3,20.5,28.9
		c1.9,2.7,3.7,5.7,8,6.5c9.7-13.8,19.5-27.7,29.3-41.6c2.5-3.5,3-7.5,4.1-11.3c3.9-12.7,19.7-19.7,29.9-12.1
		c11.8-22,21.1-3.9,32,2.4c-2,8.7-8.4,14.2-15.6,18.3c-12.7,7.1-21.1,16-25.1,30.9c-5.4,19.9-13.4,39.1-22.8,57.7
		c-10.3,20.3-24.6,24.7-43.8,12.6c-7.6-4.8-14.6-10.4-23.2-16.6c2.6,12.5,7.9,22.3,15.9,29.5c16.1,14.4,29.5,29.8,29.7,53.8
		c9-3.5,14.4-9.1,20.3-13.7c21.9-16.9,44.6-31.4,73.6-33.8c41.8-3.5,71.9,17.7,91.1,53.7c9.3,17.3,13.9,36.6,15.8,56.3
		c0.7,7.5,3.8,12.1,10.3,16c43.8,26.7,73.4,87.3,66.3,134.8c-2.5,1.6-4.4,0.3-6.4-1.2c-10.8-8.3-21.1-17.4-34.7-21.2
		c-4.2-1.2-3.1-5-2.9-8.4c1-13.1-2.6-33.6-8.6-45.9c4,16.3,8.4,32.6,5.8,49.5c-14,1-17-1.5-16.1-14.9c0.6-8.7-3.9-16-5.2-24.2
		c0.7,8.5,1.4,17,2.1,25.5c0.2,2.3,0.8,5-2.1,6.1c-2.9,1.2-4.9-0.4-7.1-2.4c-4.5-4-7.3-8.2-7.1-14.8c0.2-7.7-0.1-15.7-5.6-22.5
		c1.4,8.4,2.7,16.8,4.4,26.9c-12.8-3.6-10.3-16-16.8-24.1c-8,13.9-19.6,22.6-35.5,27.1c0.4-15,8.5-25.9,13.6-37.8
		c-8.3,7.4-13.2,17.2-15.3,27.3c-2.9,13.7-12,13.8-22.8,14.6c0.2-12.6,8.5-21.9,11.1-33.1c-4.9,9.2-11.1,17.7-13.8,27.9
		c-0.4,1.6-0.4,3.4-1,4.9c-0.9,2.3-40.6,20.6-43,19.9c-5-1.5-3.3-5.3-2.5-8.4c2.7-9.9,9.5-17.9,13.9-26.9
		c14.5-29.5,33.9-55.2,59.9-75.7c3.2-2.5,6.7-4.7,10.2-6.7c13.1-7.5,15.8-15.9,9.2-30c-15.2-32.9-57-37.8-81.6-10.4
		c-24.1,26.9-38.4,58.9-52.7,91.2c-18.8,42.6-46.5,77.7-89.2,98.5c-25.7,12.5-51.3,14.5-76.8-3.7c-18.1-12.9-30.4-29.5-41.1-48
		c-20.1-34.7-30.3-72.8-28.9-112.4c1.1-31.1,16.2-58.5,38.9-80.2c9.1-8.6,13.6-16.9,11.8-29.1c-2.4-17-4.5-34-20.5-46.2
		c-7.4,9.7-16,17.9-25.6,24.6c-9.3,6.5-18.6,14.5-31.5,9.5c-9.5-3.7-14.8-11.6-19.5-19.9c-10-17.6-16.3-36.9-21.4-56.2
		c-3.9-14.6-12.5-22.9-24.3-30.4C288.4,379.3,279.6,375,278.5,364.3z M494.6,448.6c2.6,2,3.7,6.3,9.3,5.6c-3.5-2.4-5.3-5.8-9.6-5.3
		c0.8-2.5,0.4-5.1-1.5-6.4c-6.6-4.8-2.2-9.4-0.1-14c2.8-5.9,7.5-6,13-3.9c-4.4-3.3-9.5-7.9-13.6-1.9
		C484.2,434.6,484.9,436.8,494.6,448.6z M456.1,423.6c4.6-0.6,8-1.2,11.8,4c10,14-5.8,18-10.4,28.2c14.3-9.4,22.2-19,10.3-33.5
		c-2.6,2.8-8-3.2-11.6,1.4c-3.5,3.2-9.3,5.8-5.5,11.8c2.6,4.1,6.4,3.3,9.5,0.1c-2.7,0.8-5.7,2.3-7.8-0.9
		C449,429.7,454.8,427.3,456.1,423.6z M528.9,420.8c6.9-2.4,9.4,0.5,11.5,6.3c7.2,19.7,17.8,36.8,37,47.4c16.5,9.1,24.4,7.4,34-8.8
		c11.8-20,20.3-41.3,26.7-63.5c2.8-9.5,7.4-16.3,17.1-19.5c5.9-1.9,11.4-4.8,14.4-12.4c-10.8,3.2-20.8,2.7-30.8,2.8
		c-4.9,0.1-11.4,1.2-13.1,7.3c-5.2,18.8-17.5,33.3-28.6,48.6c-9.3,12.8-12.6,13.1-23.7,1.5c-9.7-10.1-15.6-22.8-23.4-34.3
		c-8.1-11.9-16.7-14.7-29.5-8.9c-9.4,4.2-24.9-2.8-26.7-12.7c-1.4-7.7-4.4-10.8-12.7-10.5c-7.7,0.2-12.5,1.1-13.8,10.3
		c-1.4,10-17.7,17.4-26.7,13.2c-12.6-5.9-22-3.2-29.6,8.6c-5.1,8-10,16-15.3,23.9c-4.7,7.1-10.1,13.6-17.8,17.7c-3.9,2.1-7,2-9.5-2
		c-11.4-18.2-28.2-33.1-33-55.2c-1.1-5.2-4.6-8.2-10.3-7.8c-13.5,1.1-26.8,1.2-39.3-5.2c-0.2-0.1-0.8,0.5-2.1,1.3
		c8.6,4.8,15,12,24.4,14.9c6.9,2.2,11.7,7,13.4,14.1c2.9,11.9,7.2,23.2,11.9,34.4c5.8,13.9,11.6,27.7,20.6,40.1
		c5.4,7.5,11.8,9.3,20.3,6.2c11-4.1,20.3-10.5,28.1-19.3c10.8-12.1,16.6-26.7,21.5-41.6c10.3,2,11.7,3.9,11.1,13
		c-0.9,12.9,2.3,17.7,14.4,21.6c-16.5-10.9-18.1-18.7-6.7-36.5c2.4-3.8,5.8-7.9,10.9-8.5c10.8-1.4,20.7,0.2,27.3,11.8
		c6.5-13.2,17.5-14.1,27-11.3c10.8,3.2,14.9,14.5,17.2,24.6c2.3,10.3-6.8,14.9-15.3,20.7C524.7,447.6,528.7,440.3,528.9,420.8z
		 M441.5,469c-0.2,9.1,2.5,15.2,4.3,21.7c4.2,15.6,9.6,31.6-8.2,43.5c-3.9,2.6-6.6,7.2-9.7,10.8c30,34.5,59.1,38.6,93,12.3
		c13.1-10.1,14.1-14.5,1.9-23.8c-11.3-8.5-12.1-18.6-10.3-30.3c0.8-5.3,2.7-10.4,4.1-15.6c1.5-5.7,4.2-11.2,2.8-18.7
		c-14,5.4-24.7-5-38.2-5.3C467,463.3,456.2,474.2,441.5,469z M444.4,314.1c0.8,11.6,5.5,19,10.3,26.3c9,13.7,23.8,18.9,37,13.1
		c11.3-5,16.5-15.3,21.9-25.7c3.6-7,0.8-12-3-17.3c-3.9-5.4-9.4-6.2-15.3-5.1c-3.4,0.6-6.7,1.8-11.4,3.1c2.6-5.3,4.2-9.2,9-10.7
		c10.1-3.1,16.4,4.9,24.2,9.3c0.9-6.1,0.3-10.2-6.1-11.5c-12-2.4-23.9-5.2-30.3-19.3c-6.4,11.1-14,16.2-25.3,16.9
		c-3.7,0.2-14,1.2-10.9,11.1c3.4,0.7,4.4-2,6.4-3.1c14.2-7.9,25.6-3.8,27.2,12.6c0.6,7,2.1,13.4,8.8,19c-5.9,1.2-10,2.2-14,0.3
		c-1.9-3.2,1.7-7.2-2.7-10.2C461.1,325.1,453.2,321.3,444.4,314.1z M489.4,604.7c-9.7,25.7,21.8,116,42.7,127.5
		C505.1,694.6,495.9,651.5,489.4,604.7z M474.4,606.7c-4.6,41.1-15.7,80.1-38.5,116.4C453.7,714.3,479.3,637.2,474.4,606.7z
		 M544.7,481.8c0.9,7.2,2.4,14.4,6.7,19.8c14.2,17.8,27,35.9,25.9,60.1c0,0.1,0.6,0.2,0.9,0.2c5.4-9.9,1.2-33.3-7.5-42.7
		C560.2,508,548.9,497.3,544.7,481.8z M486.9,691.1c-0.7,35.8,9.9,69.2,22.5,73.4c0-0.6,0.3-1.4,0-1.8
		c-9.5-13.9-12.9-30.2-18.5-45.7c-0.8-2.1-1-5-0.2-6.9C493.9,702.7,490.3,697,486.9,691.1z M418.8,685c1.4,1.1,2.7,2.1,4.1,3.2
		c15.2-18.5,26-39.4,31.5-63.4C443.7,645.6,435.9,668,418.8,685z M458.8,760c12.2-16,21.3-59.4,15-73
		C475.3,713.2,464.5,734.8,458.8,760z M552.4,646.7c-22.3-11.5-21.6-37.4-34.1-54.9C520.9,616.8,536.5,641.9,552.4,646.7z
		 M542.1,502.5c2.3,9.3,7.8,18.4,13.8,26.2c6.4,8.4-0.6,21.1,10.2,27C566,534.1,551.5,519,542.1,502.5z M516.2,644.6
		c0.6,13.6,18.8,39.8,29,45.2C536.2,675.8,527,661.5,516.2,644.6z M428,630.8c9.8-6.1,20.6-31.8,16.9-39.9
		C439.3,604.2,433.8,617.1,428,630.8z M501.5,576.8c7.1,2.9,30.6-8.8,36.5-17.4C524.1,563.3,513.9,570.6,501.5,576.8z M457.4,579.2
		c0.3-1.2,0.7-2.4,1-3.7c-10.4-5.1-20.8-10.2-31.2-15.3c-0.4,0.9-0.9,1.9-1.3,2.8C436.8,567.5,444.2,579.3,457.4,579.2z
		 M444.3,312.5c7.8-1.2,13.8,6.3,21.4,3.9c3.1-1,7.5-0.8,7.3-5.3c-0.2-4-3.9-5.2-7.4-5.7C457.5,304.2,450.9,308.1,444.3,312.5z
		 M405.8,617.5c12.7-4.8,18.6-14.6,20.2-27.4C420.1,599.9,414.3,609.7,405.8,617.5z M536.2,589.9c5.6,16.4,7.4,18.7,18.9,22.5
		C545.6,605.6,542.3,596.7,536.2,589.9z M701.1,699.7c3.7-6.5,8.3-14.7,12.9-22.8C704.4,682.4,702.5,692,701.1,699.7z M604.5,597.9
		c4.5-6.7,2.4-12.6-2.3-18.2C602.5,585.7,604.7,591.6,604.5,597.9z M513.3,627.2c-2.2-5.5-4.4-11-6.7-16.6
		C506.6,617.1,505,624,513.3,627.2z M683.4,552.7c3.3-8,1.7-14.2-8.7-19.7C679.3,540.7,683.2,546,683.4,552.7z M576.3,603.8
		c4.7-10.4,3.6-14.5-4.8-18.8C575.1,591.4,577,597.2,576.3,603.8z M752.2,660.8c-9.4,2.8-14.1,10.3-18.5,18
		C740.8,673.7,745.1,666,752.2,660.8z M592.2,655.2c4.5-5.4,4.5-10.8-0.2-16C591.5,644.5,593.2,649.8,592.2,655.2z M573.7,621.4
		c1.1,5.5,2.3,11,4,19.3C581.2,631.5,579,626.2,573.7,621.4z M549,574.9c-0.9,7.4,2.1,11.1,9,11C555,582.2,552,578.6,549,574.9z
		 M647,581.3c2.4,5.6,4,11.5,6.3,17.1C654.9,591.2,654.7,584.7,647,581.3z M566.6,709.2c3.6-5.5,7.8-10.7,1.5-18.9
		C568.8,698,568.8,703.9,566.6,709.2z M709,541.1c3.1-10.7,2.7-11.6-5.5-14.3C707.6,531.4,708,536.3,709,541.1z M608.3,672.1
		c1.5-5.9,5.1-12.2-2.4-17.1C607.1,660.7,607.7,666.4,608.3,672.1z M589.3,673.6c0.8,6.9,1.2,11.3,1.7,15.7
		C594.1,684.4,596.6,679.7,589.3,673.6z M411.6,646.2c10,2.7,12.4-4.4,17.2-10.8C421.4,637.6,417,641.6,411.6,646.2z M405.4,586.1
		c6.9-0.8,10.7-4.1,8.8-11.4C411.3,578.5,408.4,582.3,405.4,586.1z M592.8,601.2c0,7.7,0,12.7,0,17.7
		C596.4,613.9,597.9,609,592.8,601.2z M628.8,570.8c1.3,4.1,2.6,8.2,4.1,13.1C635.4,578.2,632.6,574.4,628.8,570.8z M622.1,610
		c3.1-5.6,3.9-11.2-1.9-17.5C620.9,599.6,621.5,604.8,622.1,610z M654.6,552.8c1.2,4.1,2.4,8.2,3.8,13.1
		C661,559.9,659.5,555.8,654.6,552.8z M719.6,558.6c4.9-3.8,6.1-8-0.1-13.9C720.7,550.4,720.5,554.5,719.6,558.6z M670.5,557.5
		c3.3,3,0.8,8.6,6.3,13.9C675,564.6,674.7,560.3,670.5,557.5z M546.6,535.5c-0.7-5.6-3.1-10.3-8.5-14.6
		C541.3,526.5,544,531,546.6,535.5z M733.7,656.9c4.8-3.7,9.6-7.5,14.4-11.2C741.9,647.7,736.9,651.1,733.7,656.9z M758.2,551.4
		c0.1,4.1-2.5,7.1-3.7,10.6C758,559.3,760.6,556.3,758.2,551.4z M551.2,742.8c7.5-7.3,7.5-7.3,6.3-16.8
		C556.9,733.4,553.7,736.9,551.2,742.8z M640.3,611.9c0.8,5,1.1,9.9-0.8,14.7C644.3,621.9,643.4,617,640.3,611.9z M609.8,634.3
		c2.7-5.1,4.3-10.4,0-17.3C609.8,624.1,609.8,629.2,609.8,634.3z M542.4,756.9c-2.3,3.2-4.5,6.4-6.8,9.5
		C540.7,765.3,543.6,762.6,542.4,756.9z M626.8,644.6c3.6-3.2,4-6.4,0.9-11.1C627.3,638.1,627,641.4,626.8,644.6z M733.7,544.2
		c4.5-4.6,1.5-8.5,1.5-12.4C737.8,536,732.3,539.1,733.7,544.2z M801.1,653.7c-0.3,0.3-0.7,0.7-1,1c2.8,3.2,5.6,6.5,8.4,9.7
		c0.2-0.1,0.4-0.3,0.6-0.4C806.4,660.5,803.8,657.1,801.1,653.7z"/>
	<path fill="#2E3055" d="M267.3,294.8"/>
	<path fill="#2E3055" d="M796.3,496.6c6.8-13.8,5.4-15.9-9.9-17.6c-7.4-0.8-15.4,1.6-23.2-2.4c5.3-5.4,11.3-4.2,16.6-4.3
		c17.2-0.4,20.3-5.1,12.3-21.1c7.8-2.1,10.1,9.1,18.2,6.7c4.8-11.3,1.1-24.5,5.6-37.9c4.4,7.8,3.3,14.9,3.8,21.6
		c1.4,17.4,1.3,17.4,17.9,11c-9.3,26.5,14,16.2,24,23c-6.9,1.2-13.7,2.5-20.6,3.4c-4.2,0.6-8.3,1.1-9.7,5.7c-1.3,4.4,1.2,7.6,4,10.7
		c3.3,3.6,6.3,7.4,9.4,11.1c-21.6-12.6-22.5-12.3-23.9,12.1c-0.5,8.2-3.3,15.8-5.3,20.4c-0.7-7-2.1-17.2-2.7-27.4
		C811.8,496.4,812.1,496.4,796.3,496.6z"/>
	<path fill="#FDFDFD" d="M528.9,420.8c-0.2,19.5-4.2,26.8-18.8,32.2c8.5-5.8,17.6-10.4,15.3-20.7c-2.3-10.1-6.4-21.5-17.2-24.6
		c-9.5-2.8-20.5-1.9-27,11.3c-6.7-11.5-16.6-13.1-27.3-11.8c-5.1,0.6-8.5,4.8-10.9,8.5c-11.4,17.8-9.8,25.6,6.7,36.5
		c-12.1-4-15.3-8.7-14.4-21.6c0.6-9.2-0.8-11-11.1-13c-4.9,14.9-10.7,29.5-21.5,41.6c-7.8,8.8-17.1,15.2-28.1,19.3
		c-8.4,3.2-14.9,1.3-20.3-6.2c-8.9-12.4-14.7-26.2-20.6-40.1c-4.7-11.2-9-22.6-11.9-34.4c-1.7-7.1-6.5-11.9-13.4-14.1
		c-9.3-2.9-15.7-10.1-24.4-14.9c1.3-0.8,1.9-1.4,2.1-1.3c12.5,6.3,25.8,6.2,39.3,5.2c5.7-0.5,9.2,2.6,10.3,7.8
		c4.9,22.1,21.6,37.1,33,55.2c2.5,4,5.6,4.1,9.5,2c7.7-4.1,13.1-10.6,17.8-17.7c5.2-7.9,10.2-16,15.3-23.9
		c7.5-11.8,17-14.6,29.6-8.6c9,4.2,25.3-3.1,26.7-13.2c1.3-9.2,6.1-10,13.8-10.3c8.3-0.3,11.3,2.9,12.7,10.5
		c1.8,9.9,17.3,16.9,26.7,12.7c12.7-5.8,21.3-3,29.5,8.9c7.8,11.4,13.7,24.1,23.4,34.3c11.1,11.6,14.4,11.3,23.7-1.5
		c11.1-15.3,23.4-29.8,28.6-48.6c1.7-6,8.2-7.2,13.1-7.3c10-0.2,20,0.4,30.8-2.8c-3,7.6-8.5,10.5-14.4,12.4
		c-9.7,3.2-14.4,10-17.1,19.5c-6.4,22.1-14.9,43.5-26.7,63.5c-9.6,16.2-17.4,18-34,8.8c-19.2-10.6-29.8-27.7-37-47.4
		C538.3,421.3,535.8,418.4,528.9,420.8z"/>
	<path fill="#FDFDFD" d="M441.5,469c14.8,5.2,25.5-5.7,39.6-5.4c13.5,0.3,24.2,10.8,38.2,5.3c1.4,7.5-1.3,13-2.8,18.7
		c-1.4,5.2-3.3,10.3-4.1,15.6c-1.8,11.7-1,21.8,10.3,30.3c12.3,9.2,11.2,13.6-1.9,23.8c-33.9,26.3-63,22.2-93-12.3
		c3.2-3.6,5.8-8.2,9.7-10.8c17.8-11.9,12.4-27.9,8.2-43.5C444,484.3,441.3,478.1,441.5,469z M479,469c-1.7,20-2.9,37.6,1.6,55.1
		C484.3,506.4,485.6,488.8,479,469z M468.1,565.5c8.9-1.5,16.2-0.8,24.4-0.4C485,556.9,477,556.8,468.1,565.5z"/>
	<path fill="#FDFDFD" d="M444.4,314.1c8.8,7.2,16.7,11.1,25.7,8.9c4.3,3,0.7,6.9,2.7,10.2c4.1,1.9,8.2,0.9,14-0.3
		c-6.6-5.7-8.1-12.1-8.8-19c-1.5-16.4-13-20.5-27.2-12.6c-2,1.1-3,3.9-6.4,3.1c-3-9.9,7.2-10.9,10.9-11.1
		c11.3-0.7,18.9-5.8,25.3-16.9c6.4,14.1,18.3,16.9,30.3,19.3c6.4,1.3,7,5.4,6.1,11.5c-7.8-4.4-14-12.4-24.2-9.3
		c-4.8,1.5-6.3,5.4-9,10.7c4.7-1.3,8-2.5,11.4-3.1c6-1.1,11.5-0.3,15.3,5.1c3.8,5.3,6.6,10.4,3,17.3c-5.4,10.3-10.7,20.6-21.9,25.7
		c-13.2,5.9-27.9,0.6-37-13.1C449.9,333.1,445.3,325.6,444.4,314.1z M493.6,337.4c-9.1-0.8-17,2-25.8-0.9
		C474.1,349.1,486.2,349.2,493.6,337.4z M511.3,315.7c-10.2,1.3-17.9,0.4-26.1-1.8C490,324.8,500.1,326.1,511.3,315.7z"/>
	<path fill="#FDFDFD" d="M489.4,604.7c6.6,46.9,15.8,90,42.7,127.5C511.2,720.6,479.7,630.4,489.4,604.7z"/>
	<path fill="#FDFDFD" d="M474.4,606.7c4.9,30.6-20.7,107.6-38.5,116.4C458.7,686.8,469.8,647.8,474.4,606.7z"/>
	<path fill="#FDFDFD" d="M544.7,481.8c4.2,15.5,15.5,26.2,26,37.4c8.8,9.5,12.9,32.8,7.5,42.7c-0.3-0.1-0.9-0.2-0.9-0.2
		c1.1-24.2-11.7-42.3-25.9-60.1C547,496.2,545.5,489,544.7,481.8z"/>
	<path fill="#FDFDFD" d="M486.9,691.1c3.4,5.9,7,11.6,3.8,19c-0.8,1.9-0.6,4.8,0.2,6.9c5.6,15.4,9,31.8,18.5,45.7
		c0.3,0.4,0,1.2,0,1.8C496.8,760.3,486.2,726.9,486.9,691.1z"/>
	<path fill="#FDFDFD" d="M418.8,685c17.1-17,25-39.4,35.6-60.2c-5.5,24-16.3,44.9-31.5,63.4C421.5,687.2,420.1,686.1,418.8,685z"/>
	<path fill="#FDFDFD" d="M458.8,760c5.7-25.3,16.5-46.8,15-73C480.1,700.6,471,744,458.8,760z"/>
	<path fill="#FDFDFD" d="M552.4,646.7c-15.9-4.7-31.5-29.8-34.1-54.9C530.8,609.3,530.2,635.1,552.4,646.7z"/>
	<path fill="#FDFDFD" d="M542.1,502.5c9.5,16.5,23.9,31.6,24.1,53.2c-10.8-5.9-3.8-18.6-10.2-27
		C549.9,520.8,544.4,511.8,542.1,502.5z"/>
	<path fill="#FDFDFD" d="M516.2,644.6c10.8,16.8,20,31.1,29,45.2C534.9,684.4,516.8,658.2,516.2,644.6z"/>
	<path fill="#FDFDFD" d="M428,630.8c5.8-13.7,11.3-26.6,16.9-39.9C448.5,599,437.8,624.7,428,630.8z"/>
	<path fill="#FDFDFD" d="M456.2,423.8c3.6-4.6,9,1.4,11.6-1.4c12,14.6,4.1,24.1-10.3,33.5c4.6-10.2,20.4-14.3,10.4-28.2
		c-3.8-5.2-7.2-4.6-11.8-4L456.2,423.8z"/>
	<path fill="#FDFDFD" d="M501.5,576.8c12.4-6.2,22.5-13.5,36.5-17.4C532.1,568.1,508.7,579.7,501.5,576.8z"/>
	<path fill="#FDFDFD" d="M457.4,579.2c-13.1,0.2-20.5-11.7-31.5-16.2c0.4-0.9,0.9-1.9,1.3-2.8c10.4,5.1,20.8,10.2,31.2,15.3
		C458,576.7,457.7,578,457.4,579.2z"/>
	<path fill="#FDFDFD" d="M444.3,312.5c6.6-4.4,13.2-8.3,21.3-7.1c3.5,0.5,7.2,1.7,7.4,5.7c0.2,4.5-4.2,4.4-7.3,5.3
		C458,318.7,452.1,311.3,444.3,312.5z"/>
	<path fill="#FDFDFD" d="M405.8,617.5c8.5-7.8,14.3-17.6,20.2-27.4C424.4,602.9,418.5,612.6,405.8,617.5z"/>
	<path fill="#FDFDFD" d="M494.6,448.6c-9.7-11.8-10.4-14-2.3-26c4.1-6.1,9.2-1.4,13.6,1.9c-5.5-2.1-10.3-2-13,3.9
		c-2.2,4.6-6.6,9.2,0.1,14c1.9,1.3,2.4,4,1.5,6.4L494.6,448.6z"/>
	<path fill="#FDFDFD" d="M536.2,589.9c6,6.8,9.3,15.7,18.9,22.5C543.7,608.5,541.9,606.3,536.2,589.9z"/>
	<path fill="#FDFDFD" d="M701.1,699.7c1.4-7.7,3.3-17.3,12.9-22.8C709.4,685,704.8,693.2,701.1,699.7z"/>
	<path fill="#FDFDFD" d="M604.5,597.9c0.2-6.3-2-12.1-2.3-18.2C606.9,585.3,609,591.2,604.5,597.9z"/>
	<path fill="#FDFDFD" d="M513.3,627.2c-8.3-3.2-6.7-10.1-6.7-16.6C508.8,616.2,511.1,621.7,513.3,627.2z"/>
	<path fill="#FDFDFD" d="M683.4,552.7c-0.2-6.7-4.1-11.9-8.7-19.7C685.1,538.5,686.7,544.7,683.4,552.7z"/>
	<path fill="#FDFDFD" d="M576.3,603.8c0.8-6.5-1.2-12.4-4.8-18.8C579.9,589.2,580.9,593.4,576.3,603.8z"/>
	<path fill="#FDFDFD" d="M752.2,660.8c-7,5.1-11.4,12.9-18.5,18C738.1,671.1,742.8,663.6,752.2,660.8z"/>
	<path fill="#FDFDFD" d="M592.2,655.2c1-5.3-0.7-10.6-0.2-16C596.7,644.4,596.7,649.8,592.2,655.2z"/>
	<path fill="#FDFDFD" d="M573.7,621.4c5.3,4.8,7.5,10.1,4,19.3C576,632.4,574.9,626.9,573.7,621.4z"/>
	<path fill="#FDFDFD" d="M549,574.9c3,3.7,6,7.3,9,11C551.1,586.1,548.1,582.3,549,574.9z"/>
	<path fill="#FDFDFD" d="M647,581.3c7.7,3.5,7.9,9.9,6.3,17.1C650.9,592.8,649.3,586.8,647,581.3z"/>
	<path fill="#FDFDFD" d="M566.6,709.2c2.2-5.3,2.2-11.2,1.5-18.9C574.5,698.5,570.2,703.7,566.6,709.2z"/>
	<path fill="#FDFDFD" d="M709,541.1c-1-4.8-1.4-9.7-5.5-14.3C711.7,529.5,712.1,530.4,709,541.1z"/>
	<path fill="#FDFDFD" d="M608.3,672.1c-0.5-5.7-1.2-11.4-2.4-17.1C613.3,659.9,609.8,666.2,608.3,672.1z"/>
	<path fill="#FDFDFD" d="M589.3,673.6c7.3,6.1,4.8,10.8,1.7,15.7C590.6,684.9,590.1,680.5,589.3,673.6z"/>
	<path fill="#FDFDFD" d="M456.1,423.6c-1.3,3.7-7.1,6.1-3.6,11.2c2.2,3.2,5.1,1.7,7.8,0.9c-3.1,3.2-6.9,4.1-9.5-0.1
		c-3.8-6,1.9-8.6,5.5-11.8C456.2,423.8,456.1,423.6,456.1,423.6z"/>
	<path fill="#FDFDFD" d="M411.6,646.2c5.4-4.7,9.8-8.6,17.2-10.8C424,641.9,421.6,648.9,411.6,646.2z"/>
	<path fill="#FDFDFD" d="M405.4,586.1c2.9-3.8,5.9-7.6,8.8-11.4C416.1,582,412.4,585.3,405.4,586.1z"/>
	<path fill="#FDFDFD" d="M592.8,601.2c5.1,7.8,3.6,12.7,0,17.7C592.8,613.9,592.8,608.9,592.8,601.2z"/>
	<path fill="#FDFDFD" d="M628.8,570.8c3.8,3.5,6.6,7.4,4.1,13.1C631.4,579.1,630.1,574.9,628.8,570.8z"/>
	<path fill="#FDFDFD" d="M622.1,610c-0.6-5.2-1.1-10.5-1.9-17.5C625.9,598.9,625.2,604.4,622.1,610z"/>
	<path fill="#FDFDFD" d="M654.6,552.8c4.9,3,6.4,7.2,3.8,13.1C657,560.9,655.8,556.8,654.6,552.8z"/>
	<path fill="#FDFDFD" d="M719.6,558.6c0.8-4.2,1.1-8.3-0.1-13.9C725.7,550.6,724.5,554.8,719.6,558.6z"/>
	<path fill="#FDFDFD" d="M670.5,557.5c4.2,2.8,4.5,7.1,6.3,13.9C671.3,566,673.9,560.5,670.5,557.5z"/>
	<path fill="#FDFDFD" d="M546.6,535.5c-2.6-4.5-5.2-9-8.5-14.6C543.5,525.2,545.9,530,546.6,535.5z"/>
	<path fill="#FDFDFD" d="M733.7,656.9c3.2-5.8,8.2-9.2,14.4-11.2C743.3,649.4,738.5,653.2,733.7,656.9z"/>
	<path fill="#FDFDFD" d="M758.2,551.4c2.3,4.9-0.2,8-3.7,10.6C755.7,558.4,758.4,555.4,758.2,551.4z"/>
	<path fill="#FDFDFD" d="M551.2,742.8c2.6-5.9,5.8-9.5,6.3-16.8C558.6,735.5,558.6,735.5,551.2,742.8z"/>
	<path fill="#FDFDFD" d="M640.3,611.9c3.2,5.1,4,10-0.8,14.7C641.4,621.8,641,616.9,640.3,611.9z"/>
	<path fill="#FDFDFD" d="M609.8,634.3c0-5.1,0-10.3,0-17.3C614.1,623.9,612.5,629.2,609.8,634.3z"/>
	<path fill="#FDFDFD" d="M542.4,756.9c1.2,5.7-1.7,8.4-6.8,9.5C537.9,763.3,540.1,760.1,542.4,756.9z"/>
	<path fill="#FDFDFD" d="M626.8,644.6c0.3-3.3,0.5-6.5,0.9-11.1C630.7,638.2,630.4,641.5,626.8,644.6z"/>
	<path fill="#FDFDFD" d="M733.7,544.2c-1.5-5.1,4-8.2,1.5-12.4C735.2,535.7,738.2,539.7,733.7,544.2z"/>
	<path fill="#FDFDFD" d="M801.1,653.7c2.6,3.4,5.3,6.8,7.9,10.3c-0.2,0.1-0.4,0.3-0.6,0.4c-2.8-3.2-5.6-6.5-8.4-9.7
		C800.5,654.3,800.8,654,801.1,653.7z"/>
	<path fill="#FDFDFD" d="M494.4,448.8c4.2-0.4,6,3,9.6,5.3c-5.6,0.7-6.7-3.6-9.3-5.6C494.6,448.6,494.4,448.8,494.4,448.8z"/>
	<path fill="#2E3055" d="M479,469c6.6,19.7,5.3,37.4,1.6,55.1C476.1,506.7,477.3,489,479,469z"/>
	<path fill="#2E3055" d="M468.1,565.5c8.9-8.6,16.9-8.5,24.4-0.4C484.4,564.6,477,564,468.1,565.5z"/>
	<path fill="#2E3055" d="M493.6,337.4c-7.3,11.8-19.4,11.7-25.8-0.9C476.6,339.4,484.4,336.6,493.6,337.4z"/>
	<path fill="#2E3055" d="M511.3,315.7c-11.2,10.3-21.3,9.1-26.1-1.8C493.4,316.1,501.2,317,511.3,315.7z"/>
</g>
</svg>
