<?xml version="1.0" encoding="utf-8"?>
<!-- Generator: Adobe Illustrator 18.1.1, SVG Export Plug-In . SVG Version: 6.00 Build 0)  -->
<svg version="1.1" id="Layer_1" xmlns="http://www.w3.org/2000/svg" xmlns:xlink="http://www.w3.org/1999/xlink" x="0px" y="0px"
	 width="1207px" height="334px" viewBox="0 0 1207 334" enable-background="new 0 0 1207 334" xml:space="preserve">
<g>
	<path fill="#10843E" d="M25,207.14c8.183,0,15.647,0,23.437,0c0,5.289,0,10.393,0,15.948c-4.368,1.105-9.294-0.413-14.176,1.1
		c0,28.334,0,56.754,0,85.268c1.432,1.069,3.152,0.516,4.741,0.516c376.662,0.029,753.323,0.019,1129.985,0.13
		c4.875,0.001,6.12-1.394,6.113-6.173c-0.136-87.332-0.143-174.664,0.013-261.996c0.009-5.013-1.619-6.022-6.265-6.021
		C792.352,36.008,415.857,36,39.362,36c-1.633,0-3.265,0-5.338,0c0,48.114,0,95.849,0,143.79c-3.072,0-5.689,0-8.446,0
		c-1.163-1.328-0.547-3.073-0.548-4.657c-0.038-45.166-0.034-90.332-0.028-135.498c0.001-9.173,3.476-12.633,12.688-12.633
		c377.828-0.003,755.656-0.003,1133.485,0.001c9.508,0,12.823,3.377,12.823,13c0.003,88.665,0.003,177.33,0,265.995
		c0,9.621-3.324,12.999-12.809,13c-377.828,0.003-755.656,0.003-1133.485,0c-9.22,0-12.696-3.44-12.7-12.611
		C24.992,274.72,25,243.054,25,211.388C25,210.085,25,208.783,25,207.14z"/>
	<path fill="#10843E" d="M100.981,238.02c-6.789-6.784-13.932-13.183-19.084-21.516c-1.936-3.13-6.265-1.586-9.351-1.349
		c-5.936,0.455-8.347-2.621-9.854-8.017c10.517,0,20.735,0,31.278,0c4.452,17.346,16.016,28.834,32.128,35.62
		c24.904,10.491,58.084,7.924,79.32-13.989c7.372-7.607,11.14-16.816,13.057-27.466c22.581,0,45.176,0,67.772,0
		c-5.942-3.601-12.529-3.134-18.768-3.779c-1.615-1.317-0.686-3.3-1.708-5.127c-15.488,0-31.1,0-46.956,0
		c-0.45-2.623-0.775-4.888-1.232-7.126c-3.657-17.938-15.379-29.07-31.253-36.446c-26.464-12.296-58.356-7.414-78.718,11.877
		c-5.893,5.583-10.165,12.283-13.137,20.155c-18.883-0.235-37.793,0.501-56.547-1.025c-0.526-2.804,1-2.885,2.607-2.884
		c3.166,0.002,6.333-0.025,9.499,0.004c2.982,0.027,5.331-0.339,7.949-2.748c3.231-2.973,8.64-2.309,12.131-0.53
		c3.678,1.874,7.01,0.322,10.352,1.201c4.751,1.249,6.175-2.409,8.245-5.365c2-2.855,4.286-5.516,6.534-8.188
		c0.954-1.134,2.311-2.004,1.329-4.376c-5.259,0.914-9.931,3.78-13.639,7.165c-5.151,4.702-10.765,4.01-16.656,3.935
		c-0.396-1.962,1.198-2.403,2.08-3.155c30.638-26.134,66.068-36.854,106.09-33.264c16.777,1.505,33.249,5.069,49.986,6.75
		c3.643,0.366,7.309,0.746,10.961,0.715c5.389-0.045,7.088-2.406,5.77-7.653c-2.547-10.141-5.165-20.265-7.907-31.002
		c8.009,0,15.562,0,23.809,0c-1.229-4.218-2.254-7.787-3.311-11.346c-3.294-11.103,2.904-19.384,14.366-19.367
		c21.332,0.032,42.664-0.016,63.996-0.063c8.887-0.02,16.301,5.355,18.803,13.629c11.516,38.082,23.039,76.162,34.595,114.233
		c2.8,9.224,2.242,11.449-5.429,17.6c-9.545,7.654-20.527,12.795-31.654,17.61c-15.847,6.857-31.831,13.443-48.346,18.485
		c-15.059,4.597-30.362,8.36-45.745,11.826c-11.531,2.599-23.134,4.82-34.849,5.712c-12.483,0.95-25.077,0.346-37.614,0.713
		c-6.558,0.192-13.28,0.777-19.552-0.715c-11.062-2.632-22.533-2.736-33.437-6.355c-9.109-3.023-18.704-5.142-26.948-9.915
		c-10.724-6.209-23.361-9.602-32.127-20.453c6.328-0.165,11.829-0.987,17.25,2.256c4.167,2.493,8.776,4.631,14.011,3.655
		c-0.43,0.531-0.063,0.74,0.382,0.81c0.196,0.031,0.428-0.161,0.643-0.251C101.729,238.34,101.355,238.18,100.981,238.02z
		 M337.486,201.302c0-0.032,0-0.064,0-0.096c10.496,0,20.993,0.061,31.489-0.027c4.835-0.041,6.619-2.478,5.218-7.084
		c-10.852-35.668-21.749-71.322-32.637-106.979c-1.456-4.768-4.742-6.97-9.675-6.959c-18.658,0.045-37.316,0.128-55.973,0.065
		c-13.109-0.044-13.623,0.595-9.736,13.224c10.282,33.407,20.513,66.829,30.805,100.233c1.89,6.133,4.111,7.635,10.522,7.626
		C317.495,201.291,327.491,201.302,337.486,201.302z M141.777,250.095c26.222,11.171,76.511,2.493,88.638-15.418
		C202.369,248.598,172.736,253.091,141.777,250.095z M289.789,248.662c6.334-1.536,12.157-2.948,18.128-4.395
		c-1.726-5.829-2.447-11.255-4.945-16.532c-5.763,0.851-11.444,1.69-18.136,2.679C286.468,236.427,288.019,242.142,289.789,248.662z
		 M254.616,217.851c1.738,6.01,3.359,11.618,4.985,17.24c6.166-0.919,11.701-1.745,17.651-2.632
		c-1.558-6.11-2.515-11.904-4.859-17.612C266.48,216.721,260.648,216.739,254.616,217.851z M264.295,182.179
		c5.428-0.768,10.72-1.516,16.388-2.317c-1.891-6.21-3.563-11.703-5.227-17.166c-5.627,0.476-10.684,0.903-16.061,1.358
		C260.944,170.425,261.982,176.281,264.295,182.179z M263.32,120.159c-5.07,0-9.61,0-14.453,0c1.528,6.16,2.949,11.894,4.242,17.106
		c5.259,0,10.078,0,15.191,0C266.508,131.111,264.94,125.724,263.32,120.159z M210.855,234.001c4.272-0.136,6.936-2.218,9.859-3.669
		c8.686-4.311,14.351-13.108,23.955-16.092c1.07-0.332,2.413-0.928,2.864-2.485c-5.799,0-11.395,0.115-16.981-0.058
		c-2.145-0.066-2.856,1.126-3.655,2.65C223.025,221.741,217.54,227.846,210.855,234.001z M233.923,154.237
		c1.288,4.995,2.522,9.783,3.79,14.702c4.952-0.263,9.711,0.144,14.473-1.191c-0.95-5.171-1.652-10.055-3.518-14.683
		C243.562,153.108,238.754,153.33,233.923,154.237z M211.553,156.618c6.216,5.873,10.538,11.902,13.589,18.735
		c1.446,3.238,3.671,4.971,7.012,5.466c4.657,0.69,9.304,0.475,14.036-0.187C233.135,175.227,226.721,160.518,211.553,156.618z
		 M310.513,225.29c7.27-0.897,13.875-2.001,20.497-3.997c-0.764-2.995-1.45-5.684-2.157-8.458c-7.342,0-14.413,0-22.058,0
		C308.072,217.113,309.234,221.004,310.513,225.29z"/>
	<path fill="#10843E" d="M605.453,186.234c4.979-22.518,9.959-45.035,15.009-67.874c3.182,0,6.617,0,10.625,0
		c4.695,22.371,9.427,44.911,14.158,67.452c0.292-0.01,0.585-0.02,0.877-0.03c2.389-22.428,4.777-44.856,7.192-67.527
		c6.535,0,12.599,0,18.878,0c-5.342,33.959-10.646,67.675-15.995,101.678c-6.051,0-12.134,0-18.689,0
		c-4.016-18.683-8.031-37.366-12.06-56.114c-1.83,1.06-1.19,3.109-1.559,4.717c-3.651,15.91-7.318,31.818-10.759,47.774
		c-0.658,3.052-1.86,4.108-4.96,3.942c-4.792-0.257-9.608-0.068-14.516-0.068c-5.43-34.156-10.799-67.932-16.217-102.016
		c6.468,0,12.572,0,19.085,0C599.517,140.861,602.622,163.515,605.453,186.234z"/>
	<path fill="#10843E" d="M972.671,179.126c6.475,13.779,12.69,27.003,19.308,41.087c-6.922,0-13.289-0.036-19.655,0.019
		c-2.337,0.02-2.486-1.912-3.127-3.314c-5.044-11.043-10.138-22.067-14.951-33.211c-1.174-2.717-2.505-3.809-5.481-3.551
		c-3.43,0.297-6.905,0.069-10.71,0.069c0,13.346,0,26.27,0,39.59c-6.719,0-13.091,0-19.793,0c0-33.647,0-67.364,0.004-101.085
		c0.904-1.076,2.147-0.7,3.259-0.703c14.486-0.037,28.972-0.072,43.458-0.046c7.29,0.013,20.476,9.352,22.647,16.046
		c0.345,1.063,0.186,2.304,0.185,3.462c-0.003,4.496-0.612,9.078,0.05,13.47C989.86,164.196,983.662,172.827,972.671,179.126z
		 M938.287,135.186c0,9.532,0,18.556,0,27.901c7.517,0,14.654-0.013,21.792,0.005c4.564,0.011,7.935-2.88,8.151-7.414
		c0.213-4.484,0.19-8.986,0.09-13.476c-0.094-4.188-2.988-6.645-6.565-6.867C954.008,134.853,946.211,135.186,938.287,135.186z"/>
	<path fill="#10843E" d="M1090.543,220.014c-7.047,0-13.516,0-20.387,0c9.837-34.097,19.592-67.907,29.39-101.869
		c8.928,0,17.897,0,27.422,0c9.874,33.67,19.78,67.448,29.832,101.725c-7.32,0-14.037,0-21.035,0
		c-1.613-5.96-3.339-12.008-4.854-18.109c-0.577-2.326-1.595-3.22-4.101-3.174c-8.994,0.164-17.994,0.199-26.986,0.012
		c-2.774-0.058-3.696,1.005-4.312,3.488C1094.034,208.036,1092.256,213.91,1090.543,220.014z M1125.198,181.177
		c-3.997-14.845-7.79-28.935-11.584-43.025c-0.3,0.038-0.6,0.077-0.9,0.115c-3.772,14.255-7.545,28.51-11.356,42.91
		C1109.43,181.177,1117.016,181.177,1125.198,181.177z"/>
	<path fill="#10843E" d="M847.897,118.098c9.286,0,18.089,0,27.161,0c9.722,33.771,19.425,67.472,29.268,101.661
		c-7.056,0-13.743,0-20.838,0c-1.894-6.809-3.837-13.792-5.896-21.193c-10.224,0-20.359,0.06-30.492-0.046
		c-2.307-0.024-2.691,1.29-3.133,3.015c-1.567,6.111-3.222,12.199-4.874,18.41c-6.885,0-13.488,0-20.525,0
		C828.37,185.906,838.076,152.202,847.897,118.098z M861.474,135.586c-4.201,16.094-8.024,30.741-11.891,45.556
		c8.058,0,15.582,0,23.426,0C869.59,165.967,864.5,151.723,861.474,135.586z"/>
	<path fill="#10843E" d="M142.861,187.771c0-3.915,0-7.504,0-11.687c4.203,0,7.952,0,12.157,0c0-6.49,0-12.403,0-18.644
		c6.21,0,11.945,0,18.247,0c0,3.744,0,7.482,0,11.77c5.303,0,10.065,0,15.434,0c0,5.414,0,10.295,0,15.483c4.231,0,7.848,0,11.806,0
		c0,8.062,0,15.806,0,23.891c-3.481,1.152-7.351,0.025-11.369,0.805c-1.299,3.873-0.155,8.058-0.874,12.667
		c-4.767,0-9.656,0-15.105,0c0,4.136,0,7.704,0,11.568c-10.169,0-19.769,0-29.631,0c-1.168-3.481-0.028-7.19-0.804-11.296
		c-6.766,0-13.663,0-21.129,0c0-5.263,0-9.999,0-15.113c-3.996,0-7.419,0-11.133,0c0-6.631,0-12.866,0-19.443
		C121.226,187.771,131.804,187.771,142.861,187.771z"/>
	<path fill="#10843E" d="M479.079,199.709c6.2-27.271,13.163-54.151,19.484-81.467c6.836,0,13.588,0,20.875,0
		c-8.683,33.939-17.296,67.604-26.005,101.646c-9.382,0-18.945,0-28.459,0c-8.452-33.87-16.863-67.576-25.372-101.671
		c7.309,0,14.083,0,21.141,0C466.846,145.339,472.963,172.524,479.079,199.709z"/>
	<path fill="#10843E" d="M789.206,148.844c-0.251-15.573-3.357-13.888-15.079-13.768c-3.333,0.034-6.673-0.087-9.998,0.085
		c-3.894,0.202-6.155,2.341-6.163,6.319c-0.038,18.332-0.059,36.664,0.047,54.996c0.024,4.172,1.936,6.794,6.687,6.655
		c5.828-0.17,11.665,0.012,17.497-0.047c4.917-0.05,6.801-2.012,6.854-6.977c0.03-2.781,0.005-5.562,0.005-8.563
		c6.622,0,12.74,0,18.859-0.001c6.044,19.501-9.751,34.245-24.208,32.952c-7.605-0.68-15.321-0.1-22.987-0.127
		c-11.376-0.04-22.686-11.369-22.676-22.662c0.017-19.165,0.032-38.331,0.027-57.496c-0.003-10.451,11.64-22.246,22.164-22.316
		c9.166-0.061,18.333-0.089,27.497,0.011c9.387,0.103,20.867,11.884,20.801,21.172c-0.022,3.139-0.004,6.279-0.004,9.766
		C802.032,148.844,795.801,148.844,789.206,148.844z"/>
	<path fill="#10843E" d="M1026.869,135.238c-8.901,0-17.151,0-25.664,0c-0.534-5.85-0.453-11.246-0.105-16.985
		c23.778,0,47.335,0,71.174,0c0.625,5.463,0.174,10.897-0.106,16.798c-8.562,0-16.98,0-25.849,0c0,28.504,0,56.548,0,84.881
		c-6.685,0-12.91,0-19.448,0C1026.869,191.866,1026.869,163.96,1026.869,135.238z"/>
	<path fill="#10843E" d="M538.757,118.159c6.734,0,13.003,0,19.607,0c0,33.921,0,67.633,0,101.696c-6.445,0-12.838,0-19.607,0
		C538.757,186.04,538.757,152.332,538.757,118.159z"/>
	<path fill="#10843E" d="M92.692,187.421c0,4.281,0,7.917,0,12.339c-22.524,0.04-44.831,0.244-67.413-1.087
		c0-3.363,0-6.756,0-10.415C47.671,187.318,70.015,187.165,92.692,187.421z"/>
	<path fill="#10843E" d="M718.815,179.741c-11.138,0-22.187,0-33.628,0c0-5.321,0-10.666,0-16.305c11.14,0,22.183,0,33.628,0
		C718.815,168.775,718.815,174.111,718.815,179.741z"/>
	<path fill="#10843E" d="M188.992,107.155c4.885,0,9.154,0,13.725,0c1.595,4.37,2.562,8.947,3.309,14.136c-4.51,0-8.709,0-13.37,0
		C191.542,116.997,190.353,112.409,188.992,107.155z"/>
	<path fill="#10843E" d="M232.497,83.796c-1.269-4.612-2.491-9.054-3.826-13.905c4.911,0,9.347,0,14.159,0
		c1.746,4.24,2.728,8.877,3.741,13.905C241.862,83.796,237.426,83.796,232.497,83.796z"/>
	<path fill="#10843E" d="M213.776,116.394c5.01,0,9.307,0,13.933,0c1.11,4.336,2.248,8.778,3.494,13.641c-4.723,0-9.016,0-13.696,0
		C215.773,126.079,214.975,121.574,213.776,116.394z"/>
	<path fill="#10843E" d="M209.162,100.036c-1.256-4.544-2.44-8.829-3.771-13.643c5.024,0,9.527,0,14.383,0
		c1.055,4.285,2.15,8.733,3.359,13.643C218.336,100.036,213.951,100.036,209.162,100.036z"/>
	<path fill="#10843E" d="M145.059,157.005c0,3.749,0,7.033,0,10.564c-3.446,0.924-7.021,0.412-10.832,0.514
		c0-3.596,0-6.867,0-10.367C137.565,156.581,141.021,157.155,145.059,157.005z"/>
	<path fill="#10843E" d="M121.359,179.716c0-3.321,0-6.568,0-10.077c3.435-0.913,6.962-0.397,10.709-0.39c0,3.566,0,6.818,0,10.467
		C128.737,179.716,125.354,179.716,121.359,179.716z"/>
	<path fill="#10843E" d="M78.471,226.775c-6.233,0-11.635,0.063-17.035-0.023c-3.521-0.056-2.949-3.291-5.175-6.193
		C64.462,222.298,72.697,217.257,78.471,226.775z"/>
	<path fill="#FEFEFE" d="M100.981,238.02c0.374,0.16,0.748,0.321,1.122,0.481c-0.215,0.091-0.447,0.282-0.643,0.251
		c-0.446-0.071-0.812-0.279-0.382-0.81C101.078,237.941,100.981,238.02,100.981,238.02z"/>
	<path fill="#10843E" d="M309.088,109.716c-6.471,0-12.944-0.064-19.414,0.025c-3.648,0.05-6.487-1.212-6.629-5.075
		c-0.163-4.464,3.266-4.518,6.646-4.507c12.444,0.042,24.89,0.027,37.333-0.131c2.213-0.028,3.84,0.7,5.347,2.082
		c1.48,1.358,2.031,3.004,1.351,4.949c-0.696,1.991-2.134,2.725-4.226,2.704c-6.803-0.067-13.606-0.025-20.41-0.025
		C309.088,109.731,309.088,109.724,309.088,109.716z"/>
	<path fill="#10843E" d="M327.024,158.71c-5.498,0-10.996,0.002-16.495-0.001c-3.595-0.002-6.486-1.359-6.576-5.246
		c-0.093-4.032,2.942-4.48,6.293-4.445c10.496,0.109,20.993,0.062,31.49,0.007c1.882-0.01,3.581,0.161,5.177,1.331
		c1.853,1.359,2.511,3.044,1.963,5.212c-0.566,2.236-1.976,3.257-4.358,3.223c-5.83-0.084-11.663-0.027-17.494-0.027
		C327.024,158.746,327.024,158.728,327.024,158.71z"/>
	<path fill="#10843E" d="M315.987,124.887c6.31,0,12.621,0.074,18.929-0.038c2.38-0.042,4.189,0.674,5.544,2.618
		c2.289,3.283,0.956,6.581-2.996,6.626c-13.116,0.148-26.236,0.104-39.353,0.031c-3.28-0.018-5.5-1.954-5.511-5.189
		c-0.011-3.241,2.262-4.33,5.454-4.238c5.973,0.172,11.954,0.05,17.932,0.05C315.987,124.794,315.987,124.84,315.987,124.887z"/>
</g>
</svg>
