<?xml version="1.0" encoding="utf-8"?>
<!-- Generator: Adobe Illustrator 18.1.1, SVG Export Plug-In . SVG Version: 6.00 Build 0)  -->
<svg version="1.1" id="Layer_1" xmlns="http://www.w3.org/2000/svg" xmlns:xlink="http://www.w3.org/1999/xlink" x="0px" y="0px"
	 width="1000px" height="1000px" viewBox="0 0 1000 1000" enable-background="new 0 0 1000 1000" xml:space="preserve">
<g>
	<path fill="#067C2B" d="M400.631,298.287c16.334,0,31.961,0,47.757,0c0.519,2.568-0.476,4.546-0.984,6.524
		c-4.892,19.029-9.896,38.03-14.8,57.056c-2.799,10.859,0.163,14.842,11.509,15.271c19.771,0.747,39.185-2.541,58.575-5.678
		c38.867-6.288,77.821-11.488,117.326-9.146c57.81,3.428,109.278,23.5,154.456,59.701c5.261,4.216,10.725,8.227,16.14,14.07
		c-8.758,0-16.49-0.007-24.222,0.007c-1.345,0.003-2.018-1.026-2.903-1.744c-13.048-10.583-27.548-18.638-43.148-24.774
		c-0.753-0.296-1.557-0.5-2.356-0.629c-0.472-0.076-0.982,0.08-2.094,0.196c8.406,7.536,16.194,15.081,22.756,23.784
		c3.416,4.53,6.761,9.106,9.354,14.154c1.102,2.146,2.279,3.156,4.905,3.098c9.154-0.205,18.316-0.079,27.5-0.079
		c1.14-1.125-1.345-1.836-0.039-3.277c7.294,0,14.951,0.165,22.594-0.078c3.255-0.104,4.447,2.107,5.624,4.129
		c2.11,3.624,4.946,4.576,9.032,4.435c14.47-0.502,28.948-0.286,43.355,0.247c1.085,5.154,1.071,5.291-4.431,5.362
		c-36.992,0.477-73.984,0.905-110.977,1.332c-4.633,0.053-9.268,0.007-14.359,0.007c-4.08-11.682-10.071-22.75-18.331-32.491
		c-22.481-26.512-51.762-40.221-85.667-44.596c-28.854-3.723-56.83-0.068-83.398,12.248c-35.725,16.561-61.635,46.143-64.894,88.464
		c-32.015,0-64.078,0-96.142,0c-1.765,3.637-0.332,7.301-1.619,11.079c-11.463-0.147-22.84,1.112-34.217,2.438
		c-2.63,0.307-4.668,1.05-6.305,4.209c46.456,0,92.34,0,138.549,0c1.08,7.053,2.153,13.573,4.239,19.876
		c10.237,30.942,31.452,52.336,60.628,64.77c55.348,23.589,108.074,18.101,156.087-19.266
		c16.321-12.702,26.727-29.952,31.804-50.184c0.195-0.776,0.427-1.543,0.687-2.477c21.634,0,43.07,0,65.21,0
		c-2.22,5.508-5.463,9.864-8.761,14.159c-1.258,1.638-3.328,1.303-5.128,1.392c-7.486,0.37-14.974,0.693-22.461,1.034
		c-1.903,0.087-3.5,0.534-4.54,2.447c-9.849,18.105-24.207,32.054-40.71,44.018c-0.758,0.549-1.783,0.953-1.975,2.525
		c5.34,0.081,10.467-0.863,15.456-2.324c4.461-1.307,8.883-2.861,13.142-4.72c17.79-7.764,17.765-7.821,37.511-6.653
		c0.024,2.233-1.936,2.938-3.209,3.963c-18.277,14.717-38.54,26.138-59.771,35.964c-55.857,25.851-114.857,36.455-176.074,36.875
		c-63.955,0.44-126.351-9.562-187.83-26.584c-51.985-14.393-102.174-33.528-150.803-56.715
		c-13.309-6.346-27.182-11.977-38.765-21.501c-9.853-8.103-17.729-17.707-20.314-30.585c-1.421-7.076-1.016-14.159,1.12-21.223
		c20.771-68.69,41.431-137.414,62.106-206.133c1.631-5.42,3.044-10.905,4.719-16.311c5.849-18.874,22.246-30.624,42.065-30.568
		c41.828,0.117,83.657,0.102,125.485,0.117c4.539,0.002,8.976,0.468,13.192,2.254c13.388,5.672,19.258,16.895,15.869,33.741
		C406.392,280.268,403.348,288.78,400.631,298.287z M495.957,574.051c0.192,0.894,0.679,0.838,1.285,0.399
		c-0.318-0.281-0.636-0.562-0.954-0.842c-14.28-13.618-27.062-28.386-35.531-46.445c-0.682-1.455-1.774-1.746-3.218-1.743
		c-13.223,0.026-26.447,0.015-40.794,0.015c7.802,4.561,13.31,11.431,22.393,11.459c3.006,0.009,4.648,1.371,6.515,3.559
		C459.233,556.372,476.142,567.414,495.957,574.051z M498.739,407.639c-19.804,8.587-37.23,20.515-51.308,36.997
		c-3.091,3.619-6.507,6.453-10.774,8.599c-6.568,3.302-12.891,7.09-19.326,10.676c7.336,0,14.305-0.039,21.272,0.012
		c6.206,0.045,12.204-0.816,18.116-2.873c3.087-1.074,5.064-2.76,6.522-5.601c8.574-16.712,19.416-31.732,33.343-44.452
		c0.864-0.789,2.997-1.196,2.034-3.271l0.169,0.044L498.739,407.639z M238.823,504.072c20.493,0,40.985-0.041,61.478,0.016
		c11.485,0.032,17.326-3.975,20.753-14.792c22.623-71.415,43.358-143.403,65.261-215.037c0.485-1.588,0.95-3.217,1.122-4.859
		c0.84-8.016-4.07-12.77-13.375-12.781c-40.819-0.049-81.641,0.266-122.453-0.253c-10.938-0.139-19.604,6.196-22.856,17.154
		c-21.12,71.173-42.808,142.177-64.329,213.231c-3.417,11.283,1.101,17.338,12.921,17.317
		C197.838,504.034,218.331,504.06,238.823,504.072z M441.444,563.941c31.684,31.462,70.281,47.092,114.081,50.337
		c33.33,2.47,66.004-0.398,96.477-14.234C577.769,613.153,507.142,603.414,441.444,563.941z M345.403,563.453
		c-13.376-1.948-25.824-3.76-38.517-5.609c-3.161,12.224-6.217,24.041-9.305,35.984c12.981,2.81,25.294,5.475,38.061,8.238
		C338.931,589.056,342.136,576.379,345.403,563.453z M396.754,575.609c3.251-12.577,6.428-24.87,9.645-37.319
		c-12.836-1.874-25.132-3.669-37.729-5.508c-2.834,12.518-5.576,24.632-8.396,37.086
		C372.512,571.794,384.312,573.651,396.754,575.609z M363.742,424.799c-3.607,12.49-7.097,24.576-10.605,36.722
		c11.739,1.352,23.093,2.66,34.704,3.998c3.112-12.576,6.161-24.899,9.294-37.563C385.736,427.027,374.976,424.959,363.742,424.799z
		 M409.027,375.8c3.338-12.913,6.61-25.571,9.983-38.618c-10.187,0-19.793,0-29.772,0c-3.578,12.13-7.163,24.287-10.874,36.867
		C388.87,373.575,398.578,375.057,409.027,375.8z M250.363,546.703c14.767,2.053,28.695,5.866,43.163,7.267
		c2.822-8.66,5.376-16.957,7.053-25.464c-15.503,0-30.7,0-45.835,0C253.269,534.633,251.878,540.413,250.363,546.703z
		 M417.406,405.732c-2.432,10.666-4.77,20.921-7.2,31.577c10.606-0.337,20.5,1.954,30.728,2.379
		c2.509-10.601,4.961-20.959,7.51-31.731C437.683,408.238,427.865,406.282,417.406,405.732z"/>
	<path fill="#067C2B" d="M821.266,570.168c9.162,0,17.471,0,25.716,0c1.309,1.788,0.756,3.686,0.758,5.451
		c0.067,61.497,0.17,122.994,0.098,184.49c-0.046,39.187-26.498,71.536-64.865,79.805c-5.08,1.095-10.201,1.568-15.367,1.569
		c-81.66,0.018-163.32,0.003-244.979,0.014c-89.325,0.011-178.651,0.087-267.976,0.043c-45.367-0.022-81.412-36.305-81.409-81.747
		c0.004-60.997,0.026-121.994,0.04-182.991c0-1.793,0-3.585,0-6.008c8.901,4.58,17.262,8.851,25.589,13.189
		c1.956,1.019,1.069,2.989,1.07,4.516c0.031,51.497-0.041,102.994,0.039,154.491c0.015,9.641-0.805,19.347,1.282,28.904
		c5.543,25.385,27.596,42.997,54.256,43.025c77.663,0.082,155.326,0.074,232.989,0.075c91.995,0,183.99-0.004,275.986-0.058
		c27.866-0.016,50.541-18.313,55.854-45.057c0.74-3.725,0.904-7.615,0.907-11.428c0.046-59.331,0.021-118.661,0.013-177.991
		C821.266,577.157,821.266,573.855,821.266,570.168z"/>
	<path fill="#067C2B" d="M847.811,435.972c-9.05,0-17.363,0-25.742,0c-1.354-2.189-0.739-4.571-0.741-6.814
		c-0.065-61.153-0.043-122.307-0.117-183.46c-0.041-33.828-23.869-57.475-57.67-57.469c-168.797,0.031-337.594,0.039-506.39,0.076
		c-33.472,0.007-57.585,23.808-57.354,57.216c0.054,7.794-2.553,14.587-4.706,21.656c-6.711,22.033-13.543,44.03-20.346,66.035
		c-0.128,0.415-0.49,0.758-0.759,1.159c-1.407-0.617-0.798-1.776-0.798-2.608c-0.016-30.493-0.147-60.987,0.078-91.479
		c0.305-41.413,36.779-78.296,77.478-78.475c29.326-0.129,58.654-0.057,87.981-0.056c134.304,0.004,268.608-0.025,402.912,0.082
		c13.134,0.01,26.335-1.118,39.406,1.119c38.112,6.522,66.772,40.573,66.759,79.157c-0.02,62.486,0.004,124.972,0.01,187.458
		C847.811,431.539,847.811,433.508,847.811,435.972z"/>
	<path fill="#067C2B" d="M698.761,515.097c-7.228,0-14.166,0-21.606,0c0,10.882,0,21.446,0,32.661c-15.358,0-30.229,0-45.594,0
		c0,8.413,0,16.184,0,24.203c-20.28,0-40.054,0-60.386,0c0-7.857,0-15.748,0-24.151c-10.592,0-20.646,0-31.1,0
		c0-9.108,0-17.704,0-26.775c-8.313,0-16.226,0-24.533,0c0-17.177,0-33.873,0-50.892c8.078,0,15.858,0,24.193,0
		c0-10.364,0-20.425,0-31.113c10.573,0,20.615,0,31.075,0c0-8.714,0-16.811,0-25.243c12.513,0,24.597,0,37.109,0
		c0,12.924,0,25.672,0,38.907c8.145,0,15.887,0,24.042,0c0,8.234,0,15.987,0,24.08c22.466,0,44.512,0,66.799,0
		C698.761,489.647,698.761,502.205,698.761,515.097z"/>
	<path fill="#067C2B" d="M887.08,476.23c0,8.097,0,16.523,0,25.288c-50.544,0-101.014,0-151.927,0
		c-0.204-8.383,0.294-16.469-0.721-25.288C785.52,476.23,836.169,476.23,887.08,476.23z"/>
	<path fill="#067C2B" d="M826.346,516.234c12.499,0,24.569,0,36.878,0c0,11.258,0,22.312,0,33.467c-12.418,0-24.481,0-36.878,0
		C826.346,538.55,826.346,527.663,826.346,516.234z"/>
	<path fill="#067C2B" d="M456.444,235.769c-2.205,9.731-4.284,18.904-6.301,27.806c-9.536,0-18.761,0-28.537,0
		c1.154-9.953,4.027-18.783,5.81-27.978C437.041,234.575,446.415,236.014,456.444,235.769z"/>
	<path fill="#067C2B" d="M503.024,270.047c-2.092,8.778-4.14,16.637-5.764,24.583c-0.584,2.857-2.004,3.335-4.437,3.314
		c-7.944-0.07-15.89-0.026-24.871-0.026c2.155-10.246,4.045-19.234,5.978-28.424C483.635,268.587,492.968,269.986,503.024,270.047z"
		/>
	<path fill="#067C2B" d="M531.512,340.811c-9.59,0-18.517,0-28.259,0c2.144-9.699,4.138-18.717,6.15-27.819
		c9.412,0,18.634,0,28.58,0C535.718,322.726,533.599,331.835,531.512,340.811z"/>
	<path fill="#067C2B" d="M453.492,358.795c2.248-9.824,4.31-18.832,6.385-27.901c9.401,0,18.469,0,28.332,0
		c-2.173,9.594-4.238,18.716-6.318,27.901C472.708,358.795,463.626,358.795,453.492,358.795z"/>
	<path fill="#067C2B" d="M676.842,439.123c0,7.143,0,14.072,0,21.361c-7.427,0-14.668,0-22.324,0c0-6.868,0-13.922,0-21.361
		C661.633,439.123,669.005,439.123,676.842,439.123z"/>
	<path fill="#067C2B" d="M628.149,413.704c7.412,0,14.341,0,21.569,0c0,7.119,0,13.991,0,21.138c-7.178,0-14.227,0-21.569,0
		C628.149,427.8,628.149,420.899,628.149,413.704z"/>
	<path fill="#067C2B" d="M763.729,556.945c3.784-3.989,6.547-6.85,9.245-9.771c1.055-1.143,2.075-1.899,3.814-1.882
		c9.95,0.097,19.901,0.047,29.913,0.047c-0.989,9.685-2.989,11.602-11.53,11.605C785.084,556.949,774.998,556.945,763.729,556.945z"
		/>
	<path fill="#FCF8F8" d="M496.288,573.608c0.318,0.281,0.636,0.562,0.954,0.842c-0.606,0.438-1.093,0.495-1.285-0.399
		C496.074,573.909,496.184,573.761,496.288,573.608z"/>
	<polygon fill="#FCF8F8" points="498.739,407.639 498.785,407.769 498.62,407.724 	"/>
	<path fill="#067C2B" d="M294.999,316.798c-13.164-0.007-26.329-0.053-39.493,0.02c-4.283,0.024-8.122-0.496-9.415-5.423
		c-1.054-4.017,1.46-9.23,5.387-11.44c2.541-1.431,5.281-1.779,8.178-1.773c26.328,0.051,52.657,0.056,78.985,0.011
		c4.087-0.007,7.778,0.578,9.321,4.988c1.356,3.876-0.968,9.334-4.865,11.655c-2.312,1.377-4.826,2.025-7.606,2.007
		C321.994,316.758,308.496,316.805,294.999,316.798z"/>
	<path fill="#067C2B" d="M277.485,365.694c-11.815,0-23.63-0.012-35.445,0.004c-7.609,0.011-10.628-1.763-10.951-6.509
		c-0.396-5.817,4.809-11.63,11.002-12.054c2.813-0.193,5.655,0.056,8.483,0.057c22.632,0.01,45.263,0.015,67.895,0.004
		c4.36-0.002,8.53,0.386,9.784,5.612c1.105,4.61-1.747,9.536-6.507,11.707c-2.181,0.995-4.463,1.147-6.819,1.14
		c-12.48-0.038-24.961-0.018-37.442-0.018C277.485,365.656,277.485,365.675,277.485,365.694z"/>
	<path fill="#067C2B" d="M259.372,414.18c-10.98,0-21.96,0.007-32.94-0.002c-7.392-0.006-10.465-2.001-10.604-6.843
		c-0.159-5.57,4.628-10.869,10.454-11.459c1.48-0.15,2.991,0.013,4.488,0.014c21.627,0.015,43.255,0.025,64.882,0.039
		c7.375,0.005,10.517,2.269,10.527,7.572c0.01,5.884-4.606,10.582-10.872,10.645C283.33,414.264,271.351,414.18,259.372,414.18z"/>
</g>
</svg>
