<?xml version="1.0" encoding="utf-8"?>
<!-- Generator: Adobe Illustrator 18.1.1, SVG Export Plug-In . SVG Version: 6.00 Build 0)  -->
<svg version="1.1" id="Layer_1" xmlns="http://www.w3.org/2000/svg" xmlns:xlink="http://www.w3.org/1999/xlink" x="0px" y="0px"
	 viewBox="0 0 901 1280" enable-background="new 0 0 901 1280" xml:space="preserve">
<g>
	<path fill="#B4B4B4" d="M809,0c2.3,0,4.7,0,7,0c-3.9,10.4-7.8,20.9-11.8,31.3c-0.6,1.6-2,3.2-0.5,4.5c1.6,1.4,3.2-0.5,4.3-1.5
		C822,22.1,836.4,10.2,852,0c3.3,0,6.7,0,10,0c-7,4.5-13.9,9.1-21.3,13.9c7.1,3.3,11.7,1.7,15.6-3.7c2.6-3.6,5.8-6.8,8.7-10.2
		c1.7,0,3.3,0,5,0c-4.1,5-8.2,9.9-12.4,14.9c-1.3,1.5-3.3,3.2-0.9,5c9.8,7.1,16.7,16.8,23.7,27.4c1.4-5.5,2-10.3,3.8-14.6
		c5.1-11.9,11.8-12.1,19.7-0.8c0,3.7,0,7.3,0,11c-2.8,5.1-6.8,8.9-11.7,12c-2.2,1.4-5.4,2.9-4.4,5.9c2.3,6.6,5.3,13,8.5,20.6
		c1.7-7.1,1.9-13.6,7.6-17.5c0,7.3,0,14.7,0,22c-2.1,1-6,1.1-5.1,4.1c1.6,5.3,0.1,11.7,5.1,15.9c0,19.7,0,39.3,0,59
		c-13.2,13.3-23.6,28.6-34,44c-0.6-1.8-1.2-3.6-1.9-5.4c9.1-12.5,18.2-25.1,27.3-37.6c6.9-9.5,4.8-18.7-5.5-24.1
		c-2-1.1-4-2.5-5.5-4.2c-2.2-2.4-3.9-5.7-1.3-8.5c2.6-2.7,5.9-1,8.1,1c3.2,2.9,5.8,6.4,9.6,10.7c-0.6-9.5,3.9-20-11.4-19.5
		c-3,0.1-6.3-2.8-9-4.8c-2.4-1.8-3-4.8-1.6-7.7c1.3-2.8,3.8-2.9,6.4-2.8c5.3,0.2,9.1,3.6,13.2,6.6c0.3-8.3-1.4-14-11.5-12.8
		c-5.2,0.6-9.8-1.9-12.7-6.6c-1.7-2.8-3-5.7-0.4-8.8c2.5-2.9,5.6-2.8,8.7-1.5c3.5,1.6,6.9,3.6,10.3,5.4c-3.1-4.9,1.2-14.3-8.1-14.6
		c-5.7-0.2-11.3,0.3-16.7-1.6c0.1-1.8,0.1-3.7,0.2-5.5c5.3,4.2,13,6.1,16.3,1.6c2.4-3.2-6.2-5.8-10.1-8.5c-0.8-0.6-1.7-1-2.5-1.5
		c-0.3-1.1-0.6-2.1-1-3.2c3.3,1.2,6.7,2.4,10.5,3.8c-4-9.5-8.7-17.6-19.8-19.2c-4.7-0.7-9.7-1.3-14-3.2c-8.5-3.8-11.4,1.7-14.6,7.5
		c-2.7,0-5.4,0-8.1,0c3.2-3.1,6.9-5.9,9.3-9.5c2.9-4.3-2.7-8.1-1.8-12.5c-0.7-0.1-1.7-0.6-2.1-0.3c-8.3,7.3-18,13-24.4,22.4
		c-9.7,0-19.4,0-29.1,0C783.1,26,796.1,13,809,0z M884.6,48.2c0.9,1.5-0.9,7.1,2.8,5.3c6.6-3.2,12.7-8.3,12.1-17.1
		c-0.2-3.3-1.3-7.1-5-7.8c-3.4-0.6-5,2.6-6.5,5.2C885.6,38.1,884.7,42.7,884.6,48.2z M867.3,36.8c-7.3-9.1-13.9-15.3-23.7-16.7
		c-2.6-0.4-5.7-0.1-6.4,3.3c-0.6,3,1.2,5.4,3.9,6.2C849,32,857.2,34,867.3,36.8z M890.7,97c0.9-0.8,4.4,0.5,3.5-1.3
		c-2.8-5.5-8-8.6-14.2-9.7c-1.7-0.3-4,0.2-3.6,2.3C878.2,95.7,884.2,96.6,890.7,97z M893.3,118.3c1.2-0.5,4.2,0.7,3.3-1.3
		c-1.8-4-5.3-6.8-10.1-7c-1.6-0.1-4.4-0.2-3.9,1.8C884.1,116.9,888.7,117.8,893.3,118.3z"/>
	<path fill="#B5B5B5" d="M813,1280c-1.7,0-3.3,0-5,0c4.4-7.5,12.2-11.6,19.5-19.9c-6.6,3.8-13.3-0.9-16.2,6.5
		c-1.8,4.6-4.2,9-6.3,13.4c-1.3,0-2.7,0-4,0c2.1-4.3,4.5-8.5,6.3-12.9c1.3-3.3,0.5-6.9-2.4-8.8c-3.3-2.1-4.4,1.7-5.9,3.6
		c-4.5,5.4-7.8,11.5-9.9,18.2c-1.3,0-2.7,0-4,0c1.5-8.2,5.9-15,10.9-21.5c1.2-1.6,3-3.6,0.6-5.1c-7.2-4.5-11.4-11.9-17.6-17.3
		c2,0,4.1,0,6.1,0c4.3,13.2,17.4,16.3,27.2,23c2.7,1.9,5.5-1.2,8.3-1.9c0.8-0.2,1.3-0.6,2.4,0.3c2.1,1.6,16.2-5,15.6-7.2
		c-1-3.6-4.3-6.2-4.9-10.3c-0.4-3.1-2.6-3.6-4.6-1.5c-5.1,5.2-8.9,5.6-11.2-2.3c16-0.7,32.1,2.5,48.1,0c0.5,3.1,1.7,6.7,4.8,6.7
		c2.9-0.1,2.2-4.3,3.1-6.6c3-7.9-4.6-12.9-4.9-22.4c-2.1,9.1,0.6,15.8-2.1,22.1c0.1-0.3,0.1-0.6,0-0.9c0.1-30.3,0.2-60.7,0.3-91
		c3.6-4.6,2.5-9.7,1.8-14.8c2.6,0.4,5.1,5,7.8,0.2c1.2-2.1,1.4-4-0.9-5.6c-4.2-2.8-4.7,1.9-6.8,3.2c-0.2-2.8-1.4-5.7,1-8.2
		c2.8-1.1,5.7,3.4,8.3,0.2c7.9-10.2,13.7-21.2,12-34.8c-0.4-3.1-1.2-4.4-4.2-1.9c-11.3,9.6-16.2,21.9-16,36.5
		c-2.3-4.2-1.7-8.8-2-13.3c2.1-6,4.4-12,7.9-17.5c2.4-3.7,1.6-9.2-1.5-11.3c-2.7-1.8-4,3.6-6.3,5.5c0-1.9,0-3.8,0-5.7
		c2.4-1.9,3.4-5.8,7-5.7c2.3,0.1,2.6,2.9,2.9,4.7c0.9,7.5,3.8,7,8.4,2.5c4.2-4.2,7.1-2.7,6.9,2.8c-0.4,10.7,4.1,9.7,10.7,5.1
		c0,1.3,0,2.7,0,4c-11.3,2.6-12.1,12.8-16.7,22.5c6.5-5,9.9-11.2,16.7-12.5c0,1,0,2,0,3c-8.3,3.9-12.8,11.4-17.7,18.5
		c-1.8,2.6-2,4.5,0.5,6.9c2.3,2.2,4.2,2.7,6.9,0.6c3.3-2.5,6.8-4.7,10.3-7c0,4,0,8,0,12c-3.9,1.2-8.7,1.9-8,7.5
		c0.5,4.5,3.7,5.9,8,4.5c0,9,0,18,0,27c-6-1.5-9.1,1.9-8,7c0.5,2.5,5.2,4,8,6c0,3,0,6,0,9c-3-1.7-6.2-3.2-8.9-5.3
		c-3-2.3-5.2-2.4-8.2,0.3c-3.1,2.8-1.5,4.7,0.1,7.2c4.5,7.1,9.8,13.3,17,17.8c0,4.7,0,9.3,0,14c-1-15.6-16.9-20.9-22.8-33.2
		c2.7,7.7,8.6,14,9.9,21.9c1.4,7.9,6.1,11.7,12.8,14.3c0,1,0,2,0,3c-2-0.8-4.2-1.3-5.9-2.5c-3.7-2.4-5.2-1.8-5.2,2.8
		c0,2.7,0.5,6.4-2.4,7.6c-2.9,1.2-4.7-2.4-7-3.8c-1.8-1-4.8-5.6-5.4-2c-2.2,11.6-14,13.5-19.6,21.6c-5.5,7.8-12.9,14.3-19.4,21.4
		c-1.3,0-2.7,0-4,0c1.1-1.6,2.1-3.4,3.4-4.8c8.5-9.6,17-19.1,25.5-28.7c1-1.1,2.3-2.2,1.3-3.9c-0.3-0.4-2-0.6-2-0.5
		c-2.2,6-8.1,5.5-12.5,7.9C836.5,1257.6,824.4,1268.5,813,1280z M872,1165c0,0.3,0.1,0.6,0.1,0.9c-0.7,0.7-1.3,1.5-2,2.2
		c-2.1,2.5-2.2,5.4-1.8,8.5c2.6,4.8-1.6,10.8,2.6,15.4c4.5,4.7,7.3,1.9,9.9-2.1c2.8,1.9,4.2-0.4,4.6-2.3c0.8-3.8,6.3-7.5,0.5-11.5
		c-0.3-0.1-0.6-0.1-0.8-0.2c1.9-1.8,5.2,1.8,6.6-1.5c1.4-3.4-3.3-3-3.8-5.3c6.3-4.4,4.2-8.8,0.1-13.2c-1.8-4-4.1-7-9-3.8
		c-0.3-0.6-0.5-1.2-0.8-1.9c0-4.3-4-5.6-6.4-5.2c-2.9,0.5-4.1,3.9-2.7,7.2c-0.5,4.6,2.3,9.3-2,14.3
		C869.6,1165.7,870.8,1165.3,872,1165z M890.4,1230.2c0.1-11.6-5.6-20.8-11.8-29.7c-1.6-2.3-3.6-1.9-5.7-1c-2.1,0.9-3.8,1.8-3.4,4.6
		c1.5,10.7,4.2,20.9,12.2,28.8c2,2,3.9,5.4,7,4.5C889.9,1237,889.8,1232.7,890.4,1230.2z M876.9,1136.2c-2.3,0.7-3.7,2.8-3.6,4.7
		c0.2,3.2,3.4,3.9,5.8,4.4c2.3,0.4,3.3-2.2,3.4-4.1C882.5,1137.9,879.3,1137.5,876.9,1136.2z M886.7,1133.6
		c-0.8-2.8-2.7-5.3-5.4-5.6c-2.5-0.3-3.5,2.9-3.3,4.7c0.2,3.1,3.4,3.9,5.8,4.4C885.7,1137.6,886.2,1135.4,886.7,1133.6z M886.7,1142
		c-2.7,0.1-3.7,2.1-3.9,3.9c-0.4,3.9,3.2,4.4,5.6,5c2.2,0.6,2.9-2,3.1-3.7C892,1143.8,888.7,1143.4,886.7,1142z"/>
	<path fill="#B4B4B4" d="M0,44c0-4.7,0-9.3,0-14c4.7-5.6,9.7-10.2,16-2.3c4.3,5.4,5.5,12.1,6.7,19.9C30.3,36.6,37,26.2,47.6,19.4
		c3.3-2.1,2.9-3.7,0.8-6.2C44.8,8.9,40.1,5.5,38,0c1.7,0,3.3,0,5,0c6,6.9,9.8,16.3,21.6,15.6c3.8-0.2,6.8,3.8,5.9,7.3
		c-3.1,11.7,6.6,15.1,12.6,21c-2.7,0-5.4,0-8.1,0c-2.6-4.4-5.6-10.5-10.6-9.8c-10.4,1.5-20.7,4.6-30.6,8.3c-6,2.3-8.4,8.9-10.9,14.6
		c4.5,1.1,7.9-2.7,12.1-2.8c0.3,0,0.6-0.2,0.9-0.3c0,1.4-0.1,2.9-0.1,4.3c-1.8,0.2-3.8,0-5.3,0.8c-4.6,2.4-9.9,3.8-12.7,8.8
		c-0.1,0.3,0.8,1.6,1.3,1.7c6.1,1.2,11.8,0.9,16.7-3.6c0,1.8,0,3.5,0,5.3c-3.8,2.5-8.2,3.6-12.4,2.7C10.3,71,13.1,81.8,8.7,89.2
		c5.4-2.8,8.6-4.7,12.1-6.2c3-1.2,6.3-1.9,8.6,1.3c2.5,3.4,1.2,6.7-1,9.6c-3.6,4.8-8.7,6.2-14.6,6.1C6.2,100,3.5,104,5.9,111.7
		c1.6-1,3-2.2,4.6-3c4.8-2.4,10.8-5.7,14,0.5c3,5.9-2.9,8.9-7.5,11.4c-1.2,0.6-2.5,1-3.8,1.3c-10.4,1.9-13,6.8-9.3,17.7
		c1.4-2,2.7-3.9,4.2-5.6c2.7-3.3,5.8-6.1,10.5-5.7c1.9,0.2,3.1,1.6,3,3.4c-0.4,4.8-3.7,7.6-7.5,9.9c-0.3,0.2-0.6,0.3-0.9,0.4
		c-9.9,5-12.6,14.8-5.4,23.7C17.9,178.4,27.1,191.6,36,205c0.3,2.6,0.7,5.3,1,7.9c-2.4-0.3-3-2.3-4.1-4c-9.7-15.3-19.7-30.4-32.9-43
		c0-19.3,0-38.7,0-58c0.4-7.3,10-14.7,0-22c0-7,0-14,0-21c5.4,3.7,5.3,10.1,6.9,16.2c3.1-7.2,5.9-13.6,8.5-20
		c0.2-0.5,0.2-1.6-0.2-1.9C11.5,56,7.5,52.7,3.8,49.2C2.3,47.8,1.3,45.8,0,44z M19.1,46.7c-1.3-7.2-1.4-15.6-9.8-18
		c-4.2-1.2-5.6,4.6-5.6,8.4c0,8.7,6.5,13.4,13,16.9C18.6,55.1,18,49.3,19.1,46.7z M36.6,36.4c10.1-2.8,18.7-3.1,26.3-7.1
		c2.4-1.3,4.2-3.1,3.6-5.9c-0.7-3-3.4-3.6-6-3.3C50.4,20.9,43.9,27.3,36.6,36.4z M13.3,97c5.6-0.8,11.6-1.3,13.3-8.2
		c0.6-2.5-1.7-3.1-3.6-2.7c-5.8,1.3-11.2,3.9-13.7,9.5C8.5,97.3,11.8,96.6,13.3,97z M9.4,118.3c4.8-0.3,9.6-1,11.6-6
		c1-2.4-1.7-2.3-3.3-2.3c-4.8,0.2-8.7,2.4-10.9,6.6C5.8,118.5,8.1,118.2,9.4,118.3z"/>
	<path fill="#B4B4B4" d="M0,688c0-19.3,0-38.7,0-58c3.1-3.3,2.3-7.7,3.5-11.5c1.2-3.8,2.9-8.3-3.5-9.5c0-7,0-14,0-21
		c5.4,3.7,5.4,9.8,6.6,15.7c9.6-14.3,9.2-19.9-1.7-30.4c-1.9-1.8-3.3-4.1-5-6.2c0-4.7,0-9.3,0-14c2.9-3.1,5.4-8.3,10.2-6.5
		c10.2,3.9,10.7,13.9,12.4,23.2c4.7-5.9,9-11.4,13.4-16.9c0.3,3.7,0.6,7.5,0.8,11.2c-0.3,0-0.6,0-0.9-0.1
		c-8.1,3.1-10.3,10.8-15.4,19.1c6-3.6,10.5-5.5,15.4-6.2c0,1.4-0.1,2.8-0.1,4.2c-0.8,0-1.7-0.2-2.5,0c-6.1,1-11.1,4.3-15.2,8.7
		c-0.3,0.3,0.3,2.1,0.8,2.3c6.2,2,11.8,0.6,16.8-3.3c0,1.8,0,3.5,0,5.3c-4,1.7-8,3-12.5,2.8c-8.8-0.4-13.5,4.9-12.6,14.4
		c1.5-0.9,2.8-1.9,4.3-2.7c4.2-2.3,8.5-5.1,13.6-2.5c2.4,1.2,2.8,3.7,2,6.1c-1.7,5.8-5.7,9.2-11.7,10.3c-1.3,0.2-2.6,0.3-4,0.3
		c-8.9,0.3-10.9,2.8-9.5,12c1.5-1.1,3-2.2,4.5-3.2c4.1-2.6,8.5-4.1,13.2-1.9c2,1,2.3,3.2,1.9,5.3c-1.2,5.2-5.4,7.2-9.9,8.8
		c-0.5,0.2-1,0.4-1.5,0.3c-15.2-0.7-9.9,10-10.8,19.4c2.8-3.8,4.4-6.3,6.4-8.3c2.5-2.6,5.2-5.3,9.4-4.8c1.8,0.2,3.1,1.5,3.1,3.4
		c0,4.3-3,6.8-5.9,9.3c-0.6,0.5-1.4,0.9-2.2,1.3C3.3,670,0.7,679.7,8.2,689c10.1,12.5,19,25.7,27.8,39c0.3,2.6,0.6,5.2,1,7.9
		c-1.2-1.1-2.7-2-3.5-3.3C23.7,716.6,12.6,701.8,0,688z M19.1,569.9c-1.3-7.3-1.2-16-9.8-18.3c-4.4-1.2-5.9,4.9-5.7,8.7
		c0.4,8.2,6.4,13.2,12.9,16.3C19,577.8,18,572.3,19.1,569.9z M13.2,619.9c5.8-0.9,11.9-1.3,13.5-8.6c0.5-2.3-1.6-2.7-3.4-2.4
		c-6.1,1.1-11.5,3.8-14.1,9.6C8.5,620.3,11.8,619.5,13.2,619.9z M9.4,641.4c4.7-0.7,9.7-1.5,11.6-6.7c0.7-1.9-1.9-2.5-3.5-2.3
		c-4.6,0.6-8.5,2.8-10.7,7C5.9,641.2,7.9,641.3,9.4,641.4z"/>
	<path fill="#B4B4B4" d="M904,629c0,16.3,0,32.7,0,49c-1.6,0.6-2.7,4.4-5,0.9c2.1-7-0.1-11.4-7.4-13.5c-3.5-1-6.6-3.2-8.4-6.7
		c-1.1-2.2-2-4.5-0.2-6.5c2-2.2,4.6-1.5,6.9-0.2c4.4,2.5,7.1,6.7,11.2,12.5c-1.2-9.7,4.4-20.4-10.9-20.3c-3.9,0-7.6-2.3-10.2-5.7
		c-1.6-2.1-2.6-4.4-1.3-7c1.4-2.6,3.9-2.9,6.5-2.7c4.9,0.4,9,2.8,12.9,6.1c0.9-8.3-1-13.4-10.5-12.3c-4.7,0.6-8.8-1.6-12-5.1
		c-2.6-2.8-4.3-6.4-2-10c2.3-3.6,6.1-3,9.4-1.6c3.4,1.4,6.6,3.3,11,5.5c-3.2-7.9-2.1-18.2-14.9-14.8c-1.7,0.4-3.8,0.2-5.4-0.5
		c-5.7-2.6-5.7,0.5-5.7,4.8c0,40,0,79.9-0.1,119.9c-0.2,0-0.5,0-0.7,0c0-76.7,0-153.3,0.1-230c0.3,0,0.6,0,0.9,0c1,1,2,1.9,3,2.9
		c-0.4,1.1-0.8,2.1-1.2,3.2c-3.9,7.3-0.9,15.2-1.7,22.7c0,0.9,0,1.8,0.1,2.7c-0.2,16.7-3.6,34.2,12.7,46.6c2-8.6,1.7-19.7,13-22.4
		c5.5-1.3,8.1,4.7,10.1,9.4c0,3,0,6,0,9c-2.2,5.5-6.3,9.1-11.2,12.3c-2.5,1.7-6,3.5-4.7,7.3c2.2,6.1,5.1,12,8,18.7
		c2.5-6.1,1.9-12.9,7.8-16.3c0,7.3,0,14.7,0,22c-2.1,0.7-5.7,0.9-5.1,3.5C900.1,618.1,899.2,624.5,904,629z M884.3,570.4
		c1.5,1.8-0.4,7.6,2.8,6c6.7-3.3,13.2-8.3,12.6-17.5c-0.2-3.2-1.4-6.6-4.9-7.5c-3.7-0.9-5,2.5-6.6,4.9
		C885.5,560.6,884.9,565.4,884.3,570.4z M878.3,593.2c2.7-0.6,7.7-0.1,7-2.1c-2.2-6-8.4-7.9-14.1-9.6c-2.9-0.8-3.1,1.7-3.1,3.7
		C868.1,592.5,873.9,592,878.3,593.2z M891.3,619.9c0.8-0.7,4,0.4,3-1.4c-2.9-5.3-7.9-8.5-13.9-9.7c-1.9-0.4-4.3,0.2-3.8,2.6
		C878.5,619,885,619.1,891.3,619.9z M881.9,581c-3.1-4.6-6-9.3-9.3-13.8c-0.6-0.9-2.3-1-3.4-1.4c-0.4,1-0.8,2.1-1.1,3.1
		C865.8,579.9,876.5,577.5,881.9,581z M892.7,641.2c1.4-0.5,4.6,0.5,3.8-1.6c-1.7-4.3-5.9-6.5-10.5-7.3c-1.7-0.3-4,0.4-3.4,2.4
		C884,639.5,888.5,640.4,892.7,641.2z"/>
	<path fill="#B4B4B4" d="M0,1135c6.1,4.1,7,10.9,8.5,18.8c3.1-7.5,5.9-13.7,8.1-20c1.5-4.2-2.4-5.8-5.1-7.5
		c-7.9-5-12.3-11.6-10.1-21.3c1.1-4.6,3.6-8.6,8.6-9.3c4.6-0.7,6.9,2.9,9.2,6.3c3.3,5,3.9,10.8,4.4,17.9c4.7-6,8.6-11,12.5-16
		c0.3,3.4,0.6,6.8,0.9,10.2c-0.3,0-0.6,0-0.9-0.1c-6.8,3.5-9.4,10.1-13.1,17.4c5.1-2,8.5-4.7,12.9-4.6c0,1.1,0,2.3,0,3.4
		c-1.4,0.4-3,0.5-4.3,1.2c-4.6,2.4-13.3,5.4-11.5,8.7c2.6,4.8,10.3,2,15.7-0.4c0,1.5,0.1,2.9,0.1,4.4c-2.9,0.6-6.1,2.3-8.7,1.7
		c-12.5-3.2-13.8,5.3-15.3,14.5c3.6-1.8,6.8-3.6,10.2-5c3.2-1.4,6.8-2,9,1.4c2.2,3.3,1.2,6.8-1.1,9.7c-3.5,4.3-8.4,6.2-13.8,5.6
		c-9.3-0.9-9.4,5.2-9.9,12.1c4.6-2.1,7.8-5.7,12.5-6c2.9-0.2,5.8,0,7.4,2.9c1.7,3.1,0,5.4-1.9,7.6c-2.4,2.8-5.6,5-9,4.9
		c-15.2-0.7-10.3,10.1-10.8,15.4c2.5-1.8,6.2-4.8,10.1-7.4c2.3-1.5,5-2.6,7.3-0.2c2.3,2.3,1.2,5.1-0.4,7.3c-1.2,1.7-2.8,3.9-4.7,4.3
		c-15.8,3.9-11.3,14.4-8.2,24.5c0.8,2.6,1.7,5.2,1.9,8C2.5,1234.9,2.7,1222,0,1210c0-11.3,0-22.7,0-34c0.9,0.4,2.3,1.4,2.6,1.1
		c4.6-4,2.8-17.1-2.6-20.1C0,1149.7,0,1142.3,0,1135z M20.4,1119c-1.1-7.3-0.9-16-9.7-18.2c-4.1-1-5.5,4.9-5.4,8.6
		c0.2,8.3,6.2,13.5,12.8,16.2C21.3,1126.9,18.9,1121.2,20.4,1119z M14.7,1169c6.2-0.4,11.9-1.6,13.7-8.4c0.7-2.5-1.9-2.9-3.7-2.5
		c-6,1.1-11.1,4.2-13.9,9.4C9.6,1169.8,13.4,1168.3,14.7,1169z M11.4,1190.8c4.3-1,9.3-1.7,10.9-6.8c0.7-2.1-2.1-2.1-3.6-2
		c-4.8,0.5-8.5,2.9-10.4,7.2C7.6,1190.8,10,1190.6,11.4,1190.8z"/>
	<path fill="#B5B5B5" d="M870.1,907.8c2.6,2.9,1.9-0.3,1.9-1.1c0.9-14.2,7.8-25.5,17-35.7c0.8-0.9,2.1-1.3,3.1-1.9
		c0.5,1,1.3,1.9,1.5,3c3.2,15.3,0.9,29-11.2,40.1c-10.2,9.4-9.9,17.8,1,29.1c-2.8-9.6-0.4-18,2.6-26.3c0.6-1.6,1.6-3.8,2.9-4.2
		c2.3-0.7,3,2,4.1,3.6c6.8,9.3,6.4,19.5,4.3,30.1c-1.3,6.6-1.2,12.8,6.6,15.6c0,2.7,0,5.3,0,8c-0.6-0.2-1.3-0.4-1.8-0.7
		c-2.6-1.6-4.9-4.5-8.4-2.1c-2.8,1.9-2.9,4.9-2.8,8c0.1,4.6,4,3.4,6.4,4.6c2.3,1.2,4.5,2.8,6.7,4.2c0,1,0,2,0,3
		c-4.3-1.5-8.6-8.1-12.7-3.6c-6.8,7.4-14.9,6.6-23.1,7c0-1.2,0-2.5,0-3.7c10.3,2.8,5.2-4.3,5-8.1c0-1.1-0.9-2.1-1.3-3.2
		c-0.8-2.2-0.9-4.6,2.3-3.5c2.7,1,0.7,4.2,1.3,6.4c0.9,3.1-0.1,6.8,3,9.1c0.5,0.4,2.4,0.1,2.7-0.4c1.8-3.5-2-5.6-2.5-8.5
		c-0.2-1.4-0.1-2.8,0-4.2c0-0.1,1.6-0.4,1.7-0.2c0.6,1.1,1.2,2.3,1.5,3.5c0.5,2.4,0.1,5.2,2.7,6.6c0.6,0.3,2.5-0.9,3.1-1.9
		c1.7-3-1.1-4.8-2.2-7.1c-1-2.1-5.4-3.5-3.1-5.8c2.8-2.8,2.7,3.2,5.7,3.1c0-2.6,3.4-5.1,0.3-7.6c-2.6-2.1-5.9-2.3-9-0.7
		c-3.8,2-7.6,4.1-11.4,6.2c0-2.1,0-4.2,0-6.3c2.9,2.9,5.2,0.8,7.4-1c3.4-2.8,7-3.4,11.2-2.2c3.4,0.9,7.7,6.2,9.8,1.9
		c1.8-3.7-5.2-4-7.8-6.5c-6.6-6.7-8.3-18.7-20.5-19.6C868.8,925.5,869.4,916.7,870.1,907.8z M873.7,914.8
		c14.4-8.6,21.1-22.2,18.4-37.4c-0.2-1.2-0.9-2.3-1.4-3.4c-1,0.8-2.1,1.5-2.9,2.4C878.3,887.3,873.6,899.9,873.7,914.8z
		 M896.1,933.9c0.1-6.9-1.4-11.9-4.2-16.6c-1-1.6-2-3.5-3.7-0.4c-5,9-3.7,25.3,2.9,33.2c0.5,0.6,1.2,1,1.8,1.5
		c0.4-0.6,1.1-1.2,1.2-1.9C894.8,944.1,895.5,938.3,896.1,933.9z"/>
	<path fill="#B5B5B5" d="M868.2,371.6c0.9,4.7,1.8,9.4,2.7,14.1c1.4-14.8,8.1-26.9,18-37.6c0.8-0.9,2-1.6,3-2.3
		c0.6,0.9,1.5,1.8,1.7,2.8c3.5,15.7,1.1,29.7-11.5,41c-9.7,8.7-9.6,16.8,0.7,27.6c-1.3-8.7,0.4-16.3,2.7-23.9c0.7-2.2,1-5.2,3.7-5.4
		c2.6-0.2,3.3,2.9,4.6,4.7c6,8.8,5.7,18.4,3.7,28.3c-1.3,6.7-1.6,13.2,6.6,16.1c0,3,0,6,0,9c-3.3-2.1-6-6.7-10.8-3.2
		c-3.1,2.3-3.7,7.1-1.7,8.9c3.3,3,8.3,4.3,12.5,6.2c0,1.7,0,3.3,0,5c-3.9-2.8-8.4-9-12.6-4.5c-6.9,7.2-14.9,6.6-23.2,6.9
		c0-1.3,0.1-2.5,0.1-3.8c5.2,1.9,6.9-0.1,5.5-5.1c-0.6-2.2-1.4-4.4-2.1-6.7c-0.5-1.5-0.3-2.8,1.3-3.2c1.7-0.4,2.4,0.8,2.5,2.3
		c0.1,1.8,0,3.7,0.4,5.5c0.5,2.8-0.5,6.9,2.9,7.8c3.3,0.9,6.2-2,8.4-4.4c2.8-3.2-0.7-5.3-1.9-7.9c-1-1.9-5-3.6-3-5.5
		c2.9-2.8,2.8,3,5.5,3.1c0.6-2.7,3.7-5.4,0.6-8.1c-2.9-2.5-6.5-1.8-9.8-0.1c-2.2,1.1-4.4,2.3-6.5,3.5c0.5-2.5-2.7-1.2-3-2.9
		c8.2-3.5,16.4-7.6,25.3-1.3c0.4,0.3,1.9-0.9,2.9-1.4c-0.6-0.9-1.1-2.2-1.9-2.6c-3.7-1.5-7.4-2.7-11.2-4c0-0.3,0-0.7,0-1
		c1.2-0.5,4.7,0,3-1.6c-6.3-5.7-7.8-16.9-18.9-17C868.2,398,868.2,384.8,868.2,371.6z M873.8,391.8c14.2-8.4,21.4-23.1,18.4-37.4
		c-0.2-1.2-1-2.2-1.5-3.3c-0.9,0.7-1.9,1.3-2.6,2.1C878.5,364.1,873.3,376.7,873.8,391.8z M896.1,410.7c0.1-6.8-1.5-11.8-4.3-16.5
		c-0.8-1.4-1.7-3.3-3.5-0.5c-5.2,8-3.8,26.4,2.8,33.5c0.5,0.6,1.3,0.9,1.9,1.4c0.3-0.7,0.9-1.3,1-2
		C894.8,420.8,895.5,415.1,896.1,410.7z"/>
	<path fill="#B5B5B5" d="M0,959c6.3-1.5,7.3-6.1,6.4-11.6c-1.9-11.6-3.6-23.2,4.1-33.6c1.1-1.4,1.9-3.8,4-3.1
		c1.2,0.4,2.3,2.3,2.8,3.8c2.8,8.2,4.8,16.6,2.9,25.6c10.2-8.1,10.7-19.3,1.4-27.1c-12.1-10.3-16.7-27.1-11.6-42.2
		c0.3-0.8,1.1-1.4,1.7-2.1c1,0.8,2.2,1.5,2.9,2.5c4.1,5.7,8.3,11.2,11.9,17.2c3.6,6,3.7,13.2,5.2,20.6c3.5-5.6,0.4-12.4,5.2-16.8
		c0,3.7,0,7.3,0,11c0.1,10.4-4.4,20.6-1.1,31c-4.4,0-8,1.4-10.7,5.2c-2.7,3.8-5.9,7.1-8.8,10.7c-2.4,0.8-2.8,2.9-3.3,5
		c-2.4,1.7-6.3,1.7-6.6,5.6c0,0.3,2.7,1.6,3.3,1.1c7.7-5,15-4.8,22.1,1.2c0.7,0.6,2.8-0.6,4.2-0.9c0.3,1.9,0.6,3.8,0.9,5.8
		c-3.9-1.7-7.9-3.4-11.8-5.2c-3.5-1.7-7.4-2.7-10.3,0c-3,2.8,0.5,5.7,0.8,8.8c2.4-1.3,2.6-6,5.1-4.3c2.8,1.9-1.2,3.7-2.3,5.3
		c-4.9,6.9-2.7,11.6,6.7,13.6c-2,0.4-4,0.7-6,1.1c-5.8-6-11.8-9.8-19-2c0-1.3,0-2.7,0-4c2.5-1.2,4.9-3,7.6-3.4
		c4.9-0.8,6.3-3.4,5-7.6C9.8,961,4.7,965.2,0,968C0,965,0,962,0,959z M29.8,912.7c-0.6-14.8-5.7-26.6-14.6-36.8
		c-0.7-0.8-1.7-1.5-2.5-2.3c-0.5,1.1-1.3,2.2-1.5,3.4c-3.1,15.8,4.1,27.3,16,36.6c0.6,0.5,1.4,0.6,2.2,0.8
		C29.6,913.5,29.9,912.6,29.8,912.7z M10,952c8.2-6.4,10.8-21.5,5.7-33.6c-0.5-1.1-1.4-2.1-2.1-3.1c-0.9,1-1.9,1.8-2.6,2.9
		C4.4,929.2,8.3,940.6,10,952z"/>
	<path fill="#B4B4B4" d="M521.9,43.9c-1.1-5.5-5.2-10.4-3.7-16.3c1.2-4.6,3.1-9.8,8.9-9.1c5.8,0.8,5.3,6.4,5.4,10.9
		c0,2.4-0.6,4.8-1.3,9.7c5.6-7.1,15.9-9.1,8.1-19.7c-4.3-5.9-3.4-13,0.7-19.3c3.7,0,7.3,0,11,0c2.1,4.6,2.2,9.5,1.2,17.8
		C556.9,10,560,5,563,0c1.7,0,3.3,0,5,0c-1.4,2.8-2.9,5.5-4.5,8.6c5.5-0.6,10.6-1.5,15.8-1.6c4.3-0.1,8.7,0.9,10.2,5.6
		c1.4,4.7-1.4,8.4-4.8,11.3c-6.1,5-13.3,5.5-19.5,1.2c-7.8-5.4-13-4.1-17.9,3.6c-1.7,2.7-4.8,4.5-9.9,9.2c13.5-4.3,22.7-3,29.7,6
		c-2.1,0-4.1,0-6.2,0c-4.1-6.2-10-6.3-16.3-4.8c-1.4,0.3-2.7,1-4.1,1.4c0.9,1.1,1.7,2.3,2.6,3.4C536,43.8,529,43.9,521.9,43.9z
		 M572.5,23.2c6.6,0,12-2,12.5-7.9c0.4-4.8-5-5.1-8.7-5.1c-6.4,0.1-14.5,0.8-16.3,6.7C559.1,20,568,22.6,572.5,23.2z M550,10.3
		c-0.6-3.5-0.1-8.4-4.4-8.6c-4.5-0.2-5.2,4.9-5.2,8.3c0.1,4.7,1.3,11.9,5.7,11.9C550.2,21.9,548.5,14.3,550,10.3z M529.5,29.7
		c-0.3-2.8,0.5-7.1-3.4-7.1c-3.5,0-4.7,4.2-4.6,7.2c0.1,4,1.1,10.7,4.3,10.5C529.7,40.1,528.4,33.5,529.5,29.7z"/>
	<path fill="#B4B4B4" d="M528,1280c-3-5.5-5.6-11.1-2.7-17.5c1.6-3.4,3.8-6.7,8.2-5.9c4.2,0.8,4.9,4.6,5,8.2
		c0.1,3.3-0.4,6.6-0.6,9.9c8.2-2.7,11.5-9.5,7.6-16.2c-4.5-7.7-1.9-14.9,0.5-22.3c3.4,0,6.8,0,10.2,0.1c2.8,4.7,3,10.1,3.2,17.4
		c4.2-6.9,9.2-10.8,9.6-17.4c2.4,0,4.8,0,7.2,0c-2.4,3.6-4.7,7.1-7.7,11.7c7.3-1.9,13.5-3.9,20-2.4c7.6,1.7,9.8,7.6,5,13.7
		c-4.8,6.1-11.2,8.4-18.6,5.7c-16.4-6-16.4-6.1-28.1,9.9c9.4-2.2,18.1-3.1,24.4,5.3c-1.7,0-3.3,0-5,0c-6.7-4.5-13.3-5.9-20,0
		c-4.3,0-8.7,0-13,0c1.2-5,3.3-9.8,2.6-15c-0.3-1.9-0.6-4.4-3.1-4.5c-2.5-0.1-3.7,2-4.2,4.2c-1.5,5.5,0.8,10.4,2.8,15.3
		C530,1280,529,1280,528,1280z M582.7,1248.2c-6.4,0.9-14.5,0.6-16.7,7.2c-0.8,2.4,8.3,6,13.8,6.1c5.5,0.2,10.9-2.4,11.4-8.3
		C591.5,1248.6,586.1,1249,582.7,1248.2z M546.8,1248.7c0.3,4.3,1,10.9,5.6,11c3.9,0.1,3-6.9,3.2-10.8c0.2-3.4,0.9-9.1-4.2-9.2
		C546.8,1239.6,547.1,1244.7,546.8,1248.7z"/>
	<path fill="#B4B4B4" d="M353.1,1236.2c5.2,8.8,4,16.8-0.8,25.8c-3.9,7.4,6.5,8.1,9.5,13c-0.3-2.8-0.8-5.7-0.7-8.5
		c0.1-4.5,0.4-10.4,6.5-9.8c6.6,0.6,8.3,6.8,8,12.5c-0.2,3.7-2.3,7.2-3.6,10.8c-1,0-2,0-3,0c1.1-4.9,4.2-9.5,2.6-14.9
		c-0.6-2.2-1.6-4.8-4.4-4.5c-2.6,0.3-2.8,2.9-3.1,5c-0.7,5.1,1.3,9.7,2.9,14.4c-4.3,0-8.7,0-13,0c-6.7-5.4-13.3-5-20,0
		c-1.7,0-3.3,0-5,0c6.3-8.4,14.9-7.2,24.8-5.1c-5.2-5.7-9.2-10.8-13.8-15.1c-3-2.8-5.9,0.3-8.5,1.9c-8.1,4.8-16.1,6.5-23.8-0.7
		c-3.1-2.9-4.8-6.6-3.4-10.8c1.3-3.9,5.1-4.5,8.6-5c5.7-0.8,11.2,0.7,18.5,2.6c-3.5-4.7-6-8.2-8.5-11.7c3,0,6.1,0,9.1,0
		c-1.8,7.6,4.7,10.7,8.2,15.6c-0.3-5.6,1.3-10.6,2.7-15.6C346.3,1236.2,349.7,1236.2,353.1,1236.2z M317.2,1248.1
		c-3,1.2-8.7,0-8.6,5.1c0.2,5.7,5.4,8.4,10.7,8.3c5.7-0.1,15.3-3.6,14.5-6.3C332.1,1249.2,323.8,1249.2,317.2,1248.1z M353.1,1248.4
		c-0.4-3.6-0.4-8.5-4.7-8.7c-4.6-0.3-4.7,4.7-4.3,8c0.6,4.4-1.5,11.6,3.5,12.3C350.9,1260.5,352.7,1253.2,353.1,1248.4z"/>
	<path fill="#B6B6B6" d="M205.9,43.8c1.2-5.8-3.4-5.8-6.8-7c-2.9-1-5.8-2.2-8.4-4.6c2.8,0.7,5.7,1.2,8.4,2.3
		c10.9,4.3,17.5,0.2,22-10c3.9-8.9,11.3-14.1,20.6-16.7c1.3-0.4,2.8-0.1,4.2-0.1c0,1.4,0.2,2.9-0.1,4.3c-2.3,8.1-6.9,14.9-13,21.3
		c12.8-0.5,19.1-7.6,17.2-19c-0.8-4.8-1-9.6,0-14.4c1,0,2,0,3,0c-2,5.8-0.5,11.5,0.4,17.2c0.1,0.8,0.9,1.6,1.4,2.4
		c0.7-0.6,1.7-1.1,2.1-1.9C260,11.8,263,5.9,266,0c0.7,0,1.3,0,2,0c-2.3,5.5-4.7,11-7,16.7c0.4,0,0.6,0,0.7-0.1
		C268.1,11,274.6,5.5,281,0c1.3,0,2.7,0,4,0c-4,3.5-8,6.9-11.9,10.4c-0.8,0.7-1.2,1.8-1.7,2.7c0.9,0.3,1.8,0.8,2.7,0.7
		c10.7-0.8,20-4.2,26-13.8c1,0,2,0,3,0c-6.2,11.3-16.4,16.9-28.7,16.2c-9-0.6-12.8,4.9-20.1,10.7c11.7-1.8,20.6,0.6,29.3,3.8
		c1.1,0.4,2.1,1.4,3.1,2.1c-0.9,0.6-1.7,1.5-2.7,1.9c-6,2.5-11.9,5-17.9,7.4c-5.5,0.1-11.5,0.7-16-2.7c-9.8-7.4-18.9-0.9-30.3-0.1
		c4.3,2.2,6.8,3.4,9.3,4.6c-2,0-4.1,0-6.1,0c-1.9-2.8-5.2-3.5-8.1-4.4c-1.7-0.5-3.8,0.1-5.7,0.2c0.3,1.4,0.6,2.7,0.9,4.1
		C208.7,43.8,207.3,43.8,205.9,43.8z M280.9,32.8c-11.6-4.8-22.3-5.6-33.2-1.6c-1,0.4-1.7,1.4-2.5,2.2c0.8,0.8,1.5,1.8,2.4,2.3
		C258.9,42.5,269.5,39.8,280.9,32.8z M242.5,12.9c0-2.3-1-2.6-4.2-1.3c-10.6,4.1-14.7,13.9-20,22.7c-0.9,1.5-0.2,2,1.5,2
		C227.8,36.4,242.4,21.4,242.5,12.9z"/>
	<path fill="#B5B5B5" d="M658,0c0.5,6.8,0.1,13.6-1.4,20.3c-1.6,7,4.9,7.8,8.8,10.2c3.2,1.9,6.9,2.9,13,5.4
		c-9.1-7.4-13.6-14.8-16.1-23.3c-0.4-1.5-0.2-3.2-0.2-4.8c1.6,0.1,3.2-0.2,4.7,0.2c8.4,2.4,14.8,7.3,19.2,14.9
		c8.9,15.5,9,15.5,26.2,10.5c1.7-0.5,3.4-0.9,5.2-1.4c-3,7.1-15.5,0.9-15.2,11.8c-8-5.4-16.1,1.1-24.1,0c2.7-1.2,5.4-2.4,9.3-4.2
		C679,38,672,36.5,664.9,35c-4.7-6.9-29.5-9.2-35.9-3.3c-2.5,2.3,0.3,2.7,1.4,3.3c7.4,3.9,15.3,5.4,23.6,4.9
		c-8.4,4.9-16,1.1-23.6-2.3c-3.2-1.4-6.2-3.4-9.4-5.1c3.4-1.5,6.8-3.3,10.3-4.3c6.5-2,13.2-2.8,21.8-1.3c-6.9-5.7-10.9-12-20.2-10.6
		c-10.8,1.6-23.7-6.8-28-16.3c1,0,2,0,3,0c4.9,9.3,19.6,15.9,29,12.7c-4.8-4.4-9.4-8.5-14-12.7c1.3,0,2.7,0,4,0
		c6.5,5.7,13,11.4,21.8,19c-4.2-7.9-8.3-12.7-8.8-19c0.7,0,1.3,0,2,0c2,7.5,6,14,11.2,21.2c1.9-8,2.8-14.5,1.8-21.2
		C656,0,657,0,658,0z M690.9,36.4c-2.3-3.8-4.5-7.1-6.4-10.6c-3.6-6.7-8.8-11.6-15.8-14.5c-1.1-0.5-3.9-2.4-3.8,1.4
		C665.1,22.9,679.6,36.3,690.9,36.4z"/>
	<path fill="#B5B5B5" d="M192,1280c-2.8-7.4-11.8-4.1-17-10.6c4.6,1.4,7.9,2.4,11.1,3.4c8.6,2.7,15.4,1.7,19.5-7.8
		c3.9-9.3,10.7-15.9,20.7-18.8c1.8-0.5,4.1-2.1,5.4,0c0.7,1.2,0.1,3.5-0.5,5.1c-2.6,7.4-6.4,14.2-12.6,19.8
		c12,0.4,19.5-7.9,17.2-18.6c-1.2-5.5,0-10.9,0-16.4c1.4,0,2.8,0,4.1-0.1c-4.3,6.7-1.5,13.6-0.1,20.2c0.7,3.1,2,0,3-0.4
		c0.7-0.3,1.4-0.7,2.1-1c9-4.6,16.1-11.5,22.8-18.8c2.4,0,4.7,0,7.1,0c-5.4,4.1-10.9,8.1-16.2,12.3c-1,0.8-3.5,2.3,0,3.4
		c8.4,2.6,25.5-7.3,27.1-15.6c1.7,0,3.4,0,5.1,0c-8.5,12.6-19.7,19.5-35.6,18.3c-6.3-0.5-9.2,6.3-17.1,10.7
		c12.7-1.9,21.8-0.2,30.5,3.3c1.2,0.5,2.9,1.2,3.1,2.1c0.4,1.9-1.7,2.1-3,2.6c-5.3,2.3-10.7,4.6-16,6.8c-4,0-8,0-12,0
		c-9.8-7.5-20.4-6.8-31.3-3c-0.7,0.2-1.2,0.7-1.8,1c0.7,0.7,1.5,1.3,2.2,2C204,1280,198,1280,192,1280z M247.8,1266.8
		c-5.5,0.2-11.9-0.3-16.7,4.8c5,4.6,10.9,6.8,17.6,6.1c6.2-0.6,12.2-2.4,17.1-6.7C260.7,1267,254.5,1267.1,247.8,1266.8z
		 M202.8,1274.7c13.5-1.8,20.4-9.9,24.8-21.1c0.5-1.3,0.5-2.8,0.7-4.2c-1.4,0.2-2.9,0.1-4.2,0.6C212.4,1253.9,209,1265,202.8,1274.7
		z"/>
	<path fill="#B5B5B5" d="M664.1,1236.2c-0.4,7.6-1.6,15.3-1,22.8c0.9,11.3,12.1,9.6,18.8,13.6c-7.2-6.2-11.2-14.2-14.2-22.9
		c-1.3-3.6,0.1-5,3.9-3.9c9.3,2.5,16.9,7.6,20.7,16.6c5.1,12.3,13.5,14.2,24.8,9.5c1-0.4,2.1-0.4,4.1-0.7c-4.2,5-12,2.6-14.3,8.9
		c-5.3,0-10.7,0-16,0c1.3-2,0.5-2.5-1.6-3.2c-10.7-3.7-20.9-4.2-30.4,3.2c-4.3,0-8.7,0-13,0c-4.1-1.8-8.2-3.6-12.3-5.6
		c-2.3-1.1-5.9-1-6.2-4c-0.1-0.9,4.2-2.5,6.7-3.2c7.5-2.2,15.1-4.2,25.3-2c-7.1-5.8-10.8-11.8-19.7-11c-11.6,1.1-20.8-4.6-27.9-13.7
		c-1.2-1.6-2.6-3-3.9-4.4c1.7,0,3.4,0,5.2,0c3.5,8.9,17.6,17,27.2,15.7c0.7-0.1,1.4-0.5,2.2-0.8c-0.5-0.8-0.8-1.8-1.5-2.4
		c-5.3-4.2-10.7-8.3-16.1-12.5c2,0,4.1,0,6.1,0c7,6.3,13.9,12.6,20.9,18.9c1.4,1.5,2.4,4.6,4.9,1c1,0.8,2.3,3.2,2.9,0.2
		c1.4-6.7,3.8-13.4,0.1-20.1C661.3,1236.2,662.7,1236.2,664.1,1236.2z M649.5,1266.3c-3.8,0.9-8.5,1.9-13.1,3.1
		c-2.1,0.5-3.8,1.8-0.7,3.4c6.4,3.2,13.1,6.3,20.5,4.7c4.6-1,11.9-2.1,11.8-6.2c-0.1-4-7.5-3.8-12-4.4
		C654.2,1266.6,652.4,1266.5,649.5,1266.3z M696.1,1273.5c-1-7.6-15.1-22.6-22.3-24.4c-2.3-0.6-3-0.3-2.7,2.3
		c1.4,9.3,12.9,21.3,22.3,22.9C694.5,1274.4,696.1,1275.3,696.1,1273.5z"/>
	<path fill="#FDFDFD" d="M0,688c12.6,13.8,23.7,28.6,33.5,44.6c0.8,1.3,2.3,2.2,3.5,3.3c0,8.1,0,16.2,0,24.3
		c-1.7-1.5-3.6-2.8-5.1-4.6C18.3,739.5,9.5,720.5,0,702C0,697.3,0,692.7,0,688z"/>
	<path fill="#FDFDFD" d="M0,166c13.2,12.6,23.1,27.7,32.9,43c1.1,1.6,1.7,3.7,4.1,4c0,8.1-0.1,16.2-0.1,24.3
		c-1.7-1.5-3.6-2.8-5.1-4.5C18.2,217,10.1,197.9,0,180C0,175.3,0,170.7,0,166z"/>
	<path fill="#FDFDFD" d="M904,688c0,4.7,0,9.3,0,14c-1.7,2.8-3.7,5.5-5.1,8.4c-8.3,17.7-18,34.4-30.8,49.2
		c0.9-9.9-2.7-20.3,2.8-29.8c1.3-1.5,2.7-2.9,3.7-4.6C883.3,711.9,892.5,699.1,904,688z"/>
	<path fill="#FDFDFD" d="M870,209c10.4-15.3,20.9-30.7,34-44c0,4.3,0,8.7,0,13c-1,1.9-2.1,3.7-3,5.7c-9,18.9-18.8,37.3-32.8,53.1
		C868.9,227.5,866,218,870,209z"/>
	<path fill="#B5B5B5" d="M37,465c-8.7-0.2-17.6,1.9-24.8-6.4c-3.9-4.5-8.3,1.3-12.2,3.4c0-1.3,0-2.7,0-4c1.6-0.9,3.2-1.8,4.7-2.7
		c2.6-1.5,7.1,0.4,8-4.4c0.6-3.4-0.1-6.4-2.9-8.4c-4-2.9-6.6,1.4-9.8,2.5c0-3,0-6,0-9c6.7-1.5,7.4-6.5,6.4-12
		c-2.1-11.5-3.2-22.9,4.3-33.1c0.9-1.2,2.3-2.1,3.5-3.1c1,1.2,2.4,2.3,3,3.7c3.2,8.3,4.7,16.9,3.2,26.5c5.4-5.5,6.5-12.3,9.7-18
		c1.3,0,2.6,0,3.8,0c-1.1,4,0.5,7.6,1.8,11.2c-6.2,0.5-19.4,13.2-20.5,19.8c-2.5,1.3-5,2.6-7.4,4c-0.7,0.4-1.3,1.4-1.6,2.3
		c-0.1,0.3,1.4,1.5,1.7,1.4c9.1-5.1,17.9-2.2,26.7,1c0.3,0.1,0.9-0.4,1.4-0.6c0.3,1.9,0.6,3.9,0.9,5.8c-4.5-0.5-8-3.1-11.8-5.2
		c-3.4-1.9-7.3-2.8-10.3-0.1c-3,2.8,0.5,5.7,0.7,8.7c2.5-1.1,2.5-6,5.1-4c2.9,2.1-1.7,3.4-2.3,5.3c-0.3,0.9-1.1,1.7-1.6,2.5
		c-1,1.7-2.2,3.5-0.6,5.5c0.7,0.8,1.8,1.1,2.7,1.7c0.8-1.6,1.8-3.1,2.4-4.7c0.4-1,0.2-2.3,0.4-3.4c0.4-2.3,1.7-3.9,3.4-1.4
		c1.5,2.2-0.8,4.3-1.8,6.3c-0.3,0.6-0.8,1.1-1,1.7c-0.3,1.4-0.5,2.8-0.5,4.2c0,0.2,2.2,0.7,2.7,0.3c1-0.9,2-2.2,2.2-3.5
		c0.6-2.9,0.8-5.9,1.2-8.9c0.2-1.5,0.3-3.4,2.4-3.1c2.2,0.4,1.3,2.2,0.9,3.7c-0.7,2.6-1.6,5.1-2,7.7c-0.2,1.1,0.1,2.7,0.8,3.5
		c0.6,0.6,2.2,0.6,3.3,0.4c2-0.5,1-2.1,0.9-3.3c-0.1-2.8-0.5-5.8,2.6-7.4C36.9,455.9,37,460.4,37,465z M9.8,430.2
		c9.5-10.8,9.8-21.8,6.2-33.5c-0.4-1.4-1.7-2.6-2.5-3.9c-1,1.2-2.3,2.3-3.1,3.7C4.3,407.2,8.8,418.1,9.8,430.2z"/>
	<path fill="#B5B5B5" d="M98,0c14.2,12.2,25.9,26.3,33.1,43.9c-2.4,0-4.7,0-7.1,0c1.3-2.2,0.1-4.2-0.7-6.1C118,25.3,109,16,97.9,6.1
		c4.6,14.1,8.9,26.5,16.1,37.7c-4,0-8.1,0-12.1,0c-0.8-1-1.6-2.1-2.5-3C83.6,24.6,64.7,12.4,46,0c3,0,6,0,9,0
		c19.3,11.8,36.2,26.6,55,44.5C101,28.4,96.8,13.8,91,0C93.3,0,95.7,0,98,0z"/>
	<path fill="#B4B4B4" d="M39.1,1236.2c12.6,9.6,26.3,17.8,37.9,28.8c5.1,4.9,11.2,8.9,15.1,15c-2,0-4,0-6,0
		c-16.2-17.3-35.2-30.7-58.7-43.5c14,16.2,25.9,29.9,37.7,43.5c-1.7,0-3.3,0-5,0c-12.2-13.9-24.4-27.7-36.4-41.7
		c-1.6-1.8-4.6-4.2-2.5-6.8c2-2.4,4.9,0.3,7.3,1c2.5,0.7,5,1.7,7.5,2.5c0.4,0.3,0.8,0.6,1.2,0.9C37.8,1235.9,38.4,1236,39.1,1236.2z
		"/>
	<path fill="#B4B4B4" d="M777.1,1236.2c1.9,10.4-2.1,15.2-12.8,15.3c-2.9,0-6.5,4.2-9.4,11.5c2.6-1.3,4.6-2.7,6.8-3.3
		c3.9-1.1,7,0.5,8.6,4c1.4,3,0.2,5.7-2.4,7.4c-3.3,2-6.2,1.4-8.6-1.9c-3.7-5.1-7.5-2.3-10.3,0.7c-2.8,3-4.7,6.8-7,10.2
		c-1.3,0-2.7,0-4,0c4.2-4.6,3.8-8.7-0.4-13.3c-4.6-5.1-5.6-11.2-3.8-18.1c1.4-5.3,0.9-10.6-5.9-12.5c6.4,0,12.8,0,19.1,0
		c-1.2,4.2-2.4,7.9-6.8,10.4c-4,2.3-3.6,7.3-3,11.4c0.6,4.3,3,8.1,6.2,11.1c0.3,0.3,2.1-0.6,2.7-1.3c7.6-9.3,16.1-18.3,15.9-31.5
		C767,1236.2,772,1236.2,777.1,1236.2z M774.5,1241.2c-0.1-2.5-1.3-4.1-3.6-3.9c-3.7,0.2-6.2,2.4-6.7,6.1c-0.3,2.3,0.8,4.5,3.5,4.4
		C771.9,1247.7,773.6,1244.6,774.5,1241.2z"/>
	<path fill="#B4B4B4" d="M367,35c-0.7-0.5-1.5-0.9-1.9-1.5c-7.1-10.1-15.1-15.7-27-6.5c-2.5,1.9-6.2,1.1-9.2,0
		c-6.3-2.2-11.4-6.1-10.6-13.2c0.8-7.4,7.7-6.8,13-6.7c4.2,0,8.4,1.2,12.9,1.9c-1.4-3.1-2.8-6-4.1-9c1.7,0,3.3,0,5,0
		c1.5,5.6,5.3,9.6,9.4,14.9c1.1-6-0.5-10.9,2.6-14.9c3.7,0,7.3,0,11,0c3.6,6.6,4.6,13.6,0.1,19.8c-4.1,5.6-3.2,9.2,1.9,13.1
		c1.4,1.1,2.1,3.3,3.1,5c0,0.8,0,1.6,0,2.3C371.7,37.5,370,35.5,367,35z M332.1,10c-3.8,0.8-9.4-0.1-9.4,5.2c0,5.1,4.5,8.1,9.7,8.1
		c6.1,0,15.8-3,15.2-6.2C346.7,11.6,338.3,10.9,332.1,10z M357.9,11.1c1.3,3.4-1.2,10.2,3.8,10.4c3.8,0.1,5.5-6.4,5.3-11
		c-0.1-3.8-0.2-9-5.1-8.8C357.2,1.9,358.3,7.2,357.9,11.1z"/>
	<path fill="#B5B5B5" d="M771,0c1.8,8-3.6,14.1-11.5,13.8c-7.1-0.3-7.2,6.7-10.5,10.5c4.2-1.6,7.9-4.8,12.6-1.8
		c2.1,1.4,3.5,3.1,3.2,5.7c-0.3,2.5-1.5,4.5-3.9,5.3c-2.3,0.8-4.9,1.1-6.4-1.1c-5.3-7.6-9.5-3.3-13.2,1.4c-2.3,2.9-5,5.9-5.2,10
		c-2.4,0-4.8,0-7.1,0c5.5-3.8,8.8-8,3.1-14.4c-5.1-5.7-7-12.4-3.9-19.8c1.5-3.6-1.8-6.3-1.1-9.6c4.3,0,8.7,0,13,0
		c0.2,3.4-1.6,5.6-4.2,7.4c-7,4.8-6.3,19.4,1.1,23.4c1.8,1,2.5-0.3,3.2-1.3c6.6-9,16.2-16.5,14.9-29.5c2,0,4,0,6,0
		c-1.8,2.5-4.3,4.9-1.9,8.3c1.1,1.6,2.8,1.8,4.4,1c3.8-1.9,5.6-5,4.5-9.3C769,0,770,0,771,0z"/>
	<path fill="#FCFCFC" d="M65,1280c-11.8-13.7-23.7-27.3-37.7-43.5c23.5,12.8,42.5,26.2,58.7,43.5C79,1280,72,1280,65,1280z"/>
	<path fill="#FCFCFC" d="M46,0c18.7,12.4,37.6,24.6,53.4,40.8c0.9,0.9,1.7,2,2.5,3c-6.3,0-12.6,0-18.9,0c-5.9-5.9-15.7-9.3-12.6-21
		c0.9-3.5-2.1-7.5-5.9-7.3C52.8,16.3,49,6.9,43,0C44,0,45,0,46,0z"/>
	<path fill="#B4B4B4" d="M157,1280c-2.2-3.5-3.9-7.5-6.7-10.4c-2.5-2.6-6.3-5.6-9.6-0.9c-2.6,3.8-5.6,4.6-9.3,2.4
		c-3.1-1.9-3.3-5-1.7-7.9c2.2-3.8,5.8-4.8,9.9-3c1.6,0.7,3,1.8,6.7,4.3c-3.4-5.3-5.4-8.4-7.4-11.5c0.3-0.6,0.6-1.3,0.9-1.9
		c4.4,5.4,8.8,10.7,13.3,16.1c0.9,1,1.4,2.9,3.4,1.8c5.6-3,8.5-18.2,3.5-21.5c-4.5-2.9-6.5-6.8-8.3-11.2c5.4,3.4,10.8,0.2,16.1,0
		c-1.9,4.9-3.4,9.7-1.5,15.3c1.6,4.7,0.2,9.7-3.2,13.5c-4.2,4.6-6.1,9.3-2.3,15C159.7,1280,158.3,1280,157,1280z"/>
	<path fill="#B5B5B5" d="M0,795c3.6-3.8,7.8-6.1,12.8-3.4c4.8,2.5,6.6,6.9,5.5,12.2c-0.9,4.1,2.2,6,4.3,8.4
		c5,5.5,8.2,12.4,14.4,16.9c0,2.3-0.1,4.5-0.1,6.8c-3.5-1.3-4-5.2-6.4-7.4c-3.1-2.8-6.7-6.8-10.7-1.7c-2.7,3.4-5.2,5.3-9.2,2.8
		c-3.2-2-4.5-5.1-2.5-8.6c2.4-4.1,6.2-4.8,10.4-3c1.6,0.7,3,1.9,5,2.2c-3.8-4-2.9-12.8-12.9-10.8c-5.6,1.2-7.8-4.7-10.7-8.4
		C0,799,0,797,0,795z M7.3,793.6c-2.5,0.6-4.1,2.1-3.5,4.6c0.8,3.6,2.8,6.7,6.8,6.9c2.8,0.1,4.3-2.3,3.8-4.8
		C13.8,796.4,10.9,794.4,7.3,793.6z"/>
	<path fill="#B5B5B5" d="M0,273c2.9-4.4,6.8-6.6,11.9-4.4c5.1,2.2,7.6,6.4,6.4,12.1c-0.9,4.1,2.2,6.1,4.3,8.4
		c4.9,5.5,8.1,12.6,14.4,16.9c0,2,0,4,0,6c-5.3-1.4-5.3-8.9-11.3-9.8c-2.3-0.3-4.5-1.4-6,1.4c-2.1,3.9-5.3,5.2-9.1,2.8
		c-3-1.8-4.3-4.9-2.5-8.2c2.2-4.1,6-5.1,10.3-3.6c1.8,0.7,3.4,1.9,5.5,2.3c-3.8-4.1-3.6-12-13-10.7c-5.3,0.8-8.2-4.2-10.8-8.4
		C0,276.3,0,274.7,0,273z M7.5,270.7c-2.7,0.5-4.1,2.1-3.7,4.6c0.7,3.6,2.6,6.6,6.8,6.6c2.6,0,4-1.9,3.6-4.3
		C13.7,273.8,10.9,271.8,7.5,270.7z"/>
	<path fill="#B5B5B5" d="M152,0c0.4,10.4,6.3,17.9,12.4,25.7c5,6.4,7.3,5.8,10.2-0.8c0.6-1.4,1.4-2.6,2.1-3.9
		c0.7-1.1,1.4-2.3,2.5-4.2c0.4,2,0.6,3.2,0.8,4.4c-2.5,7.4-13.4,14-2,22.7c-2.1,0-4.1,0-6.2,0c-2.3-4-4.1-8.5-7.1-11.9
		c-2.4-2.7-6.3-6.2-9.9-1.3c-2.7,3.7-5.6,4.6-9.3,2.2c-2.9-1.9-3.6-5-1.8-7.9c2.3-3.7,6-4.6,10-2.8c1.6,0.7,2.9,1.8,4.8,2.2
		c-3.5-4.4-3.7-11.3-12.8-10.8C138.2,14,136,7,136,0c1,0,2,0,3,0c0,4.3,1.3,7.9,5.6,9.5c1.7,0.7,3.3,0.1,4.3-1.5
		c2-3.3-0.6-5.6-2-8.1C148.7,0,150.3,0,152,0z"/>
	<path fill="#B9B9B9" d="M0,484c4.7-2.6,2.1-7.7,4.1-11.3c0.9-1.7,1.5-3.6,2.8-5.2C6,472.9,4.4,478.3,5,483.8c0.2,2,0,4.7,2.3,4.9
		c2.9,0.2,2.2-2.9,2.4-4.6c0.5-4.6,0.9-9.1,4.3-14.4c-1.1,6-2.1,10.5-2.7,15.1c-0.3,2.3-0.9,6.1,1.8,6.5c2.8,0.4,1.9-3.5,2.8-5.5
		c0.5-1.2,0.7-2.5,1.2-4.5c2.5,4.8-4.7,13,4.3,13.4c6,0.2,3.3-7.9,6.8-12.4c-0.4,3.4-0.8,5.8-1.1,8.2c-0.2,1.7-1.9,3.9,0.6,4.8
		c2.5,0.9,3.9-1.1,4.8-3.3c1.2-3.1,2.2-6.2,3.3-9.4c0,4.8,0.1,9.5,0.1,14.3c-8.7-0.9-7.3,8.2-11.5,11.5c-7.8,6-2.1,7.9,2.8,9.7
		c2.7,1,5.8,1.1,8.8,1.5c0,0.8-0.1,1.5-0.1,2.3c-2.6-0.3-6,0.4-7.7-1c-8.7-6.8-18.4-4.9-28.1-4.2c0-1,0-2,0-3
		c8.8,0.2,17.4-0.5,23.3-8.3c2.7-3.6,3.7-6.7-2.8-8.3c-6.3-1.5-11.8-4-13.3,6C7.8,491.7,6.7,489.8,0,491C0,488.7,0,486.3,0,484z"/>
	<path fill="#B6B6B6" d="M0,1037c8.4,0.1,16.8-0.5,22.7-7.5c3.4-4,4.8-8.5-2.7-9.1c-7.3-0.6-12.6-6.6-20-6.4c0-2.3,0-4.7,0-7
		c4.5-1.8,1.2-6.9,4.4-9.7c0.9,4.3-2,8.7,1,12.4c0.7,0.8,1.7,1.4,2.5,2.1c0.5-1,1.3-1.9,1.4-2.9c0.6-5.4,1.1-10.9,4.6-16.7
		c-1,6-2,10.9-2.6,15.9c-0.3,2.2-0.4,5.7,2,6.1c2.9,0.4,1.5-3.3,2.4-5c0.8-1.5,1-3.4,1.6-5.7c2,5-4.5,12.9,3.5,13.9
		c7.3,1,3.6-8.5,7.8-12.7c-0.6,3.4-1.2,5.8-1.3,8.4c-0.1,1.8-2.3,4.6,1,5.4c2.5,0.6,3.6-1.8,4.5-3.9c0.9-2.3,2-4.6,3-6.9
		c0.1,4.1,0.1,8.2,0.2,12.3c-8.5-0.7-7.4,8.1-11.6,11.5c-8.8,7.3-0.7,8.1,3.6,10c2.3,1,5.2,0.9,7.8,1.2c0,0.8,0,1.6,0,2.4
		c-2.6-0.3-5.9,0.2-7.8-1.2c-8.7-6.7-18.3-5.1-28-4C0,1039,0,1038,0,1037z"/>
	<path fill="#B5B5B5" d="M95,1280c-7.2-11.4-11-24.2-16-36.5c-1.1-2.6-2.7-4.9-4-7.3c3,0,6.1,0,9.1,0c2.5,7.6,9.8,11.2,14.8,16.7
		c7.3,8.1,12.9,16.8,16.1,27.2c-1.3,0-2.7,0-4,0c-5.2-13.9-14.4-24.8-26.6-35.2c3.3,13.4,9,24.1,13.6,35.2C97,1280,96,1280,95,1280z
		"/>
	<path fill="#B7B7B7" d="M904,490c-7.8-0.3-9.6,4.2-7.7,11.7c-2.8-2.4-1.8-7.6-6.4-6c-3.9,1.4-9.8,0.6-11.3,4.7
		c-1.6,4.2,2.7,7.5,6.2,9.8c5.8,3.9,12.5,4.1,19.2,3.9c0,1,0,2,0,3c-12.9-4.5-23.9,3.3-35.8,5.5c0-0.9,0-1.8-0.1-2.7
		c2.4-0.4,5-0.4,7.3-1.2c3.1-1,8.4-4.3,7.4-5c-5.8-4.5-5.1-14-13-16.5c0.4-1.1,0.8-2.1,1.2-3.2c1.6,1.2,3.4,2.9,5.2,1.4
		c0.7-0.6,0.2-3,0-4.6c-0.3-2.6-0.8-5.1-1.4-8.8c4.4,4.4,0.4,13.7,7.9,12.8c8.4-1,1.3-8.5,3.1-12.7c2.9,2.6,1.3,10,4.4,9
		c4.1-1.3,0.7-7.6,1.7-11.7c0.4,0.3,0.7,0.4,0.9,0.6c2.1,2.7-0.4,9.2,3,8.5c4.2-0.9,1.7-6.9,2.2-10.7c0.2-1.7,0-3.5,0-5.5
		c4.8,2.7-0.7,10.2,5.9,11.8C904,486,904,488,904,490z"/>
	<path fill="#B7B7B7" d="M480.1,1266c-3.7,5.3,4.9,2.8,3.5,6.8c-4.1-1.1-8.3-4.1-13.6-2.5c1.1,2,2.1,3.9,3.2,5.8
		c-6.9-4.8-13.3-7.7-16.1,4c-0.7,0-1.3,0-2,0c2.8-6.3-1.7-7.6-6.2-8.9c0.4-0.3,0.8-0.7,1.2-1c8.4-0.3,4.7-8.7,8.3-12.3
		c1.7,4.3-3.8,11.1-0.1,11.9c6.7,1.4,4.5-7.6,8.9-11.9c-0.6,3.1-1.1,5.1-1.5,7.1c-0.3,1.5,0,3.1,2,1.8c5-3.4,7.8-8.4,7-14.5
		c-0.7-6-4-10.9-10.4-10.9c-7.6-0.1-14.8-0.8-21.3-5.1c8.4,0.2,16.8,0.5,25.1,0.7c9.8,8.3,12.6,17.9,3.8,30.7
		c3.6-1.4,5.3-2.1,7.1-2.8C479.3,1265.2,479.7,1265.6,480.1,1266z"/>
	<path fill="#FCFCFC" d="M98,1280c-4.6-11.1-10.4-21.8-13.6-35.2c12.3,10.4,21.4,21.3,26.6,35.2C106.7,1280,102.3,1280,98,1280z"/>
	<path fill="#FCFCFC" d="M904,1122c-3.4,2.3-7,4.5-10.3,7c-2.7,2-4.6,1.6-6.9-0.6c-2.5-2.4-2.3-4.3-0.5-6.9
		c4.9-7.1,9.4-14.6,17.7-18.5C904,1109.3,904,1115.7,904,1122z"/>
	<path fill="#B9B9B9" d="M431,0c-3,5.2-4.7,10.7-2.3,16.6c0.7,1.7,2.5,4.1,3.7,4.1c2.5,0,1.2-2.9,1.6-4.5c0.6-2.2,1-4.4,2.2-6.5
		c-2,9.8,1.9,19.3,1.4,29.6c-2.2-8.4-7.7-4.7-12.2-4c-0.5-5.2,10.6-0.4,6.7-8.2c-1.5-3.1-4-3.7-7.5-1.4c0.6-2.8,5.4-6.2-1.1-5.9
		c-2.7,0.1-5.4,1-8.2,1.6c1.2-5,10.3-0.7,8.5-7.6c-1.4-5.5-7.1-1.4-11.2-3.8c9.5,0.6,7.9-4.7,6.3-10.1C423,0,427,0,431,0z"/>
	<path fill="#FCFCFC" d="M904,1215c-7.2-4.5-12.5-10.7-17-17.8c-1.6-2.5-3.2-4.4-0.1-7.2c3-2.7,5.2-2.6,8.2-0.3
		c2.7,2.1,5.9,3.5,8.9,5.3C904,1201.7,904,1208.3,904,1215z"/>
	<path fill="#B5B5B5" d="M904,688c-11.5,11.1-20.7,23.9-29.3,37.3c-1.1,1.6-2.5,3.1-3.7,4.6c-0.7-1-1.4-2-2.1-3c1.1-2,2.2-4,3.3-6.1
		c7.7-14.8,22.1-25.2,26.9-41.9c2.4,3.5,3.4-0.3,5-0.9C904,681.3,904,684.7,904,688z"/>
	<path fill="#B6B6B6" d="M0,180c10.1,17.9,18.2,37,31.8,52.7c1.5,1.7,3.4,3,5.1,4.5c0,1.6,0.1,3.2,0.1,4.8c-11-7-17-18.2-23.7-28.7
		C8.5,205.8,4.4,197.8,0,190C0,186.7,0,183.3,0,180z"/>
	<path fill="#B6B6B6" d="M0,702c9.5,18.5,18.3,37.5,31.9,53.6c1.4,1.7,3.4,3,5.1,4.6c0,1.6,0,3.1,0.1,4.7
		c-11.4-7.4-17.5-19.3-24.5-30.2C7.9,727.4,4.1,719.6,0,712C0,708.7,0,705.3,0,702z"/>
	<path fill="#B5B5B5" d="M868.1,759.7c12.8-14.8,22.5-31.6,30.8-49.2c1.4-3,3.4-5.6,5.1-8.4c0,3,0,6,0,9
		c-10,17.7-18.8,36.2-33.3,51.1c-0.8,0.8-1.6,1.6-2.5,2.5C868.2,762.9,868.2,761.3,868.1,759.7z"/>
	<path fill="#B5B5B5" d="M868.1,236.7c14-15.8,23.9-34.1,32.8-53.1c0.9-1.9,2-3.8,3-5.7c0,3.3,0,6.7,0,10
		c-10.1,19.3-20.7,38.3-35.8,54.3C868.1,240.4,868.1,238.6,868.1,236.7z"/>
	<path fill="#B6B6B6" d="M480.1,1266c-0.4-0.4-0.8-0.9-1.1-1.3c9.8-7.7,9.3-16.9,4.1-26.8c1.2-3.4,4-1.3,6.1-1.8
		c-0.6,2.3,0.6,3.9,2.2,5.1c13.4,10,14.5,21.5,3.3,34.5c-1.2,1.4-2.4,2.8-3.6,4.1c-1,0-2,0-3,0c3.3-4.5,6.9-8.9,9.7-13.7
		c1.4-2.4,2-5.7,2.1-8.6c0.3-5.3-1.4-11.4-6.8-11.5c-3.4-0.1-2.4,6.9-4,10.6c-1.1,2.4-4.5,6.8,2.8,7.5
		C487.5,1264.9,483.3,1262.9,480.1,1266z"/>
	<path fill="#B8B8B8" d="M489,0c0.7,1.1,1.2,2.7,2.3,3.2c12.5,5.2,11.9,15.2,9.6,25.8c-0.8,1.2-1.7,2.5-2.5,3.7
		c-0.1,0.1-0.3,0.1-0.6,0.1c-1.7-2.1-0.2-4,0.6-5.8c1.5-3.6,2.1-7.4,1.1-11.2c-0.9-3.5-2.8-7.2-6.6-7.2c-3.4,0-1.9,4-2,6
		c-0.2,3.8-8,7.9,0.8,11.7c-4.2,1.2-8.9-1.7-12,2.4c-0.1,0.1-0.8-0.2-1.3-0.3c0.2-0.7,0.1-1.8,0.6-2.1c10.2-7.4,9.3-16.5,4.1-26.3
		C485,0,487,0,489,0z"/>
	<path fill="#FAFAFA" d="M904,1232c-6.7-2.5-11.5-6.4-12.8-14.3c-1.4-8-7.2-14.2-9.9-21.9c5.9,12.3,21.7,17.6,22.8,33.2
		C904,1230,904,1231,904,1232z"/>
	<path fill="#FBFBFB" d="M623,0c4.6,4.2,9.2,8.4,14,12.7c-9.4,3.2-24.2-3.5-29-12.7C613,0,618,0,623,0z"/>
	<path fill="#FBFBFB" d="M300,0c-6,9.6-15.3,13.1-26,13.8c-0.9,0.1-1.8-0.5-2.7-0.7c0.6-0.9,1-2,1.7-2.7C277,6.9,281,3.5,285,0
		C290,0,295,0,300,0z"/>
	<path fill="#B9B9B9" d="M904,1014c-4.1-1.4-6.2,0.9-9.1,3.5c-2.5,2.2-7.2,1.9-10.9,2.7c-1.9,0.4-3.9,0.7-5.8,1c0,0-0.3-0.2-0.3-0.2
		c-1.3-0.7-2.6-1.3-4-2c6.5-1.8-0.4-6.7,2.1-9.4c2.7,2.5,0.9,9.1,6.5,8.2c6.8-1,2-7.1,3.6-11c1.2,2.9,2.2,5.4,3.3,8.4
		c4.2-4.6,1.4-9.3,3.1-13.9c0.4,2.4,0.8,4.7,1.3,7.1c0.3,1.3-0.5,3.6,1.7,3.4c0.8-0.1,2-2.2,2.1-3.4c0.4-5.6,0.8-11.2-1.2-16.7
		c2.9,3.7,3.8,7.9,4.3,12.3c0.2,2,0.2,3.9,3.1,3.1C904,1009.3,904,1011.7,904,1014z"/>
	<path fill="#B8B8B8" d="M468,0c10.2,7.5,11.7,14.1,6.6,25.7c-2.2,5-3.4,10.4-6.9,15.2c1.7-6,2.7-12.2,5.1-17.9
		c5-11.5-0.3-20.2-12.8-20.2c-4.2,0-8.8,1.3-12-2.8C454.7,0,461.3,0,468,0z"/>
	<path fill="#FCFCFC" d="M266,0c-3,5.9-6,11.8-9.1,17.7c-0.4,0.8-1.4,1.3-2.1,1.9c-0.5-0.8-1.3-1.5-1.4-2.4
		C252.5,11.5,251,5.8,253,0C257.3,0,261.7,0,266,0z"/>
	<path fill="#FBFBFB" d="M655,0c1,6.7,0.1,13.2-1.8,21.2C648,14,644,7.5,642,0C646.3,0,650.7,0,655,0z"/>
	<path fill="#B9B9B9" d="M878.2,1021.2c-0.1,9,7.4,15.1,19.3,15.7c2.2,0.1,4.3,0.1,6.5,0.1c0,0.7,0,1.3,0,2
		c-0.2,0.1-0.3,0.2-0.5,0.2c-12.6-2.6-23.7,3.5-35.3,6.2c0-0.9,0-1.8,0-2.8c3.8-0.4,7.7-0.4,10.9-2.8c1.6-1.2,6.4-1.9,3-4.9
		c-4.4-3.9-6.2-8.8-8.3-13.8c1.4,0,2.8-0.1,4.2-0.1C877.9,1021,878.2,1021.2,878.2,1021.2z"/>
	<path fill="#FAFAFA" d="M659,1280c9.4-7.4,19.7-6.9,30.4-3.2c2.1,0.7,3,1.2,1.6,3.2C680.3,1280,669.7,1280,659,1280z"/>
	<path fill="#FBFBFB" d="M210,1280c-0.7-0.7-1.5-1.3-2.2-2c0.6-0.4,1.2-0.8,1.8-1c10.9-3.8,21.5-4.5,31.3,3
		C230.7,1280,220.3,1280,210,1280z"/>
	<path fill="#FAFAFA" d="M904,1100c-6.9,1.4-10.2,7.6-16.7,12.5c4.7-9.7,5.5-19.9,16.7-22.5C904,1093.3,904,1096.7,904,1100z"/>
	<path fill="#B6B6B6" d="M180.1,21.2c-0.2-1.2-0.4-2.3-0.8-4.4c-1.1,1.9-1.8,3.1-2.5,4.2c0.5-6,0.4-11.5-6.3-14.7
		c-1.8-0.9-2.4-4.1-3.5-6.3c4.7,0,9.3,0,14,0C176.6,6.9,183,14.2,180.1,21.2z"/>
	<path fill="#B9B9B9" d="M413.1,1236.2c-9.6,6.3-11.6,14.3-5.4,24.2c3.8,6.1,6.3,12.7,8.3,19.6c-1,0-2,0-3,0
		c-2.4-6.9-4.6-13.8-8.4-20.2c-4.2-7-4.8-14.1,1.2-20.7c0.9-1,1.4-1.9,0.2-3C408.3,1236.2,410.7,1236.2,413.1,1236.2z"/>
	<path fill="#F9F9F9" d="M865,0c-2.9,3.4-6.1,6.6-8.7,10.2c-3.9,5.4-8.5,6.9-15.6,3.7C848.1,9.1,855,4.5,862,0C863,0,864,0,865,0z"
		/>
	<path fill="#FAFAFA" d="M367,1280c-1.6-4.7-3.6-9.3-2.9-14.4c0.3-2.1,0.5-4.7,3.1-5c2.9-0.3,3.8,2.3,4.4,4.5
		c1.5,5.3-1.5,10-2.6,14.9C368.3,1280,367.7,1280,367,1280z"/>
	<path fill="#F9F9F9" d="M531,1280c-1.9-4.9-4.3-9.8-2.8-15.3c0.6-2.2,1.8-4.3,4.2-4.2c2.5,0.1,2.8,2.6,3.1,4.5
		c0.8,5.3-1.4,10.1-2.6,15C532.3,1280,531.7,1280,531,1280z"/>
	<path fill="#BABABA" d="M410,0c-7,6.8-7.3,14.1-2.4,22.5c3.2,5.5,5,11.7,7.9,18.7C405,34.1,400,9.6,406,0C407.3,0,408.7,0,410,0z"
		/>
	<path fill="#FAFAFA" d="M640,0c0.5,6.3,4.6,11.1,8.8,19C640,11.4,633.5,5.7,627,0C631.3,0,635.7,0,640,0z"/>
	<path fill="#F9F9F9" d="M281,0c-6.4,5.5-12.9,11-19.3,16.6c-0.1,0.1-0.3,0.1-0.7,0.1c2.4-5.6,4.7-11.1,7-16.7
		C272.3,0,276.7,0,281,0z"/>
	<path fill="#B9B9B9" d="M379,1280c0.8-4.3,1.3-9.5,6.9-9.3c5.1,0.2,6.1,4.8,6.1,9.3C387.7,1280,383.3,1280,379,1280z"/>
	<path fill="#BBBBBB" d="M507,1280c0.9-4.3,1.6-9.5,7-9.3c5.2,0.2,6.1,4.8,6,9.3C515.7,1280,511.3,1280,507,1280z"/>
	<path fill="#FBFBFB" d="M357,0c-3.1,4-1.6,8.9-2.6,14.9c-4-5.3-7.8-9.3-9.4-14.9C349,0,353,0,357,0z"/>
	<path fill="#FAFAFA" d="M904,1186c-2.8-2-7.5-3.6-8-6c-1-5.1,2-8.5,8-7C904,1177.3,904,1181.7,904,1186z"/>
	<path fill="#F9F9F9" d="M147,0c1.4,2.5,4,4.8,2,8.1c-1,1.6-2.6,2.1-4.3,1.5C140.3,7.9,139,4.3,139,0C141.7,0,144.3,0,147,0z"/>
	<path fill="#F5F5F5" d="M904,1146c-4.3,1.4-7.5,0-8-4.5c-0.7-5.6,4.1-6.2,8-7.5C904,1138,904,1142,904,1146z"/>
	<path fill="#FBFBFB" d="M768,0c1.1,4.3-0.7,7.4-4.5,9.3c-1.6,0.8-3.3,0.6-4.4-1c-2.4-3.4,0.1-5.8,1.9-8.3C763.3,0,765.7,0,768,0z"
		/>
	<path fill="#FAFAFA" d="M904,106c-5-4.2-3.5-10.6-5.1-15.9c-0.9-3.1,3-3.2,5.1-4.1C904,92.7,904,99.3,904,106z"/>
	<path fill="#FBFBFB" d="M334,1280c6.7-5,13.3-5.4,20,0C347.3,1280,340.7,1280,334,1280z"/>
	<path fill="#F2F2F2" d="M546,1280c6.7-5.9,13.3-4.5,20,0C559.3,1280,552.7,1280,546,1280z"/>
	<path fill="#B4B4B4" d="M899.8,797.7c-0.1-1.9-0.6-4-3.1-4c-4.1,0.2-6.8,2.6-7.5,6.6c-0.5,2.5,0.6,4.9,3.6,4.8
		C897.1,805,898.8,801.8,899.8,797.7z"/>
	<path fill="#B4B4B4" d="M868.1,236.7c0,1.9,0,3.7,0,5.6c0,20.5,0,41.1,0,61.6c4.8-9.3,17.5-13,16.7-26.2
		c-0.3-5.6,4.1-10.3,10.8-9.9c5.1,0.3,8.3,3.5,7.1,8.7c-1.3,6.2-4.8,10.6-12.1,9.9c-8-0.9-7.5,7.3-12.2,10.6c3.1,1.5,4-0.8,5.4-1.6
		c4.4-2.4,8.2-1.4,11,2.4c2.2,3,1.2,6.1-1.7,8.3c-4,3-7.2,1.6-9.5-2.4c-1.7-2.9-4.2-2.3-6.5-1.3c-5.8,2.7-9,7.5-9.1,13.7
		c-0.2,18.5,0,37,0.1,55.4c0,13.2-0.1,26.5-0.1,39.7c0.3,8.4-4.5,20.4,12.3,17.2c1.1-0.2,2.4,0.9,3.6,1.4c0,0.3,0,0.7,0,1
		c-14-2.5-17.8-0.1-15,9.2c0.3,1.7,3.5,0.4,3,2.9c-2.4,0.4-3.9,1.7-3.9,4.3c0,4.8,0.1,9.6,0.2,14.4c0,1.3-0.1,2.5-0.1,3.8
		c0,8.5-0.1,17.1-0.1,25.6c-0.3,0-0.6,0-0.9,0c-0.1-86-0.1-172.1-0.2-258.1c0-62.9-0.1-125.9-0.2-188.8c3.1,3-1.7,9,4.1,10.9
		c0.3,1.1,0.6,2.1,1,3.2c-6.5,0.5-3,5.4-3.7,8.4c-0.1,1.8-0.1,3.7-0.2,5.5c0,43.8,0,87.7,0.1,131.5c0.6,1.8,1.2,3.6,1.9,5.4
		C866,218,868.9,227.5,868.1,236.7z M899.7,275.1c-0.3-2.4-1.1-4.6-3.6-4.2c-3.8,0.6-6.8,2.7-7,7.1c-0.1,2.5,1.2,4.5,3.8,4.2
		C897.2,281.9,898.8,278.6,899.7,275.1z"/>
	<path fill="#B4B4B4" d="M374.9,38c0-2.8,0-5.6,0.1-8.5c0.3-4.8-0.2-10.9,6.3-11c6.1-0.1,7.4,5.8,8.3,10.7c0.5,2.8,0.7,7.4-2.6,7.5
		c-3.3,0.1-0.7-4-1-6.1c-0.5-3.4-0.8-7.8-4.5-7.8c-4.1-0.1-2.9,4.6-3.6,7.5c-1.2,4.2,2.9,9.2-1.8,12.8C374.1,41.8,378.2,39,374.9,38
		z"/>
	<path fill="#BBBBBB" d="M374.9,38c3.2,1-0.8,3.8,1.3,5.1c0,0.2-0.1,0.5-0.1,0.7c-3.7,0-7.4,0-11.1,0c0.6-1.4,4.4-3.1,0.4-4.2
		c-6.6-1.8-13.6-2.9-18.3,4.3c-1.7,0-3.4,0-5.1,0c4.4-8.1,11.4-9.7,19.9-8.3c1.5,0.3,3.9,3.1,5.1-0.6c3,0.5,4.7,2.5,6.1,5.2
		c0-0.8,0-1.6,0-2.3C373.7,37.9,374.3,37.9,374.9,38z"/>
	<path fill="#BABABA" d="M502.1,43.8c-1,0-2.1,0-3.1,0.1c0.2-4.6,2.3-8.1,6-10.9c9.4-1.7,8.7,5,9.1,10.9c-1,0-2.1-0.1-3.1-0.1
		c-0.8-2.4,1-6.7-3-6.9C503.9,36.6,502.9,40.5,502.1,43.8z"/>
	<path fill="#FBFBFB" d="M884.6,48.2c0.1-5.4,0.9-10.1,3.4-14.4c1.5-2.6,3.1-5.8,6.5-5.2c3.8,0.7,4.8,4.5,5,7.8
		c0.6,8.8-5.5,14-12.1,17.1C883.7,55.2,885.6,49.7,884.6,48.2z"/>
	<path fill="#FBFBFB" d="M867.3,36.8C857.2,34,849,32,841,29.6c-2.7-0.8-4.5-3.2-3.9-6.2c0.7-3.4,3.8-3.7,6.4-3.3
		C853.4,21.5,860,27.6,867.3,36.8z"/>
	<path fill="#FBFBFB" d="M868.2,66.6c0.7-3.1-2.8-8,3.7-8.4c0.8,0.5,1.7,1,2.5,1.5c3.9,2.7,12.5,5.3,10.1,8.5
		C881.3,72.7,873.5,70.7,868.2,66.6z"/>
	<path fill="#FAFAFA" d="M890.7,97c-6.5-0.5-12.5-1.4-14.2-8.7c-0.5-2,1.9-2.6,3.6-2.3c6.1,1.1,11.4,4.2,14.2,9.7
		C895.2,97.5,891.7,96.2,890.7,97z"/>
	<path fill="#F9F9F9" d="M893.3,118.3c-4.6-0.4-9.2-1.3-10.6-6.5c-0.5-2,2.3-1.9,3.9-1.8c4.8,0.2,8.3,3,10.1,7
		C897.6,119,894.5,117.7,893.3,118.3z"/>
	<path fill="#FDFDFD" d="M890.4,1230.2c-0.5,2.5-0.5,6.8-1.7,7.2c-3.1,0.9-5-2.5-7-4.5c-8-7.9-10.7-18.1-12.2-28.8
		c-0.4-2.9,1.3-3.8,3.4-4.6c2.1-0.9,4.1-1.4,5.7,1C884.8,1209.4,890.5,1218.5,890.4,1230.2z"/>
	<path fill="#FDFDFD" d="M870.1,1118.9c-0.1-14.6,4.8-26.9,16-36.5c3-2.6,3.9-1.2,4.2,1.9c1.7,13.6-4.1,24.6-12,34.8
		C875.8,1122.3,872.9,1117.7,870.1,1118.9C870.1,1118.8,870.1,1118.9,870.1,1118.9z"/>
	<path fill="#BEBEBE" d="M870.1,1168.2c0.7-0.7,1.3-1.5,2-2.2c3,0.5,5.1,5.5,8.6,2.1c1.9-1.8,2.8-4.2-0.4-6.7
		c-5.4-4.2-6.2,1-8.3,3.7c-1.2,0.3-2.4,0.7-4.9,1.4c4.2-5.1,1.4-9.8,2-14.3c3.8,2.8,7,3,9.1-2c0.3,0.6,0.5,1.2,0.8,1.9
		c-1.7,3.3-1.2,5.6,2.4,7.6c4.6,2.5,4.4-2.5,6.6-3.7c4.1,4.4,6.2,8.8-0.1,13.2c0.5,2.3,5.2,1.9,3.8,5.3c-1.3,3.3-4.7-0.3-6.6,1.5
		c-2-0.6-4.3-2.9-6,0.1c-0.9,1.6-2,3.8-1.6,5.3c0.3,1.2,3.2,2.9,4.3,2.5c3.3-1.2,3.7-4.6,4.1-7.7c5.8,4.1,0.3,7.8-0.5,11.5
		c-0.4,1.9-1.8,4.2-4.6,2.3c0.6-3.4-1.7-5.7-4.2-5.6c-4.4,0.1-4.1,4.9-5.7,7.7c-4.2-4.6,0.1-10.6-2.6-15.4c2.2,0.6,4,3.9,6.5,1.5
		c1.4-1.3,2.8-4,2.4-5.5C876.3,1169.6,873,1168.8,870.1,1168.2z"/>
	<path fill="#FBFBFB" d="M868.1,1105.6c0-7.8,0.1-15.5,0.1-23.2c2.2-1.9,3.5-7.4,6.3-5.5c3.1,2.1,3.9,7.6,1.5,11.3
		C872.5,1093.6,870.2,1099.6,868.1,1105.6z"/>
	<path fill="#F5F5F5" d="M866.1,1236.2c0.3-0.1,0.5-0.2,0.8-0.2c2.7-6.3,0.1-13.1,2.1-22.1c0.3,9.5,7.9,14.5,4.9,22.4
		c-0.9,2.4-0.2,6.6-3.1,6.6C867.8,1242.9,866.6,1239.2,866.1,1236.2z"/>
	<path fill="#F9F9F9" d="M870.8,1192c1.6-2.9,1.3-7.6,5.7-7.7c2.6-0.1,4.8,2.2,4.2,5.6C878.2,1193.9,875.3,1196.7,870.8,1192z"/>
	<path fill="#FBFBFB" d="M870.1,1168.2c3,0.6,6.2,1.4,7.1,4.4c0.4,1.5-1,4.2-2.4,5.5c-2.5,2.4-4.3-0.9-6.5-1.5
		C867.9,1173.6,867.9,1170.7,870.1,1168.2z"/>
	<path fill="#FAFAFA" d="M887.9,1155.8c-2.2,1.2-2,6.2-6.6,3.7c-3.6-1.9-4.1-4.2-2.4-7.6C883.8,1148.8,886,1151.8,887.9,1155.8z"/>
	<path fill="#F9F9F9" d="M878,1150.1c-2,5.1-5.3,4.8-9.1,2c-1.4-3.3-0.2-6.8,2.7-7.2C874.1,1144.5,878,1145.8,878,1150.1z"/>
	<path fill="#FAFAFA" d="M872,1165c2.1-2.7,2.9-7.8,8.3-3.7c3.2,2.4,2.3,4.8,0.4,6.7c-3.5,3.4-5.6-1.6-8.6-2.1
		C872,1165.6,872,1165.3,872,1165z"/>
	<path fill="#F8F8F8" d="M876.9,1136.2c2.4,1.2,5.6,1.7,5.6,5c0,1.8-1,4.5-3.4,4.1c-2.4-0.4-5.6-1.2-5.8-4.4
		C873.2,1139,874.5,1137,876.9,1136.2z"/>
	<path fill="#F8F8F8" d="M886.7,1133.6c-0.5,1.8-0.9,4-2.9,3.6c-2.5-0.5-5.6-1.4-5.8-4.4c-0.1-1.8,0.9-5,3.3-4.7
		C884,1128.3,885.9,1130.8,886.7,1133.6z"/>
	<path fill="#FAFAFA" d="M885.9,1176.1c-0.4,3.1-0.8,6.5-4.1,7.7c-1.1,0.4-4-1.3-4.3-2.5c-0.4-1.5,0.6-3.7,1.6-5.3
		c1.8-3,4-0.8,6-0.1C885.3,1175.9,885.6,1176,885.9,1176.1z"/>
	<path fill="#F9F9F9" d="M886.7,1142c2,1.4,5.3,1.8,4.8,5.3c-0.2,1.7-0.9,4.3-3.1,3.7c-2.4-0.7-6-1.2-5.6-5
		C883.1,1144.1,884,1142.1,886.7,1142z"/>
	<path fill="#F8F8F8" d="M869,1129.2c0-0.7,0.1-1.4,0.1-2.1c2.1-1.4,2.6-6.1,6.8-3.2c2.3,1.6,2.1,3.5,0.9,5.6
		C874.1,1134.1,871.6,1129.5,869,1129.2z"/>
	<path fill="#B6B6B6" d="M36.9,368.2c0,4,0,7.9,0,11.9c-1,6.6-2,13.2-3,19.9c-1.3,0-2.6,0-3.8,0c-1.6-2.3-2.7-5.2-4.8-6.8
		C11.1,381.9,5.1,367.9,9.8,350c0.4-1.5-0.4-3.9,1.8-4.1c1-0.1,2.4,1.5,3.3,2.6c9,10.4,16.2,21.6,16.3,37.6
		C35.5,379.6,32.3,372.7,36.9,368.2z M10.2,360.2c0.9,13.9,7.4,23.2,17.2,30.5c0.5,0.4,1.4,0.4,2.2,0.5c0.1-1,0.4-2,0.3-2.9
		c-1.2-10.7-3.5-21.1-10.5-29.7c-2.2-2.7-3.3-6.6-7.2-7.8C11.4,354.4,10.7,357.9,10.2,360.2z"/>
	<path fill="#FBFBFB" d="M654,40c-8.3,0.6-16.2-1-23.6-4.9c-1.1-0.6-4-1-1.4-3.3c6.4-5.9,31.2-3.6,35.9,3.3
		C661.3,36.7,657.6,38.3,654,40z"/>
	<path fill="#FCFCFC" d="M19.1,46.7c-1.1,2.6-0.4,8.4-2.4,7.3c-6.5-3.4-13-8.2-13-16.9c0-3.8,1.4-9.6,5.6-8.4
		C17.7,31.1,17.8,39.6,19.1,46.7z"/>
	<path fill="#FCFCFC" d="M36.6,36.4c7.3-9.1,13.8-15.5,23.9-16.4c2.5-0.2,5.3,0.3,6,3.3c0.6,2.8-1.1,4.6-3.6,5.9
		C55.3,33.3,46.7,33.6,36.6,36.4z"/>
	<path fill="#FBFBFB" d="M35.8,58.2c0,2.6,0,5.1,0,7.7c-4.8,4.5-10.6,4.8-16.7,3.6c-0.6-0.1-1.5-1.4-1.3-1.7c2.7-5,8.1-6.4,12.7-8.8
		C32,58.2,34,58.4,35.8,58.2z"/>
	<path fill="#FAFAFA" d="M13.3,97c-1.5-0.4-4.8,0.2-4.1-1.4c2.6-5.6,7.9-8.2,13.7-9.5c1.9-0.4,4.2,0.1,3.6,2.7
		C24.9,95.7,19,96.3,13.3,97z"/>
	<path fill="#F9F9F9" d="M9.3,118.3c-1.2-0.1-3.5,0.2-2.6-1.7c2.2-4.3,6.1-6.5,10.9-6.6c1.6-0.1,4.2-0.1,3.3,2.3
		C18.9,117.3,14.1,118,9.3,118.3z"/>
	<path fill="#FCFCFC" d="M19.1,569.9c-1.1,2.4-0.1,8-2.7,6.8c-6.5-3.1-12.5-8.1-12.9-16.3c-0.2-3.8,1.3-9.9,5.7-8.7
		C17.9,553.9,17.8,562.6,19.1,569.9z"/>
	<path fill="#FBFBFB" d="M35.8,581.2c0,2.6,0,5.1,0,7.7c-5,3.9-10.6,5.3-16.8,3.3c-0.5-0.2-1.1-2-0.8-2.3c4.2-4.5,9.1-7.7,15.2-8.7
		C34.1,581,35,581.1,35.8,581.2z"/>
	<path fill="#F8F8F8" d="M13.2,619.9c-1.4-0.4-4.7,0.4-4-1.4c2.5-5.9,7.9-8.5,14.1-9.6c1.8-0.3,3.8,0.1,3.4,2.4
		C25.2,618.6,19,619,13.2,619.9z"/>
	<path fill="#FCFCFC" d="M35.9,564c0,4.3,0,8.6,0,12.9c-4.9,0.6-9.4,2.5-15.4,6.2C25.6,574.9,27.8,567.1,35.9,564z"/>
	<path fill="#F8F8F8" d="M9.4,641.4c-1.4,0-3.4-0.2-2.5-2c2.2-4.2,6-6.4,10.7-7c1.5-0.2,4.2,0.4,3.5,2.3
		C19,639.9,14.1,640.6,9.4,641.4z"/>
	<path fill="#FDFDFD" d="M884.3,570.4c0.6-5.1,1.2-9.9,3.9-14.1c1.6-2.5,2.9-5.8,6.6-4.9c3.5,0.9,4.6,4.3,4.9,7.5
		c0.7,9.2-5.9,14.2-12.6,17.5C883.8,578,885.8,572.2,884.3,570.4z"/>
	<path fill="#FBFBFB" d="M878.3,593.2c-4.4-1.1-10.3-0.6-10.2-7.9c0-2.1,0.2-4.6,3.1-3.7c5.7,1.7,12,3.6,14.1,9.6
		C886,593.1,881,592.6,878.3,593.2z"/>
	<path fill="#F9F9F9" d="M891.3,619.9c-6.3-0.9-12.8-1-14.6-8.4c-0.6-2.4,1.8-3,3.8-2.6c6,1.2,11,4.4,13.9,9.7
		C895.3,620.3,892.1,619.3,891.3,619.9z"/>
	<path fill="#FAFAFA" d="M881.9,581c-5.4-3.4-16.1-1.1-13.8-12c0.2-1.1,0.7-2.1,1.1-3.1c1.2,0.5,2.8,0.6,3.4,1.4
		C875.8,571.7,878.8,576.4,881.9,581z"/>
	<path fill="#F9F9F9" d="M892.7,641.2c-4.2-0.8-8.7-1.7-10.1-6.5c-0.6-2,1.7-2.7,3.4-2.4c4.6,0.8,8.8,3,10.5,7.3
		C897.3,641.7,894.1,640.7,892.7,641.2z"/>
	<path fill="#FCFCFC" d="M20.4,1119c-1.5,2.2,0.9,7.9-2.3,6.6c-6.6-2.7-12.6-7.9-12.8-16.2c-0.1-3.7,1.3-9.6,5.4-8.6
		C19.5,1103,19.3,1111.6,20.4,1119z"/>
	<path fill="#FBFBFB" d="M35.8,1130.2c0,3.2,0,6.4-0.1,9.6c-5.4,2.4-13.1,5.1-15.7,0.4c-1.8-3.3,6.9-6.3,11.5-8.7
		C32.8,1130.7,34.3,1130.6,35.8,1130.2z"/>
	<path fill="#FAFAFA" d="M14.7,1169c-1.3-0.7-5.1,0.7-3.9-1.5c2.7-5.3,7.9-8.4,13.9-9.4c1.8-0.3,4.4,0.1,3.7,2.5
		C26.6,1167.5,20.9,1168.7,14.7,1169z"/>
	<path fill="#FAFAFA" d="M36,1114c-0.1,4.3-0.2,8.5-0.2,12.8c-4.3-0.1-7.8,2.5-12.9,4.6C26.6,1124.1,29.1,1117.5,36,1114z"/>
	<path fill="#F7F7F7" d="M11.4,1190.8c-1.4-0.2-3.8,0-3.1-1.6c1.9-4.3,5.6-6.8,10.4-7.2c1.6-0.1,4.3-0.1,3.6,2
		C20.7,1189.1,15.7,1189.8,11.4,1190.8z"/>
	<path fill="#B6B6B6" d="M121.9,1236.2c5,0,10.1,0,15.1,0c3.1,4.5,1.9,9.9,2.9,14.8c-0.3,0.6-0.6,1.3-0.9,1.9
		c-1.4-1.4-3.1-1.3-5-1.3C123,1252.1,121.9,1244.5,121.9,1236.2z M131.8,1247.9c2.5-0.4,4.1-1.8,3.8-4.3c-0.5-3.8-3.2-5.7-6.7-6.3
		c-2.4-0.4-3.8,1.2-3.6,3.6C125.6,1244.8,127.9,1247,131.8,1247.9z"/>
	<path fill="#FDFDFD" d="M873.7,914.8c-0.1-14.9,4.6-27.5,14.1-38.3c0.8-0.9,1.9-1.6,2.9-2.4c0.5,1.1,1.2,2.2,1.4,3.4
		C894.7,892.5,888.1,906.2,873.7,914.8z"/>
	<path fill="#FCFCFC" d="M896.1,933.9c-0.6,4.3-1.3,10.1-2.1,15.9c-0.1,0.7-0.8,1.3-1.2,1.9c-0.6-0.5-1.3-0.9-1.8-1.5
		c-6.6-8-7.9-24.3-2.9-33.2c1.8-3.1,2.8-1.3,3.7,0.4C894.6,922,896.2,927,896.1,933.9z"/>
	<path fill="#FCFCFC" d="M874.2,952c-9,0.8-5.6-5.9-6.1-10.2c-0.3-2.4,0-5,0.1-7.4c12.2,0.9,13.9,12.9,20.5,19.6
		C883.9,953.3,879,952.6,874.2,952z"/>
	<path fill="#FAFAFA" d="M874.2,952c4.8,0.7,9.6,1.3,14.5,2c2.5,2.5,9.6,2.8,7.8,6.5c-2.1,4.4-6.5-0.9-9.8-1.9
		c-4.2-1.2-7.8-0.6-11.2,2.2c-2.2,1.8-4.5,3.9-7.4,1C866.7,956.4,869.8,953.8,874.2,952z"/>
	<path fill="#FDFDFD" d="M873.8,391.8c-0.4-15.1,4.8-27.7,14.2-38.6c0.7-0.8,1.8-1.4,2.6-2.1c0.5,1.1,1.3,2.1,1.5,3.3
		C895.1,368.7,888,383.4,873.8,391.8z"/>
	<path fill="#FCFCFC" d="M896.1,410.7c-0.6,4.4-1.3,10.1-2.1,15.9c-0.1,0.7-0.6,1.4-1,2c-0.6-0.5-1.4-0.8-1.9-1.4
		c-6.6-7.1-8-25.5-2.8-33.5c1.8-2.7,2.6-0.8,3.5,0.5C894.6,398.8,896.1,403.9,896.1,410.7z"/>
	<path fill="#FBFBFB" d="M869,440.1c-2.8-9.4,1-11.7,15-9.2c3.7,1.3,7.5,2.5,11.2,4c0.9,0.3,1.3,1.7,1.9,2.6c-1,0.5-2.4,1.7-2.9,1.4
		C885.4,432.5,877.2,436.5,869,440.1z"/>
	<path fill="#FCFCFC" d="M29.8,912.7c0-0.2-0.2,0.8-0.5,1.7c-0.7-0.3-1.6-0.4-2.2-0.8c-11.9-9.3-19.1-20.7-16-36.6
		c0.2-1.2,1-2.3,1.5-3.4c0.8,0.8,1.8,1.4,2.5,2.3C24.1,886.1,29.2,898,29.8,912.7z"/>
	<path fill="#FCFCFC" d="M10,952c-1.7-11.5-5.6-22.8,1-33.9c0.7-1.1,1.7-1.9,2.6-2.9c0.7,1,1.7,2,2.1,3.1
		C20.8,930.5,18.2,945.7,10,952z"/>
	<path fill="#FBFBFB" d="M36,962c-1.4,0.3-3.5,1.5-4.2,0.9c-7.2-6-14.4-6.2-22.1-1.2c-0.6,0.4-3.4-0.8-3.3-1.1
		c0.4-3.9,4.3-3.8,6.6-5.6c7.5-2,15.1-2.7,22.7-0.8C35.8,956.8,35.9,959.4,36,962L36,962z"/>
	<path fill="#B8B8B8" d="M25,985.9c2.9-4,2.1-8.8,2.9-13.3c0.3-1.5,0.3-3.4,2.3-3c2.1,0.4,1.4,2.2,1,3.6c-1.1,4.5-4,8.9-1,13.7
		c-3.8,1.6-7.6,1.6-11.3,0C21,986.6,23,986.3,25,985.9z"/>
	<path fill="#BBBBBB" d="M35.8,951.8c0,0.8-0.1,1.6-0.1,2.3c-7.7-1.9-15.2-1.1-22.7,0.8c0.5-2,0.9-4.2,3.3-5
		c4.4,3.8,9.2-1.3,13.8,0.8C31.8,951.6,33.9,951.5,35.8,951.8z"/>
	<path fill="#FBFBFB" d="M572.5,23.2C568,22.6,559.1,20,560,17c1.8-5.9,9.9-6.6,16.3-6.7c3.7-0.1,9.1,0.2,8.7,5.1
		C584.5,21.2,579.1,23.2,572.5,23.2z"/>
	<path fill="#FAFAFA" d="M550,10.3c-1.5,3.9,0.2,11.6-3.8,11.6c-4.5,0-5.6-7.1-5.7-11.9c-0.1-3.4,0.7-8.5,5.2-8.3
		C550,1.9,549.4,6.8,550,10.3z"/>
	<path fill="#FBFBFB" d="M529.5,29.7c-1,3.8,0.3,10.4-3.7,10.6c-3.2,0.2-4.2-6.5-4.3-10.5c-0.1-3,1.1-7.2,4.6-7.2
		C530,22.6,529.1,26.9,529.5,29.7z"/>
	<path fill="#F9F9F9" d="M560.9,43.8c-6,0-11.9,0-17.9,0c-0.9-1.1-1.7-2.3-2.6-3.4c1.4-0.5,2.7-1.1,4.1-1.4
		C550.9,37.5,556.9,37.6,560.9,43.8z"/>
	<path fill="#FCFCFC" d="M582.7,1248.2c3.4,0.8,8.8,0.4,8.4,5c-0.5,5.9-5.8,8.4-11.4,8.3c-5.5-0.2-14.6-3.8-13.8-6.1
		C568.1,1248.8,576.3,1249.2,582.7,1248.2z"/>
	<path fill="#FCFCFC" d="M546.8,1248.7c0.2-4-0.1-9.1,4.6-9c5.1,0.1,4.4,5.8,4.2,9.2c-0.2,3.9,0.7,10.9-3.2,10.8
		C547.8,1259.6,547.2,1253,546.8,1248.7z"/>
	<path fill="#F8F8F8" d="M556.1,1236.2c4.3,0,8.5,0,12.8,0c-0.4,6.6-5.5,10.5-9.6,17.4C559.1,1246.3,558.9,1240.9,556.1,1236.2z"/>
	<path fill="#FBFBFB" d="M317.2,1248.1c6.6,1,14.9,1,16.6,7.1c0.8,2.8-8.8,6.2-14.5,6.3c-5.2,0.1-10.5-2.6-10.7-8.3
		C308.5,1248.1,314.2,1249.3,317.2,1248.1z"/>
	<path fill="#FCFCFC" d="M353.1,1248.4c-0.3,4.8-2.2,12.1-5.5,11.6c-5-0.8-3-7.9-3.5-12.3c-0.4-3.2-0.3-8.3,4.3-8
		C352.7,1240,352.7,1244.9,353.1,1248.4z"/>
	<path fill="#F7F7F7" d="M332,1236.2c3.6,0,7.3,0,10.9,0c-1.3,5-2.9,10-2.7,15.6C336.7,1246.9,330.3,1243.7,332,1236.2z"/>
	<path fill="#B6B6B6" d="M417.9,1236.2c5.7,2.7,11.4-0.9,17.1,0c-6.6,3.3-8.5,9-7.3,15.8c0.5,2.9,1.7,6.9,4.8,6.7
		c2.7-0.2,0.9-4.2,1.6-6.4c0.3-0.8,0.6-1.6,2.1-5c0,6.1-1.3,10.2,0.2,12.5c6.1,9.4,2.1-4.5,5.7-2.1c-2.7,7.1,4.8,8.4,7.9,12.4
		c-0.4,0.3-0.8,0.7-1.2,1c-3.4,0-7.7-3.2-10.1,5.3c0.2-10.9-3-13.6-10.4-8c2.2-6.1,2.2-6.5-0.9-5.5c-2,0.6-3.8,1.7-6.1,2.7
		c0.6-3.6,6.8-3.4,4.9-6.5c-1.8-3-6.1-0.1-10-0.5C432.8,1251.7,416.1,1243.6,417.9,1236.2z"/>
	<path fill="#FEFEFE" d="M280.9,32.8c-11.5,7-22,9.7-33.3,2.9c-0.9-0.6-1.6-1.6-2.4-2.3c0.8-0.7,1.5-1.8,2.5-2.2
		C258.6,27.2,269.3,27.9,280.9,32.8z"/>
	<path fill="#FBFBFB" d="M242.5,12.9c-0.1,8.5-14.7,23.5-22.8,23.4c-1.6,0-2.4-0.5-1.5-2c5.3-8.8,9.4-18.6,20-22.7
		C241.5,10.2,242.5,10.6,242.5,12.9z"/>
	<path fill="#F2F2F2" d="M222.9,43.8c-4.3,0-8.6,0-12.9,0c-0.3-1.4-0.6-2.7-0.9-4.1c1.9-0.1,4-0.8,5.7-0.2
		C217.8,40.4,221,41,222.9,43.8z"/>
	<path fill="#FBFBFB" d="M690.9,36.4c-11.3-0.1-25.8-13.5-26-23.7c-0.1-3.8,2.6-1.8,3.8-1.4c7,2.8,12.2,7.8,15.8,14.5
		C686.3,29.2,688.5,32.5,690.9,36.4z"/>
	<path fill="#FBFBFB" d="M247.8,1266.8c6.7,0.2,12.8,0.2,18,4.2c-4.9,4.3-10.8,6-17.1,6.7c-6.7,0.7-12.6-1.5-17.6-6.1
		C235.9,1266.5,242.3,1267,247.8,1266.8z"/>
	<path fill="#FCFCFC" d="M202.8,1274.7c6.2-9.7,9.6-20.8,21.3-24.7c1.3-0.4,2.8-0.4,4.2-0.6c-0.2,1.4-0.2,2.9-0.7,4.2
		C223.2,1264.7,216.3,1272.9,202.8,1274.7z"/>
	<path fill="#FAFAFA" d="M275,1236.2c3.6,0,7.3,0,10.9,0c-1.6,8.4-18.7,18.3-27.1,15.6c-3.5-1.1-1-2.6,0-3.4
		C264.2,1244.3,269.6,1240.3,275,1236.2z"/>
	<path fill="#FCFCFC" d="M240,1236.2c3,0,6,0,8.9,0c2.9,1.1,2.4,3.3,1.4,5.3c-2.4,4.9-4.9,9.7-7.3,14.5c-1,0.4-2.3,3.5-3,0.4
		C238.5,1249.7,235.8,1242.9,240,1236.2z"/>
	<path fill="#F9F9F9" d="M256,1236.2c4,0,7.9,0,11.9,0c-6.7,7.4-13.8,14.3-22.8,18.8C250.8,1249.9,251.8,1242.1,256,1236.2z"/>
	<path fill="#BDBDBD" d="M256,1236.2c-4.2,6-5.2,13.8-10.9,18.8c-0.7,0.3-1.4,0.7-2.1,1c2.5-4.8,5-9.6,7.3-14.5c1-2,1.5-4.2-1.4-5.3
		C251.3,1236.2,253.7,1236.2,256,1236.2z"/>
	<path fill="#FCFCFC" d="M649.5,1266.3c2.8,0.3,4.7,0.4,6.5,0.6c4.5,0.6,11.9,0.4,12,4.4c0.1,4.2-7.2,5.2-11.8,6.2
		c-7.4,1.6-14.1-1.5-20.5-4.7c-3.1-1.6-1.4-2.8,0.7-3.4C641,1268.2,645.7,1267.2,649.5,1266.3z"/>
	<path fill="#FBFBFB" d="M696.1,1273.5c0,1.8-1.5,0.9-2.7,0.7c-9.3-1.6-20.9-13.6-22.3-22.9c-0.4-2.5,0.4-2.8,2.7-2.3
		C681,1250.9,695.1,1265.9,696.1,1273.5z"/>
	<path fill="#FBFBFB" d="M613.1,1236.2c4,0,7.9,0,11.9,0c5.4,4.2,10.8,8.3,16.1,12.5c0.7,0.5,1,1.6,1.5,2.4
		c-0.7,0.3-1.4,0.7-2.2,0.8C630.7,1253.2,616.6,1245.1,613.1,1236.2z"/>
	<path fill="#FBFBFB" d="M648.1,1236.2c4,0,7.9,0,11.9,0c3.6,6.7,1.2,13.5-0.1,20.1c-0.6,3-2,0.6-2.9-0.2
		C653.6,1249.7,648.6,1243.9,648.1,1236.2z"/>
	<path fill="#F9F9F9" d="M631.1,1236.2c4.3,0,8.6,0,12.9,0c2.4,6.4,7,11.9,8,18.9C645,1248.8,638.1,1242.5,631.1,1236.2z"/>
	<path fill="#BFBFBF" d="M652,1255.1c-1.1-7-5.6-12.5-8-18.9c1.4,0,2.7,0,4.1,0c0.5,7.7,5.5,13.4,8.8,19.9
		C654.4,1259.7,653.4,1256.5,652,1255.1z"/>
	<path fill="#FCFCFC" d="M9.8,430.2c-1.1-12.2-5.5-23,0.6-33.8c0.8-1.4,2-2.5,3.1-3.7c0.9,1.3,2.1,2.5,2.5,3.9
		C19.7,408.4,19.4,419.5,9.8,430.2z"/>
	<path fill="#FCFCFC" d="M15.2,430.9c1.1-6.5,14.3-19.2,20.5-19.8c-0.2,6.3,1.6,12.7-1.1,18.8C28.1,428.6,21.6,428.4,15.2,430.9z"/>
	<path fill="#FAFAFA" d="M15.2,430.9c6.4-2.6,12.9-2.4,19.4-0.9c0.4,3,0.9,6.1,1.3,9.1c0,0,0-0.1,0-0.1c-0.5,0.2-1,0.7-1.4,0.6
		c-8.8-3.2-17.6-6.1-26.7-1c-0.3,0.1-1.8-1.1-1.7-1.4c0.2-0.8,0.8-1.8,1.6-2.3C10.2,433.5,12.8,432.3,15.2,430.9z"/>
	<path fill="#FCFCFC" d="M124,43.9c-3.3,0-6.6,0-9.9-0.1c-7.2-11.2-11.5-23.6-16.1-37.7C109,16,118,25.3,123.2,37.7
		C124,39.7,125.2,41.7,124,43.9z"/>
	<path fill="#F8F8F8" d="M774.5,1241.2c-1,3.4-2.6,6.5-6.8,6.6c-2.7,0.1-3.8-2.1-3.5-4.4c0.5-3.7,2.9-5.9,6.7-6.1
		C773.2,1237.1,774.5,1238.7,774.5,1241.2z"/>
	<path fill="#FBFBFB" d="M332.1,10c6.1,0.8,14.6,1.5,15.6,7.1c0.6,3.2-9.1,6.2-15.2,6.2c-5.2,0-9.7-3-9.7-8.1
		C322.7,10,328.3,10.8,332.1,10z"/>
	<path fill="#FAFAFA" d="M357.9,11.1c0.4-3.9-0.6-9.2,4.1-9.4c4.8-0.2,4.9,5,5.1,8.8c0.2,4.7-1.6,11.2-5.3,11
		C356.7,21.3,359.1,14.5,357.9,11.1z"/>
	<path fill="#FAFAFA" d="M7.3,793.6c3.7,0.9,6.5,2.9,7.1,6.7c0.4,2.5-1.1,4.9-3.8,4.8c-4-0.2-6-3.3-6.8-6.9
		C3.2,795.6,4.7,794.2,7.3,793.6z"/>
	<path fill="#F9F9F9" d="M7.5,270.7c3.3,1.1,6.1,3.1,6.8,6.9c0.4,2.4-1,4.3-3.6,4.3c-4.2,0-6.1-2.9-6.8-6.6
		C3.4,272.9,4.8,271.3,7.5,270.7z"/>
	<path fill="#F8F8F8" d="M899.8,797.7c-0.9,4.1-2.7,7.3-7.1,7.4c-2.9,0.1-4-2.3-3.6-4.8c0.7-4,3.5-6.4,7.5-6.6
		C899.2,793.7,899.7,795.8,899.8,797.7z"/>
	<path fill="#F8F8F8" d="M899.7,275.1c-1,3.4-2.5,6.8-6.8,7.1c-2.6,0.2-3.9-1.8-3.8-4.2c0.2-4.4,3.2-6.5,7-7.1
		C898.6,270.5,899.4,272.7,899.7,275.1z"/>
	<path fill="#FCFCFC" d="M347.1,43.9c4.7-7.2,11.7-6.1,18.3-4.3c4,1.1,0.2,2.8-0.4,4.2C359,43.9,353,43.9,347.1,43.9z"/>
	<path fill="#F7F7F7" d="M502.1,43.8c0.8-3.3,1.8-7.2,5.8-6.9c4,0.2,2.2,4.5,3,6.9C508,43.8,505,43.8,502.1,43.8z"/>
	<path fill="#FDFDFD" d="M10.2,360.2c0.5-2.3,1.2-5.8,2-9.3c3.9,1.2,4.9,5.1,7.2,7.8c7.1,8.6,9.4,19,10.5,29.7
		c0.1,0.9-0.2,1.9-0.3,2.9c-0.7-0.2-1.6-0.1-2.2-0.5C17.6,383.4,11.1,374.1,10.2,360.2z"/>
	<path fill="#F8F8F8" d="M131.8,1247.9c-3.9-0.8-6.2-3.1-6.5-7c-0.2-2.4,1.2-3.9,3.6-3.6c3.5,0.5,6.2,2.5,6.7,6.3
		C135.9,1246,134.3,1247.4,131.8,1247.9z"/>
</g>
<rect x="36.2" y="44.1" fill="none" stroke="#070707" stroke-width="2.153" stroke-miterlimit="10" width="830.7" height="1191.9"/>
</svg>
