<?xml version="1.0" encoding="utf-8"?>
<!-- Generator: Adobe Illustrator 18.1.1, SVG Export Plug-In . SVG Version: 6.00 Build 0)  -->
<svg version="1.1" id="Layer_1" xmlns="http://www.w3.org/2000/svg" xmlns:xlink="http://www.w3.org/1999/xlink" x="0px" y="0px"
	 viewBox="0 0 274.7 44.3" enable-background="new 0 0 274.7 44.3" xml:space="preserve">
<g>
	<path d="M253.6,21.7c-1.9-1-3.7-2.1-5.7-2.8c-1.6-0.6-2.6,0.5-2,2.2c0.5,1.4,1.5,2.7-0.1,4c-1,0.8-2.3-0.2-3.7-2.2
		c-0.9-1.3-1.8-3.2-3.1-3.7c-1.6-0.6-3.7-0.1-5.6,0.1c-3.4,0.4-6.8,1-10.2,1.6c-0.5,0.1-1,0.6-1.5,0.9c0.3,0.3,0.5,0.7,0.9,1
		c0.9,0.7,1.9,1.3,2.9,2c1.5,1.1,1.5,1.9,0.1,3.1c-0.5,0.4-1.3,0.6-1.6,1.1c-1.5,3.2-4.3,3-7.2,2.9c-2.6-0.1-3.7-1.2-3.3-3.7
		c0.2-1.6,0.8-3.1,1.3-5c-4,0.8-7.6,1.5-11.7,2.3c1.5,1.2,2.7,2,3.8,3c0.8,0.7,1.6,1.6,2.3,2.5c0.6,0.8,0.4,1.7-0.7,1.8
		c-4.8,0.5-9.3,0.3-12.7-3.9c-0.9-1.1-2.1-2-3.3-2.8c-0.3-0.2-1.3,0.2-1.7,0.5c-0.3,0.2-0.3,1.1-0.1,1.4c2,3.2,4,6.3,6,9.5
		c0.9,1.4,0.4,3-1.2,3.4c-1.4,0.3-2.6,0.1-3.5-1.2c-0.8-1.2,0.1-1.9,0.7-2.5c0.8-0.9,0.7-1.7,0.1-2.7c-1-1.5-1.9-3.1-2.7-4.7
		c-1.4-2.8-3.2-4.4-6.6-4c-1.4,0.2-2.9-0.6-4.3-0.8c-1.4-0.2-2.8-0.4-4.6-0.6c1.1,1.8,2,3.5,3,5.2c0.9,1.5,0.9,2.9-0.5,3.9
		c-1.3,1-2.6,0.2-3.3-1c-1.2-2.1-2.9-3.1-5.3-2.5c-0.2,0-0.3,0-0.5,0c-5.9-0.5-6.9-2.2-3.7-7c0.9-1.4,1-2.2,0.2-3.5
		c-0.4-0.5-0.7-1.2-0.8-1.8c-0.2-1.1,0.4-2.3,1.6-1.8c1.9,0.9,2.5,0.1,3.1-1.4c0.4-0.9,0.9-1.8,1.3-2.7c0.5-1,1.2-1,2-0.4
		c0.8,0.5,1.6,1.2,2.5,1.5c3.7,1,4.3,4.2,5,7.2c0.1,0.5-0.8,1.2-1.2,1.7c-0.3,0.3-0.7,0.5-1,0.8c0.5,0.4,0.9,1,1.5,1.2
		c1.7,0.4,2.9-0.6,3.7-2c1.2-2.2,2.5-4.2,4.6-5.7c1.3-0.9,2.4-1.9,4-0.7c1.5,1.1,1.1,2.7,1,4.1c-0.1,0.6-0.6,1.2-0.9,1.7
		c-0.5,1.1-2.7,1.7-1.6,3.1c0.5,0.7,2.5,0.4,3.8,0.5c2,0.1,3.5-0.3,5-2.2c2.8-3.4,6.9-5.7,11-7.3c1-0.4,2.5-0.5,3.2,0
		c1.2,0.9,0.6,2.4-0.1,3.6c-0.4,0.8-0.8,1.7-1.1,2.5c1.1-0.1,2.1-0.2,3.2-0.3c0.6-0.1,1.4-0.1,1.9-0.5c1.1-1,1.9-2.2,2.9-3.3
		c1.2-1.4,0.3-2.5-0.4-3.6c-0.9-1.4-0.4-2.8,0.6-3.4c0.8-0.5,2.2-0.3,3.2,0c0.8,0.3,1.5,1.3,0.8,2.5c-1.2,2.1-2.3,4.4-3.4,6.6
		c2.6,1.4,4.8-0.4,7.2-0.6c1.3-0.2,1.4-1.6,1.7-2.8c1-4,4.5-4.8,7.8-5.9c0.3-0.1,1.2,0.8,1.2,1.1c-0.2,1.1-0.4,2.2-1,3.1
		c-0.7,1.1-1.8,2-3.2,3.4c5.4,0,10.1,0.1,14.8-0.1c0.9,0,1.7-1.3,2.5-2c3.3-3.3,5.1-3.5,9.7-1.2c-0.3,0.4-0.5,0.9-0.8,1.2
		c-0.8,0.7-2.4,1.7-2.3,2c0.8,1.8,2.5,1,3.9,1.1c0.2,0,0.3,0,0.5,0c1.8-0.4,2.4-1.3,2-3.6c-0.2-1.4,0.3-2.3,1.4-2.9
		c1.2-0.7,2.3-0.2,3.1,0.7c0.9,1,0.8,2.2-0.1,3.1c-1.1,1-2.2,2-3.5,3.1c2.3,0.8,4.2,1.3,5.8,2.2c1.5,0.8,2.6,3.6,2,4.1
		c-1.4,1.1-2.8,0.6-4.1-0.3c-0.5-0.4-1.4-0.5-1.6-1c-1.8-4-5.5-3.5-8.8-4.1c-0.7-0.1-1.4,0.1-2-0.2c-2.8-1.4-2,0.7-2,2L253.6,21.7z
		 M165.6,24.6c0.3-0.3,0.7-0.5,0.9-0.9c0.1-0.1-0.2-0.5-0.3-0.8c-0.2,0.3-0.4,0.5-0.5,0.8C165.7,24,165.7,24.4,165.6,24.6
		c-0.2,0.1-0.4,0.3-0.7,0.4c0.1,0.1,0.2,0.2,0.3,0.4C165.4,25.1,165.5,24.9,165.6,24.6z M221.7,24.7c0.3,0.3,0.5,0.7,0.8,0.9
		c0.1,0.1,0.5-0.2,0.8-0.3c-0.2-0.2-0.4-0.4-0.7-0.5C222.3,24.7,222,24.7,221.7,24.7c-0.3-0.3-0.6-0.7-1-0.9
		c-0.1-0.1-0.5,0.2-0.8,0.4c0.3,0.2,0.5,0.4,0.8,0.5C221,24.7,221.4,24.6,221.7,24.7z M173.6,20.6c0.5,0,1,0.1,1.5,0
		c0.4-0.1,0.8-0.4,1.3-0.5c-0.4-0.2-0.9-0.5-1.3-0.4C174.5,19.9,174.1,20.3,173.6,20.6c-0.1,0.3-0.3,0.5-0.4,0.7
		C173.3,21.1,173.5,20.9,173.6,20.6z M199.5,23.6c2-0.4,3.7-0.4,5.1-1.1c2-1,3.7-2.6,5.5-4c0.3-0.2,0.2-0.9,0.3-1.3
		c-0.4-0.1-1-0.4-1.3-0.2C205.8,18.7,202.3,20.2,199.5,23.6z M196.8,26.8c2,3.5,5.5,3.8,8.5,4.7c0.3,0.1,1.1-0.2,1.2-0.5
		c0.1-0.3-0.1-1.1-0.4-1.3C203.4,27.9,200.5,26.5,196.8,26.8z M190.4,17.1c-0.5-0.1-1.2-0.5-1.7-0.3c-2.6,1.1-3.5,3.7-4.8,5.9
		c0,0.1,0.7,0.8,0.8,0.8c2.6-1.2,4.5-3,5.7-5.7C190.5,17.7,190.4,17.5,190.4,17.1z M235.9,13c-3.1-0.8-4,0.9-5.1,2.3
		c-0.1,0.2,0,0.8,0.1,0.9c0.4,0.2,1,0.4,1.3,0.2C233.3,15.4,234.4,14.4,235.9,13z M171,26.9c-0.8-0.9-1.3-1.4-1.8-2
		c-0.7,0.8-1.4,1.6-2.1,2.4c0.5,0.4,1,1.1,1.4,1.1C169.3,28.2,170,27.6,171,26.9z M219.7,30.3c1.1-0.9,1.8-1.4,2.5-2
		c-0.8-0.5-1.5-1.1-2.3-1.4c-0.2-0.1-1,0.7-1.1,1.1C218.9,28.6,219.3,29.2,219.7,30.3z M176.7,17.4c-0.8-0.9-1.3-1.5-1.9-2
		c-0.3-0.2-1-0.3-1.2-0.1c-0.4,0.5-0.6,1.1-0.7,1.7c0,0.2,0.6,0.6,1,0.7C174.7,17.6,175.5,17.5,176.7,17.4z M174.4,28.8
		c-0.2,0.3-0.6,0.7-0.6,0.8c0.4,0.7,0.9,1.3,1.4,1.9c0.1,0.1,0.6-0.1,0.9-0.2c-0.2-0.6-0.3-1.2-0.7-1.7
		C175.3,29.2,174.8,29,174.4,28.8z M256.6,14.7c-0.9,0.1-1.2,0.1-1.5,0.2c-0.7,0.4-1.4,0.8-2.1,1.2c0.2,0.2,0.5,0.5,0.6,0.5
		c0.9-0.3,1.7-0.7,2.6-1.1C256.3,15.4,256.3,15.2,256.6,14.7z M171.3,22.8c-0.2,0.4-0.5,0.8-0.4,0.9c0.6,0.7,1.3,1.3,1.9,1.9
		c0.1-0.2,0.4-0.5,0.4-0.6C172.6,24.2,171.9,23.5,171.3,22.8z M217.2,26.6c-0.1-0.3-0.1-0.5-0.2-0.8c-0.4,0.2-1,0.3-1.1,0.6
		c-0.1,0.6,0,1.2,0.1,1.9c0.3-0.4,0.6-0.8,1-1.2C217,26.9,217.1,26.8,217.2,26.6z M244.7,21.5c-0.4-0.4-0.8-0.9-1.2-1.4
		c-0.1-0.1-0.5,0.2-0.7,0.2c0.4,0.6,0.9,1.3,1.3,1.9C244.3,22.1,244.4,21.9,244.7,21.5z M170.8,16.2c-0.2-0.4-0.4-0.8-0.6-1.2
		c-0.2,0.4-0.5,0.8-0.5,1.2c0,0.4,0.3,0.8,0.4,1.3C170.4,17.1,170.6,16.7,170.8,16.2z M269.7,22.9c-0.3-0.4-0.6-0.8-0.9-1
		c-0.2-0.1-0.6,0.1-0.9,0.2c0.3,0.4,0.6,0.8,0.9,1.1C268.9,23.2,269.3,23,269.7,22.9z"/>
	<path d="M22.8,19.6c1.9,1.3,3.7,2.8,5.7,3.9c1.2,0.7,2.3-0.2,2.2-1.6c-0.1-1-0.4-2-0.4-3c0-0.6,0.1-1.4,0.4-1.6
		c0.4-0.2,1.2,0.1,1.7,0.3c1.6,0.7,2.9,1.7,3.2,3.5c0.4,2.2,1.7,2.5,3.6,2.5c3.7,0.1,7.2-0.4,10.8-1.1c1.4-0.3,2.9-0.6,4.3-1
		c0.4-0.1,0.7-0.5,1.1-0.7c-0.3-0.4-0.4-0.8-0.8-1.1c-0.5-0.4-1.2-0.6-1.7-1c-3-1.8-3-2.3-0.3-4.8c0.1-0.1,0.3-0.2,0.4-0.3
		c1.5-4.1,5.1-2.9,8.1-3.1c1.3-0.1,1.8,0.8,1.7,1.9c-0.2,2.3-0.4,4.5-0.7,6.9c3.7-0.7,7.3-1.3,11.5-2.1c-1-0.9-1.9-1.7-2.8-2.5
		c-0.9-0.7-2-1.3-2.7-2.2c-0.4-0.5-0.6-1.6-0.4-2.3c0.1-0.3,1.1-0.7,1.6-0.7c5.3-0.4,9.9,0.8,13,5.5c0.6,0.9,1.1,1.7,2.3,1.5
		c0.6-0.1,1.2-0.3,1.8-0.6c0.1-0.1-0.1-0.9-0.3-1.3c-1.9-3.1-3.9-6.1-5.9-9.1c-1-1.6-0.4-2.8,1.6-2.9c0.5,0,1,0,1.5,0
		c1.4,0.1,2,1.1,1.3,2c-1.8,2.5-0.4,4.3,0.9,6.3c0.7,1.1,1.7,2.1,2.2,3.3c1,2.1,2.6,2.5,4.8,2.6c2.6,0.1,5.2,0.8,7.8,1.2
		c0.4,0.1,0.8,0,1.2,0c0-0.5,0.2-1.1,0-1.4c-0.7-1.3-1.5-2.6-2.3-3.8c-0.8-1.3-0.7-2.6,0.5-3.6c1.3-1,2.6-0.6,3.5,0.6
		c1.4,2,2.9,3.4,5.6,2.9c0.8-0.2,1.8,0.5,2.7,0.9c3.3,1.4,4.4,1.4,1.7,5.1c-1.2,1.7-1.7,3.3-0.5,5.4c1,1.7,0.3,2.6-1.9,2.2
		c-1.5-0.3-1.7,0.5-2.1,1.3c-0.8,1.4-1.5,2.8-2.2,4.1c-1.8-1.1-3.1-2.1-4.6-2.7c-2-0.9-3-2.2-3.6-4.3c-0.5-1.8-1.2-3.1,1.1-3.9
		c1.8-0.6,0.4-1.3-0.1-1.5c-1.9-0.9-2.9-0.5-4.1,1.2c-1.6,2.1-3.2,4.2-4.9,6.2c-1.1,1.3-2.5,1.7-4,1c-1.1-0.5-1.6-2.7-0.9-4.4
		c0.6-1.6,1.5-3.2,2.3-5.1c-3.7-0.6-6.7-0.6-9.3,2.8c-2.4,3.1-6.2,4.9-9.9,6.3c-0.9,0.3-1.9,0.5-2.9,0.5c-1.2,0-1.8-1.3-1.2-2.5
		c0.3-0.7,0.9-1.4,1.2-2.1c0.3-0.7,0.4-1.4,0.6-2.1c-0.6-0.1-1.3-0.3-1.9-0.2c-2.7,0.3-4.6,1.9-6.1,3.9c-1.1,1.5-0.6,3.1,0.3,4.6
		c0.7,1.1,0.2,2.4-1,2.9c-0.8,0.3-2,0.3-2.7-0.1c-0.9-0.4-1.4-1.3-0.7-2.5c1.2-2.1,2.2-4.3,3.7-7.1c-3,0.5-5.6,0.7-8.1,1.3
		c-0.5,0.1-0.8,1.3-1,2c-1.1,2.9-3,5.1-6,6.3c-0.6,0.2-1.2,0.5-1.9,0.5c-1.2,0.1-2-1.3-1.4-2.3c1-1.7,2.1-3.2,3.5-5.3
		c-5-0.7-9.5-0.3-14.1-0.2c-0.8,0-1.8,0.9-2.4,1.6c-1.2,1.5-2.8,2.1-4.6,2.7c-1.4,0.5-2.5,0.3-3.8-0.3c-1.6-0.9-1.7-1-0.2-2.3
		c0.5-0.4,1-0.8,1.5-1.3c-0.6-0.4-1.2-0.9-1.9-1.3c-1.4-0.8-2.5,0.1-3.7,0.6c-1.6,0.7-0.8,1.8-0.7,2.9c0.3,2.5-1.4,3.8-3.6,3
		c-1.7-0.6-2.1-2.2-0.8-3.5c1-1,2.3-1.8,4.2-3.3c-1.8-0.6-2.4-1-3.1-1c-2.6-0.1-3.7-2.1-4.9-3.8c-0.3-0.4-0.1-1.4,0.2-1.8
		c0.4-0.4,1.4-0.6,1.8-0.4c1.5,0.9,3.2,1.9,4.3,3.2c1,1.2,1.9,1.5,3.3,1.7c2.3,0.3,4.5,0.8,6.8,1.2c0.7,0.1,1.5,0.1,2.2,0.1
		c-0.2-0.8-0.5-1.5-0.7-2.3c-0.1-0.3-0.1-0.7-0.1-1C22.6,19.8,22.8,19.6,22.8,19.6z M106.6,26.6c0.3-0.3,0.7-0.6,0.9-1
		c0.1-0.2-0.2-0.5-0.4-0.8c-0.1,0.3-0.4,0.5-0.4,0.8C106.6,26,106.7,26.4,106.6,26.6c-0.2,0.3-0.6,0.6-0.8,1
		c-0.1,0.2,0.2,0.5,0.3,0.8c0.1-0.3,0.4-0.5,0.4-0.8C106.7,27.3,106.6,27,106.6,26.6z M22.7,26.7c-0.5,0-1-0.1-1.4,0
		c-0.4,0.1-0.8,0.3-1.2,0.5c0.4,0.1,0.9,0.5,1.3,0.4C21.8,27.5,22.2,27,22.7,26.7c0.6-0.2,1.1-0.3,1.7-0.5c-0.1-0.1-0.3-0.3-0.3-0.3
		C23.6,26.1,23.1,26.4,22.7,26.7z M101.7,11.7c-0.2-0.1-0.5-0.3-0.7-0.4C101.2,11.4,101.4,11.5,101.7,11.7c0.3,0.6,0.6,1.2,1,1.9
		c0.2-0.1,0.5-0.2,0.7-0.4c-0.4-0.5-0.8-1-1.2-1.4C102,11.7,101.8,11.7,101.7,11.7z M105.7,18.6c0.2,0.2,0.5,0.4,0.7,0.5
		C106.2,19,105.9,18.8,105.7,18.6c-0.1-0.4-0.1-0.9-0.3-1.3c-0.2-0.3-0.7-0.3-1.1-0.4c0.1,0.4,0.1,0.8,0.3,1.1
		C104.8,18.3,105.3,18.4,105.7,18.6z M33.7,21.6c0.2,0.2,0.5,0.3,0.7,0.5C34.1,22,33.9,21.8,33.7,21.6c-0.4-0.6-0.7-1.2-1-1.8
		c-0.2,0.1-0.4,0.3-0.6,0.4C32.6,20.7,33.1,21.2,33.7,21.6z M111.7,17.7c-0.6,0.5-1.2,1-1.8,1.5c-0.1,0.1,0.1,0.6,0.1,0.9
		c0.2-0.1,0.6-0.1,0.7-0.3C111.1,19.1,111.4,18.4,111.7,17.7c0.1-0.3,0.2-0.6,0.4-0.8C112,17.2,111.8,17.4,111.7,17.7z M42.7,29.7
		c1.8,0.2,2.6-1.1,3.5-2.3c0.2-0.3,0.1-0.9,0.1-1.3c-0.4,0-1-0.1-1.3,0.1C43.8,27,42.4,27.8,42.7,29.7c-0.2,0.2-0.3,0.5-0.5,0.7
		C42.4,30.2,42.5,29.9,42.7,29.7z M77.6,19.5c-0.1-0.2-0.2-0.4-0.3-0.6c-1.5,0.3-3.3,0.3-4.6,1c-2,1-3.7,2.6-5.5,3.9
		c-0.3,0.2-0.2,0.9-0.3,1.3c0.4,0.1,1,0.4,1.3,0.2C71.3,23.4,74.5,21.4,77.6,19.5z M80.3,15.5c-2.5-2.8-5.4-3.7-8.5-4.2
		c-0.3,0-0.8,0.2-1,0.4c-0.1,0.1,0.1,0.7,0.3,0.8C73.7,14.4,76.5,16.1,80.3,15.5z M94.1,18.8c-3.6,0.8-6.1,1.9-7,5
		c-0.1,0.4,0,0.9-0.1,1.3c0.6,0,1.3,0.2,1.7-0.1C91,23.7,92.4,21.6,94.1,18.8z M102.9,24.4c-0.8,0.5-1.5,0.9-2.1,1.3
		c0.7,0.6,1.3,1.2,2,1.8c0.4-0.7,0.9-1.3,1.2-2C104.1,25.3,103.4,24.8,102.9,24.4z M57.4,12.3c-0.9,0.7-1.7,1.2-2.4,1.8
		c0.5,0.5,0.8,1.2,1.4,1.3c1.5,0.4,1.3-1.1,1.7-1.9C58.2,13.4,57.8,12.9,57.4,12.3z M108.3,17.8c0.6-1.1,1.2-1.7,1.2-2.4
		c0-0.5-0.7-1.3-1.2-1.4c-0.3-0.1-1.4,0.8-1.3,1C107.2,15.9,107.7,16.6,108.3,17.8z M60.3,17.9c0.3-1.7,0.5-2.9,0.7-4
		c-0.2,0-0.4-0.1-0.4,0C59.4,14.9,59.6,16.1,60.3,17.9z M104,22.4c0-0.3,0.1-0.5,0.1-0.8c-1.1,0.1-2.1,0.2-3.2,0.3
		c0,0.2,0,0.3,0,0.5C102,22.4,103,22.4,104,22.4z M53.5,17.1c0.9,0.7,1.4,1.1,1.9,1.4c0.2,0.1,0.6-0.1,0.9-0.2
		c-0.4-0.4-0.7-1-1.2-1.3C54.9,16.8,54.4,17,53.5,17.1z M8.7,19.8c-0.2,0.1-0.4,0.3-0.7,0.4c0.1,0.1,0.3,0.3,0.4,0.3
		c0.3,0,0.6-0.2,0.9-0.2C9.1,20.1,8.9,20,8.7,19.8z M110.5,24.1l-0.3-0.2l0,0.3L110.5,24.1z"/>
	<path d="M147.8,17.7c1.2,0,2,0,2.8,0c1.5,0,2.6,0.5,2.9,2.1c0.2,1.6-0.8,2.5-2.1,2.9c-1.7,0.5-3.5,0.8-5.6,1.3c1,1,1.9,2.1,2.8,3.1
		c1,1.1,1.6,2.2,0.5,3.5c-0.8,1-1.8,1.2-3.1,0.8c-2.7-0.9-2.7-0.8-3.9,1.5c-0.3,0.6-0.5,1.2-0.9,1.8c-1,1.4-2.8,1.5-3.8,0.1
		c-1-1.5-1.9-2.2-3.8-2.2c-2.9,0-4.1-1.9-3.4-5c0.4-1.7-0.1-2.1-1.6-2c-0.8,0-1.8,0.2-2.4-0.3c-0.7-0.5-1.4-1.5-1.5-2.3
		c-0.1-0.6,0.6-1.5,1.2-1.9c0.6-0.5,1.5-0.6,2.3-0.8c1.1-0.4,2.1-0.7,3.2-1.1c-0.5-1-1.1-1.9-1.5-2.9c-1.4-3-0.2-4.8,3.2-4.8
		c1.1,0,1.5-0.2,1.6-1.3c0-0.5-0.1-1.1,0.1-1.5c1-1.3,2.1-2.5,3.2-3.7c1,1,2.1,1.9,2.9,3c0.9,1.3,1.4,2.6,3.6,2.6
		c4.5-0.1,4.9,0.8,3.5,5.5C147.9,16.4,147.9,16.8,147.8,17.7z M130.7,23.7c-0.5,0-1-0.1-1.4,0c-0.4,0.1-0.9,0.3-1.3,0.5
		c0.4,0.2,0.9,0.5,1.3,0.4C129.8,24.4,130.2,24,130.7,23.7c0.1-0.3,0.3-0.5,0.4-0.7C131,23.2,130.8,23.5,130.7,23.7z M141.8,19.4
		c2.9-0.7,4.2-2.6,4.8-4.9c0.2-0.6-0.4-1.9-0.8-2c-0.8-0.2-1.8,0.1-2.5,0.6c-0.4,0.2-0.5,1.1-0.6,1.8
		C142.4,16.2,142.1,17.6,141.8,19.4z M133.9,31.7c2-1.9,3-3.7,2.7-6c0-0.3-0.8-0.9-0.9-0.8c-1.3,1.2-2.9,2.2-3.7,3.7
		C131.7,29,133.1,30.5,133.9,31.7z M132,12.7c0.2,3.5,0.6,4.1,4.9,6.6C136.5,16,134.2,14.6,132,12.7z M139.4,8.8
		c-0.2,0.2-0.5,0.3-0.7,0.5c0.1,1.3,0.1,2.6,0.3,3.8c0.1,1.1,0.3,2.3,0.5,3.4c2.1-0.7,1-2.5,1-3.7C140.5,11.5,139.8,10.1,139.4,8.8z
		 M147.5,29.2c-2-2-3-4-5.8-4.7C142.8,27.2,143.9,29,147.5,29.2z M145,22.2c0.1,0.1,0.3,0.3,0.4,0.3c0.9,0,1.9-0.1,2.8-0.1
		c0,0,0-0.3,0-0.3c-0.9-0.1-1.9-0.1-2.8-0.2C145.3,21.9,145.1,22.1,145,22.2z M148.2,20c-0.3-0.1-0.6-0.1-0.9-0.2c0,0.2,0,0.4,0,0.6
		c0.3,0,0.6-0.1,0.9-0.2C148.2,20.3,148.2,20.1,148.2,20z M138.2,30.9l-0.2,0.3l0.3,0L138.2,30.9z"/>
	<path d="M253.7,21.6c1.3,1.6,2.7,3.1,3.8,4.9c0.3,0.5-0.2,2.1-0.8,2.5c-0.8,0.5-2.2,0.7-3.2,0.4c-0.5-0.2-1-1.8-0.8-2.5
		c0.7-1.7,1.2-3.4,0.9-5.2C253.6,21.7,253.7,21.6,253.7,21.6z"/>
	<path d="M22.6,19.8c-0.9-1.1-1.9-2.2-2.5-3.4c-0.3-0.7-0.3-2,0.1-2.7c0.6-1,1.8-1.5,3-0.8c1.1,0.6,2.1,1.5,1,2.7
		c-1,1.2-1.7,2.4-1.4,4L22.6,19.8z"/>
	<path d="M122.5,12.6c2.1,0,5.5,2.3,6,4c0.1,0.2-0.4,0.9-0.7,1c-1.9,0.2-5.3-1.9-5.9-3.6C121.7,13.6,122.3,13,122.5,12.6z"/>
	<path d="M127.7,27.8c-0.2,2.1-3,4.9-4.9,4.8c-0.4,0-1.1-1-1-1.2c1.1-2.1,3-3.4,5.1-4.2C127.1,27.1,127.5,27.6,127.7,27.8z"/>
	<path d="M150.4,38.3c-0.4,0.2-0.9,0.5-1.3,0.5c-1.9-0.3-4.6-3.7-4.2-5.4c0.1-0.2,1.1-0.6,1.2-0.4c1.4,1.6,2.7,3.2,4.1,4.8
		C150.2,37.9,150.3,38,150.4,38.3z"/>
	<path d="M150.8,16.5c-0.3-0.1-0.7-0.2-0.8-0.4c-0.2-0.2-0.2-0.8-0.1-0.9c1.7-1.5,3.4-2.9,5.2-4.3c0.1-0.1,0.6,0.2,0.7,0.5
		c0.2,0.3,0.4,0.9,0.3,1.2C155.1,14.3,152.5,16.2,150.8,16.5z"/>
	<path d="M44.6,16.4c-0.2,0.5-0.2,0.8-0.3,0.8c-0.7,0.1-1.6,0.4-2.2,0.1c-1.2-0.6-2.1-1.7-1.2-3.1c0.2-0.4,1.7-0.6,2-0.3
		C43.7,14.6,44.2,15.7,44.6,16.4z"/>
	<path d="M198.7,13.8c-0.3-0.2-0.9-0.4-1-0.7c-0.3-1,1.1-3.2,2.3-3.4c0.4-0.1,1.1,0.2,1.3,0.5C202,11.4,200.4,13.6,198.7,13.8z"/>
	<path d="M79.5,29.4c0.1,1.8-1.5,3.6-2.8,3.3c-0.4-0.1-0.9-0.5-0.9-0.8c-0.1-1.5,1.6-3.4,2.8-3.2C78.9,28.8,79.2,29.2,79.5,29.4z"/>
	<path d="M233.4,24.8c1.3-0.2,3.5,2,3,3.2c-0.2,0.4-1.5,0.8-1.6,0.6c-0.8-0.9-1.4-2-2-3.1C232.8,25.4,233.2,25.1,233.4,24.8z"/>
	<path d="M119.1,23.5c-0.5-0.6-0.9-0.9-1.2-1.3c0.5-0.4,0.9-0.8,1.4-1.2c0.1,0.5,0.4,0.9,0.4,1.4C119.7,22.7,119.3,23,119.1,23.5z"
		/>
	<path d="M155.7,26.5c0.4,0.5,0.9,0.9,0.9,1c-0.3,0.4-0.7,0.7-1.1,1c-0.2-0.3-0.7-0.7-0.6-1C154.8,27.3,155.3,27,155.7,26.5z"/>
	<path d="M128.5,40c0.3,0.4,0.6,0.8,0.9,1.2c-0.4,0.2-0.8,0.3-1.2,0.5c-0.2-0.4-0.4-0.8-0.4-1.3C127.7,40.3,128.2,40.1,128.5,40z"/>
	<path d="M148.4,4.8c-0.2,0.4-0.4,0.8-0.5,0.8c-0.4-0.1-0.8-0.3-1.2-0.5c0.1-0.1,0.2-0.3,0.3-0.3C147.5,4.8,147.9,4.8,148.4,4.8z"/>
	<path fill="#FFFFFF" d="M199.5,23.6c2.8-3.4,6.4-4.8,9.6-6.6c0.3-0.2,0.9,0.1,1.3,0.2c-0.1,0.5-0.1,1.1-0.3,1.3
		c-1.8,1.4-3.5,2.9-5.5,4C203.2,23.2,201.5,23.2,199.5,23.6z"/>
	<path fill="#FFFFFF" d="M196.8,26.8c3.7-0.2,6.6,1.1,9.3,2.9c0.3,0.2,0.5,1,0.4,1.3c-0.1,0.3-0.9,0.6-1.2,0.5
		C202.2,30.5,198.8,30.3,196.8,26.8z"/>
	<path fill="#FFFFFF" d="M190.4,17.1c0,0.5,0.1,0.6,0.1,0.8c-1.2,2.6-3.2,4.5-5.7,5.7c-0.1,0.1-0.9-0.7-0.8-0.8
		c1.3-2.2,2.2-4.8,4.8-5.9C189.1,16.6,189.8,17,190.4,17.1z"/>
	<path fill="#FFFFFF" d="M235.9,13c-1.5,1.4-2.5,2.4-3.7,3.3c-0.2,0.2-0.9,0-1.3-0.2c-0.2-0.1-0.3-0.7-0.1-0.9
		C231.9,13.9,232.8,12.2,235.9,13z"/>
	<path fill="#FFFFFF" d="M171,26.9c-1,0.6-1.7,1.3-2.5,1.4c-0.4,0.1-0.9-0.7-1.4-1.1c0.7-0.8,1.4-1.6,2.1-2.4
		C169.7,25.5,170.2,26.1,171,26.9z"/>
	<path fill="#FFFFFF" d="M219.7,30.3c-0.4-1-0.9-1.7-0.8-2.3c0-0.4,0.9-1.2,1.1-1.1c0.8,0.3,1.5,0.9,2.3,1.4
		C221.5,28.8,220.8,29.4,219.7,30.3z"/>
	<path fill="#FFFFFF" d="M176.7,17.4c-1.2,0.1-2,0.2-2.8,0.2c-0.4,0-1-0.5-1-0.7c0.1-0.6,0.3-1.2,0.7-1.7c0.2-0.2,0.9-0.1,1.2,0.1
		C175.4,15.8,175.9,16.5,176.7,17.4z"/>
	<path fill="#FFFFFF" d="M174.4,28.8c0.4,0.3,0.9,0.4,1.1,0.8c0.3,0.5,0.5,1.1,0.7,1.7c-0.3,0.1-0.8,0.3-0.9,0.2
		c-0.5-0.6-1-1.2-1.4-1.9C173.8,29.4,174.2,29.1,174.4,28.8z"/>
	<path fill="#FFFFFF" d="M256.6,14.7c-0.3,0.5-0.3,0.7-0.4,0.7c-0.8,0.4-1.7,0.8-2.6,1.1c-0.1,0-0.4-0.3-0.6-0.5
		c0.7-0.4,1.4-0.8,2.1-1.2C255.3,14.8,255.7,14.8,256.6,14.7z"/>
	<path fill="#FFFFFF" d="M171.3,22.8c0.7,0.8,1.3,1.5,1.9,2.2c0,0.1-0.3,0.4-0.4,0.6c-0.6-0.6-1.3-1.2-1.9-1.9
		C170.8,23.6,171.1,23.2,171.3,22.8z"/>
	<path fill="#FFFFFF" d="M217.2,26.6c-0.1,0.1-0.1,0.3-0.2,0.4c-0.3,0.4-0.6,0.8-1,1.2c0-0.6-0.2-1.3-0.1-1.9
		c0.1-0.3,0.7-0.4,1.1-0.6C217.1,26.1,217.1,26.4,217.2,26.6z"/>
	<path fill="#FFFFFF" d="M244.7,21.5c-0.3,0.4-0.5,0.6-0.6,0.8c-0.4-0.6-0.9-1.3-1.3-1.9c0.2-0.1,0.6-0.3,0.7-0.2
		C243.9,20.6,244.3,21.1,244.7,21.5z"/>
	<path fill="#FFFFFF" d="M170.8,16.2c-0.2,0.5-0.4,0.9-0.6,1.3c-0.1-0.4-0.4-0.8-0.4-1.3c0-0.4,0.3-0.8,0.5-1.2
		C170.4,15.4,170.6,15.8,170.8,16.2z"/>
	<path fill="#FFFFFF" d="M173.7,20.7c0.4-0.3,0.8-0.8,1.4-1c0.4-0.1,0.9,0.3,1.3,0.4c-0.4,0.2-0.8,0.5-1.3,0.5
		C174.6,20.7,174.1,20.7,173.7,20.7C173.6,20.6,173.7,20.7,173.7,20.7z"/>
	<path fill="#FFFFFF" d="M269.7,22.9c-0.4,0.1-0.7,0.3-0.8,0.3c-0.4-0.3-0.6-0.7-0.9-1.1c0.3-0.1,0.7-0.3,0.9-0.2
		C269.1,22.1,269.4,22.5,269.7,22.9z"/>
	<path fill="#FFFFFF" d="M221.7,24.7c-0.3,0-0.7,0.1-1,0c-0.3-0.1-0.5-0.3-0.8-0.5c0.3-0.1,0.6-0.4,0.8-0.4
		C221.1,24,221.3,24.4,221.7,24.7L221.7,24.7z"/>
	<path fill="#FFFFFF" d="M221.7,24.7c0.3,0,0.6,0,0.9,0.1c0.3,0.1,0.5,0.3,0.7,0.5c-0.3,0.1-0.6,0.4-0.8,0.3
		C222.2,25.3,222,25,221.7,24.7L221.7,24.7z"/>
	<path fill="#FFFFFF" d="M165.7,24.7c0-0.3,0-0.7,0.1-0.9c0.1-0.3,0.3-0.5,0.5-0.8c0.1,0.3,0.4,0.6,0.3,0.8
		C166.3,24.1,166,24.4,165.7,24.7C165.6,24.6,165.7,24.7,165.7,24.7z"/>
	<path fill="#FFFFFF" d="M173.6,20.6c-0.1,0.2-0.3,0.5-0.4,0.7C173.4,21.1,173.5,20.9,173.6,20.6C173.7,20.7,173.6,20.6,173.6,20.6z
		"/>
	<path fill="#FFFFFF" d="M165.6,24.6c-0.1,0.2-0.2,0.5-0.3,0.7c-0.1-0.1-0.2-0.2-0.3-0.4C165.2,24.9,165.5,24.8,165.6,24.6
		C165.7,24.7,165.6,24.6,165.6,24.6z"/>
	<path fill="#FFFFFF" d="M77.6,19.5c-3.1,2-6.2,3.9-9.4,5.9c-0.3,0.2-0.9-0.1-1.3-0.2c0.1-0.5,0-1.1,0.3-1.3
		c1.8-1.4,3.5-2.9,5.5-3.9c1.3-0.7,3.1-0.7,4.6-1C77.4,19.1,77.5,19.3,77.6,19.5z"/>
	<path fill="#FFFFFF" d="M80.3,15.5c-3.8,0.6-6.6-1.1-9.3-3c-0.2-0.1-0.4-0.8-0.3-0.8c0.2-0.2,0.7-0.5,1-0.4
		C74.9,11.8,77.8,12.7,80.3,15.5z"/>
	<path fill="#FFFFFF" d="M94.1,18.8c-1.7,2.8-3.1,4.9-5.3,6.3c-0.4,0.3-1.1,0.1-1.7,0.1c0-0.4-0.1-0.9,0.1-1.3
		C88,20.7,90.5,19.6,94.1,18.8z"/>
	<path fill="#FFFFFF" d="M42.7,29.7c-0.2-1.8,1.2-2.6,2.3-3.5c0.3-0.2,0.9-0.1,1.3-0.1c0,0.4,0.2,1-0.1,1.3
		C45.3,28.5,44.5,29.9,42.7,29.7L42.7,29.7z"/>
	<path fill="#FFFFFF" d="M102.9,24.4c0.5,0.5,1.2,0.9,1.1,1.1c-0.3,0.7-0.8,1.3-1.2,2c-0.7-0.6-1.3-1.2-2-1.8
		C101.5,25.3,102.1,24.9,102.9,24.4z"/>
	<path fill="#FFFFFF" d="M57.4,12.3c0.4,0.6,0.8,1.1,0.7,1.3c-0.4,0.8-0.3,2.2-1.7,1.9c-0.5-0.1-0.9-0.9-1.4-1.3
		C55.7,13.6,56.5,13,57.4,12.3z"/>
	<path fill="#FFFFFF" d="M108.3,17.8c-0.6-1.2-1.2-2-1.4-2.8c-0.1-0.3,1-1.2,1.3-1c0.5,0.2,1.2,0.9,1.2,1.4
		C109.5,16.1,108.9,16.7,108.3,17.8z"/>
	<path fill="#FFFFFF" d="M60.3,17.9c-0.7-1.8-0.9-3,0.2-4c0.1-0.1,0.3,0,0.4,0C60.8,15,60.6,16.2,60.3,17.9z"/>
	<path fill="#FFFFFF" d="M104,22.4c-1,0-2,0-3,0c0-0.2,0-0.3,0-0.5c1.1-0.1,2.1-0.2,3.2-0.3C104.1,21.9,104.1,22.2,104,22.4z"/>
	<path fill="#FFFFFF" d="M53.5,17.1c0.8-0.1,1.3-0.3,1.6-0.1c0.5,0.3,0.8,0.9,1.2,1.3c-0.3,0.1-0.7,0.3-0.9,0.2
		C54.9,18.2,54.4,17.7,53.5,17.1z"/>
	<path fill="#FFFFFF" d="M111.6,17.6c-0.3,0.7-0.5,1.5-0.9,2.2c-0.1,0.2-0.5,0.2-0.7,0.3c0-0.3-0.2-0.8-0.1-0.9
		C110.5,18.7,111.1,18.2,111.6,17.6C111.7,17.7,111.6,17.6,111.6,17.6z"/>
	<path fill="#FFFFFF" d="M33.7,21.6c-0.5-0.5-1.1-0.9-1.6-1.4c0.2-0.1,0.4-0.3,0.6-0.4C33,20.5,33.3,21.1,33.7,21.6L33.7,21.6z"/>
	<path fill="#FFFFFF" d="M105.7,18.6c-0.4-0.2-0.9-0.3-1.1-0.6c-0.2-0.2-0.2-0.7-0.3-1.1c0.4,0.1,0.9,0.1,1.1,0.4
		C105.6,17.7,105.6,18.2,105.7,18.6C105.6,18.7,105.7,18.6,105.7,18.6z"/>
	<path fill="#FFFFFF" d="M101.7,11.7c0.2,0,0.4,0,0.5,0.1c0.4,0.5,0.8,1,1.2,1.4c-0.2,0.1-0.5,0.2-0.7,0.4
		C102.3,12.9,102,12.3,101.7,11.7L101.7,11.7z"/>
	<path fill="#FFFFFF" d="M22.7,26.7c-0.4,0.3-0.9,0.8-1.3,0.9c-0.4,0.1-0.8-0.2-1.3-0.4c0.4-0.2,0.8-0.4,1.2-0.5
		C21.7,26.6,22.2,26.7,22.7,26.7L22.7,26.7z"/>
	<path fill="#FFFFFF" d="M106.7,26.7c0-0.3-0.1-0.7,0-1c0.1-0.3,0.3-0.5,0.4-0.8c0.1,0.3,0.4,0.6,0.4,0.8
		C107.3,26.1,106.9,26.3,106.7,26.7L106.7,26.7z"/>
	<path fill="#FFFFFF" d="M8.7,19.8c0.2,0.2,0.4,0.3,0.6,0.5c-0.3,0.1-0.6,0.2-0.9,0.2c-0.1,0-0.2-0.2-0.4-0.3
		C8.3,20.1,8.5,19.9,8.7,19.8z"/>
	<path fill="#FFFFFF" d="M22.7,26.7c0.4-0.3,0.9-0.6,1.4-0.8c0,0,0.2,0.2,0.3,0.3C23.8,26.3,23.2,26.5,22.7,26.7L22.7,26.7z"/>
	<path fill="#FFFFFF" d="M106.6,26.6c0,0.3,0,0.6,0,0.9c-0.1,0.3-0.3,0.5-0.4,0.8c-0.1-0.3-0.4-0.6-0.3-0.8
		C106,27.2,106.4,27,106.6,26.6C106.7,26.7,106.6,26.6,106.6,26.6z"/>
	<polygon fill="#FFFFFF" points="110.5,24.1 110.1,24.3 110.1,23.9 	"/>
	<path fill="#FFFFFF" d="M105.6,18.7c0.3,0.2,0.5,0.3,0.8,0.5C106.2,19,105.9,18.8,105.6,18.7C105.7,18.6,105.6,18.7,105.6,18.7z"/>
	<path fill="#FFFFFF" d="M111.7,17.7c0.1-0.3,0.3-0.5,0.4-0.8C111.9,17.1,111.8,17.4,111.7,17.7L111.7,17.7z"/>
	<path fill="#FFFFFF" d="M33.6,21.7c0.2,0.2,0.5,0.3,0.7,0.5C34.2,22,33.9,21.8,33.6,21.7L33.6,21.7z"/>
	<path fill="#FFFFFF" d="M101.7,11.7c-0.2-0.1-0.5-0.3-0.7-0.4C101.2,11.4,101.4,11.5,101.7,11.7L101.7,11.7z"/>
	<path fill="#FFFFFF" d="M42.7,29.7c-0.2,0.2-0.3,0.5-0.5,0.7C42.4,30.2,42.5,29.9,42.7,29.7L42.7,29.7z"/>
	<path fill="#FFFFFF" d="M141.8,19.4c0.3-1.8,0.6-3.2,0.9-4.6c0.1-0.6,0.2-1.5,0.6-1.8c0.7-0.4,1.8-0.7,2.5-0.6
		c0.4,0.1,0.9,1.4,0.8,2C146,16.8,144.7,18.7,141.8,19.4z"/>
	<path fill="#FFFFFF" d="M133.9,31.7c-0.7-1.2-2.2-2.7-1.9-3.2c0.9-1.5,2.4-2.5,3.7-3.7c0,0,0.8,0.5,0.9,0.8
		C136.9,28,135.9,29.8,133.9,31.7z"/>
	<path fill="#FFFFFF" d="M132,12.7c2.3,1.8,4.5,3.3,4.9,6.6C132.6,16.9,132.2,16.3,132,12.7z"/>
	<path fill="#FFFFFF" d="M139.4,8.8c0.4,1.4,1.1,2.7,1.1,4.1c0,1.2,1.1,3-1,3.7c-0.2-1.1-0.4-2.3-0.5-3.4c-0.1-1.3-0.2-2.6-0.3-3.8
		C138.9,9.1,139.2,8.9,139.4,8.8z"/>
	<path fill="#FFFFFF" d="M147.5,29.2c-3.6-0.2-4.7-2-5.8-4.7C144.5,25.2,145.5,27.1,147.5,29.2z"/>
	<path fill="#FFFFFF" d="M145,22.2c0.1-0.1,0.3-0.3,0.4-0.3c0.9,0,1.9,0.1,2.8,0.2c0,0,0,0.3,0,0.3c-0.9,0-1.9,0.1-2.8,0.1
		C145.3,22.4,145.2,22.3,145,22.2z"/>
	<path fill="#FFFFFF" d="M130.6,23.6c-0.5,0.3-0.9,0.8-1.4,0.9c-0.4,0.1-0.8-0.3-1.3-0.4c0.4-0.2,0.8-0.4,1.3-0.5
		C129.7,23.6,130.2,23.7,130.6,23.6C130.7,23.7,130.6,23.6,130.6,23.6z"/>
	<path fill="#FFFFFF" d="M148.2,20c0,0.1,0,0.3,0,0.3c-0.3,0.1-0.6,0.1-0.9,0.2c0-0.2,0-0.4,0-0.6C147.6,19.9,147.9,20,148.2,20z"/>
	<path fill="#FFFFFF" d="M130.7,23.7c0.1-0.2,0.3-0.5,0.4-0.7C131,23.2,130.8,23.4,130.7,23.7C130.6,23.6,130.7,23.7,130.7,23.7z"/>
	<polygon fill="#FFFFFF" points="138.2,30.9 138.3,31.3 138,31.2 	"/>
</g>
</svg>
