<?xml version="1.0" encoding="utf-8"?>
<!-- Generator: Adobe Illustrator 18.1.1, SVG Export Plug-In . SVG Version: 6.00 Build 0)  -->
<svg version="1.1" id="Layer_1" xmlns="http://www.w3.org/2000/svg" xmlns:xlink="http://www.w3.org/1999/xlink" x="0px" y="0px"
	 viewBox="0 0 200 88" enable-background="new 0 0 200 88" xml:space="preserve">
<g>
	<path fill="#14100C" d="M25.4,29.1c-8.5,3.3-11.8,2.3-13.5-3.4c-1.9-6.6,1.9-13.1,8.6-14.4c3.1-0.6,6.3-0.8,9.4-0.6
		c3.7,0.2,7.2,1.1,9-3.5c0.5-1.3,1.8-1.3,3-0.7c2.2,1.2,1.6,3.3,1.2,5.4c6.3,0.9,10,4.5,11.6,10.3c1.6,5.9,3.1,11.7,1.8,18.1
		c-2,9.7-5.7,13.6-15.7,14.9c-1.6,0.2-3.3,0.3-5.5,0.5c0,7.5-0.2,14.7,0.1,22c0.2,4-1.5,4.9-5,4.5c-7.5-0.7-11.7-5-12.1-12.6
		c-0.5-7.8,1.3-15.2,3.9-22.4C24.3,41.6,24.1,35.6,25.4,29.1z M43.1,16.9c-5.4,12.3-8.2,23.7-7.2,36.1C43.5,50.4,48,29.5,43.1,16.9z
		 M26.4,13.3c-9.9,0.7-14,5.1-11.9,12.1c0.6,1.9,1.7,3.3,3.8,3.4c1.4,0.1,2.6-0.4,3.3-1.7c1-1.9,0.2-3.5-1-5c-0.8-1-3.2-0.8-2.2-3.3
		c3-0.5,4.7,1.9,6.9,3.6C26.4,19.2,26.6,16.5,26.4,13.3z M20.9,68.3c-0.2-3.3,2.2-6.3,0.9-10.1C21.4,61.8,20.1,64.9,20.9,68.3z"/>
	<path fill="#14100C" d="M188.5,44.9c-2.3,2.4-4.8,0.7-7,2.1c0,0.6-0.3,1.4-0.1,2.1c3.6,9.8-4.5,23.5-14.9,25c-3,0.4-4.7-1.5-6-3.5
		c-1.2-1.8-1.8-3.9-2.7-5.8c-6.9,2.2-10.2,0.7-11.9-6c-3.8,2-4.4,8.8-10.9,6.7c-5.2-1.7-6.9-5.1-6.6-10c-2.1-0.4-2.3,2.9-5.1,1.6
		c5.7-6.3,7.4-14.7,12.3-21.5c3-4.1,8.2-5.3,13.9-3c4.4,1.8,5.5,5.3,6.6,9.9c1.8,7.2-1.7,13.4-1.6,20.4c3.3-1,3.6-3.9,4.6-5.9
		c2.3-4.8,4.1-9.8,6-14.7c0.9-2.2,1.1-4-0.9-6.2c-3.8-4.2-1.4-11.2,4.1-12.6c2.9-0.7,4.7,0.2,4.2,3.5c-0.2,1.5-0.9,2.9-1.1,4.3
		c-0.4,2.3-3.4,5.1-1.3,6.8c3.3,2.7,6.3,6.4,11.3,6.2C183.6,44.2,185.9,43.7,188.5,44.9z M147.5,34.8c-5.7,7.4-8,15.5-7,25.6
		c5-5.8,6.2-12.1,7-17.9c2.5-1.1,4,0.7,6,0.5C153.5,38.7,151.7,36,147.5,34.8z M162.3,61.1c7.4-0.4,13-5.6,13.5-12.5
		C169.7,51.2,165.1,55.1,162.3,61.1z M174.9,45.6c-2.1-2.1-3.5-4.1-6.3-5.3c-1.6,4-3.2,7.9-4.8,11.8
		C167.5,49.8,170.9,47.7,174.9,45.6z M167.3,35.6c0.7-3.5,3.3-6.1,2.8-9.9C163.8,28.6,163.1,30.9,167.3,35.6z"/>
	<path fill="#14100C" d="M122.8,59.5c-0.6,3.7,1.1,7.6-1.7,10.7c-1.3,1.5-2.3,4-4.6,2.8c-2.3-1.2-1.5-3.9-0.6-5.8
		c0.8-1.8,2.1-3.4,3.2-5c-2.5-2.8-2.5-2.8-5.1,0.3c-3.7,4.5-7,5-10.3,1.7c-2.4-2.4-2-6.1,1.2-6.6c4.8-0.8,5.6-4.3,6.2-7.8
		c0.8-4.5,1.2-9.2-0.2-14.1c-2.1,0.8-2.4,2.6-3,4.2c-2.8,7.2-5.9,14.3-11.1,20.1c-1.1,1.3-1.1,2.5-1,4.1c0.2,4.3-1.3,7.7-5.7,9.5
		c-3.3-3.4-1.3-6.2,0.6-8.9c1.5-2,2.5-3.7-0.8-4.9c-2.1,0.7-2.5,2.9-3.9,4.3c-2.9,3-6.7,3-9.5-0.2c-2.3-2.6-1.8-5.8,1.6-6.6
		c4.1-1,5-3.6,5.7-7.1c0.9-4.7,1.1-9.4,0.2-14.8c-5,7.3-5.9,16.2-11.3,22.4c-0.4-0.2-0.8-0.5-1.3-0.7c3.1-7.2,6.2-14.5,9.5-21.7
		c2.3-5,5.3-6.4,10.6-5.1c4.7,1.2,5.2,4.9,4.9,9.1c-0.4,5.2-1.6,10.2-4,14.8c-0.7,1.4-2.1,2.8,0.1,4.3c2.5,1.8,3.1-0.6,4.2-1.8
		c5.9-6,7.4-14.2,11-21.4c2.5-4.9,5.6-6.6,10.4-5.2c4.8,1.4,5.8,5,5.3,9.4c-0.5,5-1.8,9.8-4,14.4C117.3,58.1,117.9,58.9,122.8,59.5z
		"/>
	<path fill="#14100C" d="M60.6,33.3c1.4,0,2.3,0,3.3,0c7,0.3,7.6,1.2,6.2,7.9c-1.4,6.5-2.5,13-3.7,19.3c1.5,2.1,2.8-1.2,4.3,0.5
		c-1.1,3.3-3.4,5.1-6.9,4.6c-3.6-0.5-6-2.8-6.3-6.7C56.7,50.4,58.7,42.1,60.6,33.3z"/>
	<path fill="#14100C" d="M72.4,25.8c0.1,3.6-1.5,5.6-4.3,5.3c-3-0.3-6.5-1.2-6.7-5.2c-0.1-3.4,2.2-5.7,5.5-5.8
		C70.8,19.9,71.9,23,72.4,25.8z"/>
	<path fill="#FCFCFC" d="M20.9,68.3c-0.8-3.4,0.5-6.5,0.9-10.1"/>
</g>
</svg>
