<?xml version="1.0" encoding="utf-8"?>
<!-- Generator: Adobe Illustrator 18.1.1, SVG Export Plug-In . SVG Version: 6.00 Build 0)  -->
<svg version="1.1" id="Layer_1" xmlns="http://www.w3.org/2000/svg" xmlns:xlink="http://www.w3.org/1999/xlink" x="0px" y="0px"
	 width="1000px" height="1000px" viewBox="0 0 1000 1000" enable-background="new 0 0 1000 1000" xml:space="preserve">
<g>
	<path fill="#088ABF" d="M769.2,563.1c-2.2,8.9-4.2,16.5,3.8,21.1c4.2,2.5,9,2.4,8-4.5c-4.5-31.2-13.4-60.8-28.6-88
		c-4.7,2-3.3,5.5-3.5,8.2c-0.8,14.5-1.5,29-2.1,43.6c-0.2,5.1-1.7,8.6-6.3,11.3c-19.1,11.1-22.2,36.1-5.9,52.5
		c5.8,5.8,7.6,11.5,6.8,19.5c-1.8,19.5-2.8,39.1-4.8,58.6c-2,20.4-17,30-34.7,21.9c-9.2-4.2-17.7-10.3-26.2-15.9
		c-18.8-12.4-37.8-24.3-60.2-27.9c-1.1-0.2-2.2-1-3.6-1.6c88.2-140.6,96.3-286.3,23.9-439.1c20.6,5,36.6,14,51.9,24.3
		C742,282.9,776.4,335.6,798,399c10.9,31.8,16.8,65.1,24.9,97.8c9.5,38.7,23.5,75.7,38.6,112c8.9,21.4,21.2,41.4,27.4,64.1
		c6.5,24.2,8.8,48.6-4.3,71.6c-7.5,13.2-19,21.2-32.7,23.5c-31.6,5.4-59.1-5.2-82.2-28.5c-11.9-12-12-22.5-0.5-34.8
		c16.9-18.2,17.3-41.1,17.2-64.2c0-7.4-1.2-14.8-1.2-22.3c0-8-2.5-10.2-10.2-9.3c-17.2,2-28.8-12.9-23.8-30
		C753.6,570.2,759.2,564.9,769.2,563.1z"/>
	<path fill="#088ABF" d="M102.2,471.3c56.1,15.1,105.3,1.8,153.1-30.4c-2,26-3.6,50.6-2.1,77c10.3-5.6,19.1-11.5,28.6-15.3
		c15.7-6.3,24.4-15.4,25.4-35.6c1.3-25,6.4-49.9,15.7-73.3c15.9-39.8,34.2-78.1,63.1-109.4c1.7-1.8,3.1-4.2,6.8-4.6
		c-34.1,148.4-6.5,279.1,97.2,389.6c-13-1.7-24.4-3.1-35.7-4.6c-32-4.2-63.9-4.5-95.9,0.1c-15.5,2.2-21.1-1.9-25.6-18.1
		c-5.1-18.3-4.9-37.4-8-56.1c-4.9-29.6-11.5-33.8-37.6-23.5c-27.6,10.9-30.4,15.3-29,46.9c0.5,11.8,1.9,23.6,4.8,35.1
		c1.6,6.1-0.1,9.2-5.5,11.7c-18.8,8.7-36.5,19.6-52.3,34c-34.1,31.3-52.7,71.2-58.4,118.8c-5,41.8,0.9,82.2,10.5,123.1
		c-4.4-5.6-9-11.1-13.2-16.9c-4.4-6.1-8.9-12.3-12.8-18.8c-35.5-59.5-47.7-123.7-31.6-192.9c9.9-42.3,30.6-78.2,58.6-109.5
		c12.2-13.7,25-26.8,39.1-38.2c5.1-4.1,7.6-8.5,7.1-15.3c-0.5-7.1-0.7-14.2-0.6-21.3c0.1-7.6-3.1-8.7-9.5-7.6
		c-22.3,3.9-44.5,5.8-65.1-7.6C116.9,500.6,107.9,489.4,102.2,471.3z"/>
	<path fill="#088ABF" d="M664.3,425.4c0.2,58.3-9.6,114.3-33.2,167.1c-8.8,19.7-20.8,36.9-36,51.4c-29.9,28.6-69.5,28.6-101.3,0.4
		c-21.9-19.4-38.4-43.5-52-69.9c-24.6-47.8-41.4-98.5-45.8-153.3c-3.5-43.5-1.4-86.4,11.1-128.4c6.1-20.5,16.4-37.1,35.1-46.6
		c11.6-5.9,23.4-11.4,35.9-15c9.3-2.7,12.3,0.7,9.6,10.9c-11.6,43.1-18.3,87-18.6,131.9c-0.4,52.9,6.1,104.5,27,153.1
		c5.3,12.3,13.5,22.5,23.3,31.5c16.1,14.7,39.7,8.2,49.9-8.9c13.6-22.7,17.6-48.2,19-74.3c1.6-29-1.8-57.6-6-86.3
		c-3.9-27.5-9-54.5-17.9-80.6c-8.9-26.1-20.7-50.5-37.2-72.1c-2.5-3.3-6.6-6.4-4.9-11.3c1.9-5.5,7.2-4.7,11.4-5.1
		c15.3-1.5,30.7-2.9,46-4.2c22.8-1.9,38.3,8.4,47.8,31.1C651.1,303.6,664.8,362.8,664.3,425.4z"/>
	<path fill="#088ABF" d="M702.5,745.2c-41.8,34.6-87.7,57.9-137.9,70.9c-82.8,21.5-164.9,22.7-244.8-13.1c0.1-1.1,0.1-2.1,0.2-3.2
		c10.3,1.1,20.6,2.7,30.9,3.2c58.9,2.7,117.5,2.2,174.9-15.2c13.1-4,25.4-9.5,36.4-18.5c12.4-10.1,15.8-25.7,7.9-40.4
		c-8-14.8-19.3-26.2-32.7-35.9C573.4,675.1,659.1,701.8,702.5,745.2z"/>
	<path fill="#088ABF" d="M696,226c-21.8-12.7-43.1-19.8-64.8-25.2c-4.8-1.2-6.4-5.1-7.9-9.2c-5.2-14.3-15.9-18.3-28.8-17.2
		c-14.5,1.2-28.2,6.8-42.3,10.1c-31.3,7.2-61.2,4.5-89.1-13.5c-0.8-0.5-1.4-1.3-2.1-1.9c0.5-2.7,2.3-2,3.7-1.7
		c30.2,5.8,59.4,0.5,88.4-8.3c23.3-7.1,46.4-14.7,70.6-17.6c11.1-1.4,21.9,0.1,32.8,2.3c21.5,4.2,33.1,18.8,38,40.9
		C697.3,197.6,696.6,210.5,696,226z"/>
</g>
</svg>
