<?xml version="1.0" encoding="utf-8"?>
<!-- Generator: Adobe Illustrator 18.1.1, SVG Export Plug-In . SVG Version: 6.00 Build 0)  -->
<svg version="1.1" id="Layer_1" xmlns="http://www.w3.org/2000/svg" xmlns:xlink="http://www.w3.org/1999/xlink" x="0px" y="0px"
	 width="1000px" height="1000px" viewBox="0 0 1000 1000" enable-background="new 0 0 1000 1000" xml:space="preserve">
<g>
	<path fill="#D1E4EE" d="M769.185,563.108c-2.229,8.86-4.182,16.489,3.776,21.098c4.241,2.456,9.015,2.373,8.024-4.547
		c-4.473-31.226-13.416-60.816-28.613-88.047c-4.678,2.004-3.303,5.548-3.454,8.244c-0.816,14.51-1.49,29.031-2.07,43.554
		c-0.204,5.097-1.665,8.563-6.297,11.257c-19.125,11.124-22.161,36.092-5.905,52.541c5.78,5.848,7.573,11.469,6.822,19.463
		c-1.831,19.502-2.826,39.097-4.775,58.583c-2.041,20.405-17.011,30.041-34.655,21.926c-9.182-4.223-17.675-10.284-26.238-15.937
		c-18.821-12.424-37.799-24.331-60.154-27.924c-1.128-0.181-2.172-0.969-3.575-1.624c88.161-140.596,96.336-286.319,23.904-439.126
		c20.579,4.976,36.557,14.015,51.912,24.25c54.126,36.081,88.483,88.828,110.116,152.189c10.871,31.839,16.806,65.136,24.852,97.796
		c9.538,38.715,23.539,75.711,38.626,111.969c8.904,21.399,21.219,41.377,27.355,64.133c6.517,24.167,8.835,48.595-4.34,71.598
		c-7.549,13.18-18.989,21.202-32.741,23.534c-31.592,5.358-59.083-5.193-82.156-28.539c-11.857-11.998-11.955-22.492-0.534-34.803
		c16.856-18.168,17.327-41.056,17.22-64.226c-0.034-7.425-1.201-14.848-1.154-22.267c0.05-8.026-2.541-10.228-10.238-9.314
		c-17.238,2.049-28.776-12.89-23.793-29.995C753.621,570.246,759.169,564.855,769.185,563.108z"/>
	<path fill="#D1E4EE" d="M102.233,471.299c56.053,15.074,105.33,1.801,153.076-30.411c-2.035,26.023-3.619,50.605-2.068,77.04
		c10.345-5.629,19.101-11.512,28.581-15.299c15.744-6.291,24.407-15.439,25.414-35.552c1.25-24.956,6.434-49.945,15.717-73.26
		c15.86-39.836,34.249-78.124,63.082-109.353c1.687-1.827,3.149-4.244,6.846-4.646c-34.092,148.357-6.535,279.057,97.172,389.635
		c-13.048-1.686-24.377-3.145-35.706-4.615c-31.986-4.153-63.936-4.507-95.947,0.09c-15.537,2.231-21.093-1.86-25.623-18.103
		c-5.09-18.25-4.898-37.443-7.956-56.079c-4.855-29.582-11.528-33.848-37.6-23.54c-27.566,10.899-30.385,15.313-28.962,46.868
		c0.533,11.826,1.889,23.611,4.783,35.054c1.553,6.139-0.134,9.167-5.511,11.664c-18.83,8.748-36.528,19.578-52.25,33.987
		c-34.141,31.291-52.739,71.198-58.434,118.766c-4.999,41.754,0.877,82.155,10.493,123.131c-4.41-5.618-8.976-11.105-13.187-16.89
		c-4.447-6.11-8.871-12.288-12.763-18.81c-35.526-59.522-47.731-123.693-31.615-192.854c9.852-42.279,30.609-78.238,58.609-109.484
		c12.232-13.65,24.98-26.753,39.071-38.151c5.075-4.105,7.561-8.522,7.119-15.273c-0.464-7.077-0.73-14.189-0.65-21.28
		c0.086-7.64-3.087-8.704-9.52-7.587c-22.266,3.868-44.512,5.757-65.069-7.642C116.88,500.589,107.889,489.439,102.233,471.299z"/>
	<path fill="#D1E4EE" d="M664.279,425.391c0.155,58.282-9.592,114.307-33.238,167.08c-8.811,19.664-20.761,36.862-36.028,51.43
		c-29.932,28.561-69.53,28.619-101.343,0.366c-21.895-19.445-38.39-43.458-51.975-69.864
		c-24.602-47.818-41.364-98.52-45.826-153.287c-3.54-43.45-1.426-86.447,11.116-128.365c6.121-20.457,16.369-37.148,35.105-46.591
		c11.648-5.87,23.436-11.385,35.856-15.022c9.327-2.731,12.348,0.703,9.615,10.866c-11.586,43.094-18.261,87.01-18.638,131.884
		c-0.444,52.899,6.073,104.538,26.956,153.076c5.303,12.326,13.509,22.525,23.278,31.455c16.095,14.713,39.685,8.232,49.924-8.86
		c13.589-22.684,17.597-48.198,19.019-74.313c1.58-28.996-1.844-57.557-5.951-86.294c-3.936-27.543-9.026-54.495-17.873-80.601
		c-8.852-26.12-20.732-50.497-37.178-72.143c-2.488-3.274-6.621-6.373-4.911-11.314c1.902-5.498,7.214-4.701,11.423-5.125
		c15.326-1.545,30.67-2.891,46.018-4.152c22.752-1.868,38.321,8.421,47.75,31.067C651.073,303.594,664.758,362.767,664.279,425.391z
		"/>
	<path fill="#D1E4EE" d="M702.454,745.225c-41.84,34.626-87.717,57.924-137.863,70.915
		c-82.815,21.454-164.873,22.688-244.808-13.076c0.059-1.071,0.117-2.143,0.176-3.214c10.309,1.1,20.596,2.733,30.93,3.213
		c58.859,2.729,117.508,2.189,174.857-15.215c13.059-3.963,25.401-9.538,36.362-18.468c12.426-10.124,15.816-25.74,7.892-40.372
		c-7.991-14.757-19.331-26.226-32.696-35.897C573.397,675.113,659.094,701.845,702.454,745.225z"/>
	<path fill="#D1E4EE" d="M696.031,225.988c-21.822-12.724-43.056-19.762-64.787-25.188c-4.752-1.186-6.398-5.136-7.877-9.197
		c-5.223-14.349-15.911-18.301-28.837-17.22c-14.487,1.212-28.152,6.815-42.271,10.063c-31.286,7.198-61.189,4.507-89.141-13.458
		c-0.785-0.505-1.43-1.262-2.123-1.885c0.503-2.679,2.327-1.956,3.683-1.695c30.166,5.822,59.447,0.507,88.384-8.324
		c23.267-7.101,46.412-14.658,70.571-17.607c11.067-1.351,21.925,0.13,32.782,2.251c21.469,4.194,33.056,18.778,37.992,40.856
		C697.314,197.592,696.573,210.541,696.031,225.988z"/>
</g>
<g>
</g>
<g>
</g>
<g>
</g>
<g>
</g>
<g>
</g>
<g>
</g>
</svg>
